<?xml version="1.0" encoding="UTF-8" standalone="no"?>
<!-- Created with Inkscape (http://www.inkscape.org/) -->

<svg
   xmlns:dc="http://purl.org/dc/elements/1.1/"
   xmlns:cc="http://creativecommons.org/ns#"
   xmlns:rdf="http://www.w3.org/1999/02/22-rdf-syntax-ns#"
   xmlns:svg="http://www.w3.org/2000/svg"
   xmlns="http://www.w3.org/2000/svg"
   xmlns:sodipodi="http://sodipodi.sourceforge.net/DTD/sodipodi-0.dtd"
   xmlns:inkscape="http://www.inkscape.org/namespaces/inkscape"
   version="1.1"
   id="svg4518"
   xml:space="preserve"
   width="877.33331"
   height="504"
   viewBox="0 0 877.33331 504"
   sodipodi:docname="Logotipo ENIDH_bilingue_pantone654CP.svg"
   inkscape:version="0.92.3 (2405546, 2018-03-11)"><metadata
     id="metadata4524"><rdf:RDF><cc:Work
         rdf:about=""><dc:format>image/svg+xml</dc:format><dc:type
           rdf:resource="http://purl.org/dc/dcmitype/StillImage" /><dc:title></dc:title></cc:Work></rdf:RDF></metadata><defs
     id="defs4522"><clipPath
       clipPathUnits="userSpaceOnUse"
       id="clipPath4538"><path
         d="M 0,378 H 658 V 0 H 0 Z"
         id="path4536"
         inkscape:connector-curvature="0" /></clipPath></defs><sodipodi:namedview
     pagecolor="#ffffff"
     bordercolor="#666666"
     borderopacity="1"
     objecttolerance="10"
     gridtolerance="10"
     guidetolerance="10"
     inkscape:pageopacity="0"
     inkscape:pageshadow="2"
     inkscape:window-width="1920"
     inkscape:window-height="1017"
     id="namedview4520"
     showgrid="false"
     inkscape:zoom="1.5674603"
     inkscape:cx="438.66666"
     inkscape:cy="252"
     inkscape:window-x="1072"
     inkscape:window-y="-8"
     inkscape:window-maximized="1"
     inkscape:current-layer="g4560" /><g
     id="g4526"
     inkscape:groupmode="layer"
     inkscape:label="Logotipo ENIDH_bilingue_pantone654CP"
     transform="matrix(1.3333333,0,0,-1.3333333,0,504)"><g
       id="g4528"
       transform="translate(103.8169,214.52)"><path
         d="m 0,0 -1.322,0.492 -2.157,-5.749 -4.094,1.541 1.757,4.643 -1.276,0.493 -1.744,-4.652 -3.984,1.494 2.165,5.745 -1.316,0.503 -2.783,-7.388 11.98,-4.506 z"
         style="fill:#004585;fill-opacity:1;fill-rule:nonzero;stroke:none"
         id="path4530"
         inkscape:connector-curvature="0" /></g><g
       clip-path="url(#clipPath4538)"
       id="g4534"><g
         transform="translate(95.481,222.0151)"
         id="g4540"><path
           inkscape:connector-curvature="0"
           id="path4542"
           style="fill:#004585;fill-opacity:1;fill-rule:nonzero;stroke:none"
           d="M 0,0 C 0.29,-0.345 0.645,-0.628 1.045,-0.832 1.543,-1.087 2.01,-1.23 2.428,-1.25 c 0.424,-0.023 0.815,0.036 1.171,0.17 0.358,0.142 0.695,0.338 1.003,0.582 0.31,0.258 0.61,0.525 0.893,0.812 C 5.78,0.597 6.054,0.879 6.332,1.147 6.606,1.429 6.874,1.654 7.148,1.83 7.432,2.007 7.717,2.116 8.021,2.159 8.315,2.198 8.645,2.139 8.978,1.956 9.298,1.798 9.557,1.601 9.754,1.363 9.951,1.125 10.099,0.866 10.176,0.567 10.256,0.276 10.273,-0.04 10.225,-0.38 10.185,-0.718 10.059,-1.07 9.877,-1.43 9.65,-1.877 9.397,-2.21 9.121,-2.454 8.846,-2.699 8.581,-2.893 8.322,-3.032 8.075,-3.17 7.848,-3.279 7.657,-3.363 7.467,-3.451 7.348,-3.546 7.285,-3.653 7.248,-3.726 7.232,-3.806 7.243,-3.889 7.248,-3.966 7.267,-4.05 7.306,-4.118 l 0.503,-0.819 c 0.673,0.195 1.305,0.532 1.88,0.999 0.577,0.46 1.06,1.068 1.438,1.798 0.308,0.605 0.501,1.192 0.552,1.76 0.062,0.572 0.01,1.101 -0.144,1.591 C 11.381,1.705 11.127,2.146 10.776,2.539 10.428,2.938 10.001,3.267 9.516,3.516 9.041,3.758 8.599,3.885 8.191,3.897 7.791,3.907 7.417,3.84 7.065,3.698 6.704,3.556 6.373,3.356 6.061,3.108 5.745,2.859 5.444,2.596 5.147,2.31 4.863,2.028 4.574,1.75 4.294,1.482 4.022,1.211 3.746,0.993 3.462,0.811 3.19,0.626 2.896,0.517 2.612,0.468 2.318,0.416 2.01,0.472 1.698,0.632 1.451,0.763 1.238,0.93 1.071,1.125 0.907,1.333 0.787,1.56 0.713,1.818 0.657,2.081 0.645,2.359 0.682,2.679 0.722,2.99 0.841,3.315 1.017,3.66 1.206,4.027 1.407,4.308 1.627,4.523 1.859,4.74 2.063,4.906 2.268,5.031 2.475,5.162 2.65,5.258 2.799,5.329 2.95,5.397 3.047,5.481 3.1,5.573 3.141,5.656 3.152,5.736 3.141,5.807 3.127,5.883 3.1,5.963 3.038,6.049 L 2.5,6.806 C 1.922,6.608 1.393,6.3 0.92,5.875 0.449,5.457 0.053,4.929 -0.282,4.294 -0.566,3.729 -0.74,3.184 -0.79,2.655 -0.835,2.132 -0.793,1.646 -0.65,1.195 -0.52,0.745 -0.298,0.352 0,0" /></g><g
         transform="translate(102.1772,230.9634)"
         id="g4544"><path
           inkscape:connector-curvature="0"
           id="path4546"
           style="fill:#004585;fill-opacity:1;fill-rule:nonzero;stroke:none"
           d="m 0,0 c 0.485,-0.714 1.125,-1.344 1.917,-1.889 0.794,-0.544 1.613,-0.925 2.44,-1.145 0.822,-0.207 1.628,-0.261 2.395,-0.148 0.776,0.117 1.511,0.392 2.192,0.826 0.69,0.434 1.292,1.035 1.815,1.8 0.597,0.868 0.961,1.709 1.112,2.51 0.143,0.814 0.108,1.606 -0.094,2.38 L 10.785,4.199 C 10.673,4.17 10.593,4.116 10.541,4.047 10.485,3.967 10.475,3.856 10.485,3.725 10.521,3.421 10.541,3.138 10.539,2.871 10.528,2.608 10.488,2.343 10.423,2.077 10.354,1.809 10.252,1.531 10.117,1.257 9.977,0.986 9.801,0.692 9.593,0.374 9.238,-0.137 8.819,-0.556 8.323,-0.874 7.824,-1.191 7.293,-1.395 6.712,-1.475 6.128,-1.561 5.518,-1.515 4.875,-1.352 4.234,-1.191 3.577,-0.88 2.916,-0.427 2.281,0.005 1.772,0.5 1.384,1.043 1.001,1.586 0.743,2.149 0.613,2.734 c -0.114,0.588 -0.114,1.174 0,1.777 0.135,0.607 0.392,1.185 0.78,1.75 0.218,0.316 0.431,0.577 0.642,0.785 0.207,0.205 0.416,0.379 0.609,0.515 0.192,0.132 0.376,0.235 0.542,0.32 0.169,0.077 0.32,0.143 0.458,0.196 C 3.781,8.128 3.894,8.172 3.991,8.21 4.083,8.249 4.156,8.299 4.204,8.366 4.255,8.45 4.29,8.524 4.29,8.588 4.29,8.653 4.267,8.717 4.246,8.787 L 3.907,9.698 C 3.193,9.552 2.528,9.273 1.903,8.877 1.273,8.486 0.692,7.896 0.16,7.123 -0.372,6.335 -0.736,5.526 -0.921,4.695 -1.11,3.861 -1.122,3.052 -0.969,2.254 -0.809,1.462 -0.488,0.713 0,0" /></g><g
         transform="translate(111.6196,246.7354)"
         id="g4548"><path
           inkscape:connector-curvature="0"
           id="path4550"
           style="fill:#004585;fill-opacity:1;fill-rule:nonzero;stroke:none"
           d="M 0,0 C 0.21,0.572 0.556,1.103 1.032,1.6 1.504,2.105 2.009,2.479 2.565,2.721 3.115,2.975 3.686,3.093 4.27,3.082 4.849,3.073 5.443,2.93 6.054,2.657 6.649,2.383 7.235,1.98 7.802,1.436 8.378,0.901 8.813,0.337 9.126,-0.253 9.432,-0.824 9.603,-1.413 9.646,-1.995 9.691,-2.577 9.606,-3.154 9.389,-3.708 9.173,-4.278 8.824,-4.809 8.348,-5.317 7.885,-5.809 7.375,-6.189 6.822,-6.436 6.26,-6.685 5.7,-6.8 5.113,-6.792 c -0.583,0 -1.176,0.14 -1.777,0.416 -0.6,0.27 -1.183,0.679 -1.752,1.217 -0.576,0.54 -1.013,1.097 -1.323,1.682 -0.306,0.587 -0.477,1.165 -0.524,1.756 C -0.3,-1.139 -0.216,-0.564 0,0 m 0.367,-6.448 c 0.695,-0.66 1.445,-1.152 2.234,-1.479 0.784,-0.328 1.587,-0.487 2.382,-0.482 0.8,0.005 1.582,0.178 2.343,0.522 0.772,0.343 1.472,0.864 2.111,1.546 0.649,0.681 1.121,1.408 1.425,2.196 0.302,0.786 0.426,1.573 0.385,2.376 -0.03,0.806 -0.234,1.583 -0.609,2.354 C 10.261,1.357 9.724,2.067 9.028,2.735 8.329,3.39 7.587,3.878 6.794,4.209 6.011,4.537 5.21,4.698 4.41,4.698 3.608,4.691 2.818,4.519 2.05,4.165 1.29,3.827 0.582,3.313 -0.067,2.633 -0.708,1.943 -1.18,1.206 -1.482,0.425 c -0.294,-0.785 -0.423,-1.57 -0.379,-2.372 0.038,-0.801 0.243,-1.594 0.623,-2.358 0.374,-0.771 0.904,-1.481 1.605,-2.143" /></g><g
         transform="translate(133.2026,251.3813)"
         id="g4552"><path
           inkscape:connector-curvature="0"
           id="path4554"
           style="fill:#004585;fill-opacity:1;fill-rule:nonzero;stroke:none"
           d="m 0,0 -0.912,1.132 -4.317,-3.47 -7.099,8.848 -1.349,-1.077 8.01,-9.981 z" /></g><g
         transform="translate(133.4009,264.0049)"
         id="g4556"><path
           inkscape:connector-curvature="0"
           id="path4558"
           style="fill:#004585;fill-opacity:1;fill-rule:nonzero;stroke:none"
           d="M 0,0 C -0.054,0.207 -0.122,0.432 -0.196,0.676 0.165,0.33 0.483,0.053 0.764,-0.151 L 5.2,-3.535 1.129,-6.033 0.128,-0.559 C 0.093,-0.399 0.048,-0.208 0,0 m 1.673,-11.27 c 0.131,0.077 0.212,0.175 0.263,0.297 0.035,0.125 0.05,0.247 0.031,0.358 l -0.594,3.255 4.891,3.006 2.637,-2.009 c 0.1,-0.074 0.211,-0.124 0.337,-0.142 0.124,-0.01 0.239,0.018 0.377,0.102 l 1.14,0.696 -11.05,8.233 -1.494,-0.917 2.329,-13.586 z" /></g><g
         transform="translate(155.2275,263.0684)"
         id="g4560"><path
           inkscape:connector-curvature="0"
           id="path4562"
           style="fill:#004585;fill-opacity:1;fill-rule:nonzero;stroke:none"
           d="M 0,0 -2.776,8.686 C -2.814,8.789 -2.854,8.924 -2.908,9.058 -2.952,9.191 -3.009,9.32 -3.064,9.466 L 6.921,2.543 C 7.047,2.461 7.153,2.411 7.25,2.398 7.36,2.377 7.478,2.389 7.607,2.427 L 8.436,2.701 4.538,14.889 3.092,14.428 5.858,5.789 C 5.898,5.662 5.944,5.526 5.994,5.389 6.041,5.257 6.104,5.112 6.167,4.972 l -10,6.928 c -0.13,0.084 -0.233,0.135 -0.315,0.148 -0.086,0.008 -0.197,0 -0.347,-0.052 l -0.852,-0.271 3.905,-12.189 z" /></g><g
         transform="translate(169.6602,277.0356)"
         id="g4564"><path
           inkscape:connector-curvature="0"
           id="path4566"
           style="fill:#004585;fill-opacity:1;fill-rule:nonzero;stroke:none"
           d="M 0,0 C 0.037,0.165 0.063,0.347 0.092,0.564 0.127,0.777 0.151,1.01 0.185,1.26 0.376,0.797 0.565,0.425 0.741,0.131 l 2.817,-4.823 -4.709,-0.759 z m -2.291,-10.313 c 0.096,0.092 0.146,0.197 0.174,0.314 l 0.679,3.238 5.67,0.914 1.676,-2.861 c 0.069,-0.107 0.15,-0.195 0.266,-0.256 0.098,-0.06 0.233,-0.079 0.382,-0.056 L 7.879,-8.803 0.79,3.013 -0.95,2.744 l -3.009,-13.452 1.327,0.203 c 0.141,0.019 0.261,0.084 0.341,0.192" /></g><g
         transform="translate(179.3262,271.2646)"
         id="g4568"><path
           inkscape:connector-curvature="0"
           id="path4570"
           style="fill:#004585;fill-opacity:1;fill-rule:nonzero;stroke:none"
           d="m 0,0 c 0.246,-0.624 0.59,-1.168 1.045,-1.622 0.449,-0.447 0.992,-0.798 1.624,-1.052 0.632,-0.249 1.343,-0.365 2.135,-0.352 0.784,0.016 1.49,0.156 2.114,0.434 0.63,0.267 1.156,0.641 1.581,1.108 0.433,0.472 0.757,1.026 0.982,1.662 0.224,0.638 0.326,1.317 0.313,2.053 L 9.652,10.011 7.929,9.981 8.07,2.206 C 8.088,1.671 8.009,1.18 7.872,0.728 7.727,0.279 7.512,-0.111 7.235,-0.437 6.951,-0.761 6.599,-1.019 6.185,-1.217 5.78,-1.393 5.298,-1.488 4.779,-1.498 4.242,-1.513 3.768,-1.43 3.344,-1.255 2.927,-1.085 2.562,-0.831 2.272,-0.516 1.976,-0.203 1.744,0.178 1.584,0.623 1.424,1.063 1.333,1.556 1.33,2.093 L 1.189,9.858 -0.54,9.82 -0.391,2.051 C -0.378,1.306 -0.249,0.628 0,0" /></g><g
         transform="translate(195.4976,267.8833)"
         id="g4572"><path
           inkscape:connector-curvature="0"
           id="path4574"
           style="fill:#004585;fill-opacity:1;fill-rule:nonzero;stroke:none"
           d="m 0,0 1.718,-0.203 1.327,11.258 4.106,-0.476 0.17,1.443 -9.952,1.171 -0.161,-1.435 4.115,-0.492 z" /></g><g
         transform="translate(208.3843,278.6885)"
         id="g4576"><path
           inkscape:connector-curvature="0"
           id="path4578"
           style="fill:#004585;fill-opacity:1;fill-rule:nonzero;stroke:none"
           d="m 0,0 -1.687,0.369 -2.711,-12.51 1.691,-0.364 z" /></g><g
         transform="translate(212.395,264.7441)"
         id="g4580"><path
           inkscape:connector-curvature="0"
           id="path4582"
           style="fill:#004585;fill-opacity:1;fill-rule:nonzero;stroke:none"
           d="m 0,0 c 0.609,-0.54 1.354,-0.956 2.234,-1.242 1.001,-0.332 1.914,-0.454 2.728,-0.363 0.809,0.085 1.566,0.332 2.248,0.743 L 6.802,0.057 C 6.754,0.152 6.683,0.217 6.596,0.251 6.503,0.28 6.395,0.267 6.271,0.217 5.999,0.091 5.723,0 5.473,-0.063 5.204,-0.136 4.945,-0.179 4.668,-0.179 4.396,-0.189 4.107,-0.172 3.8,-0.121 3.501,-0.063 3.165,0.021 2.805,0.139 2.212,0.34 1.69,0.623 1.245,1.01 0.807,1.393 0.47,1.857 0.222,2.391 -0.016,2.92 -0.146,3.524 -0.172,4.187 -0.19,4.85 -0.073,5.563 0.176,6.324 0.424,7.061 0.75,7.687 1.159,8.205 1.57,8.727 2.052,9.132 2.577,9.41 3.098,9.702 3.667,9.858 4.287,9.909 4.895,9.946 5.526,9.866 6.183,9.653 6.539,9.531 6.843,9.4 7.102,9.253 7.368,9.113 7.587,8.967 7.77,8.813 7.952,8.665 8.112,8.521 8.229,8.38 8.354,8.24 8.456,8.109 8.549,7.991 8.633,7.876 8.698,7.779 8.77,7.7 8.84,7.616 8.906,7.564 8.976,7.539 9.073,7.511 9.158,7.502 9.216,7.521 9.277,7.539 9.334,7.568 9.398,7.616 L 10.182,8.2 C 9.835,8.836 9.38,9.402 8.833,9.891 8.272,10.381 7.555,10.779 6.656,11.068 5.749,11.373 4.874,11.493 4.032,11.438 3.177,11.384 2.389,11.175 1.676,10.801 0.955,10.43 0.329,9.913 -0.22,9.253 -0.77,8.588 -1.196,7.795 -1.503,6.878 -1.801,5.959 -1.941,5.081 -1.921,4.224 -1.896,3.373 -1.725,2.582 -1.393,1.871 -1.082,1.165 -0.604,0.534 0,0" /></g><g
         transform="translate(229.7295,268.1367)"
         id="g4584"><path
           inkscape:connector-curvature="0"
           id="path4586"
           style="fill:#004585;fill-opacity:1;fill-rule:nonzero;stroke:none"
           d="M 0,0 C 0.125,0.111 0.251,0.242 0.4,0.402 0.551,0.556 0.71,0.728 0.873,0.914 0.778,0.433 0.71,0.009 0.684,-0.332 L 0.16,-5.887 -4.121,-3.76 Z M -8.262,-6.999 C -8.13,-7.071 -8,-7.083 -7.874,-7.06 c 0.128,0.034 0.236,0.085 0.32,0.168 l 2.447,2.226 5.139,-2.554 -0.301,-3.301 c -0.006,-0.125 0.014,-0.251 0.056,-0.363 0.053,-0.105 0.149,-0.196 0.286,-0.268 L 1.275,-11.754 2.4,1.985 0.82,2.774 -9.464,-6.406 Z" /></g><g
         transform="translate(249.8047,116.4189)"
         id="g4588"><path
           inkscape:connector-curvature="0"
           id="path4590"
           style="fill:#004585;fill-opacity:1;fill-rule:nonzero;stroke:none"
           d="m 0,0 6.208,-6.611 c 0.089,-0.102 0.19,-0.201 0.29,-0.31 0.107,-0.099 0.219,-0.196 0.346,-0.298 l -12.011,1.956 c -0.15,0.018 -0.27,0.018 -0.351,0 -0.08,-0.023 -0.173,-0.09 -0.285,-0.199 l -0.656,-0.601 8.758,-9.332 1.11,1.033 -6.24,6.65 c -0.078,0.089 -0.17,0.183 -0.28,0.279 -0.097,0.103 -0.207,0.203 -0.317,0.304 L 8.567,-9.09 c 0.136,-0.017 0.262,-0.014 0.363,0.01 0.098,0.03 0.196,0.094 0.299,0.185 l 0.638,0.596 -8.764,9.332 z" /></g><g
         transform="translate(260.9351,120.1025)"
         id="g4592"><path
           inkscape:connector-curvature="0"
           id="path4594"
           style="fill:#004585;fill-opacity:1;fill-rule:nonzero;stroke:none"
           d="m 0,0 c -0.142,-0.378 -0.375,-0.767 -0.693,-1.162 l -1.125,-1.415 -3.781,3.015 1.186,1.478 c 0.615,0.777 1.238,1.245 1.854,1.396 C -1.945,3.464 -1.343,3.3 -0.746,2.825 -0.45,2.592 -0.221,2.327 -0.06,2.033 0.104,1.735 0.182,1.415 0.202,1.072 0.211,0.737 0.15,0.376 0,0 M 1.075,-0.507 C 1.301,-0.046 1.446,0.406 1.516,0.848 1.586,1.284 1.586,1.705 1.509,2.122 1.436,2.527 1.292,2.906 1.066,3.263 0.853,3.614 0.567,3.94 0.211,4.225 -0.211,4.565 -0.653,4.794 -1.106,4.923 -1.564,5.055 -2.034,5.063 -2.511,4.957 -3.001,4.845 -3.484,4.615 -3.983,4.256 -4.48,3.904 -4.974,3.403 -5.483,2.772 l -2.249,-2.824 9.99,-7.987 1.076,1.344 -4.171,3.334 0.818,1.027 c 0.144,0.181 0.285,0.306 0.407,0.364 0.127,0.049 0.268,0.073 0.445,0.06 l 5.653,-0.255 c 0.281,-0.041 0.519,0.07 0.714,0.312 l 0.963,1.208 -6.305,0.248 C 1.574,-0.378 1.305,-0.415 1.075,-0.507" /></g><g
         transform="translate(260.4229,129.6621)"
         id="g4596"><path
           inkscape:connector-curvature="0"
           id="path4598"
           style="fill:#004585;fill-opacity:1;fill-rule:nonzero;stroke:none"
           d="M 0,0 10.747,-6.94 11.684,-5.495 0.937,1.459 Z" /></g><g
         transform="translate(276.1562,134.1494)"
         id="g4600"><path
           inkscape:connector-curvature="0"
           id="path4602"
           style="fill:#004585;fill-opacity:1;fill-rule:nonzero;stroke:none"
           d="m 0,0 c -0.298,-0.618 -0.68,-1.117 -1.132,-1.516 -0.458,-0.395 -0.965,-0.68 -1.531,-0.844 -0.561,-0.162 -1.17,-0.201 -1.82,-0.112 -0.653,0.079 -1.329,0.299 -2.033,0.646 -0.707,0.353 -1.29,0.76 -1.757,1.229 -0.463,0.471 -0.801,0.98 -1.011,1.527 -0.207,0.55 -0.293,1.122 -0.248,1.729 0.041,0.608 0.204,1.213 0.515,1.826 0.309,0.619 0.686,1.128 1.149,1.527 0.455,0.393 0.962,0.667 1.526,0.836 0.565,0.155 1.166,0.19 1.822,0.11 C -3.868,6.871 -3.187,6.651 -2.48,6.301 -1.776,5.947 -1.201,5.538 -0.73,5.077 -0.267,4.604 0.068,4.102 0.279,3.551 0.488,3.008 0.581,2.435 0.533,1.831 0.483,1.228 0.308,0.621 0,0 M 1.643,4.49 C 1.451,4.961 1.199,5.397 0.88,5.818 0.569,6.232 0.194,6.614 -0.231,6.969 -0.669,7.313 -1.146,7.626 -1.691,7.895 -2.546,8.316 -3.405,8.568 -4.257,8.658 -5.114,8.746 -5.919,8.665 -6.683,8.433 -7.45,8.19 -8.153,7.796 -8.785,7.246 -9.416,6.694 -9.948,5.995 -10.36,5.148 -10.78,4.31 -11.02,3.47 -11.072,2.632 c -0.057,-0.839 0.051,-1.626 0.323,-2.382 0.273,-0.752 0.705,-1.451 1.283,-2.076 0.579,-0.628 1.309,-1.157 2.159,-1.578 0.855,-0.431 1.712,-0.689 2.573,-0.772 0.846,-0.081 1.658,-0.01 2.421,0.235 0.763,0.238 1.458,0.635 2.085,1.186 0.629,0.545 1.157,1.251 1.575,2.084 0.175,0.359 0.318,0.718 0.429,1.071 0.113,0.354 0.193,0.705 0.245,1.059 L 5.218,2.388 C 5.416,2.44 5.569,2.533 5.695,2.659 5.829,2.779 5.934,2.938 6.034,3.131 L 6.668,4.405 2.033,3.047 C 1.966,3.535 1.839,4.02 1.643,4.49" /></g><g
         transform="translate(281.9048,153.4492)"
         id="g4604"><path
           inkscape:connector-curvature="0"
           id="path4606"
           style="fill:#004585;fill-opacity:1;fill-rule:nonzero;stroke:none"
           d="m 0,0 c -0.531,0.417 -1.145,0.736 -1.847,0.971 l -7.41,2.379 -0.519,-1.645 7.402,-2.381 c 0.513,-0.165 0.949,-0.388 1.333,-0.669 0.378,-0.278 0.676,-0.607 0.888,-0.982 0.221,-0.369 0.352,-0.782 0.4,-1.232 C 0.285,-4.012 0.222,-4.491 0.063,-4.998 -0.1,-5.494 -0.324,-5.924 -0.636,-6.267 -0.938,-6.608 -1.277,-6.876 -1.684,-7.05 c -0.384,-0.176 -0.825,-0.269 -1.293,-0.271 -0.472,-0.007 -0.959,0.07 -1.474,0.234 l -7.394,2.376 -0.526,-1.644 7.408,-2.38 c 0.694,-0.221 1.385,-0.316 2.059,-0.291 0.67,0.027 1.301,0.188 1.876,0.463 0.57,0.283 1.076,0.679 1.525,1.198 0.433,0.517 0.769,1.152 1.02,1.902 0.243,0.748 0.332,1.461 0.273,2.141 C 1.739,-2.638 1.559,-2.016 1.25,-1.455 0.94,-0.899 0.527,-0.422 0,0" /></g><g
         transform="translate(281.4351,165.3086)"
         id="g4608"><path
           inkscape:connector-curvature="0"
           id="path4610"
           style="fill:#004585;fill-opacity:1;fill-rule:nonzero;stroke:none"
           d="m 0,0 -1.328,0.24 -0.89,-4.892 -4.178,0.75 1.087,6.046 -1.392,0.249 -1.39,-7.76 L 4.501,-7.639 5.89,0.13 4.515,0.374 3.417,-5.674 -0.877,-4.898 Z" /></g><g
         transform="translate(140.6455,308.7041)"
         id="g4612"><path
           inkscape:connector-curvature="0"
           id="path4614"
           style="fill:#004585;fill-opacity:1;fill-rule:nonzero;stroke:none"
           d="M 0,0 -9.208,4.535 -3.672,-8.862 Z" /></g><g
         transform="translate(137.3535,330.4722)"
         id="g4616"><path
           inkscape:connector-curvature="0"
           id="path4618"
           style="fill:#004585;fill-opacity:1;fill-rule:nonzero;stroke:none"
           d="m 0,0 -6.314,6.774 -17.221,18.427 1.07,-34.209 15.82,-6.542 h 0.026 l 0.305,0.696 z" /></g><g
         transform="translate(130.856,314.6021)"
         id="g4620"><path
           inkscape:connector-curvature="0"
           id="path4622"
           style="fill:#004585;fill-opacity:1;fill-rule:nonzero;stroke:none"
           d="M 0,0 H 0.041 L 0.183,-0.373 0.367,-0.796 H 0.322 L 0.183,-0.47 0,-0.055 Z m -0.228,0 -13.511,1.8 -2.419,-11.362 -10.759,1.436 20.05,-9.047 4.036,13.131 2.872,2.975 0.142,-0.094 0.367,-0.193 0.032,-0.01 -0.032,0.059 0.192,0.509 4.129,-0.089 12.162,-6.41 7.745,20.567 L 18.189,4.635 8.488,10.993 0.183,0.185 -0.1,0.32 H -0.122 L -0.147,0.271 Z" /></g><g
         transform="translate(131.0391,312.0884)"
         id="g4624"><path
           inkscape:connector-curvature="0"
           id="path4626"
           style="fill:#004585;fill-opacity:1;fill-rule:nonzero;stroke:none"
           d="M 0,0 -2.921,-8.579 0,-9.791 5.934,-12.246 0.367,1.159 Z" /></g><g
         transform="translate(284.1514,138.4668)"
         id="g4628"><path
           inkscape:connector-curvature="0"
           id="path4630"
           style="fill:#004585;fill-opacity:1;fill-rule:nonzero;stroke:none"
           d="m 0,0 c -10.884,-26.271 -31.356,-46.722 -57.62,-57.587 -13.009,-5.393 -26.69,-8.134 -40.645,-8.134 -43.213,0 -81.816,25.805 -98.374,65.744 -22.426,54.18 3.42,116.537 57.609,139.015 12.992,5.376 26.66,8.11 40.611,8.11 43.26,0 81.889,-25.822 98.411,-65.769 C 10.866,55.151 10.866,26.241 0,0 M 68.597,109.575 0.79,84.131 c -8.44,19.284 -22.114,35.511 -39.694,47.036 -17.77,11.647 -38.349,17.808 -59.515,17.808 -13.153,0 -26.044,-2.416 -38.367,-7.116 4.076,2.892 5.777,8.311 3.82,13.107 -2.326,5.576 -8.733,8.214 -14.304,5.936 -5.613,-2.314 -8.256,-8.723 -5.938,-14.292 1.982,-4.788 6.938,-7.404 11.802,-6.635 -53.299,-23.156 -78.826,-84.566 -57.7,-138.63 l -65.3,-29.61 67.084,25.281 c 8.454,-19.163 22.089,-35.299 39.577,-46.763 17.758,-11.642 38.327,-17.8 59.48,-17.8 13.73,0 27.179,2.623 40.009,7.746 l 29.669,-65.566 -25.3,67.423 c 25.253,11.348 44.931,31.546 55.571,57.238 10.735,25.909 11.02,54.365 0.927,80.399 z" /></g><g
         transform="translate(270.415,219.5459)"
         id="g4632"><path
           inkscape:connector-curvature="0"
           id="path4634"
           style="fill:#004585;fill-opacity:1;fill-rule:nonzero;stroke:none"
           d="m 0,0 c 0.464,-1.019 1.668,-1.533 2.738,-1.063 1.068,0.411 1.575,1.621 1.156,2.686 V 1.675 L 2.092,5.99 -1.812,4.416 0,0.044 Z" /></g><g
         transform="translate(273.5273,212.0791)"
         id="g4636"><path
           inkscape:connector-curvature="0"
           id="path4638"
           style="fill:#004585;fill-opacity:1;fill-rule:nonzero;stroke:none"
           d="m 0,0 0.04,-0.053 c 0.466,-1.019 1.627,-1.53 2.7,-1.066 1.062,0.416 1.57,1.622 1.152,2.645 V 1.618 L 2.081,5.934 -1.818,4.359 Z" /></g><g
         transform="translate(279.6064,202.8906)"
         id="g4640"><path
           inkscape:connector-curvature="0"
           id="path4642"
           style="fill:#004585;fill-opacity:1;fill-rule:nonzero;stroke:none"
           d="m 0,0 c 1.062,0.41 1.573,1.618 1.158,2.685 v 0.049 l -1.807,4.36 -3.903,-1.621 1.81,-4.315 V 1.057 C -2.229,0.041 -1.066,-0.425 0,0" /></g><g
         transform="translate(267.8604,209.6602)"
         id="g4644"><path
           inkscape:connector-curvature="0"
           id="path4646"
           style="fill:#004585;fill-opacity:1;fill-rule:nonzero;stroke:none"
           d="m 0,0 c 0.468,-1.021 1.673,-1.532 2.697,-1.065 1.064,0.415 1.575,1.628 1.157,2.646 v 0.09 L 2.047,5.988 -1.857,4.406 -0.048,0.039 Z" /></g><g
         transform="translate(279.2339,214.3887)"
         id="g4648"><path
           inkscape:connector-curvature="0"
           id="path4650"
           style="fill:#004585;fill-opacity:1;fill-rule:nonzero;stroke:none"
           d="M 0,0 C 0.508,-1.063 1.673,-1.526 2.739,-1.063 3.8,-0.64 4.315,0.522 3.895,1.584 V 1.675 L 2.088,5.988 -1.814,4.372 0,0.056 Z" /></g><g
         transform="translate(96.4604,145.3359)"
         id="g4652"><path
           inkscape:connector-curvature="0"
           id="path4654"
           style="fill:#004585;fill-opacity:1;fill-rule:nonzero;stroke:none"
           d="M 0,0 C 1.022,0.465 1.526,1.623 1.161,2.692 L 1.116,2.737 -0.651,7.096 -4.548,5.476 -2.738,1.161 V 1.063 C -2.273,0.037 -1.073,-0.425 0,0" /></g><g
         transform="translate(99.5693,137.8145)"
         id="g4656"><path
           inkscape:connector-curvature="0"
           id="path4658"
           style="fill:#004585;fill-opacity:1;fill-rule:nonzero;stroke:none"
           d="M 0,0 C 1.071,0.418 1.584,1.626 1.16,2.691 L 1.114,2.74 -0.65,7.097 -4.544,5.484 -2.737,1.169 V 1.065 C -2.273,0.047 -1.067,-0.416 0,0" /></g><g
         transform="translate(104.0293,132.5254)"
         id="g4660"><path
           inkscape:connector-curvature="0"
           id="path4662"
           style="fill:#004585;fill-opacity:1;fill-rule:nonzero;stroke:none"
           d="m 0,0 -1.766,4.318 -3.9,-1.629 1.815,-4.31 v -0.101 c 0.462,-1.024 1.663,-1.477 2.743,-1.058 1.017,0.464 1.521,1.619 1.151,2.687 z" /></g><g
         transform="translate(95.0259,138.1914)"
         id="g4664"><path
           inkscape:connector-curvature="0"
           id="path4666"
           style="fill:#004585;fill-opacity:1;fill-rule:nonzero;stroke:none"
           d="M 0,0 -1.813,4.353 -5.719,2.73 -3.907,-1.58 v -0.102 c 0.513,-1.02 1.674,-1.486 2.74,-1.062 1.074,0.424 1.583,1.628 1.167,2.685 z" /></g><g
         transform="translate(106.3975,142.9219)"
         id="g4668"><path
           inkscape:connector-curvature="0"
           id="path4670"
           style="fill:#004585;fill-opacity:1;fill-rule:nonzero;stroke:none"
           d="m 0,0 -1.769,4.318 -3.899,-1.575 1.816,-4.37 v -0.051 c 0.462,-1.012 1.666,-1.525 2.733,-1.057 1.016,0.408 1.53,1.619 1.162,2.691 z" /></g><g
         transform="translate(218.8125,102.7354)"
         id="g4672"><path
           inkscape:connector-curvature="0"
           id="path4674"
           style="fill:#004585;fill-opacity:1;fill-rule:nonzero;stroke:none"
           d="m 0,0 -3.157,20.798 c 4.182,2.247 8.02,4.907 11.497,7.928 L 25.327,16.97 C 18.1,9.881 9.558,4.132 0,0 m -1.154,-0.507 c -10.152,-4.211 -20.843,-6.345 -31.756,-6.345 -10.872,0 -21.363,2.094 -31.04,5.964 l 0.395,0.934 12.668,15.824 c 4.598,-1.361 9.403,-2.184 14.327,-2.468 l 5.588,-20.093 3.7,20.244 c 4.801,0.441 9.529,1.42 14.13,2.952 L -0.75,-0.332 c -0.141,-0.056 -0.262,-0.12 -0.404,-0.175 m -108.565,44.703 1.628,0.679 18.931,2.828 c 2.366,-4.638 5.252,-8.897 8.581,-12.719 l -9.89,-17.402 16.231,11.085 c 3.746,-3.23 7.845,-6.014 12.235,-8.296 l -2.374,-21.087 c -20.097,8.164 -36.578,24.05 -45.342,44.912 m -0.164,64.113 c 0.032,0.083 0.073,0.152 0.1,0.228 l 0.94,-0.388 15.722,-12.544 c -1.588,-4.951 -2.53,-10.016 -2.864,-15.108 l -19.357,-5.5 19.424,-3.497 c 0.391,-4.865 1.338,-9.683 2.865,-14.4 l -16.869,-12.423 c -8.483,20.506 -8.469,43.096 0.039,63.632 m 45.064,45.066 c 0.214,0.088 0.43,0.166 0.64,0.254 l 0.105,-0.251 3.072,-20.371 c -4.479,-2.214 -8.66,-4.912 -12.44,-8.061 l -18.182,10.291 11.516,-16.767 c -3.221,-3.609 -6.029,-7.6 -8.349,-11.92 l -21.166,2.338 c 8.579,20.283 24.46,36.063 44.804,44.487 m 31.785,6.34 c 0.392,0 0.783,-0.009 1.182,-0.019 l -5.581,-20.265 c -4.622,-0.321 -9.174,-1.159 -13.611,-2.49 l -12.467,16.943 c 9.789,3.855 20.021,5.831 30.477,5.831 m 32.406,-6.521 -13.273,-16.573 c -4.491,1.428 -9.17,2.349 -13.976,2.745 l -3.805,20.33 c 10.896,-0.173 21.405,-2.436 31.054,-6.502 m -5.505,-52.032 -16.485,-2.413 22.16,53.443 z m 6.262,51.722 c 10.229,-4.426 19.467,-10.87 27.163,-18.96 L 8.854,123.743 c -3.41,3.015 -7.123,5.647 -11.093,7.852 z m 43.753,-44.488 -20.688,-3.085 c -2.143,4.159 -4.695,8.013 -7.614,11.52 l 11.832,16.957 c 6.86,-7.239 12.488,-15.794 16.47,-25.392 m -49.514,-7.382 3.173,28.634 c 3.874,-2.225 7.485,-4.863 10.789,-7.871 l 0.805,-4.649 4.435,-0.753 c 2.947,-3.447 5.548,-7.235 7.704,-11.351 z m -4.645,-33.098 -0.254,0.107 V 68 l -20.885,8.663 75.382,31.178 z m 60.599,8.187 -20.367,5.603 c -0.37,4.446 -1.222,8.898 -2.58,13.298 l 16.891,12.434 c 4.072,-10.122 6.096,-20.73 6.056,-31.335 M 44.306,45.506 27.611,58.836 c 1.264,4.308 2.068,8.761 2.383,13.277 l 20.322,3.842 C 50.259,65.653 48.248,55.349 44.306,45.506 M -7.622,50.279 20.809,47.133 C 18.633,43.137 16.004,39.376 12.979,35.936 L 8.569,35.171 7.848,30.749 C 4.455,27.705 0.677,25.005 -3.451,22.736 Z M 43.45,45.133 -7.4,50.765 -9.899,67.212 Z M 28.235,73.052 C 27.982,68.638 27.24,64.291 26.063,60.069 L 3.929,77.742 25.828,93.866 c 1.293,-4.351 2.065,-8.757 2.366,-13.152 l -2.676,-3.911 z m -69.029,-18.121 0.124,0.285 h -0.008 l 8.599,20.778 31.219,-75.32 z m -17.131,-2.808 16.437,2.455 -22.166,-53.433 z m 4.128,33.231 0.221,-0.093 -0.003,0.042 20.835,-8.64 -75.288,-31.216 z m -2.872,17.166 2.456,-16.448 -53.301,22.077 z m 0.199,0.481 -30.022,3.328 c 2.188,3.927 4.771,7.558 7.706,10.873 l 5.54,0.859 0.933,5.432 c 3.534,2.949 7.423,5.507 11.597,7.623 z m 6.586,32.357 c 4.371,1.267 8.844,2.02 13.382,2.286 l 3.86,-2.732 3.723,2.699 c 4.738,-0.32 9.358,-1.182 13.782,-2.53 l -17.997,-22.484 z m 26.569,-36.963 -0.121,-0.282 -8.643,-20.787 -31.133,75.293 z m -70.498,-17.272 -0.313,-0.096 c 0.348,4.495 1.182,8.97 2.537,13.351 L -67.99,75.534 -91.492,58.242 c -1.331,4.242 -2.187,8.569 -2.571,12.918 l 0.35,-0.066 3.526,4.919 z m 20.567,-45.201 -6.176,1.105 -0.2,-0.355 c -2.924,3.435 -5.496,7.218 -7.641,11.32 l 28.839,4.315 -3.355,-29.983 c -3.89,2.068 -7.547,4.554 -10.899,7.411 l 0.365,0.237 z m 45.585,-20.57 -4.225,3.066 -4.541,-3.195 c -4.536,0.259 -8.965,0.998 -13.224,2.199 l 18.674,23.312 16.693,-22.679 c -4.365,-1.405 -8.835,-2.303 -13.377,-2.703 m 53.126,1.744 -10.35,18.491 c 2.968,3.506 5.538,7.304 7.67,11.331 L 43.946,44.575 C 39.598,34.104 33.306,24.82 25.465,17.096 m 20.172,26.779 c 0.066,0.166 0.12,0.321 0.184,0.483 l 1.123,-0.12 -1.011,0.414 c 8.335,20.655 8.29,43.289 -0.141,63.905 l 1.838,1.352 -2.038,-0.841 c -8.744,21.056 -25.161,37.181 -45.249,45.71 l 0.096,0.903 -0.337,-0.804 c -10.272,4.319 -21.491,6.671 -33.136,6.671 -10.849,0 -21.466,-2.072 -31.596,-6.136 l -0.642,0.87 0.397,-0.968 c -0.215,-0.078 -0.433,-0.158 -0.651,-0.25 -20.979,-8.689 -37.343,-25.047 -46.046,-46.054 -8.698,-21.007 -8.708,-44.126 -0.019,-65.088 0.044,-0.126 0.099,-0.239 0.149,-0.353 l -0.255,-0.193 0.287,0.12 c 13.324,-31.716 44.077,-52.181 78.5,-52.181 11.152,0 22.083,2.18 32.46,6.49 0.274,0.109 0.536,0.242 0.809,0.36 l 0.85,-1.174 -0.538,1.314 c 20.474,8.822 36.418,24.953 44.966,45.57" /></g><g
         transform="translate(333.209,150.792)"
         id="g4676"><path
           inkscape:connector-curvature="0"
           id="path4678"
           style="fill:#004585;fill-opacity:1;fill-rule:nonzero;stroke:none"
           d="m 0,0 v -1.889 h -8.225 v -5.687 h 6.665 v -1.816 h -6.665 v -5.841 H 0 v -1.885 H -10.545 V 0 Z" /></g><g
         transform="translate(345.1875,148.1152)"
         id="g4680"><path
           inkscape:connector-curvature="0"
           id="path4682"
           style="fill:#004585;fill-opacity:1;fill-rule:nonzero;stroke:none"
           d="m 0,0 c -0.072,-0.122 -0.143,-0.21 -0.23,-0.271 -0.072,-0.057 -0.183,-0.092 -0.307,-0.092 -0.138,0 -0.292,0.074 -0.472,0.208 -0.181,0.133 -0.406,0.276 -0.678,0.446 -0.274,0.158 -0.605,0.315 -0.991,0.454 -0.39,0.124 -0.859,0.193 -1.413,0.193 -0.513,0 -0.967,-0.069 -1.374,-0.202 -0.39,-0.144 -0.72,-0.329 -0.982,-0.566 -0.271,-0.246 -0.473,-0.522 -0.61,-0.845 -0.135,-0.328 -0.208,-0.676 -0.208,-1.045 0,-0.483 0.124,-0.873 0.358,-1.19 0.238,-0.314 0.54,-0.585 0.927,-0.8 0.386,-0.232 0.828,-0.419 1.317,-0.581 0.492,-0.169 0.987,-0.341 1.508,-0.515 0.512,-0.174 1.01,-0.372 1.501,-0.587 0.486,-0.224 0.929,-0.494 1.311,-0.832 0.391,-0.334 0.703,-0.745 0.934,-1.228 0.237,-0.491 0.359,-1.083 0.359,-1.796 0,-0.747 -0.132,-1.45 -0.393,-2.106 -0.254,-0.66 -0.621,-1.226 -1.107,-1.719 -0.49,-0.484 -1.092,-0.866 -1.804,-1.146 -0.714,-0.271 -1.521,-0.416 -2.433,-0.416 -1.113,0 -2.119,0.204 -3.03,0.602 -0.908,0.4 -1.69,0.948 -2.338,1.631 l 0.668,1.1 c 0.067,0.092 0.146,0.162 0.235,0.218 0.09,0.063 0.194,0.091 0.304,0.091 0.17,0 0.363,-0.091 0.575,-0.266 0.215,-0.176 0.482,-0.374 0.808,-0.59 0.32,-0.217 0.711,-0.411 1.171,-0.596 0.451,-0.178 1.019,-0.267 1.682,-0.267 0.547,0 1.033,0.077 1.463,0.228 0.427,0.152 0.793,0.366 1.093,0.639 0.302,0.28 0.529,0.605 0.69,0.985 0.154,0.384 0.237,0.811 0.237,1.282 0,0.513 -0.116,0.935 -0.351,1.271 -0.235,0.329 -0.55,0.606 -0.931,0.83 -0.379,0.217 -0.813,0.41 -1.302,0.568 -0.49,0.15 -0.994,0.312 -1.502,0.473 -0.523,0.169 -1.027,0.354 -1.51,0.572 -0.492,0.21 -0.922,0.49 -1.31,0.831 -0.386,0.347 -0.693,0.775 -0.923,1.286 -0.233,0.518 -0.357,1.151 -0.357,1.906 0,0.606 0.124,1.188 0.357,1.758 0.23,0.564 0.572,1.065 1.023,1.504 0.445,0.435 0.996,0.789 1.649,1.053 0.658,0.257 1.416,0.39 2.266,0.39 0.95,0 1.828,-0.149 2.62,-0.454 0.784,-0.302 1.476,-0.742 2.057,-1.314 z" /></g><g
         transform="translate(361.0273,137.209)"
         id="g4684"><path
           inkscape:connector-curvature="0"
           id="path4686"
           style="fill:#004585;fill-opacity:1;fill-rule:nonzero;stroke:none"
           d="M 0,0 C 0.132,0 0.236,-0.053 0.347,-0.151 L 1.26,-1.147 C 0.552,-1.96 -0.3,-2.596 -1.298,-3.043 -2.295,-3.501 -3.5,-3.729 -4.91,-3.729 c -1.238,0 -2.355,0.216 -3.351,0.643 -1.005,0.423 -1.862,1.022 -2.573,1.789 -0.713,0.771 -1.253,1.683 -1.651,2.763 -0.391,1.072 -0.585,2.255 -0.585,3.554 0,1.285 0.215,2.463 0.626,3.543 0.424,1.073 1.007,1.996 1.766,2.775 0.754,0.769 1.659,1.371 2.719,1.791 1.051,0.433 2.221,0.641 3.488,0.641 1.27,0 2.344,-0.195 3.262,-0.583 0.909,-0.386 1.717,-0.921 2.434,-1.592 L 0.464,10.534 c -0.057,-0.081 -0.117,-0.145 -0.19,-0.197 -0.063,-0.053 -0.173,-0.08 -0.312,-0.08 -0.108,0 -0.211,0.038 -0.325,0.118 -0.117,0.073 -0.257,0.169 -0.419,0.278 -0.15,0.111 -0.338,0.231 -0.561,0.361 -0.208,0.128 -0.463,0.25 -0.759,0.356 -0.292,0.109 -0.636,0.201 -1.03,0.281 -0.391,0.078 -0.836,0.116 -1.349,0.116 -0.914,0 -1.749,-0.164 -2.512,-0.476 -0.759,-0.312 -1.411,-0.757 -1.971,-1.339 -0.544,-0.586 -0.975,-1.294 -1.278,-2.13 -0.305,-0.834 -0.457,-1.77 -0.457,-2.802 0,-1.068 0.152,-2.028 0.457,-2.858 0.303,-0.836 0.724,-1.543 1.261,-2.124 0.522,-0.576 1.152,-1.015 1.872,-1.316 0.729,-0.311 1.508,-0.454 2.34,-0.454 0.511,0 0.973,0.03 1.375,0.087 0.41,0.056 0.788,0.154 1.13,0.282 0.343,0.132 0.67,0.291 0.966,0.486 0.298,0.193 0.6,0.428 0.899,0.698 C -0.259,-0.063 -0.128,0 0,0" /></g><g
         transform="translate(378.7285,142.2285)"
         id="g4688"><path
           inkscape:connector-curvature="0"
           id="path4690"
           style="fill:#004585;fill-opacity:1;fill-rule:nonzero;stroke:none"
           d="m 0,0 c 0,1.042 -0.149,1.987 -0.432,2.826 -0.279,0.836 -0.693,1.543 -1.214,2.122 -0.531,0.575 -1.167,1.021 -1.914,1.334 -0.746,0.301 -1.581,0.465 -2.503,0.465 -0.921,0 -1.749,-0.164 -2.5,-0.465 C -9.313,5.969 -9.948,5.523 -10.478,4.948 -11.009,4.369 -11.416,3.662 -11.702,2.826 -11.995,1.987 -12.135,1.042 -12.135,0 c 0,-1.057 0.14,-2 0.433,-2.826 0.286,-0.834 0.693,-1.539 1.224,-2.115 0.53,-0.581 1.165,-1.022 1.915,-1.331 0.751,-0.303 1.579,-0.458 2.5,-0.458 0.922,0 1.757,0.155 2.503,0.458 0.747,0.309 1.383,0.75 1.914,1.331 0.521,0.576 0.935,1.281 1.214,2.115 C -0.149,-2 0,-1.057 0,0 m 2.381,0 c 0,-1.289 -0.208,-2.469 -0.613,-3.533 -0.405,-1.073 -0.974,-1.995 -1.724,-2.765 -0.733,-0.775 -1.627,-1.373 -2.665,-1.797 -1.042,-0.427 -2.187,-0.642 -3.442,-0.642 -1.265,0 -2.404,0.215 -3.445,0.642 -1.036,0.424 -1.923,1.022 -2.658,1.797 -0.746,0.77 -1.314,1.692 -1.725,2.765 -0.406,1.064 -0.604,2.244 -0.604,3.533 0,1.28 0.198,2.456 0.604,3.523 0.411,1.073 0.979,2 1.725,2.775 0.735,0.777 1.622,1.376 2.658,1.802 1.041,0.439 2.18,0.65 3.445,0.65 1.255,0 2.4,-0.211 3.442,-0.65 C -1.583,7.674 -0.689,7.075 0.044,6.298 0.794,5.523 1.363,4.596 1.768,3.523 2.173,2.456 2.381,1.28 2.381,0" /></g><g
         transform="translate(386.4727,135.6162)"
         id="g4692"><path
           inkscape:connector-curvature="0"
           id="path4694"
           style="fill:#004585;fill-opacity:1;fill-rule:nonzero;stroke:none"
           d="M 0,0 H 7.406 V -1.942 H -2.316 V 15.176 H 0 Z" /></g><g
         transform="translate(399.1807,140.0264)"
         id="g4696"><path
           inkscape:connector-curvature="0"
           id="path4698"
           style="fill:#004585;fill-opacity:1;fill-rule:nonzero;stroke:none"
           d="M 0,0 H 6.394 L 3.697,6.963 C 3.529,7.393 3.356,7.933 3.184,8.578 3.096,8.253 3.015,7.946 2.932,7.674 2.847,7.403 2.768,7.158 2.689,6.954 Z M 11.213,-6.352 H 9.428 c -0.211,0 -0.381,0.05 -0.502,0.151 -0.134,0.11 -0.228,0.238 -0.294,0.395 L 7.033,-1.67 H -0.646 L -2.243,-5.806 C -2.299,-5.951 -2.399,-6.072 -2.532,-6.189 -2.669,-6.3 -2.837,-6.352 -3.034,-6.352 h -1.795 l 6.844,17.118 h 2.357 z" /></g><g
         transform="translate(425.6992,148.1152)"
         id="g4700"><path
           inkscape:connector-curvature="0"
           id="path4702"
           style="fill:#004585;fill-opacity:1;fill-rule:nonzero;stroke:none"
           d="m 0,0 c -0.08,-0.122 -0.151,-0.21 -0.226,-0.271 -0.087,-0.057 -0.185,-0.092 -0.315,-0.092 -0.135,0 -0.292,0.074 -0.475,0.208 -0.171,0.133 -0.403,0.276 -0.678,0.446 -0.272,0.158 -0.601,0.315 -0.989,0.454 -0.387,0.124 -0.855,0.193 -1.403,0.193 -0.517,0 -0.98,-0.069 -1.378,-0.202 C -5.861,0.592 -6.193,0.407 -6.456,0.17 -6.724,-0.076 -6.93,-0.352 -7.063,-0.675 -7.202,-1.003 -7.271,-1.351 -7.271,-1.72 c 0,-0.483 0.125,-0.873 0.364,-1.19 0.225,-0.314 0.54,-0.585 0.92,-0.8 0.395,-0.232 0.827,-0.419 1.316,-0.581 0.494,-0.169 0.99,-0.341 1.506,-0.515 0.516,-0.174 1.015,-0.372 1.509,-0.587 0.485,-0.224 0.926,-0.494 1.314,-0.832 0.388,-0.334 0.695,-0.745 0.928,-1.228 0.243,-0.491 0.355,-1.083 0.355,-1.796 0,-0.747 -0.125,-1.45 -0.379,-2.106 -0.258,-0.66 -0.624,-1.226 -1.125,-1.719 -0.486,-0.484 -1.092,-0.866 -1.8,-1.146 -0.711,-0.271 -1.522,-0.416 -2.428,-0.416 -1.109,0 -2.116,0.204 -3.034,0.602 -0.906,0.4 -1.692,0.948 -2.327,1.631 l 0.662,1.1 c 0.062,0.092 0.142,0.162 0.236,0.218 0.096,0.063 0.187,0.091 0.308,0.091 0.167,0 0.354,-0.091 0.571,-0.266 0.214,-0.176 0.481,-0.374 0.808,-0.59 0.313,-0.217 0.706,-0.411 1.169,-0.596 0.454,-0.178 1.014,-0.267 1.672,-0.267 0.553,0 1.044,0.077 1.474,0.228 0.433,0.152 0.798,0.366 1.093,0.639 0.299,0.28 0.527,0.605 0.691,0.985 0.143,0.384 0.243,0.811 0.243,1.282 0,0.513 -0.129,0.935 -0.362,1.271 -0.23,0.329 -0.544,0.606 -0.924,0.83 -0.381,0.217 -0.817,0.41 -1.306,0.568 -0.49,0.15 -0.988,0.312 -1.507,0.473 -0.514,0.169 -1.012,0.354 -1.502,0.572 -0.496,0.21 -0.927,0.49 -1.318,0.831 -0.371,0.347 -0.688,0.775 -0.923,1.286 -0.232,0.518 -0.348,1.151 -0.348,1.906 0,0.606 0.116,1.188 0.348,1.758 0.235,0.564 0.579,1.065 1.026,1.504 0.446,0.435 1,0.789 1.653,1.053 0.652,0.257 1.409,0.39 2.254,0.39 0.962,0 1.839,-0.149 2.623,-0.454 C -0.72,2.107 -0.03,1.667 0.562,1.095 Z" /></g><g
         transform="translate(436.125,135.5107)"
         id="g4704"><path
           inkscape:connector-curvature="0"
           id="path4706"
           style="fill:#004585;fill-opacity:1;fill-rule:nonzero;stroke:none"
           d="m 0,0 c 0.703,0 1.343,0.118 1.896,0.363 0.562,0.236 1.028,0.57 1.419,0.999 0.389,0.434 0.673,0.947 0.877,1.537 0.209,0.599 0.31,1.26 0.31,1.971 V 15.281 H 6.807 V 4.87 C 6.807,3.886 6.648,2.972 6.336,2.128 6.025,1.281 5.575,0.551 4.989,-0.066 4.401,-0.68 3.688,-1.165 2.839,-1.513 2.001,-1.866 1.057,-2.045 0,-2.045 c -1.058,0 -2.002,0.179 -2.842,0.532 -0.846,0.348 -1.565,0.833 -2.159,1.447 -0.581,0.617 -1.032,1.347 -1.347,2.194 -0.318,0.844 -0.469,1.758 -0.469,2.742 v 10.411 h 2.3 V 4.886 c 0,-0.716 0.099,-1.372 0.305,-1.971 C -4.007,2.316 -3.711,1.806 -3.323,1.376 -2.939,0.941 -2.468,0.604 -1.903,0.37 -1.344,0.118 -0.713,0 0,0" /></g><g
         transform="translate(449.3408,141.9131)"
         id="g4708"><path
           inkscape:connector-curvature="0"
           id="path4710"
           style="fill:#004585;fill-opacity:1;fill-rule:nonzero;stroke:none"
           d="M 0,0 H 2.743 C 3.399,0 3.988,0.088 4.491,0.266 4.997,0.439 5.422,0.685 5.765,1.005 6.107,1.312 6.369,1.686 6.538,2.126 6.714,2.563 6.804,3.048 6.804,3.575 6.804,4.662 6.466,5.517 5.789,6.127 5.119,6.741 4.098,7.048 2.743,7.048 H 0 Z M 0,-1.841 V -8.239 H -2.31 V 8.879 H 2.743 C 3.818,8.879 4.766,8.752 5.569,8.503 6.369,8.247 7.036,7.892 7.554,7.431 8.076,6.972 8.473,6.412 8.735,5.754 8.993,5.108 9.121,4.38 9.121,3.575 9.121,2.775 8.98,2.042 8.697,1.392 8.426,0.727 8.021,0.154 7.48,-0.32 6.942,-0.801 6.275,-1.17 5.479,-1.437 4.678,-1.711 3.771,-1.841 2.743,-1.841 Z" /></g><g
         transform="translate(471.8125,150.792)"
         id="g4712"><path
           inkscape:connector-curvature="0"
           id="path4714"
           style="fill:#004585;fill-opacity:1;fill-rule:nonzero;stroke:none"
           d="m 0,0 v -1.889 h -8.217 v -5.687 h 6.655 v -1.816 h -6.655 v -5.841 H 0 v -1.885 H -10.545 V 0 Z" /></g><g
         transform="translate(477.5703,142.4971)"
         id="g4716"><path
           inkscape:connector-curvature="0"
           id="path4718"
           style="fill:#004585;fill-opacity:1;fill-rule:nonzero;stroke:none"
           d="M 0,0 H 2.423 C 3.105,0 3.697,0.087 4.21,0.242 4.724,0.41 5.158,0.638 5.505,0.941 5.851,1.239 6.106,1.591 6.282,2.011 6.466,2.425 6.551,2.883 6.551,3.383 6.551,4.396 6.215,5.17 5.539,5.687 4.865,6.203 3.868,6.463 2.528,6.463 H 0 Z M 0,-1.677 V -8.822 H -2.3 V 8.295 H 2.528 C 3.616,8.295 4.557,8.182 5.34,7.966 6.129,7.74 6.779,7.43 7.294,7.011 7.809,6.6 8.191,6.104 8.428,5.509 8.677,4.933 8.802,4.269 8.802,3.552 8.802,2.948 8.712,2.382 8.516,1.849 8.331,1.326 8.049,0.856 7.686,0.436 7.323,0.021 6.879,-0.333 6.363,-0.634 5.844,-0.923 5.251,-1.152 4.588,-1.298 4.874,-1.466 5.129,-1.71 5.35,-2.028 l 4.996,-6.794 H 8.295 c -0.423,0 -0.737,0.162 -0.935,0.491 l -4.445,6.117 c -0.139,0.186 -0.271,0.321 -0.44,0.407 -0.162,0.081 -0.398,0.13 -0.717,0.13 z" /></g><path
         inkscape:connector-curvature="0"
         id="path4720"
         style="fill:#004585;fill-opacity:1;fill-rule:nonzero;stroke:none"
         d="m 493.04,133.675 h -2.316 v 17.118 h 2.316 z" /><g
         transform="translate(511.0273,142.2285)"
         id="g4722"><path
           inkscape:connector-curvature="0"
           id="path4724"
           style="fill:#004585;fill-opacity:1;fill-rule:nonzero;stroke:none"
           d="M 0,0 C 0,1.042 -0.144,1.987 -0.43,2.826 -0.715,3.662 -1.121,4.369 -1.646,4.948 -2.173,5.523 -2.809,5.969 -3.556,6.282 -4.304,6.583 -5.148,6.747 -6.063,6.747 -6.98,6.747 -7.814,6.583 -8.561,6.282 -9.313,5.969 -9.951,5.523 -10.479,4.948 -11.003,4.369 -11.415,3.662 -11.707,2.826 -11.99,1.987 -12.131,1.042 -12.131,0 c 0,-1.057 0.141,-2 0.424,-2.826 0.292,-0.834 0.704,-1.539 1.228,-2.115 0.528,-0.581 1.166,-1.022 1.918,-1.331 0.747,-0.303 1.581,-0.458 2.498,-0.458 0.915,0 1.759,0.155 2.507,0.458 0.747,0.309 1.383,0.75 1.91,1.331 0.525,0.576 0.931,1.281 1.216,2.115 C -0.144,-2 0,-1.057 0,0 m 2.377,0 c 0,-1.289 -0.201,-2.469 -0.606,-3.533 -0.409,-1.073 -0.984,-1.995 -1.72,-2.765 -0.74,-0.775 -1.634,-1.373 -2.671,-1.797 -1.032,-0.427 -2.191,-0.642 -3.443,-0.642 -1.265,0 -2.404,0.215 -3.442,0.642 -1.031,0.424 -1.917,1.022 -2.66,1.797 -0.749,0.77 -1.322,1.692 -1.725,2.765 -0.407,1.064 -0.607,2.244 -0.607,3.533 0,1.28 0.2,2.456 0.607,3.523 0.403,1.073 0.976,2 1.725,2.775 0.743,0.777 1.629,1.376 2.66,1.802 1.038,0.439 2.177,0.65 3.442,0.65 1.252,0 2.411,-0.211 3.443,-0.65 C -1.583,7.674 -0.689,7.075 0.051,6.298 0.787,5.523 1.362,4.596 1.771,3.523 2.176,2.456 2.377,1.28 2.377,0" /></g><g
         transform="translate(519.001,142.4971)"
         id="g4726"><path
           inkscape:connector-curvature="0"
           id="path4728"
           style="fill:#004585;fill-opacity:1;fill-rule:nonzero;stroke:none"
           d="m 0,0 h 2.417 c 0.672,0 1.271,0.087 1.784,0.242 0.526,0.168 0.947,0.396 1.297,0.699 0.34,0.298 0.603,0.65 0.781,1.07 0.171,0.414 0.26,0.872 0.26,1.372 0,1.013 -0.336,1.787 -1.003,2.304 C 4.859,6.203 3.851,6.463 2.528,6.463 H 0 Z M 0,-1.677 V -8.822 H -2.306 V 8.295 H 2.528 C 3.616,8.295 4.549,8.182 5.342,7.966 6.122,7.74 6.774,7.43 7.289,7.011 7.798,6.6 8.177,6.104 8.428,5.509 8.668,4.933 8.791,4.269 8.791,3.552 8.791,2.948 8.696,2.382 8.511,1.849 8.322,1.326 8.035,0.856 7.677,0.436 7.324,0.021 6.879,-0.333 6.356,-0.634 5.835,-0.923 5.242,-1.152 4.578,-1.298 4.865,-1.466 5.123,-1.71 5.349,-2.028 l 4.993,-6.794 h -2.06 c -0.416,0 -0.736,0.162 -0.928,0.491 l -4.439,6.117 c -0.144,0.186 -0.29,0.321 -0.441,0.407 -0.166,0.081 -0.411,0.13 -0.723,0.13 z" /></g><g
         transform="translate(537.8682,150.7139)"
         id="g4730"><path
           inkscape:connector-curvature="0"
           id="path4732"
           style="fill:#004585;fill-opacity:1;fill-rule:nonzero;stroke:none"
           d="m 0,0 c 0.094,-0.058 0.204,-0.155 0.335,-0.318 l 9.912,-12.9 c -0.021,0.207 -0.041,0.404 -0.041,0.603 -0.011,0.194 -0.011,0.384 -0.011,0.567 V 0.078 h 2.03 V -17.04 h -1.174 c -0.189,0 -0.337,0.025 -0.465,0.093 -0.119,0.064 -0.236,0.172 -0.36,0.324 L 0.323,-3.733 C 0.337,-3.935 0.351,-4.129 0.362,-4.318 0.376,-4.513 0.376,-4.685 0.376,-4.847 V -17.04 H -1.66 V 0.078 h 1.194 C -0.259,0.078 -0.102,0.054 0,0" /></g><path
         inkscape:connector-curvature="0"
         id="path4734"
         style="fill:#004585;fill-opacity:1;fill-rule:nonzero;stroke:none"
         d="m 324.506,109.783 h -1.888 v 13.9 h 1.888 z" /><g
         transform="translate(329.481,123.6211)"
         id="g4736"><path
           inkscape:connector-curvature="0"
           id="path4738"
           style="fill:#004585;fill-opacity:1;fill-rule:nonzero;stroke:none"
           d="m 0,0 c 0.075,-0.043 0.167,-0.126 0.271,-0.256 l 8.053,-10.476 c -0.023,0.164 -0.032,0.326 -0.038,0.486 -0.005,0.16 -0.005,0.309 -0.005,0.469 v 9.839 h 1.642 v -13.9 H 8.975 c -0.157,0 -0.272,0.023 -0.37,0.074 -0.102,0.052 -0.196,0.144 -0.304,0.268 L 0.262,-3.031 c 0.013,-0.162 0.025,-0.318 0.027,-0.477 0.003,-0.156 0.003,-0.296 0.003,-0.426 v -9.904 h -1.641 v 13.9 h 0.965 C -0.208,0.062 -0.086,0.044 0,0" /></g><g
         transform="translate(351.2744,123.6826)"
         id="g4740"><path
           inkscape:connector-curvature="0"
           id="path4742"
           style="fill:#004585;fill-opacity:1;fill-rule:nonzero;stroke:none"
           d="m 0,0 v -1.531 h -6.676 v -4.855 h 5.702 V -7.922 H -6.676 V -13.9 H -8.57 V 0 Z" /></g><g
         transform="translate(354.6357,114.9453)"
         id="g4744"><path
           inkscape:connector-curvature="0"
           id="path4746"
           style="fill:#004585;fill-opacity:1;fill-rule:nonzero;stroke:none"
           d="M 0,0 H 5.195 L 3.012,5.656 C 2.868,6.005 2.731,6.441 2.595,6.967 2.518,6.704 2.457,6.458 2.383,6.236 2.316,6.009 2.258,5.815 2.191,5.646 Z M 9.121,-5.162 H 7.659 c -0.171,0 -0.297,0.048 -0.408,0.126 -0.099,0.083 -0.18,0.188 -0.231,0.316 l -1.296,3.36 h -6.245 l -1.296,-3.36 c -0.049,-0.113 -0.128,-0.215 -0.237,-0.311 -0.11,-0.08 -0.249,-0.131 -0.398,-0.131 h -1.46 L 1.646,8.737 h 1.909 z" /></g><g
         transform="translate(366.7539,123.6211)"
         id="g4748"><path
           inkscape:connector-curvature="0"
           id="path4750"
           style="fill:#004585;fill-opacity:1;fill-rule:nonzero;stroke:none"
           d="M 0,0 C 0.081,-0.043 0.165,-0.126 0.277,-0.256 L 8.33,-10.732 c -0.024,0.164 -0.034,0.326 -0.037,0.486 -0.008,0.16 -0.008,0.309 -0.008,0.469 v 9.839 h 1.644 v -13.9 H 8.986 c -0.15,0 -0.282,0.023 -0.382,0.074 -0.093,0.052 -0.197,0.144 -0.298,0.268 L 0.272,-3.031 c 0.009,-0.162 0.023,-0.318 0.027,-0.477 0.004,-0.156 0.004,-0.296 0.004,-0.426 v -9.904 h -1.646 v 13.9 h 0.968 C -0.203,0.062 -0.076,0.044 0,0" /></g><g
         transform="translate(389.4541,123.6826)"
         id="g4752"><path
           inkscape:connector-curvature="0"
           id="path4754"
           style="fill:#004585;fill-opacity:1;fill-rule:nonzero;stroke:none"
           d="M 0,0 V -1.577 H -4.49 V -13.9 h -1.885 v 12.323 h -4.512 V 0 Z" /></g><g
         transform="translate(399.9062,123.6826)"
         id="g4756"><path
           inkscape:connector-curvature="0"
           id="path4758"
           style="fill:#004585;fill-opacity:1;fill-rule:nonzero;stroke:none"
           d="m 0,0 v -1.531 h -6.68 v -4.618 h 5.409 V -7.621 H -6.68 v -4.743 H 0 V -13.9 H -8.57 V 0 Z" /></g><g
         transform="translate(416.2842,116.7295)"
         id="g4760"><path
           inkscape:connector-curvature="0"
           id="path4762"
           style="fill:#004585;fill-opacity:1;fill-rule:nonzero;stroke:none"
           d="m 0,0 c 0,0.852 -0.114,1.618 -0.346,2.292 -0.24,0.673 -0.565,1.24 -0.99,1.703 -0.43,0.468 -0.945,0.822 -1.555,1.068 -0.612,0.248 -1.28,0.373 -2.033,0.373 H -8.231 V -5.423 h 3.307 c 0.753,0 1.421,0.121 2.033,0.366 0.61,0.25 1.125,0.599 1.555,1.064 0.425,0.467 0.75,1.034 0.99,1.699 C -0.114,-1.615 0,-0.853 0,0 m 1.932,0 c 0,-1.04 -0.165,-1.988 -0.496,-2.848 -0.332,-0.847 -0.79,-1.578 -1.389,-2.19 -0.603,-0.606 -1.335,-1.077 -2.173,-1.409 -0.838,-0.331 -1.771,-0.5 -2.798,-0.5 h -5.191 v 13.9 h 5.191 c 1.027,0 1.96,-0.159 2.798,-0.499 C -1.288,6.125 -0.556,5.656 0.047,5.038 0.646,4.429 1.104,3.694 1.436,2.84 1.767,1.989 1.932,1.041 1.932,0" /></g><g
         transform="translate(419.3008,110.8535)"
         id="g4764"><path
           inkscape:connector-curvature="0"
           id="path4766"
           style="fill:#004585;fill-opacity:1;fill-rule:nonzero;stroke:none"
           d="M 0,0 C 0,0.162 0.031,0.322 0.094,0.469 0.156,0.624 0.238,0.751 0.346,0.86 0.454,0.97 0.576,1.059 0.73,1.126 0.879,1.187 1.039,1.22 1.203,1.22 1.375,1.22 1.537,1.187 1.678,1.126 1.836,1.059 1.959,0.97 2.069,0.86 2.177,0.751 2.258,0.624 2.323,0.469 2.387,0.322 2.414,0.162 2.414,0 2.414,-0.183 2.387,-0.34 2.323,-0.481 2.258,-0.631 2.177,-0.759 2.069,-0.869 1.959,-0.979 1.836,-1.062 1.678,-1.126 1.537,-1.185 1.375,-1.217 1.203,-1.217 c -0.164,0 -0.324,0.032 -0.473,0.091 -0.154,0.064 -0.276,0.147 -0.384,0.257 -0.108,0.11 -0.19,0.238 -0.252,0.388 C 0.031,-0.34 0,-0.183 0,0" /></g><g
         transform="translate(439.0703,109.7822)"
         id="g4768"><path
           inkscape:connector-curvature="0"
           id="path4770"
           style="fill:#004585;fill-opacity:1;fill-rule:nonzero;stroke:none"
           d="M 0,0 H -1.886 V 6.323 H -9.374 V 0 h -1.896 v 13.9 h 1.896 V 7.704 h 7.488 V 13.9 H 0 Z" /></g><g
         transform="translate(450.9424,123.6826)"
         id="g4772"><path
           inkscape:connector-curvature="0"
           id="path4774"
           style="fill:#004585;fill-opacity:1;fill-rule:nonzero;stroke:none"
           d="m 0,0 v -1.531 h -6.674 v -4.618 h 5.411 v -1.472 h -5.411 v -4.743 H 0 V -13.9 H -8.564 V 0 Z" /></g><g
         transform="translate(454.8945,123.6211)"
         id="g4776"><path
           inkscape:connector-curvature="0"
           id="path4778"
           style="fill:#004585;fill-opacity:1;fill-rule:nonzero;stroke:none"
           d="m 0,0 c 0.085,-0.043 0.173,-0.126 0.281,-0.256 l 8.055,-10.476 c -0.02,0.164 -0.033,0.326 -0.04,0.486 -0.004,0.16 -0.009,0.309 -0.009,0.469 v 9.839 h 1.651 v -13.9 H 8.979 c -0.142,0 -0.266,0.023 -0.369,0.074 -0.097,0.052 -0.195,0.144 -0.294,0.268 L 0.267,-3.031 c 0.014,-0.162 0.025,-0.318 0.036,-0.477 0.004,-0.156 0.009,-0.296 0.009,-0.426 v -9.904 H -1.34 v 13.9 h 0.967 C -0.201,0.062 -0.076,0.044 0,0" /></g><g
         transform="translate(470.1924,116.9541)"
         id="g4780"><path
           inkscape:connector-curvature="0"
           id="path4782"
           style="fill:#004585;fill-opacity:1;fill-rule:nonzero;stroke:none"
           d="m 0,0 h 1.98 c 0.543,0 1.03,0.062 1.447,0.199 0.419,0.131 0.76,0.322 1.046,0.562 0.273,0.245 0.486,0.538 0.639,0.866 0.14,0.34 0.212,0.707 0.212,1.118 0,0.826 -0.279,1.452 -0.82,1.874 -0.553,0.419 -1.367,0.63 -2.443,0.63 H 0 Z M 0,-1.371 V -7.172 H -1.873 V 6.729 H 2.061 C 2.943,6.729 3.698,6.644 4.339,6.465 4.979,6.285 5.515,6.026 5.923,5.695 6.342,5.36 6.652,4.952 6.857,4.481 7.053,4 7.149,3.464 7.149,2.881 7.149,2.388 7.074,1.93 6.924,1.504 6.769,1.072 6.537,0.687 6.25,0.347 5.954,0.016 5.591,-0.274 5.172,-0.517 4.743,-0.757 4.268,-0.931 3.726,-1.063 3.958,-1.193 4.165,-1.393 4.353,-1.65 L 8.406,-7.172 H 6.735 c -0.34,0 -0.603,0.127 -0.758,0.394 l -3.61,4.97 C 2.253,-1.65 2.143,-1.535 2.006,-1.469 1.879,-1.403 1.69,-1.371 1.425,-1.371 Z" /></g><path
         inkscape:connector-curvature="0"
         id="path4784"
         style="fill:#004585;fill-opacity:1;fill-rule:nonzero;stroke:none"
         d="m 482.769,109.783 h -1.888 v 13.9 h 1.888 z" /><g
         transform="translate(497.375,116.7295)"
         id="g4786"><path
           inkscape:connector-curvature="0"
           id="path4788"
           style="fill:#004585;fill-opacity:1;fill-rule:nonzero;stroke:none"
           d="M 0,0 C 0,0.852 -0.123,1.618 -0.354,2.3 -0.582,2.979 -0.912,3.556 -1.336,4.02 -1.766,4.49 -2.284,4.849 -2.895,5.104 -3.5,5.355 -4.178,5.482 -4.93,5.482 -5.678,5.482 -6.354,5.355 -6.953,5.104 -7.562,4.849 -8.084,4.49 -8.517,4.02 -8.942,3.556 -9.278,2.979 -9.507,2.3 -9.745,1.618 -9.863,0.852 -9.863,0 c 0,-0.853 0.118,-1.615 0.356,-2.294 0.229,-0.677 0.565,-1.246 0.99,-1.721 0.433,-0.463 0.955,-0.827 1.564,-1.075 0.599,-0.251 1.275,-0.373 2.023,-0.373 0.752,0 1.43,0.122 2.035,0.373 0.611,0.248 1.129,0.612 1.559,1.075 0.424,0.475 0.754,1.044 0.982,1.721 C -0.123,-1.615 0,-0.853 0,0 M 1.929,0 C 1.929,-0.657 1.866,-1.276 1.734,-1.859 1.597,-2.45 1.402,-3.002 1.151,-3.511 0.904,-4.015 0.588,-4.474 0.225,-4.897 -0.135,-5.305 -0.541,-5.661 -0.992,-5.965 L 2.577,-9.82 H 1.023 c -0.226,0 -0.439,0.032 -0.622,0.098 -0.178,0.065 -0.338,0.171 -0.484,0.339 l -2.453,2.659 C -2.9,-6.839 -3.284,-6.935 -3.685,-6.993 -4.08,-7.061 -4.498,-7.094 -4.93,-7.094 c -1.021,0 -1.961,0.176 -2.791,0.521 -0.843,0.349 -1.568,0.828 -2.165,1.459 -0.606,0.626 -1.068,1.372 -1.402,2.247 -0.325,0.87 -0.491,1.827 -0.491,2.867 0,1.041 0.166,1.994 0.491,2.867 0.334,0.868 0.796,1.617 1.402,2.245 0.597,0.64 1.322,1.128 2.165,1.481 0.83,0.348 1.77,0.52 2.791,0.52 1.029,0 1.954,-0.172 2.798,-0.52 C -1.28,6.24 -0.567,5.752 0.033,5.112 0.64,4.484 1.103,3.735 1.434,2.867 1.772,1.994 1.929,1.041 1.929,0" /></g><g
         transform="translate(507.1846,111.2764)"
         id="g4790"><path
           inkscape:connector-curvature="0"
           id="path4792"
           style="fill:#004585;fill-opacity:1;fill-rule:nonzero;stroke:none"
           d="M 0,0 C 0.578,0 1.094,0.089 1.538,0.291 1.991,0.48 2.38,0.757 2.692,1.109 3.01,1.459 3.243,1.875 3.406,2.358 3.572,2.846 3.657,3.376 3.657,3.964 v 8.442 H 5.532 V 3.964 C 5.532,3.154 5.404,2.409 5.144,1.724 4.888,1.043 4.532,0.448 4.054,-0.051 3.572,-0.549 2.997,-0.947 2.31,-1.231 1.626,-1.516 0.849,-1.659 0,-1.659 c -0.859,0 -1.622,0.143 -2.312,0.428 -0.686,0.284 -1.275,0.682 -1.747,1.18 -0.476,0.499 -0.839,1.094 -1.095,1.775 -0.258,0.685 -0.386,1.43 -0.386,2.24 v 8.442 h 1.868 V 3.969 c 0,-0.585 0.078,-1.12 0.248,-1.602 C -3.256,1.88 -3.023,1.464 -2.704,1.115 -2.392,0.765 -2.01,0.49 -1.551,0.296 -1.083,0.096 -0.573,0 0,0" /></g><g
         transform="translate(524.415,123.6826)"
         id="g4794"><path
           inkscape:connector-curvature="0"
           id="path4796"
           style="fill:#004585;fill-opacity:1;fill-rule:nonzero;stroke:none"
           d="m 0,0 v -1.531 h -6.674 v -4.618 h 5.407 v -1.472 h -5.407 v -4.743 H 0 V -13.9 H -8.57 V 0 Z" /></g><g
         transform="translate(322.6641,166.2124)"
         id="g4798"><path
           inkscape:connector-curvature="0"
           id="path4800"
           style="fill:#004585;fill-opacity:1;fill-rule:nonzero;stroke:none"
           d="M 0,0 H 21.757 V 4.555 H 5.424 v 10.789 h 13.223 v 4.417 H 5.424 v 10.486 h 16.333 v 4.559 H 0 Z" /></g><g
         transform="translate(373.7607,176.5308)"
         id="g4802"><path
           inkscape:connector-curvature="0"
           id="path4804"
           style="fill:#004585;fill-opacity:1;fill-rule:nonzero;stroke:none"
           d="m 0,0 c 0,-0.32 0.006,-0.66 0.018,-1.004 l -18.876,24.559 c -0.286,0.353 -0.554,0.595 -0.801,0.732 -0.256,0.134 -0.626,0.2 -1.102,0.2 h -2.774 v -34.806 h 4.841 v 24.63 c 0,0.277 -0.004,0.582 -0.015,0.914 L 0.159,-9.333 c 0.266,-0.343 0.56,-0.597 0.85,-0.752 0.303,-0.153 0.679,-0.234 1.102,-0.234 H 4.84 V 24.487 H 0 Z" /></g><path
         inkscape:connector-curvature="0"
         id="path4806"
         style="fill:#004585;fill-opacity:1;fill-rule:nonzero;stroke:none"
         d="m 386.952,166.212 h 5.413 v 34.806 h -5.413 z" /><g
         transform="translate(413.7822,170.7441)"
         id="g4808"><path
           inkscape:connector-curvature="0"
           id="path4810"
           style="fill:#004585;fill-opacity:1;fill-rule:nonzero;stroke:none"
           d="M 0,0 H -7.687 V 25.741 H 0 c 1.765,0 3.375,-0.293 4.809,-0.871 1.422,-0.581 2.652,-1.42 3.646,-2.51 1.007,-1.09 1.79,-2.452 2.335,-4.036 0.554,-1.591 0.836,-3.429 0.836,-5.462 0,-2.035 -0.282,-3.876 -0.836,-5.473 C 10.245,5.808 9.462,4.45 8.455,3.369 7.461,2.286 6.231,1.451 4.809,0.873 3.379,0.291 1.765,0 0,0 m 12.416,25.461 c -1.514,1.533 -3.34,2.731 -5.432,3.56 C 4.889,29.853 2.539,30.273 0,30.273 H -13.124 V -4.531 H 0 c 2.539,0 4.889,0.417 6.984,1.247 2.1,0.835 3.918,2.025 5.432,3.545 1.495,1.518 2.674,3.375 3.502,5.499 0.815,2.119 1.228,4.512 1.228,7.102 0,2.585 -0.413,4.971 -1.228,7.095 -0.828,2.124 -2.007,3.981 -3.502,5.504" /></g><g
         transform="translate(459.3301,201.0181)"
         id="g4812"><path
           inkscape:connector-curvature="0"
           id="path4814"
           style="fill:#004585;fill-opacity:1;fill-rule:nonzero;stroke:none"
           d="M 0,0 V -15.163 H -17.507 V 0 h -5.43 v -34.806 h 5.43 v 15.474 H 0 V -34.806 H 5.434 V 0 Z" /></g><g
         transform="translate(325.4854,88.1279)"
         id="g4816"><path
           inkscape:connector-curvature="0"
           id="path4818"
           style="fill:#004585;fill-opacity:1;fill-rule:nonzero;stroke:none"
           d="m 0,0 c 0.075,-0.039 0.152,-0.122 0.229,-0.253 l 6.049,-10.715 c 0.01,0.153 0.024,0.293 0.038,0.426 0.012,0.135 0.026,0.263 0.039,0.388 L 7.607,0.061 H 9.221 L 7.499,-13.96 h -0.92 c -0.149,0 -0.273,0.023 -0.371,0.073 -0.098,0.049 -0.184,0.138 -0.253,0.268 l -6.038,10.723 c 0,-0.032 -0.002,-0.078 -0.004,-0.135 C -0.09,-3.092 -0.097,-3.152 -0.103,-3.218 -0.108,-3.282 -0.115,-3.349 -0.122,-3.419 -0.13,-3.486 -0.135,-3.545 -0.14,-3.59 l -1.274,-10.37 h -1.614 l 1.731,14.021 h 0.941 C -0.194,0.061 -0.074,0.04 0,0" /></g><g
         transform="translate(338.8262,79.3623)"
         id="g4820"><path
           inkscape:connector-curvature="0"
           id="path4822"
           style="fill:#004585;fill-opacity:1;fill-rule:nonzero;stroke:none"
           d="M 0,0 H 4.803 L 3.512,5.802 C 3.474,5.973 3.431,6.165 3.386,6.379 3.339,6.595 3.3,6.827 3.268,7.074 3.175,6.827 3.084,6.594 2.989,6.374 2.895,6.155 2.804,5.961 2.721,5.793 Z m 7.837,-5.194 h -1.41 c -0.163,0 -0.291,0.041 -0.381,0.122 -0.091,0.083 -0.153,0.187 -0.187,0.318 L 5.097,-1.33 H -0.617 L -2.221,-4.754 C -2.279,-4.872 -2.369,-4.976 -2.489,-5.063 -2.61,-5.151 -2.747,-5.194 -2.898,-5.194 H -4.324 L 2.553,8.825 h 1.848 z" /></g><g
         transform="translate(357.4434,88.1885)"
         id="g4824"><path
           inkscape:connector-curvature="0"
           id="path4826"
           style="fill:#004585;fill-opacity:1;fill-rule:nonzero;stroke:none"
           d="m 0,0 -0.194,-1.536 h -4.141 l -1.526,-12.485 h -1.82 l 1.526,12.485 h -4.157 L -10.127,0 Z" /></g><g
         transform="translate(359.6631,74.168)"
         id="g4828"><path
           inkscape:connector-curvature="0"
           id="path4830"
           style="fill:#004585;fill-opacity:1;fill-rule:nonzero;stroke:none"
           d="m 0,0 h -1.838 l 1.712,14.02 h 1.839 z" /></g><g
         transform="translate(374.1338,82.1309)"
         id="g4832"><path
           inkscape:connector-curvature="0"
           id="path4834"
           style="fill:#004585;fill-opacity:1;fill-rule:nonzero;stroke:none"
           d="M 0,0 C 0,0.713 -0.091,1.355 -0.273,1.934 -0.456,2.511 -0.716,3.002 -1.05,3.404 -1.387,3.81 -1.797,4.123 -2.285,4.346 -2.771,4.567 -3.316,4.678 -3.922,4.678 -4.693,4.678 -5.399,4.522 -6.045,4.212 -6.69,3.903 -7.248,3.46 -7.709,2.888 -8.171,2.313 -8.535,1.62 -8.795,0.808 c -0.261,-0.813 -0.392,-1.721 -0.392,-2.723 0,-0.713 0.092,-1.356 0.274,-1.931 0.184,-0.572 0.442,-1.061 0.777,-1.466 0.337,-0.405 0.746,-0.715 1.229,-0.933 0.483,-0.22 1.028,-0.331 1.634,-0.331 0.784,0 1.498,0.156 2.143,0.462 0.646,0.306 1.2,0.745 1.663,1.316 0.463,0.569 0.823,1.263 1.082,2.073 C -0.128,-1.912 0,-1.003 0,0 M 1.879,0.04 C 1.879,-0.757 1.795,-1.509 1.623,-2.22 1.454,-2.931 1.215,-3.59 0.905,-4.192 0.597,-4.796 0.22,-5.339 -0.219,-5.819 -0.659,-6.304 -1.15,-6.714 -1.697,-7.054 -2.24,-7.392 -2.831,-7.653 -3.468,-7.835 c -0.636,-0.185 -1.303,-0.276 -2,-0.276 -0.862,0 -1.636,0.154 -2.323,0.461 -0.689,0.307 -1.277,0.732 -1.761,1.277 -0.487,0.544 -0.859,1.192 -1.117,1.942 -0.258,0.75 -0.386,1.57 -0.386,2.465 0,1.193 0.186,2.29 0.558,3.291 0.371,1.001 0.885,1.866 1.541,2.592 0.654,0.721 1.431,1.286 2.328,1.69 0.896,0.404 1.87,0.606 2.92,0.606 0.861,0 1.637,-0.153 2.325,-0.464 C -0.695,5.44 -0.108,5.01 0.377,4.461 0.863,3.917 1.234,3.263 1.492,2.511 1.751,1.759 1.879,0.935 1.879,0.04" /></g><g
         transform="translate(380.4102,88.1279)"
         id="g4836"><path
           inkscape:connector-curvature="0"
           id="path4838"
           style="fill:#004585;fill-opacity:1;fill-rule:nonzero;stroke:none"
           d="m 0,0 c 0.075,-0.039 0.152,-0.122 0.229,-0.253 l 6.047,-10.715 c 0.012,0.153 0.025,0.293 0.039,0.426 0.014,0.135 0.028,0.263 0.039,0.388 L 7.606,0.061 H 9.222 L 7.5,-13.96 H 6.579 c -0.148,0 -0.274,0.023 -0.37,0.073 -0.099,0.049 -0.184,0.138 -0.254,0.268 l -6.039,10.723 c 0,-0.032 -0.002,-0.078 -0.003,-0.135 -0.005,-0.061 -0.01,-0.121 -0.017,-0.187 -0.004,-0.064 -0.012,-0.131 -0.017,-0.201 -0.009,-0.067 -0.014,-0.126 -0.021,-0.171 l -1.271,-10.37 h -1.615 l 1.73,14.021 h 0.942 C -0.194,0.061 -0.073,0.04 0,0" /></g><g
         transform="translate(393.75,79.3623)"
         id="g4840"><path
           inkscape:connector-curvature="0"
           id="path4842"
           style="fill:#004585;fill-opacity:1;fill-rule:nonzero;stroke:none"
           d="M 0,0 H 4.805 L 3.513,5.802 C 3.474,5.973 3.433,6.165 3.386,6.379 3.34,6.595 3.301,6.827 3.267,7.074 3.177,6.827 3.084,6.594 2.988,6.374 2.896,6.155 2.806,5.961 2.721,5.793 Z M 7.837,-5.194 H 6.429 c -0.164,0 -0.292,0.041 -0.382,0.122 -0.091,0.083 -0.154,0.187 -0.187,0.318 L 5.098,-1.33 H -0.618 L -2.221,-4.754 C -2.279,-4.872 -2.369,-4.976 -2.49,-5.063 -2.609,-5.151 -2.745,-5.194 -2.896,-5.194 H -4.323 L 2.553,8.825 h 1.849 z" /></g><g
         transform="translate(405.1084,75.7139)"
         id="g4844"><path
           inkscape:connector-curvature="0"
           id="path4846"
           style="fill:#004585;fill-opacity:1;fill-rule:nonzero;stroke:none"
           d="M 0,0 H 5.547 L 5.362,-1.546 h -7.377 l 1.732,14.021 h 1.829 z" /></g><g
         transform="translate(423.3203,78.6631)"
         id="g4848"><path
           inkscape:connector-curvature="0"
           id="path4850"
           style="fill:#004585;fill-opacity:1;fill-rule:nonzero;stroke:none"
           d="m 0,0 c 0.036,-0.127 0.07,-0.26 0.104,-0.396 0.117,0.273 0.253,0.538 0.411,0.793 l 5.506,8.814 c 0.093,0.15 0.186,0.24 0.281,0.27 0.094,0.029 0.223,0.044 0.385,0.044 H 8.048 L 6.326,-4.495 H 4.722 L 6.003,5.866 C 6.016,5.995 6.039,6.137 6.066,6.285 6.095,6.437 6.127,6.594 6.161,6.756 L 0.71,-2.028 C 0.541,-2.311 0.303,-2.45 -0.003,-2.45 H -0.26 c -0.301,0 -0.503,0.139 -0.615,0.422 L -4.251,6.774 C -4.256,6.618 -4.266,6.466 -4.269,6.315 -4.277,6.166 -4.287,6.025 -4.299,5.895 l -1.272,-10.39 h -1.615 l 1.733,14.02 h 1.34 c 0.162,0 0.291,-0.015 0.385,-0.044 0.096,-0.03 0.169,-0.12 0.221,-0.27 L -0.112,0.397 C -0.071,0.259 -0.035,0.128 0,0" /></g><g
         transform="translate(435.4854,79.3623)"
         id="g4852"><path
           inkscape:connector-curvature="0"
           id="path4854"
           style="fill:#004585;fill-opacity:1;fill-rule:nonzero;stroke:none"
           d="M 0,0 H 4.806 L 3.514,5.802 C 3.475,5.973 3.432,6.165 3.386,6.379 3.34,6.595 3.303,6.827 3.27,7.074 3.178,6.827 3.084,6.594 2.991,6.374 2.895,6.155 2.805,5.961 2.721,5.793 Z M 7.839,-5.194 H 6.43 c -0.165,0 -0.292,0.041 -0.382,0.122 -0.094,0.083 -0.153,0.187 -0.187,0.318 L 5.098,-1.33 H -0.614 L -2.221,-4.754 C -2.278,-4.872 -2.369,-4.976 -2.49,-5.063 -2.609,-5.151 -2.746,-5.194 -2.896,-5.194 H -4.323 L 2.555,8.825 h 1.848 z" /></g><g
         transform="translate(448.3711,86.749)"
         id="g4856"><path
           inkscape:connector-curvature="0"
           id="path4858"
           style="fill:#004585;fill-opacity:1;fill-rule:nonzero;stroke:none"
           d="m 0,0 -0.665,-5.371 h 1.791 c 0.554,0 1.043,0.078 1.467,0.236 0.423,0.156 0.781,0.375 1.071,0.659 0.291,0.285 0.509,0.621 0.654,1.007 0.149,0.39 0.221,0.816 0.221,1.279 0,0.711 -0.225,1.253 -0.67,1.628 C 3.422,-0.187 2.752,0 1.858,0 Z m -0.831,-6.701 -0.724,-5.88 H -3.376 L -1.663,1.438 H 2.026 C 2.768,1.438 3.411,1.361 3.957,1.204 4.502,1.047 4.952,0.823 5.308,0.534 5.662,0.244 5.927,-0.109 6.101,-0.522 6.271,-0.937 6.36,-1.398 6.36,-1.906 6.36,-2.475 6.273,-3.003 6.104,-3.492 5.937,-3.981 5.692,-4.419 5.37,-4.807 5.052,-5.197 4.668,-5.524 4.218,-5.798 3.767,-6.066 3.258,-6.267 2.69,-6.396 2.9,-6.542 3.072,-6.737 3.21,-6.985 l 3.022,-5.596 H 4.608 c -0.318,0 -0.549,0.13 -0.684,0.39 L 1.282,-7.143 C 1.197,-6.977 1.099,-6.865 0.987,-6.799 0.878,-6.734 0.699,-6.701 0.46,-6.701 Z" /></g><g
         transform="translate(458.6035,74.168)"
         id="g4860"><path
           inkscape:connector-curvature="0"
           id="path4862"
           style="fill:#004585;fill-opacity:1;fill-rule:nonzero;stroke:none"
           d="m 0,0 h -1.838 l 1.713,14.02 h 1.839 z" /></g><g
         transform="translate(472.5557,88.1885)"
         id="g4864"><path
           inkscape:connector-curvature="0"
           id="path4866"
           style="fill:#004585;fill-opacity:1;fill-rule:nonzero;stroke:none"
           d="m 0,0 -0.195,-1.536 h -4.139 l -1.527,-12.485 h -1.818 l 1.525,12.485 h -4.159 L -10.127,0 Z" /></g><g
         transform="translate(474.7764,74.168)"
         id="g4868"><path
           inkscape:connector-curvature="0"
           id="path4870"
           style="fill:#004585;fill-opacity:1;fill-rule:nonzero;stroke:none"
           d="m 0,0 h -1.84 l 1.712,14.02 h 1.841 z" /></g><g
         transform="translate(485.3486,78.6631)"
         id="g4872"><path
           inkscape:connector-curvature="0"
           id="path4874"
           style="fill:#004585;fill-opacity:1;fill-rule:nonzero;stroke:none"
           d="m 0,0 c 0.034,-0.127 0.068,-0.26 0.102,-0.396 0.119,0.273 0.253,0.538 0.41,0.793 L 6.02,9.211 c 0.092,0.15 0.187,0.24 0.281,0.27 0.094,0.029 0.22,0.044 0.386,0.044 H 8.046 L 6.324,-4.495 H 4.72 L 6.001,5.866 C 6.016,5.995 6.036,6.137 6.064,6.285 6.096,6.437 6.127,6.594 6.159,6.756 L 0.709,-2.028 C 0.539,-2.311 0.301,-2.45 -0.006,-2.45 H -0.26 c -0.301,0 -0.508,0.139 -0.618,0.422 L -4.251,6.774 C -4.258,6.618 -4.266,6.466 -4.271,6.315 -4.277,6.166 -4.288,6.025 -4.301,5.895 l -1.272,-10.39 h -1.614 l 1.732,14.02 h 1.34 c 0.164,0 0.291,-0.015 0.387,-0.044 0.094,-0.03 0.167,-0.12 0.22,-0.27 L -0.112,0.397 C -0.074,0.259 -0.035,0.128 0,0" /></g><g
         transform="translate(504.2734,86.6904)"
         id="g4876"><path
           inkscape:connector-curvature="0"
           id="path4878"
           style="fill:#004585;fill-opacity:1;fill-rule:nonzero;stroke:none"
           d="m 0,0 h -6.133 l -0.589,-4.726 h 4.972 l -0.187,-1.436 h -4.96 l -0.596,-4.874 h 6.154 l -0.186,-1.486 h -7.994 l 1.732,14.02 h 7.974 z" /></g><g
         transform="translate(514.6641,75.5869)"
         id="g4880"><path
           inkscape:connector-curvature="0"
           id="path4882"
           style="fill:#004585;fill-opacity:1;fill-rule:nonzero;stroke:none"
           d="m 0,0 c 0.429,0 0.812,0.033 1.146,0.108 0.331,0.071 0.625,0.16 0.878,0.261 0.254,0.107 0.472,0.222 0.651,0.348 0.18,0.128 0.336,0.246 0.468,0.348 0.134,0.104 0.248,0.196 0.339,0.264 0.092,0.074 0.174,0.108 0.246,0.108 0.058,0 0.106,-0.012 0.146,-0.031 C 3.912,1.38 3.945,1.353 3.971,1.321 L 4.608,0.527 C 3.995,-0.139 3.289,-0.654 2.49,-1.021 1.689,-1.392 0.761,-1.575 -0.304,-1.575 c -0.837,0 -1.584,0.15 -2.249,0.449 -0.668,0.301 -1.229,0.718 -1.689,1.257 -0.458,0.539 -0.812,1.181 -1.057,1.924 -0.244,0.741 -0.366,1.561 -0.366,2.454 0,1.22 0.188,2.336 0.567,3.346 0.378,1.012 0.9,1.881 1.562,2.608 0.662,0.727 1.44,1.291 2.331,1.693 0.895,0.402 1.855,0.6 2.888,0.6 0.494,0 0.944,-0.041 1.349,-0.125 0.405,-0.087 0.773,-0.21 1.106,-0.372 0.333,-0.162 0.634,-0.361 0.907,-0.588 0.267,-0.228 0.521,-0.483 0.758,-0.763 L 5.175,10.146 C 5.124,10.081 5.064,10.025 4.999,9.983 4.934,9.94 4.854,9.921 4.755,9.921 c -0.118,0 -0.242,0.064 -0.372,0.195 -0.131,0.131 -0.308,0.272 -0.534,0.425 -0.225,0.153 -0.516,0.295 -0.87,0.427 -0.356,0.13 -0.816,0.195 -1.384,0.195 -0.756,0 -1.465,-0.153 -2.123,-0.456 C -1.188,10.405 -1.759,9.97 -2.239,9.406 -2.724,8.843 -3.103,8.159 -3.38,7.356 c -0.278,-0.8 -0.416,-1.702 -0.416,-2.7 0,-0.724 0.094,-1.372 0.283,-1.946 0.19,-0.573 0.451,-1.062 0.787,-1.463 0.337,-0.402 0.737,-0.71 1.198,-0.924 C -1.062,0.108 -0.555,0 0,0" /></g><g
         transform="translate(532.1279,82.1309)"
         id="g4884"><path
           inkscape:connector-curvature="0"
           id="path4886"
           style="fill:#004585;fill-opacity:1;fill-rule:nonzero;stroke:none"
           d="M 0,0 C 0,0.713 -0.091,1.355 -0.274,1.934 -0.455,2.511 -0.715,3.002 -1.052,3.404 -1.389,3.81 -1.799,4.123 -2.285,4.346 -2.771,4.567 -3.315,4.678 -3.924,4.678 -4.695,4.678 -5.4,4.522 -6.045,4.212 -6.692,3.903 -7.248,3.46 -7.708,2.888 -8.173,2.313 -8.534,1.62 -8.796,0.808 c -0.26,-0.813 -0.392,-1.721 -0.392,-2.723 0,-0.713 0.091,-1.356 0.275,-1.931 0.183,-0.572 0.442,-1.061 0.779,-1.466 0.335,-0.405 0.745,-0.715 1.226,-0.933 0.482,-0.22 1.028,-0.331 1.636,-0.331 0.782,0 1.495,0.156 2.14,0.462 0.647,0.306 1.201,0.745 1.664,1.316 0.464,0.569 0.823,1.263 1.08,2.073 C -0.129,-1.912 0,-1.003 0,0 M 1.879,0.04 C 1.879,-0.757 1.793,-1.509 1.623,-2.22 1.455,-2.931 1.214,-3.59 0.904,-4.192 0.595,-4.796 0.221,-5.339 -0.222,-5.819 -0.661,-6.304 -1.153,-6.714 -1.697,-7.054 -2.243,-7.392 -2.833,-7.653 -3.47,-7.835 -4.103,-8.02 -4.773,-8.111 -5.472,-8.111 c -0.858,0 -1.633,0.154 -2.32,0.461 -0.688,0.307 -1.275,0.732 -1.762,1.277 -0.486,0.544 -0.858,1.192 -1.114,1.942 -0.26,0.75 -0.388,1.57 -0.388,2.465 0,1.193 0.187,2.29 0.557,3.291 0.373,1.001 0.887,1.866 1.543,2.592 0.655,0.721 1.431,1.286 2.326,1.69 0.899,0.404 1.871,0.606 2.922,0.606 0.862,0 1.636,-0.153 2.323,-0.464 C -0.696,5.44 -0.11,5.01 0.377,4.461 0.862,3.917 1.234,3.263 1.492,2.511 1.749,1.759 1.879,0.935 1.879,0.04" /></g><g
         transform="translate(537.3906,75.7139)"
         id="g4888"><path
           inkscape:connector-curvature="0"
           id="path4890"
           style="fill:#004585;fill-opacity:1;fill-rule:nonzero;stroke:none"
           d="M 0,0 H 5.548 L 5.36,-1.546 h -7.375 l 1.732,14.021 h 1.829 z" /></g><g
         transform="translate(546.6553,75.7139)"
         id="g4892"><path
           inkscape:connector-curvature="0"
           id="path4894"
           style="fill:#004585;fill-opacity:1;fill-rule:nonzero;stroke:none"
           d="M 0,0 H 5.548 L 5.36,-1.546 h -7.377 l 1.735,14.021 h 1.827 z" /></g><g
         transform="translate(563.4238,86.6904)"
         id="g4896"><path
           inkscape:connector-curvature="0"
           id="path4898"
           style="fill:#004585;fill-opacity:1;fill-rule:nonzero;stroke:none"
           d="m 0,0 h -6.132 l -0.59,-4.726 h 4.971 l -0.187,-1.436 h -4.958 l -0.596,-4.874 h 6.153 l -0.185,-1.486 h -7.995 l 1.733,14.02 h 7.973 z" /></g><g
         transform="translate(570.2832,75.4893)"
         id="g4900"><path
           inkscape:connector-curvature="0"
           id="path4902"
           style="fill:#004585;fill-opacity:1;fill-rule:nonzero;stroke:none"
           d="m 0,0 c 0.338,0 0.655,0.018 0.948,0.055 0.294,0.034 0.569,0.089 0.826,0.158 0.259,0.073 0.507,0.158 0.744,0.262 0.24,0.1 0.476,0.213 0.711,0.347 L 3.61,3.992 H 1.662 C 1.551,3.992 1.466,4.02 1.404,4.079 1.341,4.138 1.311,4.215 1.311,4.305 1.317,4.369 1.321,4.422 1.325,4.461 1.327,4.5 1.334,4.552 1.34,4.616 L 1.428,5.392 H 5.44 L 4.785,0.038 C 4.431,-0.216 4.068,-0.438 3.693,-0.628 3.316,-0.814 2.922,-0.974 2.505,-1.104 2.086,-1.229 1.646,-1.324 1.183,-1.384 0.721,-1.446 0.223,-1.478 -0.314,-1.478 c -0.848,0 -1.615,0.152 -2.303,0.454 -0.689,0.305 -1.277,0.728 -1.766,1.274 -0.488,0.543 -0.868,1.195 -1.133,1.951 -0.262,0.756 -0.393,1.586 -0.393,2.484 0,1.21 0.186,2.312 0.56,3.312 0.378,1.001 0.896,1.862 1.557,2.584 0.662,0.723 1.447,1.279 2.359,1.678 0.911,0.397 1.901,0.595 2.979,0.595 0.54,0 1.033,-0.044 1.476,-0.136 0.445,-0.091 0.847,-0.218 1.205,-0.38 0.358,-0.166 0.682,-0.358 0.971,-0.578 0.291,-0.224 0.557,-0.465 0.8,-0.724 L 5.409,10.272 C 5.345,10.187 5.277,10.123 5.209,10.076 5.142,10.03 5.062,10.007 4.969,10.007 4.858,10.007 4.751,10.04 4.647,10.105 4.503,10.192 4.346,10.299 4.173,10.435 4,10.567 3.791,10.694 3.547,10.814 3.301,10.937 3.006,11.039 2.662,11.129 2.317,11.215 1.897,11.26 1.407,11.26 0.606,11.26 -0.131,11.106 -0.799,10.801 -1.468,10.493 -2.04,10.059 -2.521,9.489 -3,8.923 -3.372,8.236 -3.64,7.435 -3.908,6.632 -4.041,5.739 -4.041,4.754 -4.041,4.016 -3.946,3.356 -3.752,2.77 -3.56,2.18 -3.288,1.682 -2.935,1.271 -2.583,0.858 -2.158,0.544 -1.665,0.326 -1.167,0.108 -0.613,0 0,0" /></g><g
         transform="translate(587.0635,86.6904)"
         id="g4904"><path
           inkscape:connector-curvature="0"
           id="path4906"
           style="fill:#004585;fill-opacity:1;fill-rule:nonzero;stroke:none"
           d="m 0,0 h -6.136 l -0.587,-4.726 h 4.969 l -0.184,-1.436 h -4.96 l -0.599,-4.874 h 6.155 l -0.186,-1.486 h -7.993 l 1.733,14.02 h 7.972 z" /></g><g
         transform="translate(445.498,54.3994)"
         id="g4908"><path
           inkscape:connector-curvature="0"
           id="path4910"
           style="fill:#004585;fill-opacity:1;fill-rule:nonzero;stroke:none"
           d="m 0,0 h -1.483 l 1.379,11.3 h 1.483 z" /></g><g
         transform="translate(130.7236,108.5527)"
         id="g4912"><path
           inkscape:connector-curvature="0"
           id="path4914"
           style="fill:#004585;fill-opacity:1;fill-rule:nonzero;stroke:none"
           d="m 0,0 -7.772,-10.159 1.371,-1.049 7.779,10.161 z" /></g><g
         transform="translate(142.6284,100.6221)"
         id="g4916"><path
           inkscape:connector-curvature="0"
           id="path4918"
           style="fill:#004585;fill-opacity:1;fill-rule:nonzero;stroke:none"
           d="M 0,0 -4.683,-7.763 C -4.747,-7.879 -4.817,-8.006 -4.893,-8.13 -4.969,-8.257 -5.035,-8.39 -5.09,-8.538 L -6.448,3.551 c -0.026,0.152 -0.057,0.261 -0.101,0.336 -0.04,0.074 -0.132,0.151 -0.264,0.227 l -0.764,0.467 -6.616,-10.953 1.299,-0.788 4.713,7.8 c 0.066,0.105 0.132,0.214 0.203,0.347 0.063,0.125 0.13,0.253 0.196,0.389 l 1.359,-12.079 c 0.015,-0.149 0.052,-0.256 0.095,-0.348 0.068,-0.079 0.148,-0.165 0.269,-0.237 l 0.746,-0.455 6.617,10.955 z" /></g><g
         transform="translate(151.0703,90.207)"
         id="g4920"><path
           inkscape:connector-curvature="0"
           id="path4922"
           style="fill:#004585;fill-opacity:1;fill-rule:nonzero;stroke:none"
           d="m 0,0 -4.819,2.08 1.776,4.109 5.638,-2.434 0.557,1.289 -7.229,3.136 -5.086,-11.745 1.6,-0.688 2.182,5.046 4.82,-2.085 z" /></g><g
         transform="translate(155.1875,86.4678)"
         id="g4924"><path
           inkscape:connector-curvature="0"
           id="path4926"
           style="fill:#004585;fill-opacity:1;fill-rule:nonzero;stroke:none"
           d="M 0,0 3.435,4.392 C 3.54,4.52 3.647,4.676 3.768,4.856 3.879,5.035 4.012,5.23 4.146,5.451 4.121,4.948 4.129,4.532 4.167,4.179 l 0.41,-5.568 z m 3.783,7.266 -8.608,-10.773 1.278,-0.384 c 0.151,-0.042 0.277,-0.042 0.402,0.015 0.121,0.048 0.212,0.113 0.29,0.211 l 2.036,2.604 5.496,-1.665 0.251,-3.296 C 4.942,-6.153 4.982,-6.269 5.053,-6.369 5.118,-6.475 5.226,-6.543 5.377,-6.588 L 6.66,-6.978 5.462,6.753 Z" /></g><g
         transform="translate(174.7256,81.1357)"
         id="g4928"><path
           inkscape:connector-curvature="0"
           id="path4930"
           style="fill:#004585;fill-opacity:1;fill-rule:nonzero;stroke:none"
           d="m 0,0 c -0.027,-0.143 -0.043,-0.281 -0.054,-0.428 -0.019,-0.14 -0.026,-0.299 -0.035,-0.45 L -5.991,9.759 c -0.073,0.13 -0.144,0.221 -0.217,0.269 -0.063,0.051 -0.176,0.09 -0.331,0.109 l -0.88,0.137 -1.896,-12.655 1.502,-0.226 1.349,9.014 c 0.017,0.116 0.033,0.243 0.047,0.392 0.013,0.142 0.028,0.287 0.036,0.437 l 5.898,-10.63 c 0.071,-0.123 0.152,-0.216 0.233,-0.276 0.082,-0.061 0.196,-0.102 0.334,-0.122 L 0.946,-3.929 2.845,8.735 1.347,8.956 Z" /></g><g
         transform="translate(179.5781,88.2578)"
         id="g4932"><path
           inkscape:connector-curvature="0"
           id="path4934"
           style="fill:#004585;fill-opacity:1;fill-rule:nonzero;stroke:none"
           d="M 0,0 4.151,-0.059 3.993,-11.398 5.727,-11.423 5.885,-0.084 10.021,-0.138 10.034,1.321 0.018,1.455 Z" /></g><g
         transform="translate(194.6396,78.6094)"
         id="g4936"><path
           inkscape:connector-curvature="0"
           id="path4938"
           style="fill:#004585;fill-opacity:1;fill-rule:nonzero;stroke:none"
           d="M 0,0 -0.456,4.346 4.484,4.869 4.349,6.222 -0.598,5.693 -1.056,9.92 5.058,10.567 4.908,11.972 -2.931,11.139 -1.579,-1.583 6.267,-0.752 6.114,0.65 Z" /></g><g
         transform="translate(216.8579,84.4912)"
         id="g4940"><path
           inkscape:connector-curvature="0"
           id="path4942"
           style="fill:#004585;fill-opacity:1;fill-rule:nonzero;stroke:none"
           d="M 0,0 C -0.25,-0.527 -0.617,-0.96 -1.085,-1.343 -1.557,-1.723 -2.122,-2.007 -2.776,-2.2 l -2.918,-0.871 -2.849,9.58 2.911,0.862 c 0.653,0.196 1.285,0.264 1.89,0.204 0.595,-0.052 1.149,-0.227 1.647,-0.527 0.5,-0.302 0.939,-0.723 1.318,-1.251 C -0.395,5.269 -0.086,4.626 0.132,3.872 0.362,3.117 0.462,2.417 0.428,1.764 0.399,1.104 0.256,0.519 0,0 M 0.65,6.758 C 0.137,7.428 -0.462,7.95 -1.156,8.328 -1.846,8.704 -2.612,8.938 -3.441,9.01 -4.266,9.085 -5.13,8.979 -6.034,8.714 l -4.583,-1.366 3.654,-12.262 4.588,1.363 c 0.9,0.27 1.68,0.659 2.334,1.177 0.651,0.515 1.167,1.116 1.538,1.814 0.366,0.696 0.586,1.458 0.65,2.307 C 2.216,2.578 2.116,3.46 1.834,4.384 1.567,5.3 1.171,6.09 0.65,6.758" /></g><g
         transform="translate(224.4395,85.9619)"
         id="g4944"><path
           inkscape:connector-curvature="0"
           id="path4946"
           style="fill:#004585;fill-opacity:1;fill-rule:nonzero;stroke:none"
           d="M 0,0 C -0.109,0.107 -0.228,0.187 -0.357,0.247 -0.485,0.298 -0.627,0.328 -0.784,0.332 -0.925,0.339 -1.076,0.308 -1.216,0.259 -1.358,0.192 -1.484,0.115 -1.59,0.011 -1.698,-0.1 -1.769,-0.222 -1.826,-0.352 -1.88,-0.481 -1.917,-0.619 -1.917,-0.763 c 0,-0.15 0.037,-0.299 0.094,-0.436 0.062,-0.154 0.141,-0.279 0.245,-0.379 0.099,-0.108 0.22,-0.187 0.348,-0.243 0.126,-0.054 0.265,-0.085 0.412,-0.085 0.151,0 0.304,0.025 0.442,0.085 0.141,0.056 0.262,0.135 0.368,0.243 0.111,0.1 0.191,0.22 0.251,0.345 0.047,0.136 0.084,0.272 0.084,0.424 0,0.141 -0.024,0.291 -0.084,0.44 C 0.179,-0.231 0.098,-0.103 0,0" /></g><g
         transform="translate(230.4795,101.5137)"
         id="g4948"><path
           inkscape:connector-curvature="0"
           id="path4950"
           style="fill:#004585;fill-opacity:1;fill-rule:nonzero;stroke:none"
           d="m 0,0 2.648,-5.055 -6.11,-3.199 -2.646,5.057 -1.548,-0.806 5.93,-11.339 1.549,0.811 -2.697,5.161 6.106,3.189 2.701,-5.158 1.537,0.807 -5.932,11.341 z" /></g><g
         transform="translate(242.7964,95.8594)"
         id="g4952"><path
           inkscape:connector-curvature="0"
           id="path4954"
           style="fill:#004585;fill-opacity:1;fill-rule:nonzero;stroke:none"
           d="m 0,0 -2.526,3.563 4.06,2.875 -0.79,1.112 -4.056,-2.886 -2.458,3.475 5.011,3.55 -0.81,1.152 L -8.001,8.28 -0.605,-2.156 5.834,2.406 5.016,3.553 Z" /></g><g
         transform="translate(564.2637,154.957)"
         id="g4956"><path
           inkscape:connector-curvature="0"
           id="path4958"
           style="fill:#004585;fill-opacity:1;fill-rule:nonzero;stroke:none"
           d="m 0,0 -3.503,-2.581 c -0.144,-0.094 -0.262,-0.156 -0.358,-0.191 -0.103,-0.032 -0.245,-0.041 -0.416,-0.041 h -1.651 l 2.525,2.421 c 0.089,0.076 0.152,0.144 0.22,0.184 0.07,0.047 0.145,0.094 0.215,0.127 0.072,0.029 0.149,0.048 0.236,0.061 0.086,0.013 0.195,0.02 0.333,0.02 z m -7.252,-14.931 h 6.397 l -2.684,6.964 c -0.181,0.429 -0.351,0.97 -0.513,1.614 -0.09,-0.325 -0.179,-0.631 -0.256,-0.903 -0.089,-0.271 -0.172,-0.516 -0.244,-0.721 z M 3.969,-21.283 H 2.174 c -0.207,0 -0.364,0.051 -0.502,0.15 -0.122,0.111 -0.221,0.238 -0.283,0.398 l -1.601,4.134 h -7.677 l -1.601,-4.134 c -0.063,-0.146 -0.157,-0.268 -0.291,-0.385 -0.128,-0.11 -0.3,-0.163 -0.507,-0.163 h -1.787 l 6.851,17.118 h 2.343 z" /></g><g
         transform="translate(576.2559,135.5107)"
         id="g4960"><path
           inkscape:connector-curvature="0"
           id="path4962"
           style="fill:#004585;fill-opacity:1;fill-rule:nonzero;stroke:none"
           d="m 0,0 c 0.712,0 1.348,0.118 1.909,0.363 0.546,0.236 1.024,0.57 1.409,0.999 0.39,0.434 0.683,0.947 0.887,1.537 0.198,0.599 0.298,1.26 0.298,1.971 V 15.281 H 6.808 V 4.87 C 6.808,3.886 6.656,2.972 6.342,2.128 6.025,1.281 5.573,0.551 4.993,-0.066 4.403,-0.68 3.693,-1.165 2.841,-1.513 1.996,-1.866 1.055,-2.045 0,-2.045 c -1.052,0 -1.998,0.179 -2.841,0.532 -0.846,0.348 -1.556,0.833 -2.147,1.447 -0.592,0.617 -1.047,1.347 -1.357,2.194 -0.316,0.844 -0.47,1.758 -0.47,2.742 v 10.411 h 2.304 V 4.886 c 0,-0.716 0.104,-1.372 0.306,-1.971 C -4.002,2.316 -3.709,1.806 -3.32,1.376 -2.936,0.941 -2.46,0.604 -1.904,0.37 -1.339,0.118 -0.698,0 0,0" /></g><g
         transform="translate(598.5811,150.792)"
         id="g4964"><path
           inkscape:connector-curvature="0"
           id="path4966"
           style="fill:#004585;fill-opacity:1;fill-rule:nonzero;stroke:none"
           d="m 0,0 v -1.949 h -5.522 v -15.169 h -2.321 v 15.169 h -5.555 V 0 Z" /></g><path
         inkscape:connector-curvature="0"
         id="path4968"
         style="fill:#004585;fill-opacity:1;fill-rule:nonzero;stroke:none"
         d="m 603.655,133.675 h -2.326 v 17.118 h 2.326 z" /><g
         transform="translate(620.1777,137.209)"
         id="g4970"><path
           inkscape:connector-curvature="0"
           id="path4972"
           style="fill:#004585;fill-opacity:1;fill-rule:nonzero;stroke:none"
           d="m 0,0 c 0.135,0 0.239,-0.053 0.347,-0.151 l 0.914,-0.996 c -0.704,-0.813 -1.55,-1.449 -2.557,-1.896 -1,-0.458 -2.203,-0.686 -3.615,-0.686 -1.231,0 -2.35,0.216 -3.354,0.643 -1.003,0.423 -1.862,1.022 -2.568,1.789 -0.71,0.771 -1.256,1.683 -1.646,2.763 -0.398,1.072 -0.588,2.255 -0.588,3.554 0,1.285 0.212,2.463 0.636,3.543 0.413,1.073 1.005,1.996 1.759,2.775 0.755,0.769 1.656,1.371 2.712,1.791 1.055,0.433 2.216,0.641 3.492,0.641 1.261,0 2.346,-0.195 3.267,-0.583 0.908,-0.386 1.709,-0.921 2.421,-1.592 L 0.473,10.534 C 0.415,10.453 0.347,10.389 0.276,10.337 0.199,10.284 0.107,10.257 -0.03,10.257 c -0.113,0 -0.212,0.038 -0.332,0.118 -0.11,0.073 -0.255,0.169 -0.412,0.278 -0.156,0.111 -0.341,0.231 -0.559,0.361 -0.219,0.128 -0.472,0.25 -0.769,0.356 -0.291,0.109 -0.629,0.201 -1.029,0.281 -0.385,0.078 -0.841,0.116 -1.345,0.116 -0.916,0 -1.755,-0.164 -2.513,-0.476 C -7.745,10.979 -8.409,10.534 -8.948,9.952 -9.507,9.366 -9.93,8.658 -10.234,7.822 -10.545,6.988 -10.7,6.052 -10.7,5.02 c 0,-1.068 0.155,-2.028 0.466,-2.858 0.304,-0.836 0.717,-1.543 1.252,-2.124 0.53,-0.576 1.152,-1.015 1.877,-1.316 0.724,-0.311 1.509,-0.454 2.345,-0.454 0.501,0 0.969,0.03 1.369,0.087 0.408,0.056 0.784,0.154 1.133,0.282 0.339,0.132 0.665,0.291 0.962,0.486 0.304,0.193 0.6,0.428 0.905,0.698 C -0.253,-0.063 -0.132,0 0,0" /></g><g
         transform="translate(627.2305,140.0264)"
         id="g4974"><path
           inkscape:connector-curvature="0"
           id="path4976"
           style="fill:#004585;fill-opacity:1;fill-rule:nonzero;stroke:none"
           d="M 0,0 H 6.389 L 3.703,6.963 C 3.529,7.393 3.355,7.933 3.187,8.578 3.099,8.253 3.013,7.946 2.934,7.674 2.843,7.403 2.764,7.158 2.689,6.954 Z M 11.218,-6.352 H 9.42 c -0.205,0 -0.369,0.05 -0.497,0.151 -0.132,0.11 -0.224,0.238 -0.29,0.395 l -1.6,4.136 H -0.645 L -2.251,-5.806 C -2.303,-5.951 -2.4,-6.072 -2.533,-6.189 -2.668,-6.3 -2.838,-6.352 -3.033,-6.352 H -4.831 L 2.016,10.766 H 4.37 Z" /></g><g
         transform="translate(323.938,54.3994)"
         id="g4978"><path
           inkscape:connector-curvature="0"
           id="path4980"
           style="fill:#004585;fill-opacity:1;fill-rule:nonzero;stroke:none"
           d="m 0,0 h -1.48 l 1.379,11.3 h 1.483 z" /></g><g
         transform="translate(329.1865,65.6504)"
         id="g4982"><path
           inkscape:connector-curvature="0"
           id="path4984"
           style="fill:#004585;fill-opacity:1;fill-rule:nonzero;stroke:none"
           d="m 0,0 c 0.06,-0.031 0.121,-0.1 0.186,-0.206 l 4.872,-8.633 c 0.011,0.119 0.018,0.237 0.032,0.342 0.009,0.11 0.019,0.212 0.031,0.311 l 1.008,8.235 h 1.302 l -1.389,-11.3 H 5.303 c -0.122,0 -0.222,0.019 -0.301,0.058 -0.081,0.04 -0.148,0.112 -0.204,0.216 l -4.865,8.643 c 0,-0.025 0,-0.064 -0.004,-0.11 -0.003,-0.048 -0.007,-0.099 -0.012,-0.151 -0.006,-0.051 -0.01,-0.107 -0.016,-0.162 -0.006,-0.054 -0.011,-0.101 -0.014,-0.138 l -1.028,-8.356 h -1.298 l 1.394,11.3 h 0.757 C -0.156,0.049 -0.061,0.031 0,0" /></g><g
         transform="translate(345.4639,64.4912)"
         id="g4986"><path
           inkscape:connector-curvature="0"
           id="path4988"
           style="fill:#004585;fill-opacity:1;fill-rule:nonzero;stroke:none"
           d="m 0,0 h -4.945 l -0.496,-4.022 h 4.232 L -1.375,-5.22 h -4.208 l -0.6,-4.873 h -1.491 l 1.397,11.3 h 6.426 z" /></g><g
         transform="translate(347.2598,58.5859)"
         id="g4990"><path
           inkscape:connector-curvature="0"
           id="path4992"
           style="fill:#004585;fill-opacity:1;fill-rule:nonzero;stroke:none"
           d="M 0,0 H 3.873 L 2.831,4.674 C 2.8,4.812 2.765,4.967 2.729,5.14 2.691,5.313 2.661,5.499 2.635,5.697 2.56,5.499 2.486,5.311 2.408,5.136 2.331,4.959 2.26,4.803 2.19,4.667 Z M 6.316,-4.187 H 5.181 c -0.132,0 -0.233,0.034 -0.308,0.097 -0.072,0.066 -0.124,0.152 -0.148,0.258 l -0.616,2.761 h -4.604 l -1.294,-2.761 c -0.048,-0.095 -0.117,-0.176 -0.218,-0.249 -0.097,-0.071 -0.205,-0.106 -0.326,-0.106 h -1.15 l 5.542,11.3 H 3.55 Z" /></g><g
         transform="translate(357.3086,65.6504)"
         id="g4994"><path
           inkscape:connector-curvature="0"
           id="path4996"
           style="fill:#004585;fill-opacity:1;fill-rule:nonzero;stroke:none"
           d="m 0,0 c 0.06,-0.031 0.122,-0.1 0.187,-0.206 l 4.871,-8.633 c 0.009,0.119 0.022,0.237 0.031,0.342 0.012,0.11 0.021,0.212 0.032,0.311 l 1.008,8.235 h 1.302 l -1.388,-11.3 H 5.302 c -0.119,0 -0.221,0.019 -0.3,0.058 -0.079,0.04 -0.147,0.112 -0.207,0.216 l -4.861,8.643 c 0,-0.025 -0.002,-0.064 -0.003,-0.11 -0.004,-0.048 -0.008,-0.099 -0.014,-0.151 -0.005,-0.051 -0.01,-0.107 -0.017,-0.162 -0.004,-0.054 -0.009,-0.101 -0.014,-0.138 l -1.025,-8.356 h -1.302 l 1.396,11.3 h 0.758 C -0.155,0.049 -0.061,0.031 0,0" /></g><g
         transform="translate(374.4307,65.6992)"
         id="g4998"><path
           inkscape:connector-curvature="0"
           id="path5000"
           style="fill:#004585;fill-opacity:1;fill-rule:nonzero;stroke:none"
           d="M 0,0 -0.158,-1.238 H -3.493 L -4.724,-11.3 h -1.467 l 1.23,10.062 H -8.312 L -8.161,0 Z" /></g><g
         transform="translate(382.2354,64.4912)"
         id="g5002"><path
           inkscape:connector-curvature="0"
           id="path5004"
           style="fill:#004585;fill-opacity:1;fill-rule:nonzero;stroke:none"
           d="m 0,0 h -4.945 l -0.471,-3.81 h 4.005 L -1.562,-4.968 H -5.561 L -6.04,-8.896 h 4.959 l -0.149,-1.197 h -6.442 l 1.395,11.3 h 6.428 z" /></g><g
         transform="translate(394.4717,60.8076)"
         id="g5006"><path
           inkscape:connector-curvature="0"
           id="path5008"
           style="fill:#004585;fill-opacity:1;fill-rule:nonzero;stroke:none"
           d="M 0,0 C 0,0.569 -0.072,1.081 -0.217,1.537 -0.363,1.998 -0.571,2.384 -0.841,2.701 -1.11,3.021 -1.442,3.264 -1.83,3.434 -2.22,3.604 -2.657,3.689 -3.146,3.689 H -5.56 L -6.663,-5.22 h 2.413 c 0.63,0 1.205,0.122 1.727,0.36 0.518,0.239 0.966,0.584 1.339,1.032 0.373,0.45 0.665,0.997 0.872,1.641 C -0.104,-1.542 0,-0.814 0,0 m 1.514,0.032 c 0,-0.962 -0.15,-1.84 -0.448,-2.628 C 0.771,-3.389 0.36,-4.063 -0.162,-4.632 -0.685,-5.195 -1.31,-5.634 -2.029,-5.945 -2.754,-6.255 -3.542,-6.408 -4.392,-6.408 h -3.903 l 1.397,11.3 h 3.892 c 0.694,0 1.321,-0.121 1.881,-0.359 C -0.564,4.3 -0.09,3.964 0.299,3.536 0.688,3.108 0.987,2.596 1.197,2.001 1.406,1.404 1.514,0.747 1.514,0.032" /></g><g
         transform="translate(396.7646,55.2656)"
         id="g5010"><path
           inkscape:connector-curvature="0"
           id="path5012"
           style="fill:#004585;fill-opacity:1;fill-rule:nonzero;stroke:none"
           d="m 0,0 c 0,0.138 0.025,0.268 0.075,0.386 0.049,0.12 0.12,0.226 0.21,0.317 0.087,0.088 0.192,0.161 0.312,0.213 0.116,0.052 0.248,0.079 0.389,0.079 0.136,0 0.264,-0.027 0.382,-0.079 C 1.487,0.864 1.59,0.791 1.679,0.703 1.77,0.612 1.841,0.506 1.892,0.386 1.946,0.268 1.972,0.138 1.972,0 1.972,-0.143 1.946,-0.271 1.892,-0.39 1.841,-0.508 1.77,-0.611 1.679,-0.701 1.59,-0.791 1.487,-0.858 1.368,-0.909 1.25,-0.96 1.122,-0.985 0.986,-0.985 c -0.141,0 -0.273,0.025 -0.389,0.076 -0.12,0.051 -0.225,0.118 -0.312,0.208 -0.09,0.09 -0.161,0.193 -0.21,0.311 C 0.025,-0.271 0,-0.143 0,0" /></g><g
         transform="translate(412.21,54.3994)"
         id="g5014"><path
           inkscape:connector-curvature="0"
           id="path5016"
           style="fill:#004585;fill-opacity:1;fill-rule:nonzero;stroke:none"
           d="m 0,0 h -1.49 l 0.639,5.154 H -6.36 L -6.994,0 h -1.49 l 1.397,11.3 h 1.481 L -6.228,6.228 h 5.512 l 0.622,5.072 h 1.482 z" /></g><g
         transform="translate(422.4521,64.4912)"
         id="g5018"><path
           inkscape:connector-curvature="0"
           id="path5020"
           style="fill:#004585;fill-opacity:1;fill-rule:nonzero;stroke:none"
           d="m 0,0 h -4.944 l -0.471,-3.81 h 4.002 l -0.149,-1.158 h -4 L -6.04,-8.896 h 4.959 l -0.15,-1.197 h -6.441 l 1.395,11.3 h 6.425 z" /></g><g
         transform="translate(425.7109,65.6504)"
         id="g5022"><path
           inkscape:connector-curvature="0"
           id="path5024"
           style="fill:#004585;fill-opacity:1;fill-rule:nonzero;stroke:none"
           d="M 0,0 C 0.062,-0.031 0.123,-0.1 0.187,-0.206 L 5.06,-8.839 c 0.008,0.119 0.019,0.237 0.028,0.342 0.012,0.11 0.022,0.212 0.034,0.311 L 6.131,0.049 H 7.43 l -1.385,-11.3 H 5.303 c -0.12,0 -0.221,0.019 -0.3,0.058 -0.08,0.04 -0.147,0.112 -0.205,0.216 l -4.863,8.643 c 0,-0.025 -0.004,-0.064 -0.005,-0.11 -0.003,-0.048 -0.006,-0.099 -0.011,-0.151 -0.006,-0.051 -0.013,-0.107 -0.017,-0.162 -0.006,-0.054 -0.01,-0.101 -0.014,-0.138 l -1.026,-8.356 h -1.301 l 1.396,11.3 h 0.757 C -0.156,0.049 -0.061,0.031 0,0" /></g><g
         transform="translate(437.1729,64.5371)"
         id="g5026"><path
           inkscape:connector-curvature="0"
           id="path5028"
           style="fill:#004585;fill-opacity:1;fill-rule:nonzero;stroke:none"
           d="m 0,0 -0.537,-4.328 h 1.442 c 0.448,0 0.841,0.064 1.183,0.19 0.342,0.125 0.631,0.303 0.864,0.531 0.235,0.23 0.408,0.5 0.529,0.813 0.119,0.312 0.176,0.655 0.176,1.028 0,0.575 -0.179,1.01 -0.541,1.314 C 2.758,-0.152 2.216,0 1.496,0 Z m -0.671,-5.399 -0.584,-4.74 H -2.72 l 1.378,11.3 H 1.632 C 2.23,1.161 2.75,1.097 3.188,0.972 3.625,0.844 3.989,0.664 4.276,0.431 c 0.286,-0.236 0.499,-0.52 0.639,-0.852 0.138,-0.335 0.21,-0.706 0.21,-1.115 0,-0.457 -0.07,-0.883 -0.208,-1.279 C 4.783,-3.207 4.586,-3.563 4.327,-3.875 4.069,-4.187 3.761,-4.452 3.397,-4.67 3.034,-4.887 2.622,-5.051 2.166,-5.156 2.334,-5.27 2.474,-5.428 2.585,-5.628 l 2.436,-4.511 H 3.713 c -0.259,0 -0.44,0.106 -0.555,0.317 l -2.126,4.069 c -0.069,0.129 -0.146,0.222 -0.237,0.275 -0.088,0.052 -0.232,0.079 -0.424,0.079 z" /></g><g
         transform="translate(457.2363,60.8164)"
         id="g5030"><path
           inkscape:connector-curvature="0"
           id="path5032"
           style="fill:#004585;fill-opacity:1;fill-rule:nonzero;stroke:none"
           d="m 0,0 c 0,0.574 -0.074,1.092 -0.221,1.558 -0.147,0.465 -0.357,0.86 -0.628,1.185 -0.269,0.326 -0.602,0.578 -0.993,0.758 -0.391,0.179 -0.831,0.267 -1.321,0.267 -0.619,0 -1.19,-0.123 -1.708,-0.372 C -5.395,3.144 -5.838,2.791 -6.212,2.327 -6.585,1.864 -6.877,1.307 -7.088,0.651 c -0.211,-0.655 -0.316,-1.387 -0.316,-2.196 0,-0.573 0.075,-1.09 0.222,-1.552 0.147,-0.464 0.356,-0.859 0.625,-1.185 0.273,-0.326 0.602,-0.575 0.989,-0.752 0.391,-0.176 0.829,-0.264 1.318,-0.264 0.632,0 1.206,0.124 1.726,0.369 0.522,0.248 0.969,0.602 1.341,1.061 0.373,0.464 0.662,1.018 0.871,1.672 C -0.104,-1.54 0,-0.81 0,0 M 1.514,0.031 C 1.514,-0.604 1.446,-1.205 1.312,-1.773 1.18,-2.341 0.987,-2.867 0.741,-3.352 0.495,-3.833 0.196,-4.271 -0.155,-4.661 -0.502,-5.053 -0.894,-5.387 -1.324,-5.659 L 0.953,-8.76 h -1.19 c -0.178,0 -0.338,0.027 -0.477,0.075 -0.139,0.05 -0.257,0.142 -0.349,0.273 l -1.555,2.152 c -0.281,-0.089 -0.571,-0.158 -0.87,-0.206 -0.297,-0.047 -0.605,-0.07 -0.92,-0.07 -0.694,0 -1.319,0.125 -1.873,0.371 -0.554,0.246 -1.027,0.589 -1.417,1.03 -0.391,0.437 -0.692,0.959 -0.9,1.564 -0.208,0.604 -0.311,1.265 -0.311,1.987 0,0.961 0.148,1.846 0.449,2.651 0.299,0.809 0.714,1.502 1.241,2.088 0.529,0.583 1.155,1.037 1.875,1.363 0.726,0.327 1.51,0.489 2.355,0.489 0.694,0 1.319,-0.125 1.873,-0.374 C -0.562,4.382 -0.088,4.036 0.304,3.596 0.695,3.155 0.996,2.629 1.201,2.023 1.409,1.415 1.514,0.753 1.514,0.031" /></g><g
         transform="translate(464.1279,55.5576)"
         id="g5034"><path
           inkscape:connector-curvature="0"
           id="path5036"
           style="fill:#004585;fill-opacity:1;fill-rule:nonzero;stroke:none"
           d="m 0,0 c 0.42,0 0.808,0.081 1.162,0.245 0.355,0.163 0.667,0.388 0.931,0.672 0.265,0.288 0.483,0.631 0.655,1.031 0.17,0.399 0.283,0.835 0.343,1.31 l 0.843,6.884 H 5.409 L 4.572,3.258 C 4.493,2.61 4.323,2.009 4.064,1.453 3.804,0.899 3.471,0.419 3.058,0.014 2.647,-0.396 2.173,-0.715 1.627,-0.944 1.083,-1.176 0.489,-1.293 -0.159,-1.293 c -0.583,0 -1.101,0.095 -1.552,0.283 -0.452,0.19 -0.835,0.454 -1.147,0.793 -0.314,0.34 -0.551,0.742 -0.715,1.211 -0.162,0.467 -0.242,0.981 -0.242,1.537 0,0.237 0.015,0.478 0.046,0.727 l 0.834,6.884 H -1.46 L -2.302,3.266 C -2.315,3.158 -2.322,3.056 -2.329,2.957 -2.34,2.856 -2.341,2.758 -2.341,2.664 -2.341,2.27 -2.29,1.912 -2.188,1.583 -2.087,1.258 -1.936,0.977 -1.739,0.742 -1.541,0.505 -1.297,0.322 -1.007,0.192 -0.715,0.064 -0.379,0 0,0" /></g><g
         transform="translate(478.2637,64.4912)"
         id="g5038"><path
           inkscape:connector-curvature="0"
           id="path5040"
           style="fill:#004585;fill-opacity:1;fill-rule:nonzero;stroke:none"
           d="m 0,0 h -4.942 l -0.474,-3.81 h 4.006 l -0.15,-1.158 h -4 l -0.479,-3.928 h 4.962 l -0.152,-1.197 h -6.442 l 1.396,11.3 H 0.15 Z" /></g></g></g></svg>