<?xml version="1.0" encoding="UTF-8" standalone="no"?>
<svg
   xmlns:dc="http://purl.org/dc/elements/1.1/"
   xmlns:cc="http://creativecommons.org/ns#"
   xmlns:rdf="http://www.w3.org/1999/02/22-rdf-syntax-ns#"
   xmlns:svg="http://www.w3.org/2000/svg"
   xmlns="http://www.w3.org/2000/svg"
   xmlns:sodipodi="http://sodipodi.sourceforge.net/DTD/sodipodi-0.dtd"
   xmlns:inkscape="http://www.inkscape.org/namespaces/inkscape"
   width="157mm"
   height="45mm"
   viewBox="0 0 157 45"
   version="1.1"
   id="svg8"
   inkscape:version="1.0.1 (3bc2e813f5, 2020-09-07)"
   sodipodi:docname="MTU_Logo_Colour_CMYK.svg">
  <defs
     id="defs2" />
  <sodipodi:namedview
     id="base"
     pagecolor="#ffffff"
     bordercolor="#666666"
     borderopacity="1.0"
     inkscape:pageopacity="0.0"
     inkscape:pageshadow="2"
     inkscape:zoom="1.5689623"
     inkscape:cx="296.69291"
     inkscape:cy="85.03937"
     inkscape:document-units="mm"
     inkscape:current-layer="layer1"
     inkscape:document-rotation="0"
     showgrid="false"
     inkscape:window-width="1645"
     inkscape:window-height="1039"
     inkscape:window-x="76"
     inkscape:window-y="76"
     inkscape:window-maximized="0" />
  <metadata
     id="metadata5">
    <rdf:RDF>
      <cc:Work
         rdf:about="">
        <dc:format>image/svg+xml</dc:format>
        <dc:type
           rdf:resource="http://purl.org/dc/dcmitype/StillImage" />
        <dc:title></dc:title>
      </cc:Work>
    </rdf:RDF>
  </metadata>
  <g
     inkscape:label="Capa 1"
     inkscape:groupmode="layer"
     id="layer1">
    <g
       id="g843"
       transform="matrix(0.03527778,0,0,-0.03527778,-21.473157,64.22461)">
      <path
         d="m 1634.38,985.469 c -6.78,-12.059 -15.27,-24.778 -25.98,-38.028 -64.17,-79.3 -180.3,-144.64 -345.21,-194.23 -38.11,-11.461 -79.45,-22.16 -122.78,-31.859 v -167.09 c 482.63,153.129 493.97,376.468 493.97,422.988 z m -30.79,102.781 H 1140.41 V 928.789 c 291.85,18.742 414.06,91.341 463.18,159.461 z M 1254.96,780.641 c -35.64,-10.68 -74.19,-20.719 -114.55,-29.922 v 149.34 c 182.25,11.57 410.58,53.14 493.97,178.961 1.63,-29.84 -11.3,-187.688 -379.42,-298.379"
         style="fill:#27adea;fill-opacity:1;fill-rule:nonzero;stroke:none"
         id="path845" />
      <path
         d="m 991.711,745.031 -87.43,45.969 -87.422,-45.969 16.77,97.93 -74.531,83.719 102.058,0.019 43.125,87.431 43.129,-87.368 h 99.58 l -24.78,-28.692 h -37.819 l 0.066,0.051 h -54.879 l -25.297,51.27 -25.238,-51.211 -56.137,-0.039 41.332,-46.352 -9.351,-54.41 49.394,25.973 49.403,-25.973 -9.332,54.242 15.367,17.789 h 37.836 L 974.91,843.16 Z M 608.723,1088.25 v -111 C 607.832,929.961 620.082,707.391 1102.71,554.262 V 1088.25 H 608.723"
         style="fill:#27adea;fill-opacity:1;fill-rule:nonzero;stroke:none"
         id="path847" />
      <path
         d="m 1527.29,1579.65 h -278.82 v -28.63 h 278.82 z m 0,-104.77 h -278.82 v -28.63 h 278.82 z m 0,-209.52 h -278.82 v -28.65 h 278.82 z m 0,104.77 h -278.82 v -28.65 h 278.82 z m 107.45,449.94 v -694.14 h -494.33 v 581.99 l 494.33,112.15"
         style="fill:#e11631;fill-opacity:1;fill-rule:nonzero;stroke:none"
         id="path849" />
      <path
         d="m 744.719,1333.57 -28.371,17.06 v 84.53 l 78.101,-46.96 62.051,44.49 62.492,-44.7 77.731,48.55 v -84.62 l -28.379,-17.72 v 53.17 l -50.336,-31.32 -61.758,44.17 -60.746,-43.58 -50.785,30.53 z m 0,116.28 -28.371,17.05 v 84.53 l 78.101,-46.95 62.051,44.48 62.492,-44.69 77.731,48.54 v -84.61 l -28.379,-17.73 v 53.17 l -50.336,-31.3 -61.758,44.15 -60.746,-43.57 -50.785,30.53 z m 252.004,-128.1 v -113.03 h -28.379 v 63.86 l -50.336,-31.32 -61.758,44.17 -60.746,-43.59 -50.785,30.54 v -63.66 h -3.086 -25.285 v 111.65 l 78.101,-46.96 62.051,44.49 62.492,-44.7 z m -388,265.55 v -461.37 h 493.987 v 573.44 z m 493.987,148.36 -355.62,-80.68 355.62,165.56 z"
         style="fill:#eea60b;fill-opacity:1;fill-rule:nonzero;stroke:none"
         id="path851" />
      <path
         d="m 4741.37,725.121 h 21.65 l -42.68,-135.473 c -1.14,-3.398 -2.37,-6.218 -3.71,-8.488 -1.36,-2.281 -2.98,-4.078 -4.89,-5.422 -1.92,-1.34 -4.21,-2.269 -6.91,-2.758 -2.68,-0.5 -5.8,-0.75 -9.33,-0.75 h -15.29 v 18.051 h 19.96 l 5.09,18.481 -36.73,116.359 h 22.29 l 16.56,-57.973 7.66,-33.539 h 2.32 l 7.65,33.539 z m -104.48,-110.41 c -7.64,0 -13.2,1.699 -16.67,5.09 -3.46,3.398 -5.19,8.91 -5.19,16.551 v 70.718 h -15.29 v 18.051 h 8.48 c 3.55,0 5.92,0.809 7.12,2.43 1.2,1.64 1.8,4.23 1.8,7.758 v 19.961 h 19.75 v -30.149 h 20.6 V 707.07 h -20.6 v -74.308 h 19.12 v -18.051 z m -78.76,110.41 h 21.86 v -110.41 h -21.86 z m 10.83,21.02 c -8.79,0 -13.18,3.75 -13.18,11.25 v 3.828 c 0,7.492 4.39,11.25 13.18,11.25 8.76,0 13.16,-3.758 13.16,-11.25 v -3.828 c 0,-7.5 -4.4,-11.25 -13.16,-11.25 z M 4495.48,612.16 c -9.2,0 -17.17,1.719 -23.89,5.192 -6.73,3.457 -12.57,8.507 -17.52,15.148 l 14.02,12.941 c 3.68,-5.293 7.71,-9.261 12.1,-11.91 4.39,-2.652 9.56,-3.972 15.49,-3.972 5.81,0 10.28,1.32 13.38,3.972 3.12,2.649 4.68,6.528 4.68,11.688 0,4.011 -0.99,7.23 -2.98,9.66 -1.98,2.422 -5.58,4.141 -10.83,5.133 l -9.55,1.718 c -11.18,1.981 -19.4,5.45 -24.63,10.391 -5.23,4.949 -7.85,12.301 -7.85,22.059 0,11.429 3.31,19.879 9.97,25.332 6.65,5.437 15.79,8.16 27.4,8.16 8.49,0 15.75,-1.461 21.76,-4.352 6.02,-2.898 11.28,-7.09 15.82,-12.59 l -13.17,-12.921 c -2.97,4.152 -6.55,7.25 -10.72,9.332 -4.17,2.078 -8.67,3.109 -13.48,3.109 -11.04,0 -16.56,-5.078 -16.56,-15.238 0,-4.43 1.13,-7.731 3.39,-9.871 2.27,-2.141 5.87,-3.641 10.82,-4.512 l 9.78,-1.899 c 11.47,-1.98 19.65,-5.492 24.52,-10.5 4.89,-5.019 7.33,-11.91 7.33,-20.66 0,-11.179 -3.39,-19.871 -10.19,-26.09 -6.8,-6.218 -16.49,-9.32 -29.09,-9.32 z m -105.95,2.551 v 110.41 h 21.87 v -21.883 h 2.55 c 1.55,7.09 4.49,12.5 8.8,16.262 4.32,3.75 9.81,5.621 16.47,5.621 h 5.52 v -22.293 h -9.35 c -7.79,0 -13.73,-1.488 -17.84,-4.469 -4.1,-2.968 -6.15,-7.718 -6.15,-14.218 v -69.43 z M 4322,710.25 c -7.35,0 -13.02,-2.23 -16.98,-6.691 -3.97,-4.438 -5.96,-11.137 -5.96,-20.071 v -4.437 h 44.4 v 4.437 c 0,17.852 -7.15,26.762 -21.46,26.762 z m 1.28,-98.09 c -6.93,0 -13.31,1.129 -19.11,3.399 -5.8,2.25 -10.76,5.761 -14.86,10.5 -4.1,4.742 -7.33,10.73 -9.66,17.941 -2.35,7.219 -3.51,15.852 -3.51,25.91 0,10.051 1.07,18.719 3.19,26.012 2.13,7.289 5.2,13.258 9.23,17.949 4.04,4.66 8.85,8.129 14.44,10.41 5.58,2.25 11.92,3.391 19,3.391 14.02,0 24.95,-4.602 32.81,-13.801 7.86,-9.211 11.79,-23.859 11.79,-43.961 v -5.519 h -67.54 v -7 c 0,-8.789 2.24,-15.512 6.7,-20.192 4.46,-4.66 10.59,-6.988 18.37,-6.988 6.65,0 12.13,1.48 16.45,4.437 4.32,2.993 7.96,7.153 10.94,12.551 l 12.74,-12.109 c -3.96,-6.93 -9.3,-12.5 -16.03,-16.668 -6.73,-4.184 -15.05,-6.262 -24.95,-6.262 z m -116.79,2.551 -33.34,110.41 h 22.08 l 16.16,-57.539 7.84,-33.973 h 2.77 l 7.64,33.973 16.13,57.539 h 21.46 l -33.34,-110.41 z m -72.41,110.41 h 21.88 v -110.41 h -21.88 z m 10.84,21.02 c -8.78,0 -13.16,3.75 -13.16,11.25 v 3.828 c 0,7.492 4.38,11.25 13.16,11.25 8.77,0 13.16,-3.758 13.16,-11.25 v -3.828 c 0,-7.5 -4.39,-11.25 -13.16,-11.25 z m -122.53,-131.43 v 110.41 h 21.88 v -18.269 h 2.55 c 4.38,13.878 13.44,20.82 27.17,20.82 9.92,0 17.59,-3.371 23.05,-10.09 5.45,-6.73 8.17,-16.594 8.17,-29.621 v -73.25 h -21.87 v 70.277 c 0,7.782 -1.49,13.731 -4.46,17.84 -2.97,4.102 -7.65,6.16 -14.02,6.16 -5.8,0 -10.69,-1.738 -14.65,-5.218 -3.97,-3.461 -5.94,-8.309 -5.94,-14.532 v -74.527 z m -108.7,148.211 v -95.981 c 0,-11.89 2.04,-20.679 6.15,-26.332 4.11,-5.66 11.39,-8.5 21.87,-8.5 10.48,0 17.76,2.84 21.87,8.5 4.11,5.653 6.16,14.442 6.16,26.332 v 95.981 h 22.51 v -92.371 c 0,-10.051 -0.89,-18.75 -2.66,-26.121 -1.77,-7.371 -4.63,-13.45 -8.59,-18.27 -3.97,-4.801 -9.17,-8.351 -15.61,-10.601 -6.44,-2.27 -14.34,-3.399 -23.68,-3.399 -9.34,0 -17.24,1.129 -23.67,3.399 -6.45,2.25 -11.65,5.8 -15.61,10.601 -3.97,4.82 -6.83,10.899 -8.6,18.27 -1.77,7.371 -2.66,16.07 -2.66,26.121 v 92.371 z m -101.3,-148.211 c -7.63,0 -13.15,1.711 -16.55,5.187 -3.41,3.481 -5.11,8.891 -5.11,16.262 v 135.672 h 21.89 v -139.07 h 13.15 v -18.051 z m -96.18,14.43 c 3.11,0 5.98,0.5 8.6,1.48 2.62,0.988 4.88,2.328 6.79,4.027 1.92,1.704 3.44,3.743 4.56,6.071 1.14,2.332 1.7,4.84 1.7,7.531 v 15.289 h -17.19 c -13.74,0 -20.59,-4.949 -20.59,-14.859 v -5.098 c 0,-4.961 1.44,-8.602 4.35,-10.941 2.89,-2.332 6.82,-3.5 11.78,-3.5 z m 39.92,-14.43 c -5.38,0 -9.56,1.48 -12.53,4.449 -2.97,2.969 -4.45,7.66 -4.45,14.012 h -2.55 c -1.56,-6.652 -4.78,-11.813 -9.67,-15.5 -4.89,-3.672 -10.86,-5.512 -17.94,-5.512 -10.47,0 -18.3,2.789 -23.46,8.371 -5.18,5.598 -7.76,13.489 -7.76,23.68 0,11.039 3.54,19.48 10.62,25.277 7.08,5.813 17.48,8.711 31.22,8.711 h 18.25 v 10.602 c 0,7.078 -1.55,12.289 -4.66,15.609 -3.12,3.328 -8.07,4.988 -14.87,4.988 -5.23,0 -9.74,-1.117 -13.48,-3.398 -3.75,-2.27 -7.18,-6.07 -10.3,-11.461 l -12.95,11.902 c 3.67,6.219 8.67,11.321 14.97,15.289 6.3,3.95 14.05,5.942 23.25,5.942 13.31,0 23.29,-3.223 29.95,-9.66 6.64,-6.453 9.98,-15.891 9.98,-28.364 v -56.886 h 10.4 v -18.051 z m -130.58,-2.551 c -14.46,0 -25.56,4.59 -33.35,13.809 -7.79,9.179 -11.67,23.832 -11.67,43.941 0,20.102 3.88,34.75 11.67,43.961 7.79,9.199 18.89,13.801 33.35,13.801 10.61,0 19.1,-2.453 25.47,-7.32 6.36,-4.891 10.97,-11.364 13.8,-19.442 l -18.04,-8.488 c -1.28,5.519 -3.59,9.738 -6.91,12.637 -3.33,2.89 -8.09,4.339 -14.32,4.339 -14.59,0 -21.88,-8.839 -21.88,-26.539 v -25.91 c 0,-17.687 7.29,-26.539 21.88,-26.539 6.36,0 11.34,1.52 14.96,4.57 3.61,3.051 6.4,7.532 8.39,13.481 l 16.57,-9.129 c -3.26,-8.633 -8.18,-15.32 -14.77,-20.062 -6.58,-4.739 -14.97,-7.11 -25.15,-7.11 z m -89.62,112.961 h 21.88 v -110.41 h -21.88 z m 10.84,21.02 c -8.78,0 -13.17,3.75 -13.17,11.25 v 3.828 c 0,7.492 4.39,11.25 13.17,11.25 8.78,0 13.16,-3.758 13.16,-11.25 v -3.828 c 0,-7.5 -4.38,-11.25 -13.16,-11.25 z M 3469.26,668 c 12.6,0 18.9,6.23 18.9,18.691 v 6.36 c 0,12.461 -6.3,18.679 -18.9,18.679 -12.6,0 -18.9,-6.218 -18.9,-18.679 v -6.36 c 0,-12.461 6.3,-18.691 18.9,-18.691 z m 30.58,-66.461 c 0,4.102 -1.35,7.281 -4.04,9.551 -2.68,2.269 -7.22,3.398 -13.58,3.398 h -33.98 c -4.25,-2.976 -6.37,-7.367 -6.37,-13.168 0,-4.949 1.6,-8.808 4.78,-11.57 3.17,-2.75 8.59,-4.129 16.24,-4.129 h 13.16 c 8.35,0 14.41,1.301 18.16,3.918 3.75,2.609 5.63,6.621 5.63,12 z m 20.6,2.231 c 0,-5.79 -0.93,-10.809 -2.76,-15.032 -1.84,-4.25 -4.82,-7.758 -8.92,-10.59 -4.11,-2.82 -9.38,-4.929 -15.82,-6.347 -6.44,-1.41 -14.34,-2.121 -23.68,-2.121 -8.35,0 -15.42,0.609 -21.23,1.8 -5.8,1.2 -10.52,2.918 -14.12,5.192 -3.62,2.25 -6.2,5.039 -7.75,8.34 -1.56,3.308 -2.34,7.078 -2.34,11.308 0,5.649 1.52,10.129 4.57,13.43 3.05,3.32 7.24,5.391 12.63,6.238 v 3.594 c -3.96,1.418 -6.9,3.539 -8.81,6.387 -1.92,2.82 -2.86,6.222 -2.86,10.191 0,4.942 1.59,8.942 4.77,11.981 3.18,3.05 7.46,5 12.84,5.847 v 2.551 c -11.88,6.102 -17.83,17.172 -17.83,33.211 0,12.219 3.36,21.59 10.09,28.121 6.72,6.52 16.73,9.801 30.04,9.801 6.52,0 12.46,-1.063 17.83,-3.192 v 3.602 c 0,9.066 4.39,13.59 13.17,13.59 h 15.29 v -17.391 h -20.38 v -4.91 c 4.53,-2.84 8.03,-6.789 10.5,-11.82 2.48,-5.039 3.72,-10.961 3.72,-17.781 0,-12.211 -3.35,-21.54 -10.08,-28 -6.72,-6.469 -16.74,-9.7 -30.05,-9.7 -2.55,0 -4.98,0.141 -7.33,0.442 -2.33,0.269 -4.56,0.629 -6.69,1.039 -2.83,-0.852 -4.95,-2.289 -6.36,-4.34 -1.42,-2.063 -2.12,-4.289 -2.12,-6.699 0,-2.821 0.95,-4.953 2.86,-6.352 1.91,-1.43 5.07,-2.14 9.45,-2.14 h 26.55 c 12.59,0 21.55,-2.61 26.85,-7.821 5.31,-5.23 7.97,-12.699 7.97,-22.429 z m -156.5,26.64 c 7.37,0 12.98,2.192 16.88,6.602 3.9,4.379 5.84,11.027 5.84,19.937 v 25.91 c 0,8.93 -1.94,15.571 -5.84,19.969 -3.9,4.383 -9.51,6.57 -16.88,6.57 -7.36,0 -12.98,-2.187 -16.88,-6.57 -3.9,-4.398 -5.84,-11.039 -5.84,-19.969 v -25.91 c 0,-8.91 1.94,-15.558 5.84,-19.937 3.9,-4.41 9.52,-6.602 16.88,-6.602 z m 0,-18.25 c -7.08,0 -13.41,1.129 -19,3.399 -5.59,2.25 -10.41,5.722 -14.43,10.41 -4.05,4.652 -7.12,10.64 -9.25,17.929 -2.12,7.293 -3.17,15.954 -3.17,26.012 0,10.051 1.05,18.719 3.17,26.012 2.13,7.289 5.2,13.258 9.25,17.949 4.02,4.66 8.84,8.129 14.43,10.41 5.59,2.25 11.92,3.391 19,3.391 6.93,0 13.23,-1.141 18.9,-3.391 5.66,-2.281 10.51,-5.75 14.54,-10.41 4.05,-4.691 7.12,-10.66 9.24,-17.949 2.13,-7.293 3.18,-15.961 3.18,-26.012 0,-10.058 -1.05,-18.719 -3.18,-26.012 -2.12,-7.289 -5.19,-13.277 -9.24,-17.929 -4.03,-4.688 -8.88,-8.16 -14.54,-10.41 -5.67,-2.27 -11.97,-3.399 -18.9,-3.399 z m -72.4,2.551 c -7.65,0 -13.17,1.711 -16.57,5.187 -3.4,3.481 -5.1,8.891 -5.1,16.262 v 135.672 h 21.88 v -139.07 h 13.16 v -18.051 z m -90.25,15.699 c 7.36,0 12.99,2.192 16.88,6.602 3.89,4.379 5.84,11.027 5.84,19.937 v 25.91 c 0,8.93 -1.95,15.571 -5.84,19.969 -3.89,4.383 -9.52,6.57 -16.88,6.57 -7.35,0 -12.99,-2.187 -16.88,-6.57 -3.9,-4.398 -5.85,-11.039 -5.85,-19.969 v -25.91 c 0,-8.91 1.95,-15.558 5.85,-19.937 3.89,-4.41 9.53,-6.602 16.88,-6.602 z m 0,-18.25 c -7.08,0 -13.41,1.129 -19,3.399 -5.6,2.25 -10.41,5.722 -14.44,10.41 -4.03,4.652 -7.12,10.64 -9.24,17.929 -2.13,7.293 -3.18,15.954 -3.18,26.012 0,10.051 1.05,18.719 3.18,26.012 2.12,7.289 5.21,13.258 9.24,17.949 4.03,4.66 8.84,8.129 14.44,10.41 5.59,2.25 11.92,3.391 19,3.391 6.93,0 13.23,-1.141 18.9,-3.391 5.66,-2.281 10.5,-5.75 14.55,-10.41 4.03,-4.691 7.12,-10.66 9.22,-17.949 2.13,-7.293 3.2,-15.961 3.2,-26.012 0,-10.058 -1.07,-18.719 -3.2,-26.012 -2.1,-7.289 -5.19,-13.277 -9.22,-17.929 -4.05,-4.688 -8.89,-8.16 -14.55,-10.41 -5.67,-2.27 -11.97,-3.399 -18.9,-3.399 z m -150.33,2.551 v 110.41 h 21.86 v -18.269 h 2.55 c 4.4,13.878 13.45,20.82 27.19,20.82 9.9,0 17.58,-3.371 23.03,-10.09 5.45,-6.73 8.18,-16.594 8.18,-29.621 v -73.25 h -21.88 v 70.277 c 0,7.782 -1.48,13.731 -4.45,17.84 -2.98,4.102 -7.65,6.16 -14.02,6.16 -5.8,0 -10.69,-1.738 -14.65,-5.218 -3.97,-3.461 -5.95,-8.309 -5.95,-14.532 v -74.527 z m -111.49,157.121 h 21.88 v -64.98 h 2.55 c 4.38,13.878 13.44,20.82 27.18,20.82 9.91,0 17.59,-3.371 23.04,-10.09 5.44,-6.73 8.17,-16.594 8.17,-29.621 v -73.25 h -21.87 v 70.277 c 0,7.782 -1.48,13.731 -4.46,17.84 -2.97,4.102 -7.64,6.16 -14.02,6.16 -5.8,0 -10.69,-1.738 -14.65,-5.218 -3.96,-3.461 -5.94,-8.309 -5.94,-14.532 v -74.527 h -21.88 z M 2879.81,612.16 c -14.43,0 -25.55,4.59 -33.33,13.809 -7.79,9.179 -11.68,23.832 -11.68,43.941 0,20.102 3.89,34.75 11.68,43.961 7.78,9.199 18.9,13.801 33.33,13.801 10.62,0 19.12,-2.453 25.48,-7.32 6.37,-4.891 10.97,-11.364 13.81,-19.442 l -18.06,-8.488 c -1.26,5.519 -3.57,9.738 -6.9,12.637 -3.32,2.89 -8.1,4.339 -14.33,4.339 -14.58,0 -21.86,-8.839 -21.86,-26.539 v -25.91 c 0,-17.687 7.28,-26.539 21.86,-26.539 6.37,0 11.36,1.52 14.98,4.57 3.6,3.051 6.39,7.532 8.38,13.481 l 16.56,-9.129 c -3.26,-8.633 -8.18,-15.32 -14.75,-20.062 -6.59,-4.739 -14.97,-7.11 -25.17,-7.11 z m -103.64,98.09 c -7.36,0 -13.03,-2.23 -16.99,-6.691 -3.96,-4.438 -5.94,-11.137 -5.94,-20.071 v -4.437 h 44.38 v 4.437 c 0,17.852 -7.16,26.762 -21.45,26.762 z m 1.27,-98.09 c -6.93,0 -13.3,1.129 -19.11,3.399 -5.81,2.25 -10.75,5.761 -14.86,10.5 -4.11,4.742 -7.33,10.73 -9.66,17.941 -2.34,7.219 -3.5,15.852 -3.5,25.91 0,10.051 1.05,18.719 3.18,26.012 2.12,7.289 5.2,13.258 9.24,17.949 4.03,4.66 8.84,8.129 14.44,10.41 5.58,2.25 11.91,3.391 19,3.391 14.02,0 24.95,-4.602 32.8,-13.801 7.87,-9.211 11.79,-23.859 11.79,-43.961 v -5.519 h -67.52 v -7 c 0,-8.789 2.23,-15.512 6.68,-20.192 4.46,-4.66 10.59,-6.988 18.37,-6.988 6.65,0 12.14,1.48 16.46,4.437 4.31,2.993 7.96,7.153 10.93,12.551 l 12.75,-12.109 c -3.97,-6.93 -9.31,-12.5 -16.04,-16.668 -6.73,-4.184 -15.04,-6.262 -24.95,-6.262 z m -80.81,130.801 v -128.25 h -22.51 v 128.25 h -39.29 v 19.961 h 101.08 v -19.961 z m -156.49,-128.25 v 110.41 h 21.88 v -21.883 h 2.55 c 1.54,7.09 4.48,12.5 8.8,16.262 4.32,3.75 9.8,5.621 16.45,5.621 h 5.53 v -22.293 h -9.34 c -7.79,0 -13.73,-1.488 -17.84,-4.469 -4.11,-2.968 -6.15,-7.718 -6.15,-14.218 v -69.43 z m -67.52,95.539 c -7.36,0 -13.03,-2.23 -16.99,-6.691 -3.97,-4.438 -5.94,-11.137 -5.94,-20.071 v -4.437 h 44.37 v 4.437 c 0,17.852 -7.15,26.762 -21.44,26.762 z m 1.27,-98.09 c -6.93,0 -13.3,1.129 -19.11,3.399 -5.81,2.25 -10.76,5.761 -14.86,10.5 -4.11,4.742 -7.33,10.73 -9.67,17.941 -2.33,7.219 -3.49,15.852 -3.49,25.91 0,10.051 1.05,18.719 3.18,26.012 2.12,7.289 5.2,13.258 9.24,17.949 4.03,4.66 8.84,8.129 14.44,10.41 5.58,2.25 11.92,3.391 19,3.391 14.02,0 24.95,-4.602 32.81,-13.801 7.85,-9.211 11.78,-23.859 11.78,-43.961 v -5.519 h -67.52 v -7 c 0,-8.789 2.23,-15.512 6.68,-20.192 4.46,-4.66 10.59,-6.988 18.37,-6.988 6.65,0 12.14,1.48 16.46,4.437 4.31,2.993 7.96,7.153 10.93,12.551 l 12.75,-12.109 c -3.97,-6.93 -9.31,-12.5 -16.04,-16.668 -6.72,-4.184 -15.05,-6.262 -24.95,-6.262 z m -81.54,2.551 c -7.64,0 -13.19,1.699 -16.66,5.09 -3.48,3.398 -5.21,8.91 -5.21,16.551 v 70.718 h -15.28 v 18.051 h 8.49 c 3.54,0 5.91,0.809 7.12,2.43 1.19,1.64 1.8,4.23 1.8,7.758 v 19.961 h 19.74 v -30.149 h 20.6 V 707.07 h -20.6 v -74.308 h 19.12 v -18.051 z m -89.39,-2.551 c -9.21,0 -17.17,1.719 -23.88,5.192 -6.74,3.457 -12.58,8.507 -17.53,15.148 l 14.01,12.941 c 3.68,-5.293 7.72,-9.261 12.11,-11.91 4.38,-2.652 9.56,-3.972 15.5,-3.972 5.8,0 10.27,1.32 13.38,3.972 3.11,2.649 4.67,6.528 4.67,11.688 0,4.011 -0.99,7.23 -2.97,9.66 -1.99,2.422 -5.6,4.141 -10.83,5.133 l -9.56,1.718 c -11.18,1.981 -19.4,5.45 -24.63,10.391 -5.23,4.949 -7.86,12.301 -7.86,22.059 0,11.429 3.33,19.879 9.98,25.332 6.66,5.437 15.79,8.16 27.39,8.16 8.5,0 15.76,-1.461 21.77,-4.352 6.01,-2.898 11.29,-7.09 15.82,-12.59 l -13.17,-12.921 c -2.97,4.152 -6.54,7.25 -10.72,9.332 -4.17,2.078 -8.67,3.109 -13.48,3.109 -11.05,0 -16.57,-5.078 -16.57,-15.238 0,-4.43 1.14,-7.731 3.41,-9.871 2.25,-2.141 5.86,-3.641 10.82,-4.512 l 9.77,-1.899 c 11.46,-1.98 19.64,-5.492 24.53,-10.5 4.88,-5.019 7.32,-11.91 7.32,-20.66 0,-11.179 -3.39,-19.871 -10.19,-26.09 -6.8,-6.218 -16.5,-9.32 -29.09,-9.32 z m -143.76,2.551 v 110.41 h 21.88 v -18.269 h 2.55 c 4.38,13.878 13.44,20.82 27.18,20.82 9.9,0 17.58,-3.371 23.03,-10.09 5.45,-6.73 8.18,-16.594 8.18,-29.621 v -73.25 h -21.87 v 70.277 c 0,7.782 -1.49,13.731 -4.47,17.84 -2.96,4.102 -7.64,6.16 -14.01,6.16 -5.81,0 -10.68,-1.738 -14.64,-5.218 -3.97,-3.461 -5.95,-8.309 -5.95,-14.532 v -74.527 z m -51.59,18.238 h -2.76 c -4.39,-13.859 -13.53,-20.789 -27.39,-20.789 -9.77,0 -17.38,3.36 -22.83,10.07 -5.45,6.731 -8.17,16.61 -8.17,29.622 v 73.269 h 21.87 V 654.84 c 0,-16 6.23,-24 18.68,-24 5.66,0 10.51,1.742 14.54,5.191 4.04,3.481 6.06,8.321 6.06,14.559 v 74.531 h 21.87 v -110.41 h -21.87 z M 1994.86,706 l 1.48,25.281 h -2.55 l -10.19,-24.84 -28.88,-60.312 -28.66,60.312 -10.2,24.411 h -2.54 L 1914.81,706 v -91.289 h -21.67 v 148.211 h 26.55 l 23.99,-51.82 10.41,-29.301 h 1.92 l 10.39,29.301 23.79,51.82 h 26.32 V 614.711 h -21.65 z m 2972.61,146.301 v 111.488 h 29.72 v -18.898 h 3.4 c 0.85,2.961 1.98,5.718 3.39,8.269 1.41,2.551 3.19,4.82 5.32,6.801 2.12,1.98 4.6,3.527 7.42,4.68 2.83,1.121 6.09,1.699 9.77,1.699 10.05,0 17.73,-3.379 23.04,-10.102 5.3,-6.718 7.96,-16.097 7.96,-28.136 v -75.801 h -29.72 v 70.078 c 0,13.172 -4.62,19.742 -13.81,19.742 -4.53,0 -8.45,-1.383 -11.77,-4.141 -3.34,-2.75 -5,-6.621 -5,-11.57 v -74.109 z m -73.06,18.281 c 4.39,0 8.18,1.219 11.37,3.707 3.19,2.473 4.78,6.313 4.78,11.57 v 13.801 h -13.38 c -10.19,0 -15.29,-4.238 -15.29,-12.75 v -4.039 c 0,-4.242 1.09,-7.359 3.3,-9.34 2.18,-1.972 5.27,-2.949 9.22,-2.949 z m 37.81,-18.281 c -11.61,0 -17.91,6.437 -18.9,19.32 h -2.76 c -1.14,-6.789 -4.17,-12.121 -9.13,-16.019 -4.97,-3.903 -11.26,-5.84 -18.9,-5.84 -10.06,0 -17.63,2.859 -22.73,8.59 -5.09,5.75 -7.63,13.699 -7.63,23.898 0,12.16 3.72,21.012 11.14,26.539 7.43,5.52 17.8,8.27 31.1,8.27 h 16.15 v 8.632 c 0,5.77 -1.2,10.059 -3.62,12.86 -2.4,2.801 -6.43,4.199 -12.09,4.199 -4.96,0 -9.11,-1.219 -12.42,-3.672 -3.34,-2.457 -6.27,-5.726 -8.82,-9.789 l -17.62,15.762 c 4.53,6.648 10.05,11.859 16.57,15.64 6.5,3.758 14.85,5.649 25.05,5.649 14.57,0 25.33,-3.399 32.27,-10.192 6.94,-6.796 10.4,-16.929 10.4,-30.378 v -50.321 h 9.13 v -23.148 z m -187.28,157.129 h 29.72 v -64.539 h 3.4 c 0.85,2.961 2.02,5.718 3.5,8.269 1.5,2.551 3.29,4.82 5.42,6.801 2.11,1.98 4.59,3.527 7.42,4.68 2.85,1.121 6.17,1.699 9.99,1.699 9.91,0 17.48,-3.379 22.72,-10.102 5.23,-6.718 7.86,-16.097 7.86,-28.136 v -75.801 h -29.73 v 70.078 c 0,13.172 -4.61,19.742 -13.8,19.742 -4.54,0 -8.47,-1.383 -11.78,-4.141 -3.33,-2.75 -5,-6.621 -5,-11.57 v -74.109 h -29.72 z M 4574.21,852.301 v 111.488 h 29.73 v -18.898 h 3.39 c 0.85,2.961 2.04,5.718 3.51,8.269 1.48,2.551 3.26,4.82 5.31,6.801 2.05,1.98 4.48,3.527 7.33,4.68 2.83,1.121 6.08,1.699 9.76,1.699 7.23,0 12.95,-1.961 17.2,-5.852 4.25,-3.886 7.36,-9.437 9.34,-16.668 h 2.77 c 2.4,7.782 6.19,13.489 11.35,17.11 5.17,3.59 11.16,5.41 17.96,5.41 9.47,0 16.73,-3.399 21.75,-10.192 5.02,-6.796 7.54,-16.148 7.54,-28.046 v -75.801 h -29.72 v 70.078 c 0,13.172 -4.33,19.742 -12.95,19.742 -4.4,0 -8.16,-1.383 -11.26,-4.141 -3.12,-2.75 -4.67,-6.621 -4.67,-11.57 v -74.109 h -29.73 v 70.078 c 0,13.172 -4.32,19.742 -12.96,19.742 -4.39,0 -8.14,-1.383 -11.25,-4.141 -3.11,-2.75 -4.67,-6.621 -4.67,-11.57 v -74.109 z m -54.79,18.91 h -3.39 c -0.85,-2.992 -2.02,-5.742 -3.5,-8.289 -1.49,-2.551 -3.29,-4.813 -5.42,-6.801 -2.12,-1.98 -4.6,-3.539 -7.42,-4.672 -2.83,-1.121 -6.16,-1.687 -9.98,-1.687 -9.92,0 -17.49,3.347 -22.73,10.09 -5.24,6.718 -7.85,16.097 -7.85,28.117 v 75.82 h 29.73 v -70.07 c 0,-13.168 4.6,-19.75 13.8,-19.75 4.52,0 8.45,1.371 11.77,4.133 3.33,2.757 4.99,6.617 4.99,11.57 v 74.117 h 29.74 V 852.301 h -29.74 z m -114.22,58.391 1.69,24.847 h -3.39 l -9.13,-23.578 -24.64,-53.723 -24.41,53.723 -9.14,23.578 h -3.39 l 1.69,-24.847 v -77.301 h -28.45 v 148.219 h 31.85 l 20.18,-44.18 11.04,-31.629 h 2.12 l 11.04,31.629 19.75,44.18 h 31.63 V 852.301 h -28.44 z m -217.87,-59.02 c 4.39,0 8.19,1.219 11.37,3.707 3.18,2.473 4.78,6.313 4.78,11.57 v 13.801 h -13.38 c -10.2,0 -15.3,-4.238 -15.3,-12.75 v -4.039 c 0,-4.242 1.11,-7.359 3.31,-9.34 2.18,-1.972 5.27,-2.949 9.22,-2.949 z m 37.81,-18.281 c -11.61,0 -17.91,6.437 -18.9,19.32 h -2.76 c -1.15,-6.789 -4.18,-12.121 -9.14,-16.019 -4.96,-3.903 -11.24,-5.84 -18.89,-5.84 -10.06,0 -17.63,2.859 -22.73,8.59 -5.08,5.75 -7.63,13.699 -7.63,23.898 0,12.16 3.71,21.012 11.13,26.539 7.44,5.52 17.8,8.27 31.11,8.27 h 16.15 v 8.632 c 0,5.77 -1.21,10.059 -3.61,12.86 -2.41,2.801 -6.45,4.199 -12.11,4.199 -4.96,0 -9.1,-1.219 -12.42,-3.672 -3.33,-2.457 -6.26,-5.726 -8.81,-9.789 l -17.62,15.762 c 4.52,6.648 10.04,11.859 16.56,15.64 6.5,3.758 14.86,5.649 25.06,5.649 14.57,0 25.34,-3.399 32.26,-10.192 6.94,-6.796 10.41,-16.929 10.41,-30.378 v -50.321 h 9.12 v -23.148 z m -187.29,0 v 111.488 h 29.73 v -18.898 h 3.4 c 0.85,2.961 1.98,5.718 3.4,8.269 1.41,2.551 3.19,4.82 5.3,6.801 2.13,1.98 4.6,3.527 7.43,4.68 2.84,1.121 6.09,1.699 9.77,1.699 10.05,0 17.73,-3.379 23.04,-10.102 5.3,-6.718 7.96,-16.097 7.96,-28.136 v -75.801 h -29.72 v 70.078 c 0,13.172 -4.61,19.742 -13.8,19.742 -4.54,0 -8.46,-1.383 -11.79,-4.141 -3.33,-2.75 -4.99,-6.621 -4.99,-11.57 v -74.109 z m -117.2,18.281 c 4.38,0 8.17,1.219 11.35,3.707 3.2,2.473 4.79,6.313 4.79,11.57 v 13.801 h -13.38 c -10.2,0 -15.29,-4.238 -15.29,-12.75 v -4.039 c 0,-4.242 1.1,-7.359 3.29,-9.34 2.19,-1.972 5.27,-2.949 9.24,-2.949 z m 37.79,-18.281 c -11.6,0 -17.9,6.437 -18.9,19.32 h -2.75 c -1.15,-6.789 -4.18,-12.121 -9.14,-16.019 -4.95,-3.903 -11.25,-5.84 -18.9,-5.84 -10.05,0 -17.62,2.859 -22.71,8.59 -5.09,5.75 -7.65,13.699 -7.65,23.898 0,12.16 3.72,21.012 11.14,26.539 7.44,5.52 17.81,8.27 31.12,8.27 h 16.14 v 8.632 c 0,5.77 -1.21,10.059 -3.61,12.86 -2.41,2.801 -6.45,4.199 -12.11,4.199 -4.96,0 -9.1,-1.219 -12.42,-3.672 -3.33,-2.457 -6.27,-5.726 -8.82,-9.789 l -17.62,15.762 c 4.53,6.648 10.06,11.859 16.57,15.64 6.5,3.758 14.86,5.649 25.05,5.649 14.59,0 25.34,-3.399 32.28,-10.192 6.93,-6.796 10.4,-16.929 10.4,-30.378 v -50.321 h 9.13 v -23.148 z m -110.83,0 c -10.2,0 -17.6,2.269 -22.2,6.801 -4.6,4.519 -6.9,11.75 -6.9,21.668 v 59.871 h -14.02 v 23.148 h 6.8 c 3.97,0 6.66,0.852 8.07,2.551 1.41,1.699 2.12,4.449 2.12,8.269 v 19.321 h 26.76 v -30.141 h 19.53 v -23.148 h -19.53 v -65.192 h 17.4 v -23.148 z m -148.22,157.129 h 29.72 v -64.539 h 3.4 c 0.85,2.961 2.03,5.718 3.51,8.269 1.49,2.551 3.29,4.82 5.42,6.801 2.11,1.98 4.6,3.527 7.43,4.68 2.83,1.121 6.16,1.699 9.98,1.699 9.9,0 17.48,-3.379 22.72,-10.102 5.23,-6.718 7.85,-16.097 7.85,-28.136 v -75.801 h -29.72 v 70.078 c 0,13.172 -4.6,19.742 -13.81,19.742 -4.53,0 -8.46,-1.383 -11.78,-4.141 -3.33,-2.75 -5,-6.621 -5,-11.57 v -74.109 h -29.72 z m -57.75,-159.668 c -15.58,0 -27.32,4.738 -35.25,14.218 -7.93,9.481 -11.89,24.129 -11.89,43.961 0,19.809 3.96,34.5 11.89,44.059 7.93,9.559 19.67,14.34 35.25,14.34 11.04,0 19.85,-2.531 26.44,-7.551 6.58,-5.027 11.28,-12.148 14.11,-21.34 l -24,-10.609 c -0.7,5.371 -2.32,9.379 -4.87,11.992 -2.55,2.617 -6.44,3.918 -11.68,3.918 -10.76,0 -16.13,-6.352 -16.13,-19.09 v -31.219 c 0,-12.742 5.37,-19.121 16.13,-19.121 5.38,0 9.37,1.379 11.99,4.141 2.62,2.769 4.56,6.98 5.84,12.648 l 23.15,-10.187 c -6.09,-20.113 -19.74,-30.16 -40.98,-30.16 z m -106.82,23.558 c 10.9,0 16.36,6.379 16.36,19.121 v 31.219 c 0,12.738 -5.46,19.09 -16.36,19.09 -10.89,0 -16.33,-6.352 -16.33,-19.09 v -31.219 c 0,-12.742 5.44,-19.121 16.33,-19.121 z m 0,-23.558 c -15.56,0 -27.35,4.738 -35.35,14.218 -8,9.481 -11.99,24.129 -11.99,43.961 0,19.809 3.99,34.5 11.99,44.059 8,9.559 19.79,14.34 35.35,14.34 15.58,0 27.37,-4.781 35.37,-14.34 7.99,-9.559 12,-24.25 12,-44.059 0,-19.832 -4.01,-34.48 -12,-43.961 -8,-9.48 -19.79,-14.218 -35.37,-14.218 z m -77.49,125.476 -17.42,8.301 19.54,42.031 25.28,-12.31 z m -18.27,-122.937 v 111.488 h 29.74 V 852.301 Z m -73.03,18.281 c 4.38,0 8.17,1.219 11.36,3.707 3.18,2.473 4.77,6.313 4.77,11.57 v 13.801 h -13.38 c -10.2,0 -15.28,-4.238 -15.28,-12.75 v -4.039 c 0,-4.242 1.09,-7.359 3.29,-9.34 2.19,-1.972 5.27,-2.949 9.24,-2.949 z m 37.79,-18.281 c -11.61,0 -17.91,6.437 -18.9,19.32 h -2.76 c -1.13,-6.789 -4.18,-12.121 -9.13,-16.019 -4.96,-3.903 -11.25,-5.84 -18.9,-5.84 -10.06,0 -17.63,2.859 -22.71,8.59 -5.1,5.75 -7.65,13.699 -7.65,23.898 0,12.16 3.71,21.012 11.14,26.539 7.43,5.52 17.8,8.27 31.12,8.27 h 16.13 v 8.632 c 0,5.77 -1.2,10.059 -3.61,12.86 -2.41,2.801 -6.44,4.199 -12.1,4.199 -4.96,0 -9.11,-1.219 -12.43,-3.672 -3.33,-2.457 -6.26,-5.726 -8.81,-9.789 l -17.62,15.762 c 4.52,6.648 10.05,11.859 16.56,15.64 6.5,3.758 14.86,5.649 25.06,5.649 14.58,0 25.34,-3.399 32.27,-10.192 6.94,-6.796 10.41,-16.929 10.41,-30.378 v -50.321 h 9.13 v -23.148 z m -102.56,0 c -10.33,0 -17.72,2.301 -22.19,6.898 -4.45,4.602 -6.69,11.653 -6.69,21.129 v 129.102 h 29.73 V 875.449 h 12.53 v -23.148 z m -94.91,21.019 c 10.9,0 16.35,6.379 16.35,19.121 v 31.219 c 0,12.738 -5.45,19.09 -16.35,19.09 -10.91,0 -16.36,-6.352 -16.36,-19.09 v -31.219 c 0,-12.742 5.45,-19.121 16.36,-19.121 z m 0,-23.558 c -15.58,0 -27.37,4.738 -35.35,14.218 -8,9.481 -12.02,24.129 -12.02,43.961 0,19.809 4.02,34.5 12.02,44.059 7.98,9.559 19.77,14.34 35.35,14.34 15.56,0 27.34,-4.781 35.34,-14.34 8,-9.559 12.01,-24.25 12.01,-44.059 0,-19.832 -4.01,-34.48 -12.01,-43.961 -8,-9.48 -19.78,-14.218 -35.34,-14.218 z m -107.02,94.277 c -10.9,0 -16.36,-6.32 -16.36,-18.957 v -6.742 h 32.7 v 6.742 c 0,12.637 -5.45,18.957 -16.34,18.957 z m 2.96,-94.277 c -15.28,0 -27.5,4.84 -36.62,14.527 -9.13,9.699 -13.71,24.25 -13.71,43.652 0,19.809 4.02,34.5 12.01,44.059 7.99,9.559 19.78,14.34 35.36,14.34 15.56,0 27.35,-4.77 35.35,-14.301 8,-9.519 12,-24.16 12,-43.918 v -7.191 h -63.71 v -7.02 c 0,-6.219 1.92,-11.211 5.74,-14.961 3.82,-3.758 9.05,-5.629 15.71,-5.629 5.52,0 10.23,1.239 14.12,3.719 3.89,2.481 7.47,5.922 10.73,10.301 l 15.08,-17.731 c -4.54,-6.121 -10.31,-10.961 -17.32,-14.519 -7,-3.551 -15.25,-5.328 -24.74,-5.328 z m -157.76,2.539 v 111.488 h 29.73 v -18.898 h 3.4 c 0.85,2.961 1.98,5.718 3.38,8.269 1.43,2.551 3.2,4.82 5.32,6.801 2.13,1.98 4.61,3.527 7.44,4.68 2.82,1.121 6.08,1.699 9.76,1.699 10.05,0 17.74,-3.379 23.04,-10.102 5.31,-6.718 7.97,-16.097 7.97,-28.136 v -75.801 h -29.74 v 70.078 c 0,13.172 -4.6,19.742 -13.79,19.742 -4.54,0 -8.47,-1.383 -11.79,-4.141 -3.32,-2.75 -4.99,-6.621 -4.99,-11.57 v -74.109 z m -57.75,-2.539 c -15.58,0 -27.33,4.738 -35.26,14.218 -7.93,9.481 -11.88,24.129 -11.88,43.961 0,19.809 3.95,34.5 11.88,44.059 7.93,9.559 19.68,14.34 35.26,14.34 11.03,0 19.85,-2.531 26.43,-7.551 6.58,-5.027 11.29,-12.148 14.12,-21.34 l -23.99,-10.609 c -0.71,5.371 -2.33,9.379 -4.88,11.992 -2.55,2.617 -6.45,3.918 -11.68,3.918 -10.76,0 -16.14,-6.352 -16.14,-19.09 v -31.219 c 0,-12.742 5.38,-19.121 16.14,-19.121 5.38,0 9.37,1.379 12,4.141 2.62,2.769 4.56,6.98 5.83,12.648 l 23.14,-10.187 c -6.08,-20.113 -19.73,-30.16 -40.97,-30.16 z m -95.56,114.027 h 29.74 V 852.301 h -29.74 z m 14.87,13.59 c -6.09,0 -10.51,1.301 -13.27,3.93 -2.76,2.601 -4.14,6.171 -4.14,10.722 v 4.66 c 0,4.539 1.38,8.099 4.14,10.719 2.76,2.63 7.18,3.93 13.27,3.93 6.09,0 10.51,-1.3 13.28,-3.93 2.75,-2.62 4.13,-6.18 4.13,-10.719 v -4.66 c 0,-4.551 -1.38,-8.121 -4.13,-10.722 -2.77,-2.629 -7.19,-3.93 -13.28,-3.93 z m -77.14,-33.34 c -10.91,0 -16.35,-6.32 -16.35,-18.957 v -6.742 h 32.7 v 6.742 c 0,12.637 -5.45,18.957 -16.35,18.957 z m 2.97,-94.277 c -15.29,0 -27.49,4.84 -36.63,14.527 -9.13,9.699 -13.69,24.25 -13.69,43.652 0,19.809 4,34.5 11.99,44.059 7.99,9.559 19.78,14.34 35.36,14.34 15.57,0 27.36,-4.77 35.36,-14.301 7.99,-9.519 11.99,-24.16 11.99,-43.918 v -7.191 h -63.7 v -7.02 c 0,-6.219 1.91,-11.211 5.73,-14.961 3.82,-3.758 9.05,-5.629 15.71,-5.629 5.52,0 10.23,1.239 14.13,3.719 3.89,2.481 7.46,5.922 10.72,10.301 l 15.07,-17.731 c -4.53,-6.121 -10.3,-10.961 -17.3,-14.519 -7.01,-3.551 -15.26,-5.328 -24.74,-5.328 z M 2651.74,973.98 V 852.301 h -30.36 V 973.98 h -35.47 v 26.54 h 101.3 V 973.98 Z M 2520.31,852.301 c -10.34,0 -17.74,2.301 -22.2,6.898 -4.45,4.602 -6.68,11.653 -6.68,21.129 v 129.102 h 29.73 V 875.449 h 12.52 v -23.148 z m -83.67,111.488 h 29.73 V 852.301 h -29.73 z m 14.86,13.59 c -6.08,0 -10.5,1.301 -13.27,3.93 -2.75,2.601 -4.13,6.171 -4.13,10.722 v 4.66 c 0,4.539 1.38,8.099 4.13,10.719 2.77,2.63 7.19,3.93 13.27,3.93 6.1,0 10.52,-1.3 13.28,-3.93 2.76,-2.62 4.14,-6.18 4.14,-10.719 v -4.66 c 0,-4.551 -1.38,-8.121 -4.14,-10.722 -2.76,-2.629 -7.18,-3.93 -13.28,-3.93 z M 2370.61,873.32 c 10.89,0 16.34,6.379 16.34,19.121 v 31.219 c 0,12.738 -5.45,19.09 -16.34,19.09 -10.9,0 -16.35,-6.352 -16.35,-19.09 v -31.219 c 0,-12.742 5.45,-19.121 16.35,-19.121 z m 0,-23.558 c -15.58,0 -27.36,4.738 -35.36,14.218 -7.99,9.481 -12,24.129 -12,43.961 0,19.809 4.01,34.5 12,44.059 8,9.559 19.78,14.34 35.36,14.34 15.56,0 27.35,-4.781 35.35,-14.34 8,-9.559 12,-24.25 12,-44.059 0,-19.832 -4,-34.48 -12,-43.961 -8,-9.48 -19.79,-14.218 -35.35,-14.218 z m -98.1,0 c -15.57,0 -27.32,4.738 -35.25,14.218 -7.93,9.481 -11.89,24.129 -11.89,43.961 0,19.809 3.96,34.5 11.89,44.059 7.93,9.559 19.68,14.34 35.25,14.34 11.04,0 19.86,-2.531 26.44,-7.551 6.58,-5.027 11.28,-12.148 14.12,-21.34 l -24,-10.609 c -0.71,5.371 -2.33,9.379 -4.88,11.992 -2.54,2.617 -6.45,3.918 -11.68,3.918 -10.76,0 -16.14,-6.352 -16.14,-19.09 v -31.219 c 0,-12.742 5.38,-19.121 16.14,-19.121 5.38,0 9.37,1.379 12,4.141 2.61,2.769 4.56,6.98 5.83,12.648 l 23.15,-10.187 c -6.09,-20.113 -19.75,-30.16 -40.98,-30.16 z m -101.5,0 c -18.26,0 -32.84,6.578 -43.74,19.75 l 17.62,17.609 c 6.79,-9.621 15.71,-14.441 26.76,-14.441 9.48,0 14.23,3.84 14.23,11.48 0,2.961 -0.75,5.27 -2.23,6.891 -1.49,1.629 -3.93,2.808 -7.33,3.519 l -11.25,2.11 c -12.04,2.269 -20.7,6.05 -26.01,11.359 -5.31,5.313 -7.96,12.852 -7.96,22.609 0,11.75 3.46,20.641 10.39,26.661 6.94,6 17.06,9.031 30.37,9.031 8.92,0 16.67,-1.379 23.25,-4.149 6.59,-2.769 12.36,-6.972 17.31,-12.64 l -16.99,-17.403 c -6.37,7.5 -14.15,11.25 -23.35,11.25 -8.64,0 -12.96,-3.828 -12.96,-11.468 0,-3.121 0.77,-5.45 2.33,-7.008 1.56,-1.563 4.11,-2.684 7.65,-3.391 l 11.68,-2.133 c 11.75,-2.117 20.21,-5.687 25.37,-10.707 5.17,-5.043 7.76,-12.23 7.76,-21.57 0,-12.019 -3.76,-21.269 -11.26,-27.711 -7.51,-6.43 -18.05,-9.648 -31.64,-9.648 z m -65.16,2.539 c -10.34,0 -17.73,2.301 -22.19,6.898 -4.46,4.602 -6.69,11.653 -6.69,21.129 v 129.102 h 29.73 V 875.449 h 12.53 v -23.148 z m -54.45,0 c -10.33,0 -17.72,2.301 -22.19,6.898 -4.46,4.602 -6.68,11.653 -6.68,21.129 v 129.102 h 29.72 V 875.449 h 12.53 v -23.148 z m -106.44,24 c 8.5,0 15.04,2.551 19.63,7.679 4.61,5.122 6.91,12.782 6.91,23.032 v 38.797 c 0,10.23 -2.3,17.921 -6.91,23.031 -4.59,5.121 -11.13,7.691 -19.63,7.691 -8.5,0 -15.04,-2.57 -19.64,-7.691 -4.61,-5.11 -6.91,-12.801 -6.91,-23.031 v -38.797 c 0,-10.25 2.3,-17.91 6.91,-23.032 4.6,-5.128 11.14,-7.679 19.64,-7.679 z m 0,-26.539 c -8.92,0 -16.99,1.379 -24.21,4.148 -7.21,2.738 -13.38,7.199 -18.47,13.36 -5.1,6.171 -9.07,14.089 -11.89,23.781 -2.84,9.699 -4.25,21.488 -4.25,35.359 0,13.879 1.41,25.66 4.25,35.36 2.82,9.679 6.79,17.621 11.89,23.781 5.09,6.16 11.26,10.609 18.47,13.371 7.22,2.768 15.29,4.148 24.21,4.148 8.91,0 16.99,-1.38 24.21,-4.148 7.22,-2.762 13.38,-7.211 18.47,-13.371 5.1,-6.16 9.06,-14.102 11.89,-23.781 2.82,-9.7 4.25,-21.481 4.25,-35.36 0,-13.871 -1.43,-25.66 -4.25,-35.359 -2.83,-9.692 -6.79,-17.61 -11.89,-23.781 -5.09,-6.161 -11.25,-10.622 -18.47,-13.36 -7.22,-2.769 -15.3,-4.148 -24.21,-4.148 z m 1329.3,267.568 c 125.24,0 227.11,81.31 227.11,216.8 v 395.73 h -123.9 v -398.13 c 0,-54.27 -48.93,-98.43 -103.21,-98.43 h -9.66 c -54.27,0 -103.18,44.16 -103.18,98.43 v 398.13 h -123.93 v -395.73 c 0,-135.49 101.89,-216.8 227.11,-216.8 z m -472.49,498.06 v -489.33 h -128.88 v 489.33 h -160.28 v 114.47 h 449.42 v -114.47 z m -485.61,-96.19 h -2.53 L 2164.58,1259 2016.4,1525.14 h -2.55 v -399.08 h -121.27 v 603.8 h 136.53 l 135.47,-234.65 h 1.69 l 133.78,234.65 h 137.37 v -603.8 h -121.26 v 393.14"
         style="fill:#163f7e;fill-opacity:1;fill-rule:nonzero;stroke:none"
         id="path853" />
    </g>
  </g>
</svg>
