<?xml version="1.0" encoding="UTF-8" standalone="no"?>
<svg
   xmlns:dc="http://purl.org/dc/elements/1.1/"
   xmlns:cc="http://creativecommons.org/ns#"
   xmlns:rdf="http://www.w3.org/1999/02/22-rdf-syntax-ns#"
   xmlns:svg="http://www.w3.org/2000/svg"
   xmlns="http://www.w3.org/2000/svg"
   xmlns:sodipodi="http://sodipodi.sourceforge.net/DTD/sodipodi-0.dtd"
   xmlns:inkscape="http://www.inkscape.org/namespaces/inkscape"
   width="25mm"
   height="15mm"
   viewBox="0 0 25 15"
   version="1.1"
   id="svg8"
   inkscape:version="1.0.1 (3bc2e813f5, 2020-09-07)"
   sodipodi:docname="NMCI_logo.svg">
  <defs
     id="defs2" />
  <sodipodi:namedview
     id="base"
     pagecolor="#ffffff"
     bordercolor="#666666"
     borderopacity="1.0"
     inkscape:pageopacity="0.0"
     inkscape:pageshadow="2"
     inkscape:zoom="9.8530833"
     inkscape:cx="47.244094"
     inkscape:cy="28.346457"
     inkscape:document-units="mm"
     inkscape:current-layer="layer1"
     inkscape:document-rotation="0"
     showgrid="false"
     inkscape:window-width="1645"
     inkscape:window-height="1039"
     inkscape:window-x="266"
     inkscape:window-y="266"
     inkscape:window-maximized="0" />
  <metadata
     id="metadata5">
    <rdf:RDF>
      <cc:Work
         rdf:about="">
        <dc:format>image/svg+xml</dc:format>
        <dc:type
           rdf:resource="http://purl.org/dc/dcmitype/StillImage" />
        <dc:title></dc:title>
      </cc:Work>
    </rdf:RDF>
  </metadata>
  <g
     inkscape:label="Capa 1"
     inkscape:groupmode="layer"
     id="layer1">
    <g
       id="g843"
       transform="matrix(0.03527778,0,0,-0.03527778,0,14.99988)">
      <path
         d="m 55.0391,275.32 c -8.3672,10.821 -15.211,17.993 -20.4649,21.555 H 51.9297 L 156.27,165.555 v 118.039 c 0,3.097 -0.348,5.601 -0.969,7.597 -0.692,1.95 -2.145,3.817 -4.426,5.684 h 16.457 c -2.285,-1.867 -3.734,-3.734 -4.426,-5.684 -0.691,-1.953 -0.968,-4.5 -0.968,-7.554 V 141.922 L 60.2266,269.082 V 159.32 c 0,-3.097 0.3476,-5.558 1.1054,-7.468 0.6914,-1.868 2.1446,-3.821 4.4258,-5.774 h -16.25 c 2.2813,1.531 3.7344,3.313 4.4258,5.391 0.7617,2.078 1.1055,4.668 1.1055,7.851 v 116"
         style="fill:#2a4b92;fill-opacity:1;fill-rule:nonzero;stroke:none"
         id="path845" />
      <path
         d="M 244.355,257.457 V 159.32 c 0,-2.293 0.141,-4.074 0.278,-5.433 0.207,-1.317 0.691,-2.629 1.519,-3.903 0.832,-1.273 2.078,-2.589 3.739,-3.906 h -16.18 c 2.277,1.953 3.73,3.906 4.422,5.774 0.691,1.91 0.969,4.371 0.969,7.468 v 108.914 l -4.286,9.293 c -1.73,3.735 -3.945,7.551 -6.429,11.371 -2.559,3.817 -4.703,6.493 -6.364,7.977 h 15.559 l 64.301,-135.434 52.484,135.434 h 16.731 c -2.418,-1.996 -3.871,-3.945 -4.563,-5.812 -0.625,-1.868 -0.969,-4.372 -0.969,-7.469 V 159.32 c 0,-3.097 0.278,-5.558 0.899,-7.343 0.625,-1.821 2.144,-3.774 4.633,-5.899 H 349.25 c 2.281,1.953 3.73,3.906 4.422,5.774 0.695,1.91 0.969,4.371 0.969,7.468 V 283.723 L 299.672,142.305 244.355,257.457"
         style="fill:#2a4b92;fill-opacity:1;fill-rule:nonzero;stroke:none"
         id="path847" />
      <path
         d="m 564.148,169.504 3.25,-1.91 c -2.281,-3.141 -4.632,-6.957 -7.054,-11.414 -2.348,-4.453 -4.008,-8.063 -4.77,-10.86 -2.074,1.907 -4.566,2.84 -7.398,2.84 -0.969,0 -3.801,-0.551 -8.504,-1.613 -4.633,-1.059 -8.988,-1.906 -13.137,-2.543 -4.082,-0.637 -8.781,-0.934 -14.176,-0.934 -11.273,0 -21.781,1.907 -31.531,5.684 -9.82,3.777 -18.254,9.164 -25.375,16.121 -7.191,6.961 -12.652,15.363 -16.523,25.164 -3.871,9.801 -5.809,20.535 -5.809,32.246 0,10.774 2.074,20.918 6.223,30.508 4.148,9.586 9.886,17.859 17.078,24.863 7.258,7 15.488,12.43 24.754,16.336 9.265,3.899 18.804,5.852 28.558,5.852 5.528,0 10.645,-0.379 15.207,-1.188 4.563,-0.847 9.336,-1.953 14.383,-3.308 4.981,-1.442 8.02,-2.121 9.059,-2.121 1.316,0 2.488,0.296 3.597,0.89 1.036,0.551 2.282,1.399 3.665,2.418 2.832,-8.996 6.015,-15.91 9.543,-20.789 l -3.114,-2.293 c -4.976,6.449 -11.965,11.668 -20.953,15.617 -8.918,3.946 -18.945,5.895 -30.008,5.895 -10.855,0 -20.535,-1.996 -28.898,-5.981 -8.367,-4.031 -15.281,-9.421 -20.883,-16.168 -5.672,-6.746 -9.82,-14 -12.723,-21.851 -2.765,-7.848 -4.218,-15.613 -4.218,-23.25 0,-13.027 2.211,-24.695 6.707,-34.961 4.425,-10.313 10.234,-18.672 17.285,-25.203 7.055,-6.535 14.797,-11.414 23.164,-14.68 8.433,-3.312 16.453,-4.922 23.992,-4.922 6.57,0 12.242,0.508 17.012,1.61 4.699,1.062 8.984,2.546 12.722,4.457 3.731,1.906 7.122,4.117 10.024,6.621 2.906,2.5 5.879,5.468 8.851,8.867"
         style="fill:#2a4b92;fill-opacity:1;fill-rule:nonzero;stroke:none"
         id="path849" />
      <path
         d="m 630.527,159.32 v 124.274 c 0,3.097 -0.277,5.644 -0.968,7.597 -0.692,1.95 -2.145,3.817 -4.426,5.684 h 21.711 c -2.281,-1.867 -3.731,-3.734 -4.422,-5.684 -0.695,-1.953 -0.969,-4.5 -0.969,-7.597 V 159.32 c 0,-3.097 0.274,-5.558 0.969,-7.468 0.691,-1.868 2.141,-3.821 4.422,-5.774 h -21.711 c 2.281,1.953 3.734,3.906 4.426,5.774 0.691,1.91 0.968,4.371 0.968,7.468"
         style="fill:#2a4b92;fill-opacity:1;fill-rule:nonzero;stroke:none"
         id="path851" />
      <path
         d="m 691.441,403.074 c 0,0 -73.222,-59.144 -303.058,-0.211 -10.508,2.672 -20.879,5.133 -30.973,7.34 C 127.156,464.594 0.417969,353.477 0.417969,353.477 c 0,0 96.109331,73.445 325.941031,14.511 10.512,-2.718 20.817,-5.136 30.977,-7.343 230.184,-54.395 334.105,42.429 334.105,42.429"
         style="fill:#2a4b92;fill-opacity:1;fill-rule:nonzero;stroke:none"
         id="path853" />
      <path
         d="m 691.098,402.734 c 0,0 -93.414,-70.343 -323.25,-11.414 -10.578,2.676 -20.883,5.137 -30.977,7.34 C 106.621,453.059 0.417969,353.477 0.417969,353.477 c 0,0 75.503931,61.902 305.410031,2.968 10.508,-2.672 20.879,-5.136 30.977,-7.34 230.179,-54.394 354.293,53.629 354.293,53.629"
         style="fill:#ffffff;fill-opacity:1;fill-rule:nonzero;stroke:none"
         id="path855" />
      <path
         d="m 691.375,402.988 c 0,0 -96.457,-79.425 -326.293,-20.492 -10.512,2.715 -20.883,5.133 -30.977,7.34 C 103.926,444.23 0,352.836 0,352.836 c 0,0 73.2266,53.719 303.059,-5.215 10.511,-2.676 20.882,-5.137 30.976,-7.34 230.25,-54.398 357.34,62.707 357.34,62.707"
         style="fill:#008db9;fill-opacity:1;fill-rule:nonzero;stroke:none"
         id="path857" />
      <path
         d="m 19.7773,46.3281 v 27.0313 h 0.4141 L 33.8828,52.7813 V 73.3594 H 35.957 V 46.3281 H 35.4727 L 21.8516,66.6953 V 46.3281 h -2.0743"
         style="fill:#2a4b92;fill-opacity:1;fill-rule:nonzero;stroke:none"
         id="path859" />
      <path
         d="m 52.207,64.3633 c -1.039,0 -2.0781,-0.3399 -2.9765,-1.0625 -0.8985,-0.6758 -1.6602,-1.6524 -2.211,-2.9688 -0.5547,-1.2304 -0.7617,-2.5898 -0.7617,-4.0312 0,-1.3985 0.2774,-2.7578 0.7617,-4.0313 0.5508,-1.2734 1.3125,-2.289 2.211,-3.0117 0.9726,-0.6797 1.9375,-1.0625 2.9765,-1.0625 1.1055,0 2.0703,0.3828 3.0391,1.0625 0.9687,0.7227 1.6602,1.6992 2.2148,2.8828 0.4844,1.2305 0.7618,2.5899 0.7618,4.1172 0,2.293 -0.5547,4.2422 -1.7305,5.7735 -1.1719,1.5703 -2.5586,2.332 -4.2852,2.332 m 7.8828,1.9922 V 46.3281 h -1.9375 v 3.4375 C 57.3242,48.4492 56.4258,47.4766 55.3867,46.7969 54.3477,46.1602 53.2422,45.8203 52,45.8203 c -2.1445,0 -3.9414,1.0195 -5.5352,3.0547 -1.5195,2.082 -2.2773,4.582 -2.2773,7.5117 0,2.8828 0.8242,5.3438 2.3477,7.3828 1.5234,2.0782 3.3867,3.0977 5.5312,3.0977 1.2461,0 2.4219,-0.3399 3.3906,-1.0625 1.0352,-0.6797 1.9336,-1.7383 2.6953,-3.1406 v 3.6914 h 1.9375"
         style="fill:#2a4b92;fill-opacity:1;fill-rule:nonzero;stroke:none"
         id="path861" />
      <path
         d="m 70.5977,73.7813 h 2.0078 v -7.4258 h 3.039 v -2.2461 h -3.039 V 46.3281 h -2.0078 v 17.7813 h -2.6289 v 2.2461 h 2.6289 v 7.4258"
         style="fill:#2a4b92;fill-opacity:1;fill-rule:nonzero;stroke:none"
         id="path863" />
      <path
         d="m 82.6992,66.3555 h 1.9375 V 46.3281 h -1.9375 v 20.0274 m 0.9649,8.2343 c 0.4179,0 0.832,-0.2148 1.1797,-0.6367 0.3437,-0.4258 0.4804,-0.8945 0.4804,-1.4843 0,-0.5938 -0.1367,-1.1055 -0.4804,-1.5313 -0.3477,-0.4219 -0.7618,-0.5937 -1.1797,-0.5937 -0.4805,0 -0.8985,0.1718 -1.1719,0.5937 -0.3477,0.4258 -0.5547,0.9375 -0.5547,1.5313 0,0.5898 0.207,1.0585 0.5547,1.4843 0.2734,0.4219 0.6914,0.6367 1.1719,0.6367"
         style="fill:#2a4b92;fill-opacity:1;fill-rule:nonzero;stroke:none"
         id="path865" />
      <path
         d="m 100.125,64.3203 c -1.5937,0 -2.9766,-0.8047 -4.1523,-2.375 -1.1758,-1.5703 -1.7266,-3.4805 -1.7266,-5.7265 0,-1.4454 0.207,-2.8008 0.7617,-4.0313 0.5508,-1.2773 1.2422,-2.25 2.1406,-2.9297 0.8985,-0.6797 1.9375,-1.0156 2.9766,-1.0156 1.105,0 2.07,0.3359 2.969,1.0156 0.902,0.6797 1.66,1.6524 2.215,2.9297 0.484,1.2305 0.757,2.5859 0.757,4.0313 0,2.246 -0.55,4.1562 -1.726,5.7265 -1.176,1.5703 -2.559,2.375 -4.215,2.375 m 0,2.5469 c 2.348,0 4.355,-1.1484 5.875,-3.3516 1.383,-2.039 2.074,-4.457 2.074,-7.2148 0,-2.8008 -0.691,-5.2617 -2.215,-7.3399 -1.449,-2.1211 -3.386,-3.1406 -5.734,-3.1406 -2.2852,0 -4.2187,1.0195 -5.6719,3.1406 -1.5234,2.0782 -2.2812,4.5391 -2.2812,7.3399 0,2.7578 0.7578,5.1328 2.1445,7.1719 1.5195,2.2461 3.457,3.3945 5.8086,3.3945"
         style="fill:#2a4b92;fill-opacity:1;fill-rule:nonzero;stroke:none"
         id="path867" />
      <path
         d="m 116.027,66.3555 h 2.004 V 62.75 c 0.762,1.3594 1.66,2.418 2.559,3.0977 0.965,0.6796 2.004,1.0195 3.109,1.0195 1.176,0 2.145,-0.3828 3.043,-1.1484 0.903,-0.7618 1.524,-1.7813 1.938,-3.0938 0.414,-1.2773 0.621,-3.2695 0.621,-5.9844 V 46.3281 h -1.938 v 9.5508 c 0,2.2891 -0.066,3.8164 -0.207,4.582 -0.207,1.3555 -0.691,2.3321 -1.312,3.0118 -0.621,0.6796 -1.453,0.9726 -2.489,0.9726 -1.246,0 -2.281,-0.5078 -3.179,-1.5234 -0.969,-1.0196 -1.594,-2.293 -1.867,-3.8203 -0.211,-0.9766 -0.278,-2.8008 -0.278,-5.4297 v -7.3438 h -2.004 v 20.0274"
         style="fill:#2a4b92;fill-opacity:1;fill-rule:nonzero;stroke:none"
         id="path869" />
      <path
         d="m 145.137,64.3633 c -1.106,0 -2.078,-0.3399 -3.043,-1.0625 -0.899,-0.6758 -1.594,-1.6524 -2.145,-2.9688 -0.554,-1.2304 -0.828,-2.5898 -0.828,-4.0312 0,-1.3985 0.274,-2.7578 0.828,-4.0313 0.551,-1.2734 1.246,-2.289 2.211,-3.0117 0.899,-0.6797 1.871,-1.0625 2.977,-1.0625 1.035,0 2.074,0.3828 3.039,1.0625 0.898,0.7227 1.66,1.6992 2.144,2.8828 0.555,1.2305 0.832,2.5899 0.832,4.1172 0,2.293 -0.625,4.2422 -1.73,5.7735 -1.176,1.5703 -2.625,2.332 -4.285,2.332 m 7.883,1.9922 V 46.3281 h -2.008 v 3.4375 c -0.828,-1.3164 -1.727,-2.289 -2.766,-2.9687 -1.035,-0.6367 -2.141,-0.9766 -3.316,-0.9766 -2.145,0 -4.012,1.0195 -5.535,3.0547 -1.52,2.082 -2.278,4.582 -2.278,7.5117 0,2.8828 0.758,5.3438 2.278,7.3828 1.593,2.0782 3.39,3.0977 5.601,3.0977 1.246,0 2.352,-0.3399 3.391,-1.0625 0.968,-0.6797 1.867,-1.7383 2.625,-3.1406 v 3.6914 h 2.008"
         style="fill:#2a4b92;fill-opacity:1;fill-rule:nonzero;stroke:none"
         id="path871" />
      <path
         d="m 161.453,46.3281 h 1.938 v 27.75 h -1.938 v -27.75"
         style="fill:#2a4b92;fill-opacity:1;fill-rule:nonzero;stroke:none"
         id="path873" />
      <path
         d="m 183.441,46.3281 3.043,27.0313 h 0.344 l 8.297,-22.1485 8.367,22.1485 h 0.278 l 2.972,-27.0313 h -2.004 l -2.074,19.3477 -7.332,-19.3477 h -0.551 l -7.261,19.4766 -2.075,-19.4766 h -2.004"
         style="fill:#2a4b92;fill-opacity:1;fill-rule:nonzero;stroke:none"
         id="path875" />
      <path
         d="m 222.023,64.3633 c -1.105,0 -2.074,-0.3399 -3.043,-1.0625 -0.898,-0.6758 -1.589,-1.6524 -2.144,-2.9688 -0.551,-1.2304 -0.828,-2.5898 -0.828,-4.0312 0,-1.3985 0.277,-2.7578 0.828,-4.0313 0.555,-1.2734 1.246,-2.289 2.215,-3.0117 0.898,-0.6797 1.867,-1.0625 2.972,-1.0625 1.036,0 2.075,0.3828 3.043,1.0625 0.899,0.7227 1.661,1.6992 2.145,2.8828 0.551,1.2305 0.828,2.5899 0.828,4.1172 0,2.293 -0.625,4.2422 -1.73,5.7735 -1.172,1.5703 -2.625,2.332 -4.286,2.332 m 7.883,1.9922 V 46.3281 h -2.004 v 3.4375 c -0.832,-1.3164 -1.73,-2.289 -2.765,-2.9687 -1.039,-0.6367 -2.145,-0.9766 -3.321,-0.9766 -2.144,0 -4.011,1.0195 -5.531,3.0547 -1.519,2.082 -2.281,4.582 -2.281,7.5117 0,2.8828 0.762,5.3438 2.281,7.3828 1.59,2.0782 3.387,3.0977 5.602,3.0977 1.242,0 2.347,-0.3399 3.386,-1.0625 0.969,-0.6797 1.868,-1.7383 2.629,-3.1406 v 3.6914 h 2.004"
         style="fill:#2a4b92;fill-opacity:1;fill-rule:nonzero;stroke:none"
         id="path877" />
      <path
         d="m 237.926,66.3555 h 1.937 v -2.9258 c 0.621,1.1445 1.242,1.9922 1.934,2.5859 0.625,0.5547 1.316,0.8516 2.078,0.8516 0.551,0 1.105,-0.2539 1.727,-0.6797 l -1.039,-2.1641 c -0.415,0.2149 -0.762,0.3399 -1.036,0.3399 -0.625,0 -1.312,-0.3399 -1.867,-1.0625 -0.621,-0.6758 -1.105,-1.7813 -1.453,-3.2656 -0.207,-1.1485 -0.344,-3.4375 -0.344,-6.918 v -6.7891 h -1.937 v 20.0274"
         style="fill:#2a4b92;fill-opacity:1;fill-rule:nonzero;stroke:none"
         id="path879" />
      <path
         d="m 251.34,66.3555 h 2.008 V 46.3281 h -2.008 v 20.0274 m 0.969,8.2343 c 0.484,0 0.898,-0.2148 1.246,-0.6367 0.273,-0.4258 0.48,-0.8945 0.48,-1.4843 0,-0.5938 -0.207,-1.1055 -0.48,-1.5313 -0.348,-0.4219 -0.762,-0.5937 -1.246,-0.5937 -0.414,0 -0.832,0.1718 -1.176,0.5937 -0.344,0.4258 -0.481,0.9375 -0.481,1.5313 0,0.5898 0.137,1.0585 0.481,1.4843 0.344,0.4219 0.762,0.6367 1.176,0.6367"
         style="fill:#2a4b92;fill-opacity:1;fill-rule:nonzero;stroke:none"
         id="path881" />
      <path
         d="m 263.371,73.7813 h 2.008 v -7.4258 h 3.039 v -2.2461 h -3.039 V 46.3281 h -2.008 v 17.7813 h -2.695 v 2.2461 h 2.695 v 7.4258"
         style="fill:#2a4b92;fill-opacity:1;fill-rule:nonzero;stroke:none"
         id="path883" />
      <path
         d="m 275.402,66.3555 h 2.008 V 46.3281 h -2.008 v 20.0274 m 1.036,8.2343 c 0.417,0 0.832,-0.2148 1.179,-0.6367 0.344,-0.4258 0.481,-0.8945 0.481,-1.4843 0,-0.5938 -0.137,-1.1055 -0.481,-1.5313 -0.347,-0.4219 -0.762,-0.5937 -1.179,-0.5937 -0.481,0 -0.899,0.1718 -1.172,0.5937 -0.348,0.4258 -0.555,0.9375 -0.555,1.5313 0,0.5898 0.207,1.0585 0.555,1.4843 0.273,0.4219 0.691,0.6367 1.172,0.6367"
         style="fill:#2a4b92;fill-opacity:1;fill-rule:nonzero;stroke:none"
         id="path885" />
      <path
         d="m 285.637,66.3555 h 1.933 V 62.875 c 0.692,1.2773 1.383,2.2109 2.145,2.8008 0.969,0.8086 2.004,1.1914 3.109,1.1914 0.762,0 1.453,-0.2149 2.145,-0.5938 0.625,-0.3828 1.176,-0.8906 1.594,-1.4882 0.414,-0.6329 0.757,-1.5704 1.105,-2.7149 0.621,1.5703 1.449,2.7578 2.418,3.5664 0.969,0.8047 2.008,1.2305 3.184,1.2305 1.035,0 1.933,-0.3399 2.765,-1.0625 0.828,-0.6797 1.379,-1.6524 1.797,-2.9297 0.344,-1.2266 0.555,-3.1367 0.555,-5.6406 V 46.3281 h -1.938 v 10.9492 c 0,2.1211 -0.14,3.6055 -0.347,4.4141 -0.274,0.8047 -0.622,1.4414 -1.247,1.9492 -0.55,0.4688 -1.171,0.7227 -2.003,0.7227 -0.899,0 -1.797,-0.3399 -2.559,-1.1055 -0.828,-0.7187 -1.379,-1.6953 -1.727,-2.9258 -0.414,-1.2304 -0.554,-3.2695 -0.554,-6.1523 v -7.8516 h -2.004 v 10.2696 c 0,2.4179 -0.07,4.0312 -0.348,4.9218 -0.203,0.8477 -0.621,1.5274 -1.176,2.0821 -0.55,0.5078 -1.242,0.7617 -2.004,0.7617 -0.898,0 -1.796,-0.3399 -2.558,-1.0625 -0.828,-0.7188 -1.383,-1.6953 -1.727,-2.8867 -0.414,-1.2266 -0.625,-3.0977 -0.625,-5.5977 v -8.4883 h -1.933 v 20.0274"
         style="fill:#2a4b92;fill-opacity:1;fill-rule:nonzero;stroke:none"
         id="path887" />
      <path
         d="m 329.816,58.3789 c -0.273,1.3594 -0.687,2.4609 -1.171,3.2695 -0.485,0.8047 -1.176,1.4844 -2.004,1.9922 -0.832,0.4688 -1.661,0.7227 -2.559,0.7227 -1.523,0 -2.836,-0.6367 -3.875,-1.8672 -0.828,-0.9336 -1.383,-2.293 -1.797,-4.1172 h 11.406 m -0.066,-5.4297 1.66,-1.1445 c -0.555,-1.4024 -1.176,-2.5039 -1.867,-3.3945 -0.691,-0.8516 -1.523,-1.4844 -2.422,-1.9102 -0.828,-0.4648 -1.867,-0.6797 -2.973,-0.6797 -2.488,0 -4.425,1.0625 -5.875,3.1836 -1.386,2.1641 -2.074,4.582 -2.074,7.2969 0,2.5039 0.621,4.793 1.797,6.7461 1.524,2.5469 3.527,3.8203 6.016,3.8203 2.629,0 4.699,-1.3164 6.222,-3.9063 1.106,-1.8203 1.661,-4.1132 1.727,-6.8281 h -13.758 c 0.07,-2.3359 0.621,-4.2461 1.727,-5.7305 1.109,-1.4414 2.422,-2.207 4.011,-2.207 0.832,0 1.59,0.1719 2.282,0.5547 0.761,0.3359 1.382,0.8047 1.867,1.3555 0.555,0.5937 1.105,1.5273 1.66,2.8437"
         style="fill:#2a4b92;fill-opacity:1;fill-rule:nonzero;stroke:none"
         id="path889" />
      <path
         d="m 371.652,68.3516 -1.66,-1.6563 c -0.832,1.5703 -1.937,2.7188 -3.183,3.5235 -1.243,0.8046 -2.625,1.1875 -4.145,1.1875 -1.66,0 -3.184,-0.5079 -4.566,-1.5704 -1.383,-1.0195 -2.489,-2.4179 -3.25,-4.1601 -0.758,-1.7383 -1.176,-3.6914 -1.176,-5.8985 0,-3.2656 0.898,-6.0195 2.629,-8.2304 1.726,-2.2031 3.875,-3.3047 6.5,-3.3047 2.902,0 5.254,1.4844 7.191,4.4531 l 1.66,-1.6133 c -1.039,-1.7382 -2.285,-3.0547 -3.871,-3.9882 -1.523,-0.9336 -3.183,-1.3985 -5.117,-1.3985 -3.598,0 -6.434,1.5703 -8.508,4.707 -1.726,2.629 -2.625,5.8555 -2.625,9.5899 0,3.9453 1.035,7.2969 3.18,9.9687 2.144,2.7188 4.769,4.0743 7.953,4.0743 1.934,0 3.664,-0.5079 5.184,-1.4844 1.519,-1.0195 2.836,-2.418 3.804,-4.1992"
         style="fill:#2a4b92;fill-opacity:1;fill-rule:nonzero;stroke:none"
         id="path891" />
      <path
         d="m 387,64.3203 c -1.66,0 -3.043,-0.8047 -4.215,-2.375 -1.176,-1.5703 -1.73,-3.4805 -1.73,-5.7265 0,-1.4454 0.277,-2.8008 0.828,-4.0313 0.488,-1.2773 1.246,-2.25 2.144,-2.9297 0.899,-0.6797 1.868,-1.0156 2.973,-1.0156 1.039,0 2.074,0.3359 2.973,1.0156 0.898,0.6797 1.59,1.6524 2.144,2.9297 0.551,1.2305 0.832,2.5859 0.832,4.0313 0,2.246 -0.625,4.1562 -1.801,5.7265 -1.175,1.5703 -2.554,2.375 -4.148,2.375 m 0,2.5469 c 2.352,0 4.289,-1.1484 5.809,-3.3516 1.453,-2.039 2.144,-4.457 2.144,-7.2148 0,-2.8008 -0.762,-5.2617 -2.285,-7.3399 -1.449,-2.1211 -3.316,-3.1406 -5.668,-3.1406 -2.352,0 -4.285,1.0195 -5.738,3.1406 -1.449,2.0782 -2.211,4.5391 -2.211,7.3399 0,2.7578 0.687,5.1328 2.074,7.1719 1.59,2.2461 3.523,3.3945 5.875,3.3945"
         style="fill:#2a4b92;fill-opacity:1;fill-rule:nonzero;stroke:none"
         id="path893" />
      <path
         d="m 402.559,46.3281 h 2.004 v 27.75 h -2.004 v -27.75"
         style="fill:#2a4b92;fill-opacity:1;fill-rule:nonzero;stroke:none"
         id="path895" />
      <path
         d="m 412.586,46.3281 h 1.934 v 27.75 h -1.934 v -27.75"
         style="fill:#2a4b92;fill-opacity:1;fill-rule:nonzero;stroke:none"
         id="path897" />
      <path
         d="m 435.816,58.3789 c -0.277,1.3594 -0.621,2.4609 -1.105,3.2695 -0.555,0.8047 -1.176,1.4844 -2.004,1.9922 -0.832,0.4688 -1.73,0.7227 -2.629,0.7227 -1.453,0 -2.765,-0.6367 -3.875,-1.8672 -0.758,-0.9336 -1.379,-2.293 -1.723,-4.1172 h 11.336 m 0,-5.4297 1.661,-1.1445 c -0.555,-1.4024 -1.176,-2.5039 -1.868,-3.3945 -0.761,-0.8516 -1.519,-1.4844 -2.418,-1.9102 -0.898,-0.4648 -1.871,-0.6797 -3.043,-0.6797 -2.492,0 -4.425,1.0625 -5.808,3.1836 -1.383,2.1641 -2.074,4.582 -2.074,7.2969 0,2.5039 0.554,4.793 1.726,6.7461 1.524,2.5469 3.528,3.8203 6.086,3.8203 2.629,0 4.699,-1.3164 6.223,-3.9063 1.105,-1.8203 1.66,-4.1132 1.66,-6.8281 H 424.27 c 0,-2.3359 0.554,-4.2461 1.66,-5.7305 1.105,-1.4414 2.488,-2.207 4.078,-2.207 0.762,0 1.523,0.1719 2.285,0.5547 0.687,0.3359 1.312,0.8047 1.863,1.3555 0.485,0.5937 1.039,1.5273 1.66,2.8437"
         style="fill:#2a4b92;fill-opacity:1;fill-rule:nonzero;stroke:none"
         id="path899" />
      <path
         d="m 453.313,64.3633 c -1.11,0 -2.149,-0.3399 -3.047,-1.0625 -0.965,-0.6758 -1.727,-1.6524 -2.282,-2.9258 -0.48,-1.2305 -0.757,-2.5898 -0.757,-4.0312 0,-2.2071 0.554,-4.0313 1.66,-5.4727 1.105,-1.4453 2.558,-2.168 4.285,-2.168 1.797,0 3.25,0.7227 4.355,2.168 1.106,1.3984 1.661,3.3086 1.661,5.5977 0,1.5273 -0.278,2.8867 -0.762,4.0742 -0.485,1.1875 -1.246,2.1211 -2.145,2.8008 -0.898,0.6796 -1.933,1.0195 -2.968,1.0195 m 5.738,1.9922 h 2.004 V 50.4023 c 0,-2.8007 -0.207,-4.8789 -0.555,-6.1523 -0.551,-1.8672 -1.449,-3.2656 -2.695,-4.2422 -1.246,-1.0156 -2.836,-1.5273 -4.563,-1.5273 -1.316,0 -2.492,0.2539 -3.527,0.7617 -1.035,0.4687 -1.934,1.1484 -2.559,1.9531 -0.691,0.8086 -1.246,1.9922 -1.797,3.6094 h 2.075 c 0.621,-1.3594 1.312,-2.3359 2.281,-2.9727 0.898,-0.6367 2.004,-0.9336 3.387,-0.9336 1.316,0 2.492,0.3399 3.39,0.9766 0.899,0.6367 1.59,1.4453 2.004,2.4609 0.344,0.9766 0.555,2.5469 0.555,4.75 v 1.0625 c -0.692,-1.2304 -1.59,-2.164 -2.696,-2.8437 -1.039,-0.6328 -2.148,-0.9766 -3.39,-0.9766 -1.383,0 -2.699,0.4688 -3.942,1.3594 -1.175,0.9336 -2.144,2.1641 -2.835,3.6914 -0.692,1.5703 -0.965,3.2656 -0.965,5.0899 0,1.871 0.343,3.6093 1.035,5.1796 0.691,1.6094 1.66,2.8829 2.902,3.8164 1.246,0.9336 2.492,1.4024 3.875,1.4024 1.172,0 2.211,-0.3399 3.18,-0.9336 0.965,-0.6367 1.937,-1.6563 2.836,-3.0586 v 3.4805"
         style="fill:#2a4b92;fill-opacity:1;fill-rule:nonzero;stroke:none"
         id="path901" />
      <path
         d="m 482.422,58.3789 c -0.277,1.3594 -0.692,2.4609 -1.18,3.2695 -0.48,0.8047 -1.172,1.4844 -2.004,1.9922 -0.828,0.4688 -1.66,0.7227 -2.558,0.7227 -1.52,0 -2.766,-0.6367 -3.871,-1.8672 -0.758,-0.9336 -1.383,-2.293 -1.801,-4.1172 h 11.414 m 0,-5.4297 1.59,-1.1445 c -0.485,-1.4024 -1.11,-2.5039 -1.867,-3.3945 -0.692,-0.8516 -1.52,-1.4844 -2.352,-1.9102 -0.898,-0.4648 -1.934,-0.6797 -3.043,-0.6797 -2.488,0 -4.426,1.0625 -5.809,3.1836 -1.453,2.1641 -2.144,4.582 -2.144,7.2969 0,2.5039 0.625,4.793 1.801,6.7461 1.519,2.5469 3.523,3.8203 6.015,3.8203 2.625,0 4.703,-1.3164 6.289,-3.9063 1.039,-1.8203 1.661,-4.1132 1.661,-6.8281 h -13.758 c 0.066,-2.3359 0.621,-4.2461 1.726,-5.7305 1.11,-1.4414 2.422,-2.207 4.082,-2.207 0.758,0 1.52,0.1719 2.211,0.5547 0.758,0.3359 1.383,0.8047 1.867,1.3555 0.551,0.5937 1.106,1.5273 1.731,2.8437"
         style="fill:#2a4b92;fill-opacity:1;fill-rule:nonzero;stroke:none"
         id="path903" />
      <path
         d="m 511.945,64.3203 c -1.593,0 -2.972,-0.8047 -4.148,-2.375 C 506.621,60.375 506,58.4648 506,56.2188 c 0,-1.4454 0.277,-2.8008 0.828,-4.0313 0.555,-1.2773 1.246,-2.25 2.145,-2.9297 0.898,-0.6797 1.933,-1.0156 2.972,-1.0156 1.106,0 2.075,0.3359 2.973,1.0156 0.898,0.6797 1.656,1.6524 2.145,2.9297 0.55,1.2305 0.828,2.5859 0.828,4.0313 0,2.246 -0.621,4.1562 -1.727,5.7265 -1.176,1.5703 -2.559,2.375 -4.219,2.375 m 0,2.5469 c 2.352,0 4.285,-1.1484 5.875,-3.3516 1.387,-2.039 2.075,-4.457 2.075,-7.2148 0,-2.8008 -0.762,-5.2617 -2.211,-7.3399 -1.454,-2.1211 -3.387,-3.1406 -5.739,-3.1406 -2.285,0 -4.218,1.0195 -5.742,3.1406 -1.449,2.0782 -2.211,4.5391 -2.211,7.3399 0,2.7578 0.692,5.1328 2.145,7.1719 1.519,2.2461 3.457,3.3945 5.808,3.3945"
         style="fill:#2a4b92;fill-opacity:1;fill-rule:nonzero;stroke:none"
         id="path905" />
      <path
         d="m 534.141,74.0781 v -2.5039 c -0.692,0.4258 -1.317,0.6367 -1.868,0.6367 -0.347,0 -0.691,-0.125 -0.898,-0.2968 -0.277,-0.211 -0.418,-0.4649 -0.484,-0.7188 -0.071,-0.2578 -0.141,-0.9765 -0.141,-2.125 v -2.7148 h 3.254 V 64.1094 H 530.75 V 46.3281 h -1.934 v 17.7813 h -2.007 v 2.2461 h 2.007 v 3.0976 c 0,1.4453 0.071,2.461 0.278,3.0977 0.207,0.5937 0.551,1.1055 1.035,1.4844 0.484,0.3828 1.035,0.5546 1.726,0.5546 0.625,0 1.387,-0.1718 2.286,-0.5117"
         style="fill:#2a4b92;fill-opacity:1;fill-rule:nonzero;stroke:none"
         id="path907" />
      <path
         d="m 553.43,46.3281 h 2.078 V 73.3594 H 553.43 V 46.3281"
         style="fill:#2a4b92;fill-opacity:1;fill-rule:nonzero;stroke:none"
         id="path909" />
      <path
         d="m 563.457,66.3555 h 2.004 v -2.9258 c 0.555,1.1445 1.176,1.9922 1.867,2.5859 0.692,0.5547 1.383,0.8516 2.074,0.8516 0.555,0 1.106,-0.2539 1.731,-0.6797 l -0.969,-2.1641 c -0.414,0.2149 -0.762,0.3399 -1.035,0.3399 -0.695,0 -1.316,-0.3399 -1.938,-1.0625 -0.621,-0.6758 -1.039,-1.7813 -1.382,-3.2656 -0.278,-1.1485 -0.348,-3.4375 -0.348,-6.918 v -6.7891 h -2.004 v 20.0274"
         style="fill:#2a4b92;fill-opacity:1;fill-rule:nonzero;stroke:none"
         id="path911" />
      <path
         d="m 589.871,58.3789 c -0.277,1.3594 -0.625,2.4609 -1.109,3.2695 -0.551,0.8047 -1.176,1.4844 -2.004,1.9922 -0.828,0.4688 -1.727,0.7227 -2.629,0.7227 -1.449,0 -2.766,-0.6367 -3.871,-1.8672 -0.758,-0.9336 -1.383,-2.293 -1.731,-4.1172 h 11.344 m 0,-5.4297 1.66,-1.1445 c -0.554,-1.4024 -1.179,-2.5039 -1.871,-3.3945 -0.687,-0.8516 -1.519,-1.4844 -2.418,-1.9102 -0.898,-0.4648 -1.867,-0.6797 -3.043,-0.6797 -2.422,0 -4.426,1.0625 -5.808,3.1836 -1.383,2.1641 -2.075,4.582 -2.075,7.2969 0,2.5039 0.555,4.793 1.731,6.7461 1.519,2.5469 3.527,3.8203 6.082,3.8203 2.629,0 4.703,-1.3164 6.223,-3.9063 1.105,-1.8203 1.66,-4.1132 1.66,-6.8281 H 578.32 c 0,-2.3359 0.625,-4.2461 1.66,-5.7305 1.106,-1.4414 2.493,-2.207 4.083,-2.207 0.757,0 1.519,0.1719 2.281,0.5547 0.691,0.3359 1.312,0.8047 1.867,1.3555 0.484,0.5937 1.035,1.5273 1.66,2.8437"
         style="fill:#2a4b92;fill-opacity:1;fill-rule:nonzero;stroke:none"
         id="path913" />
      <path
         d="m 599.688,46.3281 h 1.937 v 27.75 h -1.937 v -27.75"
         style="fill:#2a4b92;fill-opacity:1;fill-rule:nonzero;stroke:none"
         id="path915" />
      <path
         d="m 617.32,64.3633 c -1.105,0 -2.074,-0.3399 -2.972,-1.0625 -0.969,-0.6758 -1.66,-1.6524 -2.215,-2.9688 -0.551,-1.2304 -0.828,-2.5898 -0.828,-4.0312 0,-1.3985 0.277,-2.7578 0.828,-4.0313 0.555,-1.2734 1.316,-2.289 2.215,-3.0117 0.898,-0.6797 1.933,-1.0625 2.972,-1.0625 1.035,0 2.075,0.3828 3.043,1.0625 0.899,0.7227 1.66,1.6992 2.211,2.8828 0.485,1.2305 0.762,2.5899 0.762,4.1172 0,2.293 -0.621,4.2422 -1.727,5.7735 -1.179,1.5703 -2.629,2.332 -4.289,2.332 m 7.883,1.9922 V 46.3281 h -2.008 v 3.4375 c -0.828,-1.3164 -1.726,-2.289 -2.765,-2.9687 -0.965,-0.6367 -2.141,-0.9766 -3.317,-0.9766 -2.144,0 -4.011,1.0195 -5.531,3.0547 -1.523,2.082 -2.281,4.582 -2.281,7.5117 0,2.8828 0.758,5.3438 2.281,7.3828 1.59,2.0782 3.387,3.0977 5.598,3.0977 1.246,0 2.351,-0.3399 3.39,-1.0625 0.965,-0.6797 1.868,-1.7383 2.625,-3.1406 v 3.6914 h 2.008"
         style="fill:#2a4b92;fill-opacity:1;fill-rule:nonzero;stroke:none"
         id="path917" />
      <path
         d="m 633.984,66.3555 h 1.934 V 62.75 c 0.762,1.3594 1.66,2.418 2.629,3.0977 0.898,0.6796 1.933,1.0195 3.113,1.0195 1.106,0 2.07,-0.3828 2.973,-1.1484 0.898,-0.7618 1.519,-1.7813 1.937,-3.0938 0.414,-1.2773 0.621,-3.2695 0.621,-5.9844 V 46.3281 h -1.937 v 9.5508 c 0,2.2891 -0.07,3.8164 -0.207,4.582 -0.211,1.3555 -0.621,2.3321 -1.317,3.0118 -0.617,0.6796 -1.449,0.9726 -2.488,0.9726 -1.172,0 -2.281,-0.5078 -3.179,-1.5234 -0.965,-1.0196 -1.52,-2.293 -1.864,-3.8203 -0.211,-0.9766 -0.281,-2.8008 -0.281,-5.4297 v -7.3438 h -1.934 v 20.0274"
         style="fill:#2a4b92;fill-opacity:1;fill-rule:nonzero;stroke:none"
         id="path919" />
      <path
         d="m 663.094,64.3633 c -1.039,0 -2.074,-0.3399 -2.977,-1.0625 -0.894,-0.6758 -1.656,-1.6524 -2.211,-2.9688 -0.484,-1.2304 -0.758,-2.5898 -0.758,-4.0312 0,-1.3985 0.274,-2.7578 0.758,-4.0313 0.555,-1.2734 1.317,-2.289 2.211,-3.0117 0.969,-0.6797 1.938,-1.0625 2.977,-1.0625 1.035,0 2.074,0.3828 3.043,1.0625 0.898,0.7227 1.656,1.6992 2.14,2.8828 0.555,1.2305 0.832,2.5899 0.832,4.1172 0,2.293 -0.621,4.2422 -1.73,5.7735 -1.176,1.5703 -2.559,2.332 -4.285,2.332 m 7.883,9.7148 v -27.75 h -2.004 v 3.4375 c -0.832,-1.3164 -1.731,-2.289 -2.77,-2.9687 -0.969,-0.6367 -2.074,-0.9766 -3.32,-0.9766 -2.141,0 -3.938,1.0195 -5.461,3.0547 -1.52,2.082 -2.277,4.582 -2.277,7.5117 0,2.8828 0.757,5.3438 2.277,7.3828 1.523,2.0782 3.391,3.0977 5.535,3.0977 1.242,0 2.348,-0.3399 3.383,-1.0625 0.973,-0.6797 1.871,-1.7383 2.633,-3.1406 v 11.414 h 2.004"
         style="fill:#2a4b92;fill-opacity:1;fill-rule:nonzero;stroke:none"
         id="path921" />
      <path
         d="m 208.195,19.7266 8.16,3.7734"
         style="fill:#008db9;fill-opacity:1;fill-rule:nonzero;stroke:none"
         id="path923" />
      <path
         d="m 208.195,19.7266 8.16,3.7734"
         style="fill:none;stroke:#008db9;stroke-width:1.13744;stroke-linecap:butt;stroke-linejoin:miter;stroke-miterlimit:4;stroke-dasharray:none;stroke-opacity:1"
         id="path925" />
      <path
         d="m 34.2305,17.0117 -1.1758,-1.2304 c -0.6914,1.1445 -1.5234,1.9921 -2.4219,2.5859 -0.9687,0.5976 -2.0078,0.8945 -3.1133,0.8945 -1.1718,0 -2.3515,-0.3828 -3.3867,-1.1484 -1.039,-0.8047 -1.7969,-1.8242 -2.4219,-3.1406 -0.5507,-1.2696 -0.8281,-2.7539 -0.8281,-4.3672 0,-2.46097 0.6211,-4.53909 1.9375,-6.15237 1.2422,-1.65625 2.9024,-2.50391 4.8399,-2.50391 2.1445,0 3.9414,1.14453 5.3945,3.35156 L 34.2305,4.07031 C 33.4688,2.79688 32.5,1.78125 31.3945,1.05859 30.2188,0.335938 28.9727,0 27.5898,0 24.8945,0 22.75,1.18359 21.2305,3.51953 19.9141,5.51563 19.293,7.92969 19.293,10.7305 c 0,2.9726 0.7578,5.4336 2.3515,7.4687 1.5899,2.0352 3.5235,3.0117 5.875,3.0117 1.4532,0 2.7657,-0.3398 3.875,-1.1015 1.1758,-0.7227 2.0743,-1.7813 2.836,-3.0977"
         style="fill:#008db9;fill-opacity:1;fill-rule:nonzero;stroke:none"
         id="path927" />
      <path
         d="m 50.6172,13.957 c -1.2461,0 -2.2852,-0.5937 -3.1836,-1.7851 -0.8281,-1.1836 -1.3125,-2.58596 -1.3125,-4.28127 0,-1.10547 0.207,-2.08204 0.625,-3.05469 0.4141,-0.9375 0.8984,-1.65625 1.5859,-2.16406 0.6914,-0.51172 1.4532,-0.76563 2.2852,-0.76563 0.8281,0 1.5898,0.25391 2.2109,0.76563 0.6914,0.50781 1.2461,1.22656 1.6602,2.16406 0.414,0.97265 0.6211,1.94922 0.6211,3.05469 0,1.69531 -0.4844,3.09767 -1.3828,4.28127 -0.8282,1.1914 -1.9375,1.7851 -3.1094,1.7851 m 0,1.8672 c 1.7266,0 3.1797,-0.8086 4.3555,-2.5039 1.0351,-1.4844 1.5898,-3.3086 1.5898,-5.39061 0,-2.07813 -0.5547,-3.90235 -1.6602,-5.46875 C 53.7969,0.929688 52.3438,0.125 50.6172,0.125 c -1.7305,0 -3.1836,0.804688 -4.2891,2.33594 -1.1054,1.5664 -1.6601,3.39062 -1.6601,5.46875 0,2.08201 0.5547,3.86331 1.5898,5.39061 1.1055,1.6953 2.6289,2.5039 4.3594,2.5039"
         style="fill:#008db9;fill-opacity:1;fill-rule:nonzero;stroke:none"
         id="path929" />
      <path
         d="m 67.1406,0.507813 h 1.4532 V 21.2109 H 67.1406 V 0.507813"
         style="fill:#008db9;fill-opacity:1;fill-rule:nonzero;stroke:none"
         id="path931" />
      <path
         d="m 85.2578,13.957 c -0.832,0 -1.5937,-0.2539 -2.2812,-0.7656 -0.6914,-0.5508 -1.2461,-1.2695 -1.6602,-2.2031 -0.418,-0.9766 -0.625,-1.95314 -0.625,-3.01174 0,-1.0625 0.207,-2.08203 0.625,-3.01562 0.4141,-0.97656 0.9688,-1.69531 1.6602,-2.2461 0.6875,-0.51171 1.4492,-0.80859 2.2812,-0.80859 0.7578,0 1.5899,0.25391 2.2813,0.80859 0.6914,0.50782 1.3125,1.23047 1.6601,2.16016 0.4141,0.89063 0.6211,1.91016 0.6211,3.01563 0,1.73828 -0.4844,3.18357 -1.3125,4.32817 -0.8984,1.1875 -2.0039,1.7382 -3.25,1.7382 m 5.875,1.4844 V 0.507813 H 89.6797 V 3.09375 C 89.0586,2.11719 88.3672,1.35547 87.6094,0.890625 86.8477,0.378906 86.0156,0.125 85.1172,0.125 c -1.6602,0 -3.0391,0.765625 -4.1484,2.28906 -1.1758,1.57032 -1.7305,3.4375 -1.7305,5.60157 0,2.16407 0.5547,3.98827 1.7305,5.51957 1.1757,1.5234 2.5585,2.289 4.1484,2.289 0.9687,0 1.7969,-0.2539 2.5586,-0.7656 0.7617,-0.5078 1.4531,-1.3164 2.0039,-2.332 v 2.7148 h 1.4531"
         style="fill:#008db9;fill-opacity:1;fill-rule:nonzero;stroke:none"
         id="path933" />
      <path
         d="m 102.336,0.507813 h 1.453 V 15.4414 h -1.453 V 0.507813 M 102.195,21.125 c -0.273,-0.2969 -0.343,-0.6758 -0.343,-1.1016 0,-0.4687 0.07,-0.8046 0.343,-1.1445 0.207,-0.2969 0.555,-0.4687 0.832,-0.4687 0.344,0 0.692,0.1718 0.899,0.4687 0.273,0.3399 0.344,0.6758 0.344,1.1445 0,0.4258 -0.071,0.8047 -0.344,1.1016 -0.207,0.3398 -0.555,0.4688 -0.899,0.4688 -0.277,0 -0.625,-0.129 -0.832,-0.4688"
         style="fill:#008db9;fill-opacity:1;fill-rule:nonzero;stroke:none"
         id="path935" />
      <path
         d="m 120.73,13.8281 -0.972,-1.2695 c -0.762,1.0156 -1.52,1.4844 -2.281,1.4844 -0.485,0 -0.899,-0.2149 -1.247,-0.5938 -0.343,-0.4258 -0.48,-0.8906 -0.48,-1.4453 0,-0.5078 0.137,-0.9766 0.414,-1.3984 0.277,-0.4688 0.828,-0.97659 1.727,-1.61331 1.105,-0.72266 1.867,-1.44141 2.214,-2.1211 0.415,-0.71875 0.625,-1.48437 0.625,-2.33203 0,-1.23437 -0.347,-2.29297 -1.039,-3.14062 C 119.07,0.546875 118.238,0.125 117.273,0.125 c -0.695,0 -1.316,0.210938 -1.871,0.550781 -0.621,0.382809 -1.105,0.894529 -1.519,1.527349 l 0.969,1.35937 c 0.687,-1.10156 1.519,-1.65625 2.347,-1.65625 0.555,0 1.11,0.25391 1.453,0.76563 0.418,0.50781 0.625,1.05859 0.625,1.73828 0,0.55078 -0.14,1.05859 -0.418,1.48437 -0.207,0.42578 -0.828,0.97656 -1.796,1.61328 -1.036,0.67578 -1.727,1.35938 -2.075,2.03516 -0.347,0.67973 -0.554,1.48433 -0.554,2.33593 0,1.1445 0.277,2.0781 0.902,2.8399 0.551,0.7226 1.312,1.1054 2.211,1.1054 1.035,0 2.074,-0.6367 3.183,-1.9961"
         style="fill:#008db9;fill-opacity:1;fill-rule:nonzero;stroke:none"
         id="path937" />
      <path
         d="m 132.758,21 h 1.453 v -5.5586 h 2.352 v -1.6133 h -2.352 V 0.507813 h -1.453 V 13.8281 h -2.004 v 1.6133 h 2.004 V 21"
         style="fill:#008db9;fill-opacity:1;fill-rule:nonzero;stroke:none"
         id="path939" />
      <path
         d="m 156.406,9.50391 c -0.207,1.01559 -0.484,1.86329 -0.832,2.46089 -0.41,0.5938 -0.898,1.1016 -1.519,1.4844 -0.625,0.3789 -1.242,0.5469 -1.938,0.5469 -1.105,0 -2.07,-0.4609 -2.902,-1.3984 -0.621,-0.6758 -1.039,-1.6954 -1.383,-3.09379 h 8.574 m 0,-3.98828 1.242,-0.85157 C 157.234,3.60547 156.75,2.75391 156.27,2.11719 155.715,1.48438 155.09,0.972656 154.469,0.632813 153.777,0.292969 153.02,0.125 152.188,0.125 c -1.868,0 -3.321,0.804688 -4.356,2.41797 -1.035,1.57031 -1.59,3.39453 -1.59,5.38672 0,1.91015 0.485,3.60551 1.313,5.09371 1.175,1.8672 2.699,2.8008 4.562,2.8008 1.938,0 3.457,-0.9336 4.633,-2.8867 0.832,-1.3555 1.246,-3.05469 1.246,-5.04687 h -10.301 c 0.067,-1.78516 0.481,-3.1836 1.313,-4.28516 0.828,-1.14453 1.797,-1.69922 3.043,-1.69922 0.554,0 1.172,0.12891 1.726,0.42188 0.555,0.25781 0.969,0.59765 1.387,1.0625 0.41,0.42578 0.824,1.14843 1.242,2.125"
         style="fill:#008db9;fill-opacity:1;fill-rule:nonzero;stroke:none"
         id="path941" />
      <path
         d="M 183.094,0.507813 V 20.7031 h 0.347 L 193.676,5.38672 V 20.7031 h 1.59 V 0.507813 h -0.348 L 184.688,15.7813 V 0.507813 h -1.594"
         style="fill:#008db9;fill-opacity:1;fill-rule:nonzero;stroke:none"
         id="path943" />
      <path
         d="m 212.344,13.957 c -0.832,0 -1.59,-0.2539 -2.281,-0.7656 -0.692,-0.5508 -1.247,-1.2695 -1.661,-2.2031 -0.414,-0.9766 -0.621,-1.95314 -0.621,-3.01174 0,-1.0625 0.207,-2.08203 0.621,-3.01562 0.414,-0.97656 0.969,-1.69531 1.661,-2.2461 0.691,-0.51171 1.449,-0.80859 2.281,-0.80859 0.761,0 1.59,0.25391 2.281,0.80859 0.691,0.50782 1.313,1.23047 1.66,2.16016 0.414,0.89063 0.621,1.91016 0.621,3.01563 0,1.73828 -0.484,3.18357 -1.312,4.32817 -0.899,1.1875 -2.008,1.7382 -3.25,1.7382 m 5.879,1.4844 V 0.507813 H 216.77 V 3.09375 C 216.145,2.11719 215.457,1.35547 214.695,0.890625 213.934,0.378906 213.105,0.125 212.207,0.125 c -1.66,0 -3.043,0.765625 -4.152,2.28906 -1.172,1.57032 -1.727,3.4375 -1.727,5.60157 0,2.16407 0.555,3.98827 1.727,5.51957 1.175,1.5234 2.558,2.289 4.152,2.289 0.965,0 1.797,-0.2539 2.559,-0.7656 0.757,-0.5078 1.449,-1.3164 2.004,-2.332 v 2.7148 h 1.453"
         style="fill:#008db9;fill-opacity:1;fill-rule:nonzero;stroke:none"
         id="path945" />
      <path
         d="m 229.422,0.507813 h 1.449 V 15.4414 h -1.449 V 0.507813 M 229.285,21.125 c -0.277,-0.2969 -0.347,-0.6758 -0.347,-1.1016 0,-0.4687 0.07,-0.8046 0.347,-1.1445 0.207,-0.2969 0.551,-0.4687 0.828,-0.4687 0.344,0 0.692,0.1718 0.899,0.4687 0.277,0.3399 0.347,0.6758 0.347,1.1445 0,0.4258 -0.07,0.8047 -0.347,1.1016 -0.207,0.3398 -0.555,0.4688 -0.899,0.4688 -0.277,0 -0.621,-0.129 -0.828,-0.4688"
         style="fill:#008db9;fill-opacity:1;fill-rule:nonzero;stroke:none"
         id="path947" />
      <path
         d="m 247.813,13.8281 -0.965,-1.2695 c -0.762,1.0156 -1.524,1.4844 -2.285,1.4844 -0.481,0 -0.899,-0.2149 -1.243,-0.5938 -0.343,-0.4258 -0.484,-0.8906 -0.484,-1.4453 0,-0.5078 0.141,-0.9766 0.414,-1.3984 0.277,-0.4688 0.832,-0.97659 1.73,-1.61331 1.106,-0.72266 1.868,-1.44141 2.211,-2.1211 0.414,-0.71875 0.622,-1.48437 0.622,-2.33203 0,-1.23437 -0.344,-2.29297 -1.036,-3.14062 -0.625,-0.851565 -1.453,-1.27344 -2.422,-1.27344 -0.691,0 -1.312,0.210938 -1.863,0.550781 -0.625,0.382809 -1.109,0.894529 -1.523,1.527349 l 0.969,1.35937 c 0.691,-1.10156 1.519,-1.65625 2.351,-1.65625 0.551,0 1.106,0.25391 1.449,0.76563 0.414,0.50781 0.621,1.05859 0.621,1.73828 0,0.55078 -0.136,1.05859 -0.41,1.48437 -0.211,0.42578 -0.832,0.97656 -1.801,1.61328 -1.035,0.67578 -1.726,1.35938 -2.07,2.03516 -0.348,0.67973 -0.555,1.48433 -0.555,2.33593 0,1.1445 0.274,2.0781 0.899,2.8399 0.555,0.7226 1.312,1.1054 2.211,1.1054 1.039,0 2.074,-0.6367 3.18,-1.9961"
         style="fill:#008db9;fill-opacity:1;fill-rule:nonzero;stroke:none"
         id="path949" />
      <path
         d="m 258.254,15.4414 h 1.453 V 0.507813 h -1.453 V 15.4414 m 0.762,6.1524 c 0.347,0 0.621,-0.129 0.898,-0.4688 0.207,-0.2969 0.348,-0.6758 0.348,-1.1016 0,-0.4687 -0.141,-0.8046 -0.348,-1.1445 -0.277,-0.2969 -0.551,-0.4687 -0.898,-0.4687 -0.344,0 -0.621,0.1718 -0.899,0.4687 -0.207,0.3399 -0.347,0.6758 -0.347,1.1445 0,0.4258 0.14,0.8047 0.347,1.1016 0.278,0.3398 0.555,0.4688 0.899,0.4688"
         style="fill:#008db9;fill-opacity:1;fill-rule:nonzero;stroke:none"
         id="path951" />
      <path
         d="m 270.699,15.4414 h 1.453 V 8.48438 c 0,-1.69922 0.067,-2.88672 0.207,-3.52344 0.207,-0.89063 0.621,-1.61328 1.246,-2.16406 0.551,-0.50782 1.313,-0.76172 2.145,-0.76172 0.828,0 1.52,0.2539 2.074,0.76172 0.621,0.50781 1.035,1.1875 1.246,2.03906 0.137,0.55078 0.203,1.77734 0.203,3.64844 v 6.95702 h 1.454 V 8.14453 c 0,-2.07812 -0.207,-3.60547 -0.551,-4.66797 -0.348,-1.0625 -0.903,-1.86718 -1.66,-2.46093 C 277.754,0.421875 276.855,0.125 275.75,0.125 c -1.109,0 -2.078,0.296875 -2.836,0.89063 -0.762,0.59375 -1.312,1.39843 -1.66,2.46093 -0.344,1.0625 -0.555,2.67578 -0.555,4.79297 v 7.17187"
         style="fill:#008db9;fill-opacity:1;fill-rule:nonzero;stroke:none"
         id="path953" />
      <path
         d="m 292.066,15.4414 h 1.454 v -2.6719 c 0.55,1.0586 1.242,1.8243 1.937,2.3321 0.688,0.4687 1.52,0.7226 2.348,0.7226 0.828,0 1.59,-0.2539 2.281,-0.8515 0.625,-0.5469 1.176,-1.3125 1.453,-2.2891 0.344,-0.9336 0.484,-2.4609 0.484,-4.50001 V 0.507813 H 300.57 V 7.63672 c 0,1.73828 -0.07,2.88278 -0.207,3.43748 -0.136,0.9727 -0.484,1.7383 -0.968,2.2461 -0.481,0.4688 -1.106,0.7227 -1.868,0.7227 -0.898,0 -1.726,-0.3828 -2.418,-1.1446 -0.691,-0.7656 -1.175,-1.6992 -1.382,-2.8476 C 293.586,9.28906 293.52,7.97656 293.52,5.98047 V 0.507813 h -1.454 V 15.4414"
         style="fill:#008db9;fill-opacity:1;fill-rule:nonzero;stroke:none"
         id="path955" />
      <path
         d="m 314.609,21 h 1.454 v -5.5586 h 2.347 v -1.6133 h -2.347 V 0.507813 h -1.454 V 13.8281 h -2.004 v 1.6133 h 2.004 V 21"
         style="fill:#008db9;fill-opacity:1;fill-rule:nonzero;stroke:none"
         id="path957" />
      <path
         d="m 334.105,13.957 c -0.828,0 -1.589,-0.2539 -2.281,-0.7656 -0.691,-0.5508 -1.246,-1.2695 -1.66,-2.2031 -0.414,-0.9766 -0.621,-1.95314 -0.621,-3.01174 0,-1.0625 0.207,-2.08203 0.621,-3.01562 0.414,-0.97656 0.969,-1.69531 1.66,-2.2461 0.692,-0.51171 1.453,-0.80859 2.281,-0.80859 0.829,0 1.59,0.25391 2.282,0.80859 0.761,0.50782 1.316,1.23047 1.66,2.16016 0.414,0.89063 0.625,1.91016 0.625,3.01563 0,1.73828 -0.488,3.18357 -1.317,4.32817 -0.898,1.1875 -2.003,1.7382 -3.25,1.7382 m 5.879,1.4844 V 0.507813 h -1.453 V 3.09375 C 337.91,2.11719 337.219,1.35547 336.457,0.890625 335.695,0.378906 334.867,0.125 333.969,0.125 c -1.594,0 -2.973,0.765625 -4.153,2.28906 -1.171,1.57032 -1.726,3.4375 -1.726,5.60157 0,2.16407 0.555,3.98827 1.726,5.51957 1.18,1.5234 2.559,2.289 4.219,2.289 0.899,0 1.731,-0.2539 2.488,-0.7656 0.762,-0.5078 1.454,-1.3164 2.008,-2.332 v 2.7148 h 1.453"
         style="fill:#008db9;fill-opacity:1;fill-rule:nonzero;stroke:none"
         id="path959" />
      <path
         d="m 365.082,0.507813 2.145,20.195287 h 0.277 l 6.223,-16.58982 6.222,16.58982 h 0.207 l 2.215,-20.195287 h -1.523 L 379.395,14.9727 373.934,0.507813 h -0.485 L 368.055,15.1016 366.535,0.507813 h -1.453"
         style="fill:#008db9;fill-opacity:1;fill-rule:nonzero;stroke:none"
         id="path961" />
      <path
         d="m 398.758,13.957 c -0.832,0 -1.59,-0.2539 -2.285,-0.7656 -0.692,-0.5508 -1.243,-1.2695 -1.657,-2.2031 -0.414,-0.9766 -0.625,-1.95314 -0.625,-3.01174 0,-1.0625 0.211,-2.08203 0.625,-3.01562 0.414,-0.97656 0.965,-1.69531 1.657,-2.2461 0.695,-0.51171 1.453,-0.80859 2.215,-0.80859 0.828,0 1.589,0.25391 2.351,0.80859 0.691,0.50782 1.242,1.23047 1.656,2.16016 0.348,0.89063 0.555,1.91016 0.555,3.01563 0,1.73828 -0.414,3.18357 -1.312,4.32817 -0.833,1.1875 -1.938,1.7382 -3.18,1.7382 m 5.875,1.4844 V 0.507813 H 403.18 V 3.09375 C 402.559,2.11719 401.867,1.35547 401.105,0.890625 400.344,0.378906 399.516,0.125 398.617,0.125 c -1.66,0 -3.043,0.765625 -4.148,2.28906 -1.176,1.57032 -1.727,3.4375 -1.727,5.60157 0,2.16407 0.551,3.98827 1.727,5.51957 1.176,1.5234 2.558,2.289 4.148,2.289 0.969,0 1.797,-0.2539 2.559,-0.7656 0.762,-0.5078 1.453,-1.3164 2.004,-2.332 v 2.7148 h 1.453"
         style="fill:#008db9;fill-opacity:1;fill-rule:nonzero;stroke:none"
         id="path963" />
      <path
         d="m 415.488,15.4414 h 1.453 v -2.1641 c 0.414,0.8477 0.899,1.4844 1.383,1.9102 0.551,0.4219 1.039,0.6367 1.59,0.6367 0.414,0 0.828,-0.1719 1.313,-0.5078 l -0.758,-1.6133 c -0.348,0.168 -0.625,0.2539 -0.832,0.2539 -0.485,0 -0.969,-0.2539 -1.383,-0.7656 -0.484,-0.5508 -0.828,-1.3555 -1.039,-2.4609 -0.203,-0.84769 -0.274,-2.58597 -0.274,-5.17581 V 0.507813 h -1.453 V 15.4414"
         style="fill:#008db9;fill-opacity:1;fill-rule:nonzero;stroke:none"
         id="path965" />
      <path
         d="m 436.023,13.957 c -0.761,0 -1.519,-0.2539 -2.21,-0.7656 -0.692,-0.5508 -1.247,-1.2695 -1.661,-2.2031 -0.414,-0.9766 -0.621,-1.95314 -0.621,-3.01174 0,-1.0625 0.207,-2.08203 0.621,-3.01562 0.414,-0.97656 0.969,-1.69531 1.661,-2.2461 0.691,-0.51171 1.449,-0.80859 2.21,-0.80859 0.832,0 1.59,0.25391 2.352,0.80859 0.691,0.50782 1.246,1.23047 1.66,2.16016 0.344,0.89063 0.551,1.91016 0.551,3.01563 0,1.73828 -0.414,3.18357 -1.313,4.32817 -0.828,1.1875 -1.937,1.7382 -3.25,1.7382 m 5.95,1.4844 V 0.507813 H 440.52 V 3.09375 C 439.895,2.11719 439.207,1.35547 438.445,0.890625 437.684,0.378906 436.855,0.125 435.887,0.125 c -1.59,0 -2.973,0.765625 -4.149,2.28906 -1.105,1.57032 -1.66,3.4375 -1.66,5.60157 0,2.16407 0.555,3.98827 1.727,5.51957 1.109,1.5234 2.558,2.289 4.152,2.289 0.965,0 1.797,-0.2539 2.559,-0.7656 0.757,-0.5078 1.379,-1.3164 2.004,-2.332 v 2.7148 h 1.453"
         style="fill:#008db9;fill-opacity:1;fill-rule:nonzero;stroke:none"
         id="path967" />
      <path
         d="m 467.414,15.4414 h 1.453 v -2.6719 c 0.555,1.0586 1.246,1.8243 1.938,2.3321 0.691,0.4687 1.519,0.7226 2.351,0.7226 0.828,0 1.59,-0.2539 2.282,-0.8515 0.621,-0.5469 1.175,-1.3125 1.449,-2.2891 0.347,-0.9336 0.484,-2.4609 0.484,-4.50001 V 0.507813 h -1.449 V 7.63672 c 0,1.73828 -0.07,2.88278 -0.211,3.43748 -0.137,0.9727 -0.484,1.7383 -0.965,2.2461 -0.484,0.4688 -1.105,0.7227 -1.867,0.7227 -0.899,0 -1.731,-0.3828 -2.422,-1.1446 -0.691,-0.7656 -1.172,-1.6992 -1.383,-2.8476 -0.136,-0.76174 -0.207,-2.07424 -0.207,-4.07033 V 0.507813 h -1.453 V 15.4414"
         style="fill:#008db9;fill-opacity:1;fill-rule:nonzero;stroke:none"
         id="path969" />
      <path
         d="m 494.035,13.957 c -0.762,0 -1.523,-0.2539 -2.211,-0.7656 -0.761,-0.5508 -1.316,-1.2695 -1.66,-2.2031 -0.414,-0.9766 -0.621,-1.95314 -0.621,-3.01174 0,-1.0625 0.207,-2.08203 0.621,-3.01562 0.414,-0.97656 0.969,-1.69531 1.66,-2.2461 0.688,-0.51171 1.449,-0.80859 2.211,-0.80859 0.828,0 1.59,0.25391 2.281,0.80859 0.762,0.50782 1.313,1.23047 1.731,2.16016 0.344,0.89063 0.555,1.91016 0.555,3.01563 0,1.73828 -0.418,3.18357 -1.317,4.32817 -0.898,1.1875 -1.933,1.7382 -3.25,1.7382 m 5.945,1.4844 V 0.507813 h -1.449 V 3.09375 C 497.906,2.11719 497.215,1.35547 496.457,0.890625 495.695,0.378906 494.863,0.125 493.898,0.125 c -1.589,0 -2.972,0.765625 -4.148,2.28906 -1.105,1.57032 -1.66,3.4375 -1.66,5.60157 0,2.16407 0.555,3.98827 1.726,5.51957 1.11,1.5234 2.493,2.289 4.149,2.289 0.969,0 1.801,-0.2539 2.558,-0.7656 0.762,-0.5078 1.383,-1.3164 2.008,-2.332 v 2.7148 h 1.449"
         style="fill:#008db9;fill-opacity:1;fill-rule:nonzero;stroke:none"
         id="path971" />
      <path
         d="m 525.43,21.2109 h 1.449 v -8.4414 c 0.555,1.0196 1.246,1.7813 1.937,2.2891 0.688,0.5117 1.52,0.7656 2.348,0.7656 0.832,0 1.594,-0.2539 2.285,-0.8515 0.621,-0.5469 1.106,-1.3125 1.449,-2.2891 0.348,-0.9336 0.485,-2.4609 0.485,-4.50001 V 0.507813 h -1.449 V 7.63672 c 0,1.73828 -0.071,2.88278 -0.141,3.43748 -0.207,0.9727 -0.551,1.7383 -1.035,2.2461 -0.485,0.4688 -1.106,0.7227 -1.867,0.7227 -0.899,0 -1.731,-0.3828 -2.422,-1.1446 -0.688,-0.7656 -1.176,-1.6992 -1.383,-2.8476 -0.137,-0.71877 -0.207,-2.07424 -0.207,-4.07033 V 0.507813 H 525.43 V 21.2109"
         style="fill:#008db9;fill-opacity:1;fill-rule:nonzero;stroke:none"
         id="path973" />
      <path
         d="m 546.793,20.7031 h 8.852 V 18.75 h -7.262 v -6.3203 h 7.191 v -1.9922 h -7.191 V 2.5 h 7.191 V 0.507813 h -8.781 V 20.7031"
         style="fill:#008db9;fill-opacity:1;fill-rule:nonzero;stroke:none"
         id="path975" />
      <path
         d="m 566.016,15.4414 h 1.453 V 0.507813 h -1.453 V 15.4414 m 0.691,6.1524 c 0.344,0 0.691,-0.129 0.898,-0.4688 0.278,-0.2969 0.344,-0.6758 0.344,-1.1016 0,-0.4687 -0.066,-0.8046 -0.344,-1.1445 -0.207,-0.2969 -0.554,-0.4687 -0.898,-0.4687 -0.348,0 -0.621,0.1718 -0.828,0.4687 -0.277,0.3399 -0.418,0.6758 -0.418,1.1445 0,0.4258 0.141,0.8047 0.418,1.1016 0.207,0.3398 0.48,0.4688 0.828,0.4688"
         style="fill:#008db9;fill-opacity:1;fill-rule:nonzero;stroke:none"
         id="path977" />
      <path
         d="m 578.117,15.4414 h 1.449 v -2.1641 c 0.414,0.8477 0.899,1.4844 1.383,1.9102 0.485,0.4219 1.039,0.6367 1.59,0.6367 0.418,0 0.832,-0.1719 1.246,-0.5078 l -0.762,-1.6133 c -0.277,0.168 -0.55,0.2539 -0.757,0.2539 -0.489,0 -0.969,-0.2539 -1.387,-0.7656 -0.481,-0.5508 -0.828,-1.3555 -1.035,-2.4609 -0.207,-0.84769 -0.278,-2.58597 -0.278,-5.17581 V 0.507813 h -1.449 V 15.4414"
         style="fill:#008db9;fill-opacity:1;fill-rule:nonzero;stroke:none"
         id="path979" />
      <path
         d="m 602.73,9.50391 c -0.14,1.01559 -0.484,1.86329 -0.828,2.46089 -0.418,0.5938 -0.898,1.1016 -1.523,1.4844 -0.621,0.3789 -1.246,0.5469 -1.934,0.5469 -1.109,0 -2.078,-0.4609 -2.906,-1.3984 -0.621,-0.6758 -1.035,-1.6954 -1.383,-3.09379 h 8.574 m 0,-3.98828 1.247,-0.85157 C 603.563,3.60547 603.078,2.75391 602.59,2.11719 602.039,1.48438 601.418,0.972656 600.793,0.632813 600.105,0.292969 599.344,0.125 598.512,0.125 c -1.864,0 -3.317,0.804688 -4.356,2.41797 -1.039,1.57031 -1.59,3.39453 -1.59,5.38672 0,1.91015 0.485,3.60551 1.383,5.09371 1.106,1.8672 2.625,2.8008 4.496,2.8008 1.934,0 3.457,-0.9336 4.633,-2.8867 0.828,-1.3555 1.242,-3.05469 1.242,-5.04687 h -10.3 c 0.07,-1.78516 0.484,-3.1836 1.312,-4.28516 0.828,-1.14453 1.797,-1.69922 3.043,-1.69922 0.551,0 1.176,0.12891 1.73,0.42188 0.551,0.25781 0.965,0.59765 1.379,1.0625 0.418,0.42578 0.832,1.14843 1.246,2.125"
         style="fill:#008db9;fill-opacity:1;fill-rule:nonzero;stroke:none"
         id="path981" />
      <path
         d="m 620.637,13.957 c -0.828,0 -1.586,-0.2539 -2.282,-0.7656 -0.691,-0.5508 -1.242,-1.2695 -1.656,-2.2031 -0.418,-0.9766 -0.625,-1.95314 -0.625,-3.01174 0,-1.0625 0.207,-2.08203 0.625,-3.01562 0.414,-0.97656 0.965,-1.69531 1.656,-2.2461 0.696,-0.51171 1.454,-0.80859 2.282,-0.80859 0.832,0 1.593,0.25391 2.285,0.80859 0.758,0.50782 1.312,1.23047 1.656,2.16016 0.414,0.89063 0.625,1.91016 0.625,3.01563 0,1.73828 -0.484,3.18357 -1.316,4.32817 -0.899,1.1875 -1.934,1.7382 -3.25,1.7382 m 5.879,1.4844 V 0.507813 h -1.45 V 3.09375 C 624.441,2.11719 623.75,1.35547 622.988,0.890625 622.23,0.378906 621.398,0.125 620.5,0.125 c -1.59,0 -2.973,0.765625 -4.148,2.28906 -1.176,1.57032 -1.731,3.4375 -1.731,5.60157 0,2.16407 0.625,3.98827 1.731,5.51957 1.175,1.5234 2.558,2.289 4.218,2.289 0.899,0 1.727,-0.2539 2.489,-0.7656 0.761,-0.5078 1.453,-1.3164 2.007,-2.332 v 2.7148 h 1.45"
         style="fill:#008db9;fill-opacity:1;fill-rule:nonzero;stroke:none"
         id="path983" />
      <path
         d="m 637.922,15.4414 h 1.453 v -2.6719 c 0.555,1.0586 1.246,1.8243 1.938,2.3321 0.691,0.4687 1.523,0.7226 2.351,0.7226 0.828,0 1.59,-0.2539 2.281,-0.8515 0.692,-0.5469 1.176,-1.3125 1.453,-2.2891 0.344,-0.9336 0.485,-2.4609 0.485,-4.50001 V 0.507813 H 646.43 V 7.63672 c 0,1.73828 -0.071,2.88278 -0.137,3.43748 -0.211,0.9727 -0.555,1.7383 -1.039,2.2461 -0.484,0.4688 -1.106,0.7227 -1.867,0.7227 -0.899,0 -1.727,-0.3828 -2.418,-1.1446 -0.696,-0.7656 -1.176,-1.6992 -1.387,-2.8476 -0.137,-0.76174 -0.207,-2.07424 -0.207,-4.07033 V 0.507813 h -1.453 V 15.4414"
         style="fill:#008db9;fill-opacity:1;fill-rule:nonzero;stroke:none"
         id="path985" />
      <path
         d="m 659.082,15.4414 h 1.453 v -2.6719 c 0.625,1.0586 1.242,1.8243 2.004,2.3321 0.691,0.4687 1.453,0.7226 2.281,0.7226 0.903,0 1.66,-0.2539 2.282,-0.8515 0.691,-0.5469 1.175,-1.3125 1.523,-2.2891 0.277,-0.9336 0.484,-2.4609 0.484,-4.50001 V 0.507813 h -1.453 V 7.63672 c 0,1.73828 -0.07,2.88278 -0.207,3.43748 -0.207,0.9727 -0.484,1.7383 -0.969,2.2461 -0.484,0.4688 -1.175,0.7227 -1.937,0.7227 -0.898,0 -1.66,-0.3828 -2.418,-1.1446 -0.691,-0.7656 -1.105,-1.6992 -1.383,-2.8476 -0.137,-0.76174 -0.207,-2.07424 -0.207,-4.07033 V 0.507813 h -1.453 V 15.4414"
         style="fill:#008db9;fill-opacity:1;fill-rule:nonzero;stroke:none"
         id="path987" />
      <path
         d="m 80.9688,19.8945 8.2304,3.8243"
         style="fill:#008db9;fill-opacity:1;fill-rule:nonzero;stroke:none"
         id="path989" />
      <path
         d="m 80.9688,19.8945 8.2304,3.8243"
         style="fill:none;stroke:#008db9;stroke-width:1.13744;stroke-linecap:butt;stroke-linejoin:miter;stroke-miterlimit:4;stroke-dasharray:none;stroke-opacity:1"
         id="path991" />
      <path
         d="m 271.809,20.4492 8.226,3.8164"
         style="fill:#008db9;fill-opacity:1;fill-rule:nonzero;stroke:none"
         id="path993" />
      <path
         d="m 271.809,20.4492 8.226,3.8164"
         style="fill:none;stroke:#008db9;stroke-width:1.13744;stroke-linecap:butt;stroke-linejoin:miter;stroke-miterlimit:4;stroke-dasharray:none;stroke-opacity:1"
         id="path995" />
      <path
         d="m 546.723,25.0703 8.23,3.8633"
         style="fill:#008db9;fill-opacity:1;fill-rule:nonzero;stroke:none"
         id="path997" />
      <path
         d="m 546.723,25.0703 8.23,3.8633"
         style="fill:none;stroke:#008db9;stroke-width:1.13744;stroke-linecap:butt;stroke-linejoin:miter;stroke-miterlimit:4;stroke-dasharray:none;stroke-opacity:1"
         id="path999" />
      <path
         d="M 6.57031,104.629 H 690.059"
         style="fill:#008db9;fill-opacity:1;fill-rule:nonzero;stroke:none"
         id="path1001" />
      <path
         d="M 6.57031,104.629 H 690.059"
         style="fill:none;stroke:#008db9;stroke-width:4.60393;stroke-linecap:butt;stroke-linejoin:miter;stroke-miterlimit:4;stroke-dasharray:none;stroke-opacity:1"
         id="path1003" />
      <path
         d="M 6.50391,117.145 H 690.129"
         style="fill:#2a4b92;fill-opacity:1;fill-rule:nonzero;stroke:none"
         id="path1005" />
      <path
         d="M 6.50391,117.145 H 690.129"
         style="fill:none;stroke:#294b92;stroke-width:4.60393;stroke-linecap:butt;stroke-linejoin:miter;stroke-miterlimit:4;stroke-dasharray:none;stroke-opacity:1"
         id="path1007" />
    </g>
  </g>
</svg>
