<?xml version="1.0" encoding="UTF-8" standalone="no"?>
<svg
   xmlns:dc="http://purl.org/dc/elements/1.1/"
   xmlns:cc="http://creativecommons.org/ns#"
   xmlns:rdf="http://www.w3.org/1999/02/22-rdf-syntax-ns#"
   xmlns:svg="http://www.w3.org/2000/svg"
   xmlns="http://www.w3.org/2000/svg"
   xmlns:sodipodi="http://sodipodi.sourceforge.net/DTD/sodipodi-0.dtd"
   xmlns:inkscape="http://www.inkscape.org/namespaces/inkscape"
   width="400"
   height="300"
   viewBox="0 0 105.83333 79.375"
   version="1.1"
   id="svg8"
   inkscape:version="1.0.1 (3bc2e813f5, 2020-09-07)"
   sodipodi:docname="smart_buoy.svg"
   inkscape:export-filename="C:\Users\franc\Downloads\smart_buoy.png"
   inkscape:export-xdpi="96"
   inkscape:export-ydpi="96">
  <defs
     id="defs2" />
  <sodipodi:namedview
     id="base"
     pagecolor="#ffffff"
     bordercolor="#666666"
     borderopacity="1.0"
     inkscape:pageopacity="0.0"
     inkscape:pageshadow="2"
     inkscape:zoom="6.0733333"
     inkscape:cx="200"
     inkscape:cy="150"
     inkscape:document-units="mm"
     inkscape:current-layer="g843"
     inkscape:document-rotation="0"
     showgrid="false"
     units="px"
     inkscape:window-width="3710"
     inkscape:window-height="2126"
     inkscape:window-x="-11"
     inkscape:window-y="-11"
     inkscape:window-maximized="1" />
  <metadata
     id="metadata5">
    <rdf:RDF>
      <cc:Work
         rdf:about="">
        <dc:format>image/svg+xml</dc:format>
        <dc:type
           rdf:resource="http://purl.org/dc/dcmitype/StillImage" />
        <dc:title></dc:title>
      </cc:Work>
    </rdf:RDF>
  </metadata>
  <g
     inkscape:label="Capa 1"
     inkscape:groupmode="layer"
     id="layer1">
    <g
       id="g843"
       transform="matrix(0.03527778,0,0,-0.03527778,-3.6820313,102.47177)">
      <path
         d="m 1992.3007,1561.2603 c 1.0832,-0.7187 2.3437,-1.625 3.4269,-2.5207 v 0.177 c -1.0832,0.7187 -2.3437,1.625 -3.4269,2.3437 z m -741.2073,-3.0623 -1.8063,-1.625 c 0.899,0.7187 1.8063,1.4374 2.8883,2.1666 v 0.177 z m 741.2073,3.0623 c 1.0832,-0.7187 2.3437,-1.625 3.4269,-2.5207 v 0.177 c -1.0832,0.7187 -2.3437,1.625 -3.4269,2.3437 z m -741.2073,-3.0623 -1.8063,-1.625 c 0.899,0.7187 1.8063,1.4374 2.8883,2.1666 v 0.177 z m 741.2073,3.0623 c 1.0832,-0.7187 2.3437,-1.625 3.4269,-2.5207 v 0.177 c -1.0832,0.7187 -2.3437,1.625 -3.4269,2.3437 z m -741.2073,-3.0623 -1.8063,-1.625 c 0.899,0.7187 1.8063,1.4374 2.8883,2.1666 v 0.177 z m 741.2073,3.0623 c 1.0832,-0.7187 2.3437,-1.625 3.4269,-2.5207 v 0.177 c -1.0832,0.7187 -2.3437,1.625 -3.4269,2.3437 z m -741.2073,-3.0623 -1.8063,-1.625 c 0.899,0.7187 1.8063,1.4374 2.8883,2.1666 v 0.177 z m 440.3229,99.9306 c 14.2521,-1.0833 28.1385,-2.5207 42.0293,-4.5101 4.8747,-0.5416 9.7451,-1.2603 14.4365,-1.979 27.4148,-4.156 54.2962,-9.7494 80.0882,-16.603 5.5903,-1.4374 11.0107,-2.8853 16.2343,-4.6873 1.9853,-0.3542 3.7924,-0.9061 5.4153,-1.6249 5.2289,-1.4478 10.2816,-2.8852 15.3312,-4.6871 7.5766,-2.5207 14.9688,-5.0517 22.187,-7.7599 26.1535,-9.9265 51.0507,-21.4673 73.7794,-34.633 3.2497,-1.9791 6.4891,-3.7914 9.7388,-5.9475 3.0728,-1.6353 5.9476,-3.6143 8.8432,-5.4164 4.3225,-3.0622 8.6557,-5.9579 12.8012,-9.0201 1.0832,-0.7187 2.3437,-1.625 3.4269,-2.5207 13.8948,-10.2909 25.6127,-20.9257 35.1746,-31.7478 1.4479,-1.625 2.8957,-3.4373 4.3331,-5.0517 1.2603,-1.6249 2.5309,-3.0728 3.6142,-4.6976 1.2604,-1.4375 2.3436,-2.8852 3.2499,-4.5101 5.4059,-7.3954 9.3742,-14.7907 11.8949,-21.8214 0.9062,-2.1665 1.625,-4.5101 2.1667,-6.6767 v -0.1875 c 1.4374,-4.6871 1.9892,-9.1973 1.9892,-13.5303 0,-16.9468 -9.3847,-36.2475 -26.1647,-55.3712 -5.9476,-6.6767 -12.6242,-13.5303 -20.384,-20.2069 -2.5207,-2.3436 -5.2288,-4.4997 -8.114,-6.6662 -3.604,-3.0727 -7.3955,-5.958 -11.3638,-8.8433 -3.0624,-2.3436 -6.3122,-4.6871 -9.7391,-6.8535 -6.6766,-4.5102 -13.8947,-9.0203 -21.4671,-13.3429 -22.3673,-12.8117 -46.3646,-24.1754 -71.9731,-33.7373 h -0.1792 c -158.562,-60.4333 -371.2434,-60.4333 -529.622,0 h -0.1834 c -25.6128,9.5619 -49.7851,20.9256 -71.9721,33.7373 -4.8695,2.8748 -9.7442,5.7705 -14.2479,8.6556 -9.5619,5.9475 -18.2239,12.2597 -26.3409,18.5822 l -1.9863,1.8019 h -0.1751 c -2.8884,2.1665 -5.5944,4.51 -8.2993,6.8536 -11.7222,10.2806 -21.4674,20.5612 -28.8637,30.8417 -1.8073,2.3539 -3.2437,4.6976 -4.6873,6.8537 -0.7249,1.2603 -1.6238,2.531 -2.3477,3.7914 -2.7061,4.5101 -4.8705,9.2077 -6.4944,13.5302 -2.5227,7.0308 -3.9663,13.8846 -3.9663,20.3737 0,4.1664 0.5405,8.6661 1.8019,13.1761 l 0.1791,0.3542 v 0.1875 c 0.5417,2.354 1.4489,4.8747 2.3477,7.2183 0.8991,2.3435 1.9812,4.6871 3.2468,7.2183 0.725,1.6143 1.6238,3.4164 2.5268,5.0517 4.3247,7.5724 10.0983,15.5092 17.1375,23.2692 1.803,2.156 3.6049,4.1455 5.9526,6.3121 1.8021,2.1561 4.1499,4.3226 6.3111,6.312 2.1645,1.9791 4.5122,4.1456 6.8559,6.135 1.4436,1.2604 2.8883,2.5207 4.3328,3.604 1.9811,1.8018 3.9665,3.4268 6.1279,5.0517 l 1.4436,1.0833 1.4446,1.0831 c 0.899,0.7187 1.8063,1.4374 2.8883,2.1666 v 0.177 c 10.4608,7.76 22.183,15.5094 34.8123,22.7277 22.7328,13.1657 47.4415,24.7065 73.7782,34.633 4.8706,1.8123 9.9243,3.604 15.1563,5.4163 3.7841,1.2603 7.5724,2.5207 11.3596,3.781 6.1361,1.9895 12.4471,3.9685 18.7654,5.6038 12.2669,3.7809 24.8889,7.0306 37.5183,9.9159 5.9475,1.4479 11.7251,2.7081 17.6779,3.7915 8.6547,1.8018 17.3165,3.4164 26.1576,4.8642 5.5871,1.0834 11.1815,1.8019 16.9551,2.531 5.2319,0.8959 10.4607,1.6249 15.8717,2.1666 l 1.2615,0.1771 c 5.5944,0.8958 11.1846,1.4374 16.7789,1.979 5.5913,0.5416 11.1858,1.0832 16.7802,1.6249 6.6725,0.5416 13.5283,0.9062 20.3757,1.2603 16.0593,0.9061 32.2937,1.4478 48.5279,1.4478 15.6937,0 31.3906,-0.3645 47.079,-1.2707 6.8559,-0.3541 13.7117,-0.8958 20.3853,-1.4374 z m 654.808,-169.3841 -0.1772,1.8123 c -0.1874,5.7704 -0.7291,11.3533 -1.4477,16.9467 v 0.5417 c -11.7179,105.5239 -73.0575,203.8401 -174.2485,280.5015 -20.2069,15.3427 -41.8512,29.7688 -65.1205,43.1117 -12.9887,7.3952 -26.1649,14.6136 -39.8722,21.2902 h -0.177 c -66.9225,33.1851 -141.7872,57.9022 -220.2526,73.599 -11.0056,2.3435 -22.011,4.3226 -33.1925,6.3121 -20.9257,3.4269 -41.8503,6.4891 -63.1342,8.8431 -10.2816,1.0729 -20.7465,2.1666 -31.0281,2.8852 -10.2774,0.8958 -20.7466,1.6249 -31.2073,2.1665 -4.1497,0.3542 -8.4796,0.5416 -12.8085,0.5416 -16.4177,0.8959 -32.827,1.2605 -49.2435,1.2605 h -0.5416 c -17.1416,0 -34.0956,-0.3646 -51.2288,-1.2605 -3.7882,0 -7.5807,-0.1874 -11.368,-0.5416 -10.2784,-0.5416 -20.7392,-1.2707 -31.025,-2.1665 -10.4607,-0.7186 -20.7465,-1.8123 -31.028,-2.8852 -14.0688,-1.6249 -28.1387,-3.4372 -42.2086,-5.5934 -98.1339,-14.4364 -192.1127,-42.2159 -274.5539,-83.1608 -13.5284,-6.6766 -26.6952,-13.895 -39.6827,-21.2902 -23.2682,-13.3429 -45.0969,-27.769 -65.1195,-43.1117 -101.19756,-76.6614 -162.70867,-174.9776 -174.43883,-280.5015 v -0.5417 c -0.71602,-5.5934 -1.2612,-11.1763 -1.44027,-16.9467 l -0.18312,-1.8123 c -0.35396,-5.958 -0.53708,-12.0826 -0.53708,-18.228 0,-123.7311 68.0049,-240.4522 188.8661,-327.2066 16.5926,-11.9159 34.2717,-23.2798 52.8527,-34.1019 18.0373,-10.4576 36.6192,-20.0194 55.9252,-29.0397 125.1821,-58.6314 275.2654,-87.85846 425.3489,-87.85846 86.5868,0 173.1736,9.74926 254.8899,29.22706 60.0709,14.2595 117.6148,33.9144 170.4653,58.6314 19.3007,9.0203 37.8828,18.5821 55.9232,29.0397 18.5717,10.8221 36.258,22.186 52.8505,34.1019 120.6793,86.7544 188.685,203.4755 188.685,327.2066 0,6.1454 -0.1875,12.27 -0.5416,18.228 z m -1096.9372,67.8285 c 0.899,0.7187 1.8063,1.4374 2.8883,2.1666 v 0.177 l -1.082,-0.7186 z m 743.0136,4.6873 c 1.0832,-0.7187 2.3437,-1.625 3.4269,-2.5207 v 0.177 c -1.0832,0.7187 -2.3437,1.625 -3.4269,2.3437 z m -741.2073,-3.0623 -1.8063,-1.625 c 0.899,0.7187 1.8063,1.4374 2.8883,2.1666 v 0.177 z m 741.2073,3.0623 c 1.0832,-0.7187 2.3437,-1.625 3.4269,-2.5207 v 0.177 c -1.0832,0.7187 -2.3437,1.625 -3.4269,2.3437 z m -741.2073,-3.0623 -1.8063,-1.625 c 0.899,0.7187 1.8063,1.4374 2.8883,2.1666 v 0.177 z m 741.2073,3.0623 c 1.0832,-0.7187 2.3437,-1.625 3.4269,-2.5207 v 0.177 c -1.0832,0.7187 -2.3437,1.625 -3.4269,2.3437 z m -741.2073,-3.0623 -1.8063,-1.625 c 0.899,0.7187 1.8063,1.4374 2.8883,2.1666 v 0.177 z m 741.2073,3.0623 c 1.0832,-0.7187 2.3437,-1.625 3.4269,-2.5207 v 0.177 c -1.0832,0.7187 -2.3437,1.625 -3.4269,2.3437 z m -741.2073,-3.0623 -1.8063,-1.625 c 0.899,0.7187 1.8063,1.4374 2.8883,2.1666 v 0.177 z m 741.2073,3.0623 c 1.0832,-0.7187 2.3437,-1.625 3.4269,-2.5207 v 0.177 c -1.0832,0.7187 -2.3437,1.625 -3.4269,2.3437"
         style="fill:#db3737;fill-opacity:1;fill-rule:nonzero;stroke:none;stroke-width:1.0416"
         id="path845" />
      <path
         d="m 2346.2243,1488.7445 -0.1772,1.8123 c -0.1874,5.7704 -0.7291,11.3533 -1.4477,16.9467 -12.9887,-94.1601 -80.9944,-186.3412 -204.1942,-258.8571 -1.8021,-1.0833 -3.6144,-2.1666 -5.4164,-3.2498 -33.7269,-19.4778 -69.9847,-36.6121 -108.0551,-51.4027 -242.975,-94.5247 -563.1633,-94.5247 -805.9654,0 -38.2453,14.7906 -74.5021,31.9249 -108.2321,51.4027 -1.8062,1.0832 -3.4301,1.9894 -5.2319,3.0727 -123.20956,72.693 -191.57232,164.697 -204.38473,259.0342 -0.71602,-5.5934 -1.2612,-11.1763 -1.44027,-16.9467 l -0.18312,-1.8123 c -0.35396,-5.958 -0.53708,-12.0826 -0.53708,-18.228 0,-123.7311 68.0049,-240.4522 188.8661,-327.2066 16.5926,-11.9159 34.2717,-23.2798 52.8527,-34.1019 18.0373,-10.4576 36.6192,-20.0194 55.9252,-29.0397 125.1821,-58.6314 275.2654,-87.85846 425.3489,-87.85846 86.5868,0 173.1736,9.74926 254.8899,29.22706 60.0709,14.2595 117.6148,33.9144 170.4653,58.6314 19.3007,9.0203 37.8828,18.5821 55.9232,29.0397 18.5717,10.8221 36.258,22.186 52.8505,34.1019 120.6793,86.7544 188.685,203.4755 188.685,327.2066 0,6.1454 -0.1875,12.27 -0.5416,18.228"
         style="fill:#b82e2e;fill-opacity:1;fill-rule:nonzero;stroke:none;stroke-width:1.0416"
         id="path847" />
      <path
         d="m 1992.1237,1379.4289 c -3.0624,-2.3436 -6.3122,-4.6871 -9.7391,-6.8535 -6.6766,-4.5102 -13.8947,-9.0203 -21.4671,-13.3429 -22.3673,-12.8117 -46.3646,-24.1754 -71.9731,-33.7373 h -0.1792 c -158.562,-60.4333 -371.2434,-60.4333 -529.622,0 h -0.1834 c -25.6128,9.5619 -49.7851,20.9256 -71.9721,33.7373 -4.8695,2.8748 -9.7442,5.7705 -14.2479,8.6556 -9.5619,5.9475 -18.2239,12.2597 -26.3409,18.5822 l -1.9863,1.8019 h -0.1751 c -2.8884,2.1665 -5.5944,4.51 -8.2993,6.8536 -11.7222,10.2806 -21.4674,20.5612 -28.8637,30.8417 -1.8073,2.3539 -3.2437,4.6976 -4.6873,6.8537 -0.7249,1.2603 -1.6238,2.531 -2.3477,3.7914 -2.7061,4.5101 -4.8705,9.2077 -6.4944,13.5302 -2.5227,7.0308 -3.9663,13.8846 -3.9663,20.3737 0,4.1664 0.5405,8.6661 1.8019,13.1761 l 0.1791,0.3542 v 0.1875 c 0.5417,2.354 1.4489,4.8747 2.3477,7.2183 0.8991,2.3435 1.9812,4.6871 3.2468,7.2183 0.725,1.6143 1.6238,3.4164 2.5268,5.0517 4.3247,7.5724 10.0983,15.5092 17.1375,23.2692 1.803,2.156 3.6049,4.1455 5.9526,6.3121 1.8021,2.1561 4.1499,4.3226 6.3111,6.312 2.1645,1.9791 4.5122,4.1456 6.8559,6.135 1.4436,1.2604 2.8883,2.5207 4.3328,3.604 1.9811,1.8018 3.9665,3.4268 6.1279,5.0517 l 1.4436,1.0833 1.4446,1.0831 1.8063,1.625 1.082,0.7186 c 10.4608,7.76 22.183,15.5094 34.8123,22.7277 22.7328,13.1657 47.4415,24.7065 73.7782,34.633 4.8706,1.8123 9.9243,3.604 15.1563,5.4163 3.7841,1.2603 7.5724,2.5207 11.3596,3.781 6.1361,1.9895 12.4471,3.9685 18.7654,5.6038 12.2669,3.7809 24.8889,7.0306 37.5183,9.9159 5.9475,1.4479 11.7251,2.7081 17.6779,3.7915 8.6547,1.8018 17.3165,3.4164 26.1576,4.8642 5.5871,1.0834 11.1815,1.8019 16.9551,2.531 5.2319,0.8959 10.4607,1.6249 15.8717,2.1666 l 1.2615,0.1771 c 5.5944,0.8958 11.1846,1.4374 16.7789,1.979 5.5913,0.5416 11.1858,1.0832 16.7802,1.6249 6.6725,0.5416 13.5283,0.9062 20.3757,1.2603 16.0593,0.9061 32.2937,1.4478 48.5279,1.4478 15.6937,0 31.3906,-0.3645 47.079,-1.2707 6.8559,-0.3541 13.7117,-0.8958 20.3853,-1.4374 14.2521,-1.0833 28.1385,-2.5207 42.0293,-4.5101 4.8747,-0.5416 9.7451,-1.2603 14.4365,-1.979 27.4148,-4.156 54.2962,-9.7494 80.0882,-16.603 5.5903,-1.4374 11.0107,-2.8853 16.2343,-4.6873 1.9853,-0.3542 3.7924,-0.9061 5.4153,-1.6249 5.2289,-1.4478 10.2816,-2.8852 15.3312,-4.6871 7.5766,-2.5207 14.9688,-5.0517 22.187,-7.7599 26.1535,-9.9265 51.0507,-21.4673 73.7794,-34.633 3.2497,-1.9791 6.4891,-3.7914 9.7388,-5.9475 3.0728,-1.6353 5.9476,-3.6143 8.8432,-5.4164 4.3225,-3.0622 8.6557,-5.9579 12.8012,-9.0201 1.0832,-0.7187 2.3437,-1.625 3.4269,-2.3437 v -0.177 c 13.8948,-10.2909 25.6127,-20.9257 35.1746,-31.7478 1.4479,-1.625 2.8957,-3.4373 4.3331,-5.0517 1.2603,-1.6249 2.5309,-3.0728 3.6142,-4.6976 1.2604,-1.4375 2.3436,-2.8852 3.2499,-4.5101 5.4059,-7.3954 9.3742,-14.7907 11.8949,-21.8214 0.9062,-2.1665 1.625,-4.5101 2.1667,-6.6767 v -0.1875 c 1.4374,-4.6871 1.9892,-9.1973 1.9892,-13.5303 0,-16.9468 -9.3847,-36.2475 -26.1647,-55.3712 -5.9476,-6.6767 -12.6242,-13.5303 -20.384,-20.2069 -2.5207,-2.3436 -5.2288,-4.4997 -8.114,-6.6662 -3.604,-3.0727 -7.3955,-5.958 -11.3638,-8.8433 z m 167.3946,407.8574 c -21.6443,17.8635 -46.3509,34.8102 -73.9532,50.8716 -8.8432,5.0516 -17.4988,9.9159 -26.696,14.6135 h -0.1876 c -64.0371,33.1853 -136.9104,57.7252 -213.7529,73.7762 -11.0056,2.3435 -22.011,4.3226 -33.1925,6.3121 -20.9257,3.4269 -41.8503,6.4891 -63.1342,8.8431 -10.2816,1.0729 -20.7465,2.1666 -31.0281,2.8852 -10.2774,0.8958 -20.7466,1.6249 -31.2073,2.1665 -4.1497,0.3542 -8.4796,0.5416 -12.8085,0.5416 -16.4177,0.8959 -32.827,1.2605 -49.2435,1.2605 h -0.5416 c -17.1416,0 -34.0956,-0.3646 -51.2288,-1.2605 -3.7882,0 -7.5807,-0.1874 -11.368,-0.5416 -10.2784,-0.5416 -20.7392,-1.2707 -31.025,-2.1665 -10.4607,-0.7186 -20.7465,-1.8123 -31.028,-2.8852 -14.0688,-1.6249 -28.1387,-3.4372 -42.2086,-5.5934 -96.6892,-14.8011 -188.8703,-42.5803 -267.8773,-83.338 -9.1995,-4.6976 -18.0363,-9.5619 -26.8774,-14.6135 -27.5991,-16.0614 -52.1328,-33.0081 -73.7783,-50.8716 -173.89382,-143.5839 -154.77074,-341.1118 57.5441,-472.6132 5.2277,-3.2499 10.6388,-6.4996 16.2342,-9.739 30.8489,-17.8634 63.854,-33.5601 98.8495,-46.903 218.9912,-84.7858 506.8944,-84.7858 725.8855,0 34.8101,13.3429 67.8183,29.0396 98.6703,46.903 5.5935,3.2394 11.0096,6.4891 16.2384,9.916 212.3084,131.1368 231.4321,328.8523 57.7148,472.4362"
         style="fill:#f23d3d;fill-opacity:1;fill-rule:nonzero;stroke:none;stroke-width:1.0416"
         id="path849" />
      <path
         d="m 2056.161,1484.2343 c -0.5417,2.1666 -1.2605,4.5102 -2.1667,6.6767 -2.5207,7.0307 -6.489,14.426 -11.8949,21.8214 -0.9063,1.6249 -1.9895,3.0726 -3.2499,4.5101 -1.0833,1.6248 -2.3539,3.0727 -3.6142,4.6976 -1.4374,1.6144 -2.8852,3.4267 -4.3331,5.0517 -9.5619,10.8221 -21.2798,21.4569 -35.1746,31.7478 v 0.177 c -1.0832,0.7187 -2.3437,1.625 -3.4269,2.3437 -4.1455,3.0622 -8.4787,5.9579 -12.8012,9.0201 -2.8956,1.8021 -5.7704,3.7811 -8.8432,5.4164 -3.2497,2.1561 -6.4891,3.9684 -9.7388,5.9475 -22.7287,13.1657 -47.6259,24.7065 -73.7794,34.633 -7.2182,2.7082 -14.6104,5.2392 -22.187,7.7599 -5.0496,1.6249 -10.1023,3.2393 -15.3312,4.6871 -1.6229,0.7188 -3.43,1.2707 -5.4153,1.6249 -5.2236,1.802 -10.644,3.2499 -16.2343,4.6873 -25.792,6.8536 -52.6734,12.447 -80.0882,16.603 -4.6914,0.7187 -9.5618,1.4374 -14.4365,1.979 -13.8908,1.9894 -27.7772,3.4268 -42.0293,4.5101 -6.6736,0.5416 -13.5294,1.0833 -20.3853,1.4374 -15.6884,0.9062 -31.3853,1.2707 -47.079,1.2707 -16.2342,0 -32.4686,-0.5417 -48.5279,-1.4478 -6.8474,-0.3541 -13.7032,-0.7187 -20.3757,-1.2603 -5.5944,-0.5417 -11.1889,-1.0833 -16.7802,-1.6249 -5.5943,-0.5416 -11.1845,-1.0832 -16.7789,-1.979 l -1.2615,-0.1771 c -5.411,-0.5417 -10.6398,-1.2707 -15.8717,-2.1666 -5.7736,-0.7291 -11.368,-1.4476 -16.9551,-2.531 -8.8411,-1.4478 -17.5029,-3.0624 -26.1576,-4.8642 -5.9528,-1.0834 -11.7304,-2.3436 -17.6779,-3.7915 -12.6294,-2.8853 -25.2514,-6.135 -37.5183,-9.9159 -6.3183,-1.6353 -12.6293,-3.6143 -18.7654,-5.6038 -3.7872,-1.2603 -7.5755,-2.5207 -11.3596,-3.781 -5.232,-1.8123 -10.2857,-3.604 -15.1563,-5.4163 -26.3367,-9.9265 -51.0454,-21.4673 -73.7782,-34.633 -12.6293,-7.2183 -24.3515,-14.9677 -34.8123,-22.7277 l -1.082,-0.7186 -1.8063,-1.625 -1.4446,-1.0831 -1.4436,-1.0833 c -2.1614,-1.6249 -4.1468,-3.2499 -6.1279,-5.0517 -1.4445,-1.0833 -2.8892,-2.3436 -4.3328,-3.604 -2.3437,-1.9894 -4.6914,-4.1559 -6.8559,-6.135 -2.1612,-2.1665 -4.3299,-4.1559 -6.3111,-6.312 -1.9851,-1.9791 -3.9673,-4.1561 -5.9526,-6.3121 -7.0392,-7.76 -12.8128,-15.6968 -17.1375,-23.2692 -0.903,-1.6353 -1.8018,-3.4374 -2.5268,-5.0517 -1.2656,-2.5312 -2.3477,-4.8748 -3.2468,-7.2183 -0.8988,-2.3436 -1.806,-4.8643 -2.3477,-7.2183 -7.938,48.1635 8.3048,97.587 48.7112,141.6048 v 0.1771 c 19.8395,21.2903 45.273,41.3097 76.4803,59.3502 9.3774,5.4162 19.1185,10.645 29.225,15.3322 160.5484,77.5675 395.4072,77.5675 555.9556,0 10.1025,-4.8747 19.6643,-9.916 29.0429,-15.3322 31.203,-18.0405 56.8262,-38.0599 76.4811,-59.5273 40.4034,-44.0178 56.6419,-93.4413 48.7051,-141.6048"
         style="fill:#db3737;fill-opacity:1;fill-rule:nonzero;stroke:none;stroke-width:1.0416"
         id="path851" />
      <path
         d="m 2170.3509,1788.5467 c -3.6144,-0.1771 -7.2182,-0.5311 -10.8326,-1.2604 -12.8012,-2.1665 -26.5086,-7.2182 -40.5805,-15.5197 -49.434,-28.4876 -91.8166,-86.4002 -111.4819,-145.9275 -7.5724,-22.5505 -11.7283,-45.4552 -11.7283,-66.9225 v -0.177 c -1.0832,0.8957 -2.3437,1.802 -3.4269,2.5207 -4.1455,3.0622 -8.4787,5.9579 -12.8012,9.0201 -2.8956,1.8021 -5.7704,3.7811 -8.8432,5.4164 -3.2497,2.1561 -6.4891,3.9684 -9.7388,5.9475 -22.7287,13.1657 -47.6259,24.7065 -73.7794,34.633 -0.3624,2.1666 -0.3624,4.333 -0.3624,6.6766 -0.1792,25.0711 5.4121,51.7778 15.1562,77.7447 21.1007,55.746 61.3292,108.5967 107.8677,135.2927 17.3216,10.1035 33.7372,15.5199 48.8819,16.7801 h 0.1876 c 2.1664,0.1772 4.1454,0.1772 6.3121,0.1772 h 0.177 c 13.7073,-6.6766 26.8835,-13.895 39.8722,-21.2902 23.2693,-13.3429 44.9136,-27.769 65.1205,-43.1117"
         style="fill:#ffc7c7;fill-opacity:1;fill-rule:nonzero;stroke:none;stroke-width:1.0416"
         id="path853" />
      <path
         d="m 1358.9598,1325.4952 c -12.0846,-2.3436 -24.8889,-7.3953 -38.242,-15.1552 -21.6455,-12.447 -42.2044,-30.8417 -59.7085,-52.3089 -15.8719,-19.3007 -29.5803,-41.1325 -40.041,-64.0372 -14.7939,-31.9353 -23.4515,-65.8393 -23.4515,-96.8788 0,-5.9475 0.3625,-11.5408 1.0863,-16.9468 -19.306,9.0203 -37.8879,18.5821 -55.9252,29.0397 -18.581,10.8221 -36.2601,22.186 -52.8527,34.1019 -0.9031,5.5828 -1.2613,11.7178 -1.2613,18.03 -0.1824,27.9668 6.8484,58.0792 18.9404,87.1294 9.7368,23.4464 22.9108,45.9968 38.4213,66.2038 18.9393,24.8837 41.4887,45.8197 65.661,59.8918 11.3597,6.489 22.1901,10.9991 32.6509,13.7073 h 0.1751 l 1.9863,-1.8019 c 8.117,-6.3225 16.779,-12.6347 26.3409,-18.5822 4.5037,-2.8851 9.3784,-5.7808 14.2479,-8.6556 22.187,-12.8117 46.3593,-24.1754 71.9721,-33.7373"
         style="fill:#ffc7c7;fill-opacity:1;fill-rule:nonzero;stroke:none;stroke-width:1.0416"
         id="path855" />
      <path
         d="m 1361.1283,1622.9539 c 0,-2.3436 0,-4.51 -0.3624,-6.6766 -26.3367,-9.9265 -51.0454,-21.4673 -73.7782,-34.633 -12.6293,-7.2183 -24.3515,-14.9677 -34.8123,-22.7277 0,21.6444 -4.1497,44.195 -11.9044,66.9225 v 0.1771 c -19.4849,59.3502 -61.8779,117.2628 -111.3006,145.7504 -14.073,8.3015 -27.7856,13.3532 -40.5889,15.5197 -3.6091,0.7293 -7.214,1.0833 -10.8231,1.2604 20.0226,15.3427 41.8513,29.7688 65.1195,43.1117 12.9875,7.3952 26.1543,14.6136 39.6827,21.2902 2.1685,0 4.5121,0 6.6766,-0.1772 15.1521,-1.2602 31.7489,-6.6766 49.0654,-16.7801 46.5415,-26.696 86.7648,-79.5467 107.8737,-135.2927 9.7411,-25.9669 15.3271,-52.6736 15.152,-77.7447"
         style="fill:#ffc7c7;fill-opacity:1;fill-rule:nonzero;stroke:none;stroke-width:1.0416"
         id="path857" />
      <path
         d="m 2159.3413,1161.3399 c 0,-6.3122 -0.3542,-12.4472 -1.2604,-18.03 -16.5925,-11.9159 -34.2788,-23.2798 -52.8505,-34.1019 -18.0404,-10.4576 -36.6225,-20.0194 -55.9232,-29.0397 0.7188,5.406 1.0833,10.9993 1.0833,16.9468 0,31.0395 -8.6557,64.9435 -23.4568,96.8788 -10.4577,22.9047 -24.1651,44.7365 -40.0389,64.0372 -17.4987,21.4672 -38.0704,39.8619 -59.7125,52.3089 -13.3491,7.7599 -26.1534,12.8116 -38.2379,15.1552 25.6085,9.5619 49.6058,20.9256 71.9731,33.7373 7.5724,4.3226 14.7905,8.8327 21.4671,13.3429 3.4269,2.1664 6.6767,4.5099 9.7391,6.8535 3.9683,2.8853 7.7598,5.7706 11.3638,8.8433 10.4576,-2.7082 21.4671,-7.2183 32.831,-13.7073 24.1754,-13.895 46.5384,-35.0081 65.485,-59.7148 15.5094,-20.2069 28.6752,-42.7575 38.6017,-66.2037 12.0823,-29.0398 19.1131,-59.3397 18.9361,-87.3065"
         style="fill:#ffc7c7;fill-opacity:1;fill-rule:nonzero;stroke:none;stroke-width:1.0416"
         id="path859" />
      <path
         d="m 1191.5276,1147.1533 1.025,0.2293 1.5259,0.3332 0.9843,-0.052 1.327,-0.062 0.8541,-0.3227 1.1396,-0.4168 -101.637,59.0688 c -2.4621,1.4272 -5.8755,1.2292 -9.6389,-0.9477 l 101.6816,-59.0899 2.7384,1.2605"
         style="fill:#d1a3a3;fill-opacity:1;fill-rule:nonzero;stroke:none;stroke-width:1.0416"
         id="path861" />
      <path
         d="m 1198.4282,1146.8305 -0.044,0.031 0.019,-0.021 z"
         style="fill:#e3b1b1;fill-opacity:1;fill-rule:nonzero;stroke:none;stroke-width:1.0416"
         id="path863" />
      <path
         d="m 1177.6161,1115.1659 -0.699,1.0624 -0.5541,0.8541 -0.5125,1.5938 -0.277,0.8644 c -0.1824,0.9062 -0.2803,1.8958 -0.2886,2.9686 -0.017,8.5932 6.0298,19.0716 13.5043,23.3838 l -101.6816,59.0897 c -7.4785,-4.3122 -13.5249,-14.7907 -13.4958,-23.3839 0.012,-4.2705 1.5177,-7.2806 3.9508,-8.6868 l 101.6814,-59.0896 -0.8988,0.7395 -0.7291,0.604"
         style="fill:#d1a3a3;fill-opacity:1;fill-rule:nonzero;stroke:none;stroke-width:1.0416"
         id="path865" />
      <path
         d="m 1198.4032,1146.8409 -0.019,0.021 -1.1395,0.4168 -0.8542,0.3227 -1.327,0.062 -0.9843,0.052 -1.5259,-0.3332 -1.0249,-0.2292 -2.7385,-1.2604 c -7.4744,-4.3122 -13.5208,-14.7906 -13.5042,-23.3837 0.014,-1.0729 0.1057,-2.0625 0.2886,-2.9686 l 0.277,-0.8645 0.5124,-1.5938 0.5543,-0.854 0.6989,-1.0625 0.729,-0.604 c 2.4935,-2.1145 6.2652,-2.2708 10.5338,0.1978 7.4785,4.3227 13.5239,14.8012 13.5,23.3839 -0.014,4.2913 -1.5302,7.2912 -3.9758,8.6973"
         style="fill:#b38b8b;fill-opacity:1;fill-rule:nonzero;stroke:none;stroke-width:1.0416"
         id="path867" />
      <path
         d="m 2056.3795,1147.1533 -1.0206,0.2293 -1.5312,0.3332 -0.9895,-0.052 -1.3227,-0.062 -0.8542,-0.3227 -1.1353,-0.4168 101.6283,59.0688 c 2.4686,1.4272 5.8747,1.2292 9.6451,-0.9477 l -101.6908,-59.0899 -2.7291,1.2605"
         style="fill:#d1a3a3;fill-opacity:1;fill-rule:nonzero;stroke:none;stroke-width:1.0416"
         id="path869" />
      <path
         d="m 2049.4843,1146.8305 0.042,0.031 -0.02,-0.021 z"
         style="fill:#e3b1b1;fill-opacity:1;fill-rule:nonzero;stroke:none;stroke-width:1.0416"
         id="path871" />
      <path
         d="m 2070.2954,1115.1659 0.6979,1.0624 0.5519,0.8541 0.5105,1.5938 0.2811,0.8644 c 0.1771,0.9062 0.2813,1.8958 0.2813,2.9686 0.02,8.5932 -6.0204,19.0716 -13.5095,23.3838 l 101.6908,59.0897 c 7.4684,-4.3122 13.52,-14.7907 13.4992,-23.3839 -0.014,-4.2705 -1.5208,-7.2806 -3.9477,-8.6868 l -101.6909,-59.0896 0.8959,0.7395 0.7395,0.604"
         style="fill:#d1a3a3;fill-opacity:1;fill-rule:nonzero;stroke:none;stroke-width:1.0416"
         id="path873" />
      <path
         d="m 2049.505,1146.8409 0.021,0.021 1.1354,0.4168 0.8541,0.3227 1.3228,0.062 0.9894,0.052 1.5313,-0.3332 1.0206,-0.2292 2.729,-1.2604 c 7.4891,-4.3122 13.5304,-14.7906 13.5095,-23.3837 0,-1.0729 -0.1046,-2.0625 -0.2812,-2.9686 l -0.2811,-0.8645 -0.5105,-1.5938 -0.552,-0.854 -0.6979,-1.0625 -0.7395,-0.604 c -2.4895,-2.1145 -6.26,-2.2708 -10.5305,0.1978 -7.4787,4.3227 -13.52,14.8012 -13.4991,23.3839 0.013,4.2913 1.5311,7.2912 3.9788,8.6973"
         style="fill:#b38b8b;fill-opacity:1;fill-rule:nonzero;stroke:none;stroke-width:1.0416"
         id="path875" />
      <path
         d="m 2031.4178,1702.0912 v -190.6327 h -0.1667 c 0,-43.193 -21.0922,-86.3785 -63.4331,-123.9697 -14.6198,-12.9147 -31.9686,-25.3315 -51.6902,-36.7245 -19.8954,-11.5555 -41.321,-21.4257 -63.7727,-29.925 -130.2566,-48.9799 -299.4545,-48.9799 -429.5362,0 -22.4473,8.4993 -44.0438,18.5288 -63.7738,29.925 -19.8954,11.393 -37.0692,23.8098 -51.6922,36.7245 -42.3397,37.5912 -63.5946,80.7767 -63.5946,123.9697 v 190.6327 h 787.6595"
         style="fill:#992626;fill-opacity:1;fill-rule:nonzero;stroke:none;stroke-width:1.0416"
         id="path1183" />
      <path
         d="m 2031.4178,1762.6621 v -190.6234 h -0.1667 c 0,-43.1856 -21.0922,-86.3878 -63.4331,-123.9581 -14.6198,-12.9263 -31.9686,-25.3441 -51.6902,-36.7413 -19.8954,-11.5585 -41.321,-21.413 -63.7727,-29.9209 -130.2566,-48.9799 -299.4545,-48.9799 -429.5362,0 -22.4473,8.5079 -44.0438,18.5374 -63.7738,29.9209 -19.8954,11.3972 -37.0692,23.815 -51.6922,36.7413 -42.3397,37.5703 -63.5946,80.7725 -63.5946,123.9581 v 190.6234 h 787.6595"
         style="fill:#c43131;fill-opacity:1;fill-rule:nonzero;stroke:none;stroke-width:1.0416"
         id="path1185" />
      <path
         d="m 1916.0632,1601.9512 c -19.884,-11.4659 -41.2325,-21.4132 -63.7655,-29.8271 -130.1784,-48.9799 -299.3856,-49.0612 -429.4173,0 -22.537,8.4139 -44.0366,18.4549 -63.7653,29.8396 -19.8841,11.4785 -37.1152,23.8026 -51.6892,36.81 -84.9755,75.0802 -84.9755,172.8516 -0.014,247.9318 14.5782,13.0075 31.8092,25.34 51.6891,36.8101 19.733,11.3919 41.2326,21.4255 63.7612,29.8521 130.037,49.057 299.2432,48.9633 429.4258,0 22.5286,-8.4266 43.8814,-18.3748 63.7613,-29.8521 19.7372,-11.3961 37.1192,-23.8099 51.6944,-36.8226 84.817,-75.1614 84.8275,-172.7579 0,-247.9193 -14.571,-13.0074 -31.949,-25.4255 -51.682,-36.8225"
         style="fill:#db3737;fill-opacity:1;fill-rule:nonzero;stroke:none;stroke-width:1.0416"
         id="path1187" />
      <path
         d="m 1916.0632,1601.9512 c -19.884,-11.4659 -41.2325,-21.4132 -63.7655,-29.8271 l -544.8843,314.5814 c 14.5781,13.0075 31.8093,25.34 51.689,36.8101 19.7331,11.3919 41.2326,21.4255 63.7613,29.8521 l 544.8814,-314.594 c -14.5708,-13.0074 -31.9489,-25.4255 -51.6819,-36.8225"
         style="fill:#ffc9c9;fill-opacity:1;fill-rule:nonzero;stroke:none;stroke-width:1.0416"
         id="path1189" />
      <path
         d="m 1967.7451,1886.693 -544.8647,-314.5689 c -22.537,8.4139 -44.0366,18.4549 -63.7653,29.8396 -19.8841,11.4785 -37.1152,23.8026 -51.6892,36.81 l 544.8637,314.594 c 22.5286,-8.4266 43.8812,-18.3748 63.7612,-29.8521 19.7372,-11.3961 37.1193,-23.8099 51.6943,-36.8226"
         style="fill:#ffc9c9;fill-opacity:1;fill-rule:nonzero;stroke:none;stroke-width:1.0416"
         id="path1191" />
      <path
         d="m 1819.9635,1657.4161 c -100.7376,-58.1502 -264.06,-58.1502 -364.7978,0 -100.7379,58.1668 -100.7379,152.4593 0,210.622 100.7378,58.1627 264.0602,58.1544 364.7978,0 100.7338,-58.1627 100.7338,-152.4552 0,-210.622"
         style="fill:#f23d3d;fill-opacity:1;fill-rule:nonzero;stroke:none;stroke-width:1.0416"
         id="path1193" />
      <path
         d="m 1787.695,1676.0513 c -82.9131,-47.8686 -217.3434,-47.8686 -300.2649,0.013 -82.9162,47.8602 -82.9162,125.4715 0,173.3401 82.9131,47.8842 217.3434,47.8842 300.2566,0 82.9203,-47.8686 82.9203,-125.4799 0.013,-173.3526"
         style="fill:#a3a3a3;fill-opacity:1;fill-rule:nonzero;stroke:none;stroke-width:1.0416"
         id="path1195" />
      <path
         d="m 1637.5261,1684.4372 -131.9129,76.1708 v 90.7646 l 131.9129,-76.1583 v -90.7771"
         style="fill:#db3737;fill-opacity:1;fill-rule:nonzero;stroke:none;stroke-width:1.0416"
         id="path1197" />
      <path
         d="m 1637.5261,1658.2629 -131.9129,76.15 v 26.1951 l 131.9129,-76.1708 v -26.1743"
         style="fill:#bd2f2f;fill-opacity:1;fill-rule:nonzero;stroke:none;stroke-width:1.0416"
         id="path1199" />
      <path
         d="m 1583.636,1689.3764 -24.1317,13.923 v 117.1067 l 24.1317,-13.9357 v -117.094"
         style="fill:#962525;fill-opacity:1;fill-rule:nonzero;stroke:none;stroke-width:1.0416"
         id="path1201" />
      <path
         d="m 1637.5261,1684.4372 131.9117,76.1708 v 90.7646 l -131.9117,-76.1583 v -90.7771"
         style="fill:#bd2f2f;fill-opacity:1;fill-rule:nonzero;stroke:none;stroke-width:1.0416"
         id="path1203" />
      <path
         d="m 1637.5261,1658.2629 131.9117,76.15 v 26.1951 l -131.9117,-76.1708 v -26.1743"
         style="fill:#a32929;fill-opacity:1;fill-rule:nonzero;stroke:none;stroke-width:1.0416"
         id="path1205" />
      <path
         d="m 1691.4163,1689.3764 24.1399,13.923 v 117.1067 l -24.1399,-13.9357 v -117.094"
         style="fill:#852121;fill-opacity:1;fill-rule:nonzero;stroke:none;stroke-width:1.0416"
         id="path1207" />
      <path
         d="m 1769.4378,1851.3726 -131.9117,76.1624 -131.9087,-76.1624 131.9129,-76.1583 131.9075,76.1583"
         style="fill:#ff4040;fill-opacity:1;fill-rule:nonzero;stroke:none;stroke-width:1.0416"
         id="path1209" />
      <path
         d="m 1967.818,1638.7007 v -190.6201 c -14.6198,-12.9263 -31.9686,-25.3441 -51.6902,-36.7413 -19.8954,-11.5585 -41.321,-21.413 -63.7727,-29.9209 v 190.6203 c 22.4517,8.5108 43.8773,18.3737 63.7727,29.925 19.7216,11.396 37.0704,23.8097 51.6902,36.737"
         style="fill:#d6a9a9;fill-opacity:1;fill-rule:nonzero;stroke:none;stroke-width:1.0416"
         id="path1211" />
      <path
         d="m 1422.8189,1572.0387 v -190.6203 c -22.4473,8.5079 -44.0438,18.5374 -63.7738,29.9209 -19.8954,11.3972 -37.0692,23.815 -51.6922,36.7413 v 190.6201 c 14.623,-12.9273 31.7968,-25.341 51.6922,-36.737 19.73,-11.3847 41.3265,-21.4142 63.7738,-29.925"
         style="fill:#d6a9a9;fill-opacity:1;fill-rule:nonzero;stroke:none;stroke-width:1.0416"
         id="path1213" />
      <path
         d="m 1837.3863,1725.8001 v 571.0117 l -17.3372,10.0097 v -571.0129 l 17.3372,-10.0085"
         style="fill:#a3a3a3;fill-opacity:1;fill-rule:nonzero;stroke:none;stroke-width:1.0416"
         id="path1215" />
      <path
         d="m 1437.6659,1725.8001 v 571.0117 l 17.3404,10.0097 v -571.0129 l -17.3404,-10.0085"
         style="fill:#8f8f8f;fill-opacity:1;fill-rule:nonzero;stroke:none;stroke-width:1.0416"
         id="path1217" />
      <path
         d="m 1854.731,2306.8839 -217.2049,125.3977 -217.1975,-125.3977 217.2017,-125.3986 217.2007,125.3986"
         style="fill:#ff4040;fill-opacity:1;fill-rule:nonzero;stroke:none;stroke-width:1.0416"
         id="path1219" />
      <path
         d="m 1821.6073,2306.8839 -184.0812,106.2739 -184.078,-106.2739 184.0822,-106.276 184.077,106.276"
         style="fill:#ff6666;fill-opacity:1;fill-rule:nonzero;stroke:none;stroke-width:1.0416"
         id="path1221" />
      <path
         d="m 1637.5261,1792.8891 -217.1975,125.406 v 388.5264 l 217.1975,-125.4092 v -388.5232"
         style="fill:#db3737;fill-opacity:1;fill-rule:nonzero;stroke:none;stroke-width:1.0416"
         id="path1223" />
      <path
         d="m 1581.4424,2032.0613 -105.0344,60.6477 v 63.2291 l 105.0344,-60.6447 v -63.2321"
         style="fill:#bd2f2f;fill-opacity:1;fill-rule:nonzero;stroke:none;stroke-width:1.0416"
         id="path1225" />
      <path
         d="m 1610.1071,1853.4766 -162.3627,93.7435 v 129.0026 l 162.3627,-93.7435 v -129.0026"
         style="fill:#a3a3a3;fill-opacity:1;fill-rule:nonzero;stroke:none;stroke-width:1.0416"
         id="path1227" />
      <path
         d="m 1596.0248,1875.5491 -134.1991,77.4727 v 101.1201 l 134.1991,-77.4769 v -101.1159"
         style="fill:#6783ba;fill-opacity:1;fill-rule:nonzero;stroke:none;stroke-width:1.0416"
         id="path1229" />
      <path
         d="m 1571.3483,2137.604 -84.8411,48.9871 v 51.0788 l 84.8411,-48.9956 v -51.0703"
         style="fill:#bd2f2f;fill-opacity:1;fill-rule:nonzero;stroke:none;stroke-width:1.0416"
         id="path1231" />
      <path
         d="m 1571.3483,2174.0597 -84.8411,48.9862 v 14.624 l 84.8411,-48.9956 v -14.6146"
         style="fill:#852121;fill-opacity:1;fill-rule:nonzero;stroke:none;stroke-width:1.0416"
         id="path1233" />
      <path
         d="m 1482.5596,1941.0559 -4.5935,2.6573 v 101.1158 l 4.5935,-2.6445 v -101.1286"
         style="fill:#a3a3a3;fill-opacity:1;fill-rule:nonzero;stroke:none;stroke-width:1.0416"
         id="path1235" />
      <path
         d="m 1502.0209,1929.8183 -4.5852,2.6528 v 101.1202 l 4.5852,-2.6446 v -101.1284"
         style="fill:#a3a3a3;fill-opacity:1;fill-rule:nonzero;stroke:none;stroke-width:1.0416"
         id="path1237" />
      <path
         d="m 1521.4893,1918.5763 -4.5893,2.6572 v 101.1272 l 4.5893,-2.656 v -101.1284"
         style="fill:#a3a3a3;fill-opacity:1;fill-rule:nonzero;stroke:none;stroke-width:1.0416"
         id="path1239" />
      <path
         d="m 1540.9546,1907.3499 -4.5934,2.6447 v 101.1284 l 4.5934,-2.656 v -101.1171"
         style="fill:#a3a3a3;fill-opacity:1;fill-rule:nonzero;stroke:none;stroke-width:1.0416"
         id="path1241" />
      <path
         d="m 1560.423,1896.1081 -4.5934,2.6372 v 101.1286 l 4.5934,-2.6457 v -101.1201"
         style="fill:#a3a3a3;fill-opacity:1;fill-rule:nonzero;stroke:none;stroke-width:1.0416"
         id="path1243" />
      <path
         d="m 1579.8883,1884.8629 -4.5934,2.6447 v 101.1275 l 4.5934,-2.6562 v -101.116"
         style="fill:#a3a3a3;fill-opacity:1;fill-rule:nonzero;stroke:none;stroke-width:1.0416"
         id="path1245" />
      <path
         d="m 1596.0248,1903.2044 v -6.136 l -134.2034,77.4852 v 6.1361 l 134.2034,-77.4853"
         style="fill:#a3a3a3;fill-opacity:1;fill-rule:nonzero;stroke:none;stroke-width:1.0416"
         id="path1247" />
      <path
         d="m 1596.0248,1929.1713 v -6.136 l -134.2034,77.4927 v 6.1277 l 134.2034,-77.4844"
         style="fill:#a3a3a3;fill-opacity:1;fill-rule:nonzero;stroke:none;stroke-width:1.0416"
         id="path1249" />
      <path
         d="m 1596.0248,1955.1372 v -6.1151 l -134.2034,77.477 v 6.1235 l 134.2034,-77.4854"
         style="fill:#a3a3a3;fill-opacity:1;fill-rule:nonzero;stroke:none;stroke-width:1.0416"
         id="path1251" />
      <path
         d="m 1637.5261,1772.8707 -217.1975,125.4059 v 20.0185 l 217.1975,-125.406 v -20.0184"
         style="fill:#a3a3a3;fill-opacity:1;fill-rule:nonzero;stroke:none;stroke-width:1.0416"
         id="path1253" />
      <path
         d="m 1420.3286,1735.8086 v 571.0129 l 17.3373,-10.0097 v -571.0117 l -17.3373,10.0085"
         style="fill:#a3a3a3;fill-opacity:1;fill-rule:nonzero;stroke:none;stroke-width:1.0416"
         id="path1255" />
      <path
         d="m 1637.5261,1610.41 v 571.0023 l -17.3374,10.0213 v -571.0139 l 17.3374,-10.0097"
         style="fill:#a3a3a3;fill-opacity:1;fill-rule:nonzero;stroke:none;stroke-width:1.0416"
         id="path1257" />
      <path
         d="m 1637.5261,1792.8891 217.2049,125.406 v 388.5264 l -217.2049,-125.4092 v -388.5232"
         style="fill:#bd2f2f;fill-opacity:1;fill-rule:nonzero;stroke:none;stroke-width:1.0416"
         id="path1259" />
      <path
         d="m 1697.1658,2032.0613 105.0334,60.6477 v 63.2291 l -105.0334,-60.6447 v -63.2321"
         style="fill:#ab2a2a;fill-opacity:1;fill-rule:nonzero;stroke:none;stroke-width:1.0416"
         id="path1261" />
      <path
         d="m 1664.9491,1853.4766 162.3588,93.7435 v 129.0026 l -162.3588,-93.7435 v -129.0026"
         style="fill:#8f8f8f;fill-opacity:1;fill-rule:nonzero;stroke:none;stroke-width:1.0416"
         id="path1263" />
      <path
         d="m 1679.0275,1875.5491 134.2022,77.4727 v 101.1201 l -134.2022,-77.4769 v -101.1159"
         style="fill:#5a73a3;fill-opacity:1;fill-rule:nonzero;stroke:none;stroke-width:1.0416"
         id="path1265" />
      <path
         d="m 1703.7039,2137.604 84.8494,48.9871 v 51.0788 l -84.8494,-48.9956 v -51.0703"
         style="fill:#ab2a2a;fill-opacity:1;fill-rule:nonzero;stroke:none;stroke-width:1.0416"
         id="path1267" />
      <path
         d="m 1703.7039,2174.0597 84.8494,48.9862 v 14.624 l -84.8494,-48.9956 v -14.6146"
         style="fill:#852121;fill-opacity:1;fill-rule:nonzero;stroke:none;stroke-width:1.0416"
         id="path1269" />
      <path
         d="m 1792.4999,1941.0559 4.585,2.6573 v 101.1158 l -4.585,-2.6445 v -101.1286"
         style="fill:#8f8f8f;fill-opacity:1;fill-rule:nonzero;stroke:none;stroke-width:1.0416"
         id="path1271" />
      <path
         d="m 1773.0314,1929.8183 4.5935,2.6528 v 101.1202 l -4.5935,-2.6446 v -101.1284"
         style="fill:#8f8f8f;fill-opacity:1;fill-rule:nonzero;stroke:none;stroke-width:1.0416"
         id="path1273" />
      <path
         d="m 1753.5662,1918.5763 4.5934,2.6572 v 101.1272 l -4.5934,-2.656 v -101.1284"
         style="fill:#8f8f8f;fill-opacity:1;fill-rule:nonzero;stroke:none;stroke-width:1.0416"
         id="path1275" />
      <path
         d="m 1734.0977,1907.3499 4.5934,2.6447 v 101.1284 l -4.5934,-2.656 v -101.1171"
         style="fill:#8f8f8f;fill-opacity:1;fill-rule:nonzero;stroke:none;stroke-width:1.0416"
         id="path1277" />
      <path
         d="m 1714.6323,1896.1081 4.5936,2.6372 v 101.1286 l -4.5936,-2.6457 v -101.1201"
         style="fill:#8f8f8f;fill-opacity:1;fill-rule:nonzero;stroke:none;stroke-width:1.0416"
         id="path1279" />
      <path
         d="m 1695.1722,1884.8629 4.5892,2.6447 v 101.1275 l -4.5892,-2.6562 v -101.116"
         style="fill:#8f8f8f;fill-opacity:1;fill-rule:nonzero;stroke:none;stroke-width:1.0416"
         id="path1281" />
      <path
         d="m 1679.0307,1903.2044 v -6.136 l 134.199,77.4852 v 6.1361 l -134.199,-77.4853"
         style="fill:#8f8f8f;fill-opacity:1;fill-rule:nonzero;stroke:none;stroke-width:1.0416"
         id="path1283" />
      <path
         d="m 1679.0307,1929.1713 v -6.136 l 134.199,77.4927 v 6.1277 l -134.199,-77.4844"
         style="fill:#8f8f8f;fill-opacity:1;fill-rule:nonzero;stroke:none;stroke-width:1.0416"
         id="path1285" />
      <path
         d="m 1679.0307,1955.1372 v -6.1151 l 134.199,77.477 v 6.1235 l -134.199,-77.4854"
         style="fill:#8f8f8f;fill-opacity:1;fill-rule:nonzero;stroke:none;stroke-width:1.0416"
         id="path1287" />
      <path
         d="m 1637.5261,1772.8707 217.2049,125.4059 v 20.0185 l -217.2049,-125.406 v -20.0184"
         style="fill:#8f8f8f;fill-opacity:1;fill-rule:nonzero;stroke:none;stroke-width:1.0416"
         id="path1289" />
      <path
         d="m 1854.731,1735.8086 v 571.0129 l -17.3447,-10.0097 v -571.0117 l 17.3447,10.0085"
         style="fill:#8f8f8f;fill-opacity:1;fill-rule:nonzero;stroke:none;stroke-width:1.0416"
         id="path1291" />
      <path
         d="m 1637.5261,1610.41 v 571.0023 l 17.3404,10.0213 v -571.0139 l -17.3404,-10.0097"
         style="fill:#8f8f8f;fill-opacity:1;fill-rule:nonzero;stroke:none;stroke-width:1.0416"
         id="path1293" />
      <path
         d="m 1660.8233,2397.9818 v -101.9721 h -0.09 c 0.09,-3.4582 -2.2174,-6.9162 -6.7454,-9.5827 -9.0535,-5.2392 -23.8712,-5.2392 -32.9247,0 -4.5206,2.6665 -6.8308,6.1245 -6.8308,9.5827 v 101.9721 h 46.5905"
         style="fill:#8f8f8f;fill-opacity:1;fill-rule:nonzero;stroke:none;stroke-width:1.0416"
         id="path1295" />
      <path
         d="m 1653.9844,2388.5137 c -9.09,-5.2497 -23.8266,-5.2497 -32.9207,0 -9.0932,5.2497 -9.0932,13.7595 0,19.0092 9.0899,5.2496 23.8307,5.2496 32.9207,0 9.0931,-5.2497 9.0931,-13.7595 0,-19.0092"
         style="fill:#a3a3a3;fill-opacity:1;fill-rule:nonzero;stroke:none;stroke-width:1.0416"
         id="path1297" />
      <path
         d="m 1713.5543,2408.7936 v -8.2599 h -0.2885 c 0.2885,-11.3013 -7.2423,-22.5921 -22.012,-31.2895 -29.5397,-17.0821 -77.9125,-17.0821 -107.4511,0 -14.774,8.6974 -22.3047,19.9882 -22.3047,31.2895 v 8.2599 h 152.0563"
         style="fill:#8f8f8f;fill-opacity:1;fill-rule:nonzero;stroke:none;stroke-width:1.0416"
         id="path1299" />
      <path
         d="m 1691.2371,2377.879 c -29.6648,-17.1238 -77.7739,-17.1238 -107.4428,0 -29.6729,17.1343 -29.6729,44.9135 0,62.0376 29.6689,17.134 77.7738,17.134 107.4428,0 29.674,-17.1241 29.674,-44.9033 0,-62.0376"
         style="fill:#a3a3a3;fill-opacity:1;fill-rule:nonzero;stroke:none;stroke-width:1.0416"
         id="path1301" />
      <path
         d="m 1649.7356,2527.6187 v -122.5228 h -0.044 c 0.044,-1.8123 -1.1645,-3.6248 -3.5362,-5.0205 -4.7444,-2.7393 -12.5116,-2.7393 -17.255,0 -2.3729,1.3957 -3.581,3.2082 -3.581,5.0205 v 122.5228 h 24.416"
         style="fill:#8f8f8f;fill-opacity:1;fill-rule:nonzero;stroke:none;stroke-width:1.0416"
         id="path1303" />
      <path
         d="m 1646.1515,2522.6504 c -4.7642,-2.75 -12.4867,-2.75 -17.2508,0 -4.7654,2.7601 -4.7654,7.2182 0,9.9576 4.7641,2.7603 12.4866,2.7603 17.2508,0 4.7642,-2.7394 4.7642,-7.1975 0,-9.9576"
         style="fill:#a3a3a3;fill-opacity:1;fill-rule:nonzero;stroke:none;stroke-width:1.0416"
         id="path1305" />
      <path
         d="m 1715.3531,2572.7823 c 0,-43.0178 -34.8695,-77.8905 -77.7624,-77.8905 -43.0148,0 -77.8874,34.8727 -77.8874,77.8905 0,8.9056 1.5259,17.4363 4.3246,25.3316 10.4369,30.5395 39.4589,52.5588 73.5628,52.5588 33.982,0 63.0009,-22.0193 73.4366,-52.5588 2.7999,-7.8953 4.3258,-16.426 4.3258,-25.3316"
         style="fill:#ff4040;fill-opacity:1;fill-rule:nonzero;stroke:none;stroke-width:1.0416"
         id="path1307" />
      <path
         d="m 1711.0273,2598.1139 c -1.9124,-1.4061 -3.9466,-2.6769 -6.1067,-3.9476 -37.1685,-21.509 -97.6217,-21.509 -134.7806,0 -2.1654,1.2707 -4.2038,2.5415 -6.1121,3.9476 10.4369,30.5395 39.4589,52.5588 73.5628,52.5588 33.982,0 63.0009,-22.0193 73.4366,-52.5588"
         style="fill:#ff6666;fill-opacity:1;fill-rule:nonzero;stroke:none;stroke-width:1.0416"
         id="path1309" />
    </g>
  </g>
</svg>
