<?xml version="1.0" encoding="utf-8"?>
<!-- Generator: Adobe Illustrator 16.0.4, SVG Export Plug-In . SVG Version: 6.00 Build 0)  -->
<!DOCTYPE svg PUBLIC "-//W3C//DTD SVG 1.1//EN" "http://www.w3.org/Graphics/SVG/1.1/DTD/svg11.dtd">
<svg version="1.1" id="Layer_1" xmlns="http://www.w3.org/2000/svg" xmlns:xlink="http://www.w3.org/1999/xlink" x="0px" y="0px"
	 width="538.583px" height="79.329px" viewBox="0 0 538.583 79.329" enable-background="new 0 0 538.583 79.329"
	 xml:space="preserve">
<g>
	<g>
		<path fill="#A6ADD7" d="M87.752,4.112h-6.576v20.215c2.133-0.405,4.332-0.793,6.576-1.167V4.112z"/>
		<path fill="#A6ADD7" d="M127.957,16.673h5.389v-5.555h-5.389V5.268h-6.484v5.851h-2.741v5.555h2.741v2.512
			c2.135-0.165,4.303-0.318,6.484-0.461V16.673z"/>
		<path fill="#A6ADD7" d="M148.336,15.902c1.594,0,2.838,0.671,3.67,1.805c2.167-0.047,4.335-0.082,6.521-0.102
			c-1.514-3.986-4.83-6.914-10.19-6.914c-5.072,0-8.975,3.122-10.549,7.492c2.213-0.102,4.448-0.19,6.691-0.268
			C145.358,16.646,146.665,15.902,148.336,15.902"/>
		<path fill="#A6ADD7" d="M175.888,17.683c0.591-0.129,1.209-0.199,1.879-0.199h0.339v-6.79c-3.84-0.174-5.979,1.877-7.299,5.039
			v-4.614h-6.496v6.459c0.115,0,0.24-0.002,0.358-0.002C168.436,17.575,172.185,17.609,175.888,17.683"/>
		<path fill="#A6ADD7" d="M195.62,17.483h0.345v-6.792c-3.847-0.172-5.983,1.876-7.306,5.041v-4.614h-6.493v6.712
			c3.381,0.1,6.722,0.222,10.03,0.381C193.161,17.725,194.314,17.483,195.62,17.483"/>
		<path fill="#A6ADD7" d="M210.017,15.902c2.402,0,4.01,1.52,4.625,3.857c2.131,0.196,4.229,0.404,6.292,0.624
			c-0.869-5.328-4.371-9.692-10.917-9.692c-5.232,0-9.211,3.322-10.691,7.902c2.1,0.134,4.185,0.271,6.245,0.421
			C206.386,17.088,207.908,15.902,210.017,15.902"/>
		<path fill="#A6ADD7" d="M230.606,21.454v-0.083c0-3.12,2.388-5.297,5.55-5.297c3.16,0,5.597,2.177,5.597,5.297v0.083
			c0,0.603-0.091,1.167-0.262,1.69c2.28,0.376,4.501,0.771,6.663,1.182V11.119h-6.488v2.989c-1.746-1.917-3.844-3.417-7.387-3.417
			c-5.091,0-9.844,3.615-10.133,10.052c2.177,0.249,4.341,0.512,6.467,0.79C230.607,21.512,230.606,21.486,230.606,21.454"/>
		<path fill="#A6ADD7" d="M102.743,16.716c0.425-0.201,1.374-0.402,1.845-0.402c0.463,0,1.417,0.202,1.848,0.402
			c1.649,0.791,2.396,1.963,2.611,3.602c2.057-0.218,4.148-0.421,6.257-0.613c-0.731-3.331-2.726-6.141-5.805-7.702
			c-1.414-0.721-3.05-1.312-4.91-1.312c-1.858,0-3.5,0.591-4.916,1.312c-3.838,1.951-5.997,5.833-6.104,10.253
			c2.123-0.315,4.284-0.611,6.487-0.89C100.064,19.145,100.752,17.659,102.743,16.716"/>
		<path fill="#23488E" d="M87.752,34.011V23.159c-2.244,0.375-4.443,0.763-6.576,1.167v9.684H87.752z"/>
		<path fill="#23488E" d="M128.135,34.399c2.173,0,3.754-0.514,5.122-1.325v-5.21c-0.942,0.507-2.005,0.811-3.202,0.811
			c-1.451,0-2.098-0.725-2.098-2.219v-7.731c-2.184,0.143-4.349,0.296-6.484,0.464v8.333
			C121.473,32.819,124.159,34.399,128.135,34.399"/>
		<path fill="#23488E" d="M137.019,22.695c0,7.006,5.08,11.83,11.956,11.83c4.144,0,7.227-1.625,9.359-4.271l-3.716-3.287
			c-1.801,1.662-3.372,2.346-5.553,2.346c-2.905,0-4.959-1.537-5.6-4.483H159.4c0.043-0.6,0.083-1.198,0.083-1.707
			c0-1.942-0.324-3.824-0.957-5.519c-2.185,0.023-4.36,0.055-6.521,0.102c0.601,0.807,0.997,1.853,1.155,3.067h-9.781
			c0.19-1.117,0.57-2.086,1.101-2.859c-2.247,0.078-4.481,0.167-6.694,0.268c-0.497,1.371-0.768,2.863-0.768,4.427V22.695z"/>
		<path fill="#23488E" d="M170.807,34.011v-8.456c0-4.621,1.895-7.188,5.081-7.872c-3.704-0.073-7.453-0.107-11.219-0.107
			c-0.122,0-0.243,0.002-0.358,0.002v16.433H170.807z"/>
		<path fill="#23488E" d="M188.659,34.011v-8.456c0-3.809,1.288-6.227,3.53-7.343c-3.299-0.159-6.643-0.28-10.023-0.381v16.18
			H188.659z"/>
		<path fill="#23488E" d="M198.697,22.695c0,7.006,5.084,11.83,11.959,11.83c4.14,0,7.223-1.625,9.351-4.271l-3.711-3.287
			c-1.797,1.662-3.381,2.346-5.553,2.346c-2.908,0-4.953-1.537-5.594-4.483h15.929c0.034-0.6,0.083-1.198,0.083-1.707
			c0-0.933-0.079-1.846-0.228-2.74c-2.066-0.222-4.16-0.428-6.291-0.624c0.083,0.322,0.148,0.662,0.2,1.015h-9.783
			c0.112-0.641,0.285-1.228,0.512-1.762c-2.06-0.147-4.141-0.284-6.242-0.418c-0.405,1.262-0.632,2.611-0.632,4.017V22.695z"/>
		<path fill="#23488E" d="M224.115,21.454c0,6.791,4.821,10.679,10.163,10.679c3.459,0,5.552-1.41,7.475-3.715v1.111
			c0,4.096-2.097,6.237-6.533,6.237c-3.033,0-5.378-0.769-7.737-2.093l-2.218,4.87c2.906,1.535,6.405,2.392,10.122,2.392
			c4.444,0,7.73-0.942,9.869-3.075c1.922-1.927,2.898-4.912,2.898-9.014v-4.519c-2.161-0.411-4.382-0.806-6.663-1.182
			c-0.705,2.191-2.78,3.608-5.334,3.608c-3.132,0-5.505-2.102-5.543-5.22c-2.126-0.278-4.291-0.541-6.467-0.79
			c-0.012,0.208-0.03,0.411-0.03,0.627V21.454z"/>
		<path fill="#23488E" d="M109.123,21.418v12.585h6.491V22.601c0-0.997-0.107-1.964-0.311-2.896c-2.109,0.192-4.2,0.4-6.257,0.613
			C109.091,20.667,109.123,21.031,109.123,21.418"/>
		<path fill="#23488E" d="M93.559,22.688v11.315h6.496V21.418v-0.052c-2.203,0.279-4.361,0.574-6.482,0.89
			c-0.01,0.112-0.014,0.23-0.014,0.345V22.688z"/>
	</g>
	<rect x="265.01" y="4.108" fill="#23488E" width="89.485" height="59.653"/>
	<polygon fill="#FCE904" points="307.842,17.107 309.734,15.723 311.622,17.107 310.896,14.875 312.825,13.494 310.46,13.494 
		309.734,11.243 309.012,13.508 306.651,13.494 308.563,14.875 	"/>
	<polygon fill="#FCE904" points="298.078,19.726 299.962,18.354 301.856,19.726 301.13,17.505 303.049,16.124 300.685,16.124 
		299.962,13.87 299.227,16.136 296.875,16.124 298.794,17.505 	"/>
	<polygon fill="#FCE904" points="292.806,21.036 292.093,23.291 289.728,23.286 291.65,24.671 290.92,26.897 292.806,25.521 
		294.703,26.897 293.979,24.671 295.899,23.286 293.537,23.286 	"/>
	<polygon fill="#FCE904" points="290.188,35.288 292.082,36.656 291.359,34.422 293.27,33.046 290.92,33.046 290.188,30.792 
		289.473,33.051 287.104,33.046 289.016,34.422 288.304,36.656 	"/>
	<polygon fill="#FCE904" points="293.537,42.846 292.806,40.585 292.093,42.846 289.728,42.846 291.65,44.219 290.92,46.446 
		292.806,45.062 294.703,46.446 293.979,44.219 295.899,42.846 	"/>
	<polygon fill="#FCE904" points="300.693,50.002 299.983,47.749 299.257,50.004 296.892,50.002 298.81,51.384 298.085,53.612 
		299.983,52.235 301.871,53.612 301.14,51.384 303.061,50.002 	"/>
	<polygon fill="#FCE904" points="310.46,52.596 309.734,50.338 309.012,52.596 306.646,52.596 308.563,53.975 307.854,56.203 
		309.734,54.828 311.622,56.203 310.896,53.975 312.825,52.596 	"/>
	<polygon fill="#FCE904" points="320.225,50.002 319.5,47.749 318.778,50.004 316.404,50.002 318.329,51.384 317.606,53.612 
		319.5,52.235 321.382,53.612 320.662,51.384 322.586,50.002 	"/>
	<polygon fill="#FCE904" points="327.384,42.846 326.658,40.585 325.933,42.846 323.572,42.846 325.484,44.219 324.774,46.446 
		326.658,45.062 328.553,46.446 327.83,44.219 329.738,42.846 	"/>
	<polygon fill="#FCE904" points="332.345,33.026 329.978,33.026 329.245,30.765 328.524,33.026 326.17,33.026 328.085,34.404 
		327.371,36.623 329.245,35.245 331.149,36.623 330.42,34.404 	"/>
	<polygon fill="#FCE904" points="324.774,26.865 326.653,25.488 328.553,26.865 327.828,24.638 329.738,23.269 327.384,23.269 
		326.653,21.008 325.933,23.269 323.572,23.269 325.484,24.638 	"/>
	<polygon fill="#FCE904" points="319.528,13.87 318.798,16.136 316.435,16.124 318.355,17.505 317.636,19.73 319.528,18.354 
		321.404,19.73 320.694,17.505 322.613,16.124 320.242,16.124 	"/>
	<polygon fill="#23488E" points="265.01,77.459 265.01,70.308 270.179,70.308 270.179,71.158 265.955,71.158 265.955,73.342 
		269.917,73.342 269.917,74.183 265.955,74.183 265.955,76.622 270.342,76.622 270.342,77.459 	"/>
	<g>
		<path fill="#23488E" d="M276.36,70.308h0.937v4.133c0,0.722-0.084,1.299-0.234,1.718c-0.16,0.423-0.47,0.759-0.886,1.028
			c-0.43,0.267-0.982,0.402-1.669,0.402c-0.679,0-1.224-0.12-1.643-0.347c-0.432-0.232-0.741-0.568-0.918-1.002
			c-0.179-0.438-0.279-1.047-0.279-1.8v-4.133h0.955v4.125c0,0.629,0.057,1.088,0.17,1.379c0.114,0.295,0.312,0.523,0.593,0.679
			c0.275,0.162,0.629,0.243,1.03,0.243c0.694,0,1.197-0.159,1.498-0.479c0.293-0.313,0.446-0.919,0.446-1.822V70.308z"/>
		<path fill="#23488E" d="M279.841,73.466h2.021c0.443,0,0.784-0.044,1.024-0.134c0.253-0.085,0.438-0.237,0.561-0.427
			c0.123-0.202,0.193-0.415,0.193-0.647c0-0.339-0.125-0.614-0.371-0.835c-0.246-0.217-0.635-0.326-1.168-0.326h-2.261V73.466z
			 M278.885,77.459v-7.151h3.178c0.641,0,1.13,0.069,1.453,0.191c0.341,0.126,0.602,0.356,0.795,0.68
			c0.204,0.328,0.3,0.687,0.3,1.079c0,0.513-0.155,0.936-0.493,1.284c-0.33,0.354-0.837,0.566-1.521,0.668
			c0.259,0.121,0.431,0.23,0.563,0.356c0.287,0.247,0.551,0.567,0.797,0.95l1.246,1.942h-1.2l-0.944-1.488
			c-0.272-0.425-0.497-0.757-0.684-0.987c-0.181-0.221-0.338-0.382-0.487-0.469c-0.13-0.099-0.285-0.16-0.428-0.191
			c-0.109-0.021-0.276-0.046-0.528-0.046h-1.091v3.182H278.885z"/>
		<path fill="#23488E" d="M286.786,73.985c0,0.868,0.227,1.554,0.686,2.047c0.481,0.495,1.058,0.744,1.748,0.744
			c0.722,0,1.304-0.253,1.764-0.748c0.47-0.508,0.697-1.215,0.697-2.138c0-0.586-0.11-1.095-0.301-1.526
			c-0.196-0.431-0.481-0.765-0.856-1.008c-0.386-0.239-0.814-0.36-1.293-0.36c-0.662,0-1.239,0.229-1.715,0.69
			C287.03,72.148,286.786,72.917,286.786,73.985 M285.808,73.977c0-1.184,0.316-2.111,0.956-2.787
			c0.644-0.676,1.456-1.013,2.466-1.013c0.662,0,1.259,0.163,1.79,0.479c0.53,0.312,0.935,0.753,1.214,1.319
			c0.284,0.569,0.418,1.198,0.418,1.922c0,0.726-0.141,1.381-0.438,1.946c-0.296,0.575-0.707,1.004-1.252,1.303
			c-0.53,0.286-1.112,0.443-1.731,0.443c-0.676,0-1.272-0.163-1.802-0.493c-0.538-0.325-0.937-0.769-1.212-1.333
			C285.951,75.193,285.808,74.602,285.808,73.977"/>
		<path fill="#23488E" d="M294.821,73.702h1.846c0.607,0,1.053-0.103,1.3-0.334c0.27-0.23,0.396-0.548,0.396-0.965
			c0-0.294-0.071-0.554-0.233-0.765c-0.153-0.216-0.346-0.358-0.597-0.422c-0.152-0.042-0.452-0.059-0.881-0.059h-1.831V73.702z
			 M293.863,77.459v-7.151h2.709c0.473,0,0.838,0.018,1.089,0.069c0.352,0.058,0.643,0.172,0.875,0.332
			c0.241,0.163,0.434,0.396,0.586,0.687c0.146,0.299,0.219,0.631,0.219,0.981c0,0.61-0.204,1.126-0.585,1.544
			c-0.393,0.421-1.095,0.636-2.097,0.636h-1.838v2.902H293.863z"/>
	</g>
	<polygon fill="#23488E" points="300.565,77.459 300.565,70.308 305.736,70.308 305.736,71.158 301.508,71.158 301.508,73.342 
		305.468,73.342 305.468,74.183 301.508,74.183 301.508,76.622 305.898,76.622 305.898,77.459 	"/>
	<g>
		<path fill="#23488E" d="M308.482,74.521h2.427l-0.744-1.978c-0.226-0.6-0.398-1.093-0.508-1.486
			c-0.084,0.462-0.221,0.915-0.385,1.367L308.482,74.521z M306.423,77.465l2.742-7.157h1.027l2.93,7.157h-1.087l-0.826-2.166h-2.988
			l-0.796,2.166H306.423z"/>
	</g>
	<polygon fill="#23488E" points="313.869,77.459 313.869,70.308 314.838,70.308 318.595,75.925 318.595,70.308 319.511,70.308 
		319.511,77.459 318.535,77.459 314.777,71.841 314.777,77.459 	"/>
	<g>
		<path fill="#23488E" d="M328.574,70.308h0.947v4.133c0,0.722-0.083,1.299-0.246,1.718c-0.163,0.423-0.456,0.759-0.886,1.028
			c-0.423,0.267-0.977,0.402-1.669,0.402c-0.673,0-1.22-0.12-1.648-0.347c-0.419-0.232-0.735-0.568-0.907-1.002
			c-0.184-0.438-0.277-1.047-0.277-1.8v-4.133h0.948v4.125c0,0.629,0.062,1.088,0.172,1.379c0.119,0.295,0.316,0.523,0.592,0.679
			c0.28,0.162,0.628,0.243,1.037,0.243c0.702,0,1.191-0.159,1.481-0.479c0.303-0.313,0.456-0.919,0.456-1.822V70.308z"/>
	</g>
	<polygon fill="#23488E" points="331.083,77.459 331.083,70.308 332.054,70.308 335.823,75.925 335.823,70.308 336.716,70.308 
		336.716,77.459 335.752,77.459 331.988,71.841 331.988,77.459 	"/>
	<rect x="338.477" y="70.308" fill="#23488E" width="0.944" height="7.151"/>
	<g>
		<path fill="#23488E" d="M341.781,73.985c0,0.868,0.233,1.554,0.699,2.047c0.466,0.495,1.037,0.744,1.744,0.744
			s1.3-0.253,1.762-0.748c0.457-0.508,0.679-1.215,0.679-2.138c0-0.586-0.09-1.095-0.29-1.526c-0.187-0.431-0.478-0.765-0.858-1.008
			c-0.384-0.239-0.804-0.36-1.28-0.36c-0.666,0-1.246,0.229-1.731,0.69C342.035,72.148,341.781,72.917,341.781,73.985
			 M340.811,73.977c0-1.184,0.305-2.111,0.952-2.787c0.638-0.676,1.451-1.013,2.463-1.013c0.664,0,1.247,0.163,1.798,0.479
			c0.525,0.312,0.922,0.753,1.202,1.319c0.286,0.569,0.418,1.198,0.418,1.922c0,0.726-0.132,1.381-0.437,1.946
			c-0.288,0.575-0.709,1.004-1.244,1.303c-0.541,0.286-1.119,0.443-1.739,0.443c-0.675,0-1.271-0.163-1.806-0.493
			c-0.531-0.325-0.924-0.769-1.201-1.333C340.944,75.193,340.811,74.602,340.811,73.977"/>
	</g>
	<polygon fill="#23488E" points="348.861,77.459 348.861,70.308 349.829,70.308 353.59,75.925 353.59,70.308 354.496,70.308 
		354.496,77.459 353.531,77.459 349.76,71.841 349.76,77.459 	"/>
	<path fill="#23488E" d="M91.555,50.319l-3.523,8.296h7.038L91.555,50.319z M86.864,61.411l-1.791,4.216h-3.284l8.246-18.668h3.227
		l8.16,18.668h-3.364l-1.784-4.216H86.864z"/>
	<g>
		<path fill="#23488E" d="M111.236,64.718c-1.12,0.67-2.293,1.043-3.487,1.043c-2.137,0-3.981-1.23-3.981-4.133v-7.364h-1.997
			v-2.293h1.997v-3.888h3.04v3.888h4.186v2.293h-4.186v6.804c0,1.461,0.56,1.919,1.519,1.919c0.642,0,1.31-0.213,2.134-0.612
			L111.236,64.718z"/>
	</g>
	<rect x="113.689" y="45.838" fill="#23488E" width="3.071" height="19.789"/>
	<g>
		<path fill="#23488E" d="M129.405,60.641v-1.306h-3.835c-2.009,0-2.944,0.528-2.944,1.889c0,1.284,1.041,2.113,2.753,2.113
			C127.562,63.337,129.241,62.187,129.405,60.641 M129.427,63.894c-1.01,1.256-2.639,1.867-4.692,1.867
			c-3.064,0-4.987-1.893-4.987-4.401c0-2.585,1.944-4.242,5.363-4.268h4.295v-0.425c0-1.795-1.151-2.855-3.397-2.855
			c-1.354,0-2.767,0.483-4.181,1.441l-1.258-2.134c1.976-1.179,3.418-1.787,6.112-1.787c3.655,0,5.712,1.863,5.735,4.991
			l0.025,9.304h-3.014V63.894z"/>
		<path fill="#23488E" d="M149.617,56.802v8.825h-3.062v-7.974c0-2.137-1.287-3.443-3.418-3.443
			c-2.348,0.026-3.814,1.655-4.026,3.869v7.548h-3.063V51.438h3.063v2.721c1.013-1.973,2.828-2.826,5.233-2.826
			C147.644,51.332,149.617,53.408,149.617,56.802"/>
		<path fill="#23488E" d="M161.246,64.718c-1.109,0.67-2.288,1.043-3.489,1.043c-2.129,0-3.971-1.23-3.971-4.133v-7.364h-2.004
			v-2.293h2.004v-3.888h3.038v3.888h4.188v2.293h-4.188v6.804c0,1.461,0.566,1.919,1.519,1.919c0.639,0,1.307-0.213,2.134-0.612
			L161.246,64.718z"/>
		<path fill="#23488E" d="M166.611,65.627h-3.043V51.438h3.043V65.627z M166.879,47.384c0,1.063-0.773,1.839-1.784,1.839
			c-1.015,0-1.788-0.775-1.788-1.839c0-1.095,0.773-1.865,1.788-1.865C166.105,45.519,166.879,46.289,166.879,47.384"/>
		<path fill="#23488E" d="M182.32,53.649l-1.679,1.977c-0.99-1.016-2.344-1.635-4.055-1.602c-2.455,0-4.212,1.841-4.212,4.533
			c0,2.697,1.757,4.536,4.212,4.536c1.789,0,3.235-0.586,4.191-1.709l1.704,1.709c-1.274,1.68-3.332,2.641-6.035,2.641
			c-4.208,0-7.145-2.907-7.145-7.177c0-4.294,2.936-7.226,7.145-7.226C179.012,51.332,181.011,52.158,182.32,53.649"/>
	</g>
	<path fill="#23488E" d="M199.067,50.319l-3.513,8.296h7.033L199.067,50.319z M194.38,61.411l-1.787,4.216h-3.28l8.238-18.668h3.226
		l8.171,18.668h-3.369l-1.785-4.216H194.38z"/>
	<g>
		<path fill="#23488E" d="M213.795,54.264c0.959-1.918,2.661-2.93,4.908-2.93v2.93c-2.854-0.155-4.668,1.521-4.908,3.946v7.417
			h-3.062V51.438h3.062V54.264z"/>
		<path fill="#23488E" d="M230.542,57.465c-0.099-2.292-1.624-3.68-3.94-3.68c-2.244,0-3.813,1.412-4.165,3.68H230.542z
			 M233.218,59.708h-10.722c0.473,2.186,2.155,3.546,4.397,3.546c1.548,0,2.96-0.585,4.003-1.651l1.623,1.734
			c-1.39,1.516-3.413,2.397-5.868,2.397c-4.373,0-7.25-2.907-7.25-7.177c0-4.294,2.953-7.201,7.165-7.226
			C231.562,51.332,233.588,54.583,233.218,59.708"/>
		<path fill="#23488E" d="M244.384,60.641v-1.306h-3.836c-2,0-2.931,0.528-2.931,1.889c0,1.284,1.038,2.113,2.747,2.113
			C242.544,63.337,244.225,62.187,244.384,60.641 M244.418,63.894c-1.022,1.256-2.641,1.867-4.691,1.867
			c-3.073,0-4.993-1.893-4.993-4.401c0-2.585,1.946-4.242,5.363-4.268h4.287v-0.425c0-1.795-1.144-2.855-3.382-2.855
			c-1.363,0-2.771,0.483-4.182,1.441l-1.258-2.134c1.974-1.179,3.415-1.787,6.103-1.787c3.655,0,5.705,1.863,5.739,4.991
			l0.019,9.304h-3.004V63.894z"/>
		<path fill="#23488E" d="M91.255,75.433l-0.004-2.451h0.952l0.004,4.529h-0.953v-0.827c-0.157,0.274-0.371,0.495-0.641,0.653
			c-0.262,0.157-0.553,0.237-0.864,0.237c-0.515,0-0.925-0.152-1.242-0.47c-0.312-0.308-0.474-0.759-0.474-1.349v-2.774h0.953v2.484
			c0,0.835,0.348,1.255,1.043,1.255c0.326,0,0.615-0.113,0.854-0.332C91.129,76.171,91.255,75.854,91.255,75.433"/>
		<path fill="#23488E" d="M95.956,73.874c-0.468,0-0.821,0.152-1.058,0.457c-0.24,0.313-0.36,0.72-0.36,1.231v1.948h-0.95v-4.529
			h0.95v0.909c0.153-0.283,0.36-0.512,0.622-0.701c0.265-0.18,0.548-0.269,0.844-0.278l0.006,0.963H95.956z"/>
		<path fill="#23488E" d="M97.934,76.311c0.265,0.276,0.612,0.414,1.028,0.414c0.417,0,0.755-0.138,1.024-0.414
			c0.271-0.274,0.403-0.633,0.403-1.068c0-0.435-0.132-0.787-0.403-1.065c-0.269-0.271-0.607-0.418-1.024-0.418
			c-0.418,0-0.763,0.147-1.028,0.418c-0.267,0.278-0.413,0.631-0.413,1.065C97.53,75.678,97.667,76.036,97.934,76.311
			 M100.663,76.898c-0.449,0.453-1.023,0.676-1.702,0.676c-0.684,0-1.242-0.223-1.7-0.676c-0.456-0.45-0.683-1.002-0.683-1.656
			c0-0.648,0.227-1.203,0.68-1.653c0.46-0.455,1.019-0.678,1.702-0.678c0.678,0,1.245,0.223,1.702,0.678
			c0.451,0.45,0.683,1.005,0.683,1.653C101.346,75.896,101.12,76.448,100.663,76.898"/>
		<path fill="#23488E" d="M103.358,75.253c0,0.433,0.137,0.783,0.398,1.056c0.252,0.278,0.579,0.418,0.951,0.418
			c0.371,0,0.703-0.14,0.977-0.41c0.279-0.273,0.419-0.624,0.419-1.062c0-0.437-0.14-0.792-0.408-1.078
			c-0.275-0.288-0.599-0.431-0.982-0.431c-0.377,0-0.704,0.143-0.959,0.431C103.495,74.463,103.358,74.816,103.358,75.253
			 M104.854,72.911c0.6,0,1.12,0.216,1.549,0.631c0.431,0.416,0.647,0.978,0.647,1.676c0.004,0.699-0.211,1.262-0.636,1.699
			c-0.434,0.438-0.93,0.657-1.499,0.657c-0.574,0-1.083-0.243-1.537-0.748v2.331h-0.953l-0.004-6.176h0.957v0.787
			C103.753,73.197,104.243,72.911,104.854,72.911"/>
		<path fill="#23488E" d="M108.81,74.913h2.588c0-0.382-0.116-0.67-0.358-0.877c-0.236-0.206-0.531-0.305-0.878-0.305
			c-0.346,0-0.66,0.102-0.939,0.315C108.943,74.26,108.81,74.55,108.81,74.913 M112.354,75.661h-3.544
			c0.022,0.326,0.173,0.592,0.449,0.794c0.275,0.208,0.592,0.305,0.951,0.305c0.562,0,1.001-0.179,1.295-0.536l0.542,0.596
			c-0.483,0.501-1.124,0.762-1.902,0.762c-0.642,0-1.177-0.219-1.624-0.636c-0.451-0.423-0.667-0.997-0.675-1.709
			c0-0.705,0.229-1.271,0.687-1.694c0.449-0.415,0.984-0.631,1.602-0.631c0.616,0,1.142,0.188,1.571,0.557
			c0.422,0.375,0.647,0.885,0.647,1.54V75.661z"/>
		<path fill="#23488E" d="M116.116,75.822V75.44h-1.069c-0.689,0-1.032,0.217-1.032,0.646c0,0.223,0.083,0.394,0.251,0.507
			c0.175,0.116,0.413,0.174,0.715,0.174c0.299,0,0.567-0.083,0.792-0.254C116.002,76.342,116.116,76.112,116.116,75.822
			 M117.063,77.511h-0.866V76.9c-0.375,0.451-0.872,0.681-1.501,0.681c-0.479,0-0.86-0.137-1.172-0.402
			c-0.312-0.271-0.458-0.625-0.458-1.072c0-0.441,0.153-0.775,0.487-1c0.331-0.221,0.771-0.328,1.338-0.328h1.23v-0.171
			c0-0.602-0.331-0.902-1.004-0.902c-0.42,0-0.858,0.154-1.312,0.455l-0.423-0.592c0.553-0.437,1.176-0.657,1.873-0.657
			c0.535,0,0.968,0.14,1.298,0.41c0.346,0.264,0.51,0.69,0.51,1.272V77.511z"/>
		<path fill="#23488E" d="M119.35,75.057v2.454h-0.957v-4.529h0.957v0.822c0.148-0.276,0.357-0.493,0.629-0.655
			c0.262-0.155,0.556-0.237,0.872-0.237c0.509,0,0.927,0.158,1.243,0.468c0.31,0.313,0.462,0.765,0.462,1.356v2.775h-0.947
			l-0.005-2.486c0-0.835-0.341-1.256-1.035-1.256c-0.331,0-0.612,0.111-0.856,0.33C119.469,74.315,119.35,74.639,119.35,75.057"/>
		<path fill="#23488E" d="M129.764,74.331c0.209-0.171,0.307-0.455,0.307-0.845c0-0.388-0.107-0.653-0.313-0.796
			c-0.211-0.145-0.582-0.225-1.123-0.225h-1.274V74.6h1.251C129.176,74.6,129.561,74.507,129.764,74.331 M131.104,73.49
			c0,0.981-0.428,1.6-1.287,1.855l1.559,2.165h-1.276l-1.417-2.006h-1.321v2.006h-1.007v-5.954h2.21c0.91,0,1.561,0.158,1.953,0.462
			C130.903,72.329,131.104,72.82,131.104,73.49"/>
		<path fill="#23488E" d="M133.079,74.913h2.595c0-0.382-0.117-0.67-0.36-0.877c-0.237-0.206-0.527-0.305-0.877-0.305
			c-0.351,0-0.671,0.102-0.944,0.315C133.217,74.26,133.079,74.55,133.079,74.913 M136.624,75.661h-3.544
			c0.022,0.326,0.173,0.592,0.45,0.794c0.281,0.208,0.596,0.305,0.953,0.305c0.571,0,1-0.179,1.289-0.536l0.551,0.596
			c-0.488,0.501-1.12,0.762-1.907,0.762c-0.631,0-1.18-0.219-1.616-0.636c-0.452-0.423-0.675-0.997-0.675-1.709
			c0-0.705,0.224-1.271,0.682-1.694c0.456-0.415,0.989-0.631,1.605-0.631c0.614,0,1.142,0.188,1.568,0.557
			c0.433,0.375,0.646,0.885,0.646,1.54V75.661z"/>
		<path fill="#23488E" d="M138.325,75.073c0,0.369,0.117,0.691,0.345,0.961c0.229,0.267,0.536,0.406,0.931,0.406
			c0.386,0,0.7-0.136,0.946-0.397c0.236-0.258,0.361-0.584,0.351-0.97c0-0.392-0.114-0.721-0.36-0.989
			c-0.248-0.271-0.559-0.404-0.945-0.404c-0.387,0-0.694,0.135-0.929,0.415C138.442,74.373,138.325,74.696,138.325,75.073
			 M141.856,72.981v3.945c0,0.798-0.218,1.404-0.649,1.802c-0.434,0.396-0.991,0.601-1.673,0.601c-0.68,0-1.292-0.213-1.845-0.642
			l0.448-0.718c0.449,0.335,0.892,0.501,1.34,0.501c0.449,0,0.812-0.121,1.076-0.352c0.265-0.231,0.396-0.601,0.396-1.111v-0.582
			c-0.141,0.269-0.345,0.482-0.604,0.64c-0.268,0.156-0.567,0.239-0.895,0.239c-0.599,0-1.095-0.209-1.473-0.633
			c-0.384-0.419-0.587-0.944-0.589-1.565c0-0.624,0.198-1.144,0.589-1.564c0.375-0.417,0.871-0.627,1.469-0.627
			c0.598,0,1.082,0.243,1.453,0.742v-0.676H141.856z"/>
		<path fill="#23488E" d="M144.191,77.511h-0.953v-4.529h0.948L144.191,77.511z M143.297,72.084
			c-0.12-0.128-0.183-0.258-0.183-0.429c0-0.165,0.063-0.312,0.183-0.427c0.117-0.119,0.258-0.177,0.425-0.177
			c0.157,0,0.305,0.058,0.419,0.177c0.116,0.115,0.184,0.262,0.184,0.427c0,0.171-0.067,0.301-0.184,0.429
			c-0.114,0.12-0.263,0.174-0.419,0.174C143.555,72.258,143.414,72.204,143.297,72.084"/>
		<path fill="#23488E" d="M146.627,76.311c0.269,0.276,0.615,0.414,1.021,0.414c0.418,0,0.752-0.138,1.023-0.414
			c0.269-0.274,0.405-0.633,0.405-1.068c0-0.435-0.136-0.787-0.405-1.065c-0.271-0.271-0.605-0.418-1.023-0.418
			c-0.414,0-0.752,0.147-1.026,0.418c-0.268,0.278-0.402,0.631-0.402,1.065C146.221,75.678,146.359,76.036,146.627,76.311
			 M149.354,76.898c-0.454,0.453-1.016,0.676-1.705,0.676c-0.686,0-1.247-0.223-1.701-0.676c-0.449-0.45-0.681-1.002-0.681-1.656
			c0-0.648,0.226-1.203,0.681-1.653c0.451-0.455,1.015-0.678,1.701-0.678c0.681,0,1.248,0.223,1.703,0.678
			c0.452,0.45,0.687,1.005,0.687,1.653C150.038,75.896,149.803,76.448,149.354,76.898"/>
		<path fill="#23488E" d="M152.072,75.057v2.454h-0.958v-4.529h0.958v0.822c0.144-0.276,0.362-0.493,0.632-0.655
			c0.265-0.155,0.557-0.237,0.872-0.237c0.506,0,0.917,0.158,1.237,0.468c0.306,0.313,0.47,0.765,0.47,1.356v2.775h-0.951v-2.486
			c0-0.835-0.354-1.256-1.047-1.256c-0.323,0-0.606,0.111-0.852,0.33C152.189,74.315,152.072,74.639,152.072,75.057"/>
		<path fill="#23488E" d="M159.322,75.822V75.44h-1.067c-0.692,0-1.03,0.217-1.03,0.646c0,0.223,0.083,0.394,0.253,0.507
			c0.172,0.116,0.409,0.174,0.715,0.174c0.302,0,0.564-0.083,0.791-0.254C159.21,76.342,159.322,76.112,159.322,75.822
			 M160.278,77.511h-0.866V76.9c-0.376,0.451-0.872,0.681-1.505,0.681c-0.472,0-0.861-0.137-1.172-0.402
			c-0.305-0.271-0.464-0.625-0.464-1.072c0-0.441,0.163-0.775,0.495-1c0.32-0.221,0.771-0.328,1.333-0.328h1.233v-0.171
			c0-0.602-0.331-0.902-1-0.902c-0.426,0-0.859,0.154-1.315,0.455l-0.423-0.592c0.55-0.437,1.174-0.657,1.869-0.657
			c0.538,0,0.971,0.14,1.303,0.41c0.337,0.264,0.508,0.69,0.508,1.272L160.278,77.511z"/>
	</g>
	<rect x="161.604" y="71.198" fill="#23488E" width="0.953" height="6.313"/>
	<g>
		<path fill="#23488E" d="M170.749,74.531c0-1.364-0.775-2.039-2.339-2.039h-1v4.07h1.114c0.723,0,1.271-0.172,1.654-0.512
			C170.559,75.706,170.749,75.199,170.749,74.531 M170.899,72.34c0.577,0.518,0.861,1.241,0.861,2.161
			c0.01,0.932-0.273,1.659-0.834,2.197c-0.556,0.54-1.396,0.812-2.547,0.812h-1.973l-0.003-5.954h2.041
			C169.509,71.557,170.33,71.826,170.899,72.34"/>
		<path fill="#23488E" d="M173.586,74.913h2.588c0-0.382-0.116-0.67-0.356-0.877c-0.232-0.206-0.536-0.305-0.878-0.305
			c-0.346,0-0.669,0.102-0.944,0.315C173.723,74.26,173.586,74.55,173.586,74.913 M177.131,75.661h-3.545
			c0.027,0.326,0.167,0.592,0.449,0.794c0.273,0.208,0.595,0.305,0.947,0.305c0.568,0,1-0.179,1.294-0.536l0.544,0.596
			c-0.482,0.501-1.12,0.762-1.905,0.762c-0.634,0-1.177-0.219-1.623-0.636c-0.438-0.423-0.658-0.997-0.658-1.709
			c0-0.705,0.22-1.271,0.677-1.694c0.451-0.415,0.981-0.631,1.597-0.631c0.619,0,1.141,0.188,1.574,0.557
			c0.429,0.375,0.647,0.885,0.647,1.54V75.661z"/>
	</g>
	<polygon fill="#23488E" points="179.321,77.511 177.504,72.981 178.491,72.981 179.872,76.403 181.245,72.981 182.23,72.981 
		180.418,77.511 	"/>
	<g>
		<path fill="#23488E" d="M183.658,74.913h2.588c0-0.382-0.118-0.67-0.355-0.877c-0.238-0.206-0.527-0.305-0.88-0.305
			c-0.35,0-0.666,0.102-0.937,0.315C183.787,74.26,183.658,74.55,183.658,74.913 M187.2,75.661h-3.542
			c0.019,0.326,0.168,0.592,0.447,0.794c0.275,0.208,0.597,0.305,0.954,0.305c0.566,0,0.995-0.179,1.291-0.536l0.553,0.596
			c-0.491,0.501-1.125,0.762-1.911,0.762c-0.637,0-1.181-0.219-1.618-0.636c-0.45-0.423-0.669-0.997-0.671-1.709
			c0-0.705,0.224-1.271,0.679-1.694c0.463-0.415,0.986-0.631,1.604-0.631c0.612,0,1.136,0.188,1.569,0.557
			c0.431,0.375,0.646,0.885,0.646,1.54V75.661z"/>
	</g>
	<rect x="188.253" y="71.198" fill="#23488E" width="0.942" height="6.313"/>
	<g>
		<path fill="#23488E" d="M191.645,76.311c0.262,0.276,0.606,0.414,1.018,0.414c0.41,0,0.755-0.138,1.026-0.414
			c0.269-0.274,0.407-0.633,0.4-1.068c0-0.435-0.132-0.787-0.401-1.065c-0.278-0.271-0.614-0.418-1.024-0.418
			c-0.414,0-0.755,0.147-1.029,0.418c-0.263,0.278-0.401,0.631-0.401,1.065C191.237,75.678,191.371,76.036,191.645,76.311
			 M194.368,76.898c-0.455,0.453-1.021,0.676-1.705,0.676c-0.677,0-1.243-0.223-1.702-0.676c-0.448-0.45-0.68-1.002-0.68-1.656
			c0-0.648,0.222-1.203,0.68-1.653c0.458-0.455,1.024-0.678,1.702-0.678c0.684,0,1.25,0.223,1.702,0.678
			c0.451,0.45,0.676,1.005,0.676,1.653C195.048,75.896,194.816,76.448,194.368,76.898"/>
		<path fill="#23488E" d="M197.06,75.253c0,0.433,0.136,0.783,0.398,1.056c0.256,0.278,0.573,0.418,0.949,0.418
			c0.378,0,0.699-0.14,0.973-0.41c0.284-0.273,0.417-0.624,0.417-1.062c0-0.437-0.134-0.792-0.402-1.078
			c-0.269-0.288-0.601-0.431-0.98-0.431c-0.384,0-0.702,0.143-0.963,0.431C197.19,74.463,197.06,74.816,197.06,75.253
			 M198.554,72.911c0.6,0,1.12,0.216,1.554,0.631c0.432,0.416,0.646,0.978,0.646,1.676c0,0.699-0.204,1.262-0.639,1.699
			c-0.426,0.438-0.929,0.657-1.496,0.657c-0.573,0-1.081-0.243-1.545-0.748v2.331h-0.938l-0.009-6.176h0.948v0.787
			C197.453,73.197,197.94,72.911,198.554,72.911"/>
		<path fill="#23488E" d="M202.794,75.057v2.454h-0.957v-4.529h0.957v0.822c0.138-0.276,0.341-0.493,0.615-0.655
			c0.276-0.155,0.574-0.237,0.887-0.237c0.712,0,1.204,0.299,1.458,0.889c0.45-0.59,1.005-0.889,1.674-0.889
			c0.513,0,0.918,0.158,1.239,0.468c0.318,0.313,0.476,0.765,0.476,1.356v2.775h-0.95l-0.006-2.486c0-0.835-0.342-1.256-1.035-1.256
			c-0.325,0-0.606,0.107-0.843,0.315c-0.24,0.204-0.376,0.51-0.381,0.907v2.52h-0.952l-0.002-2.486c0-0.431-0.074-0.751-0.226-0.951
			c-0.158-0.199-0.403-0.305-0.733-0.305c-0.324,0-0.614,0.111-0.854,0.33C202.914,74.315,202.794,74.639,202.794,75.057"/>
		<path fill="#23488E" d="M211.132,74.913h2.594c0-0.382-0.117-0.67-0.357-0.877c-0.24-0.206-0.528-0.305-0.875-0.305
			c-0.357,0-0.67,0.102-0.942,0.315C211.272,74.26,211.132,74.55,211.132,74.913 M214.681,75.661h-3.549
			c0.029,0.326,0.174,0.592,0.457,0.794c0.279,0.208,0.598,0.305,0.941,0.305c0.577,0,1.002-0.179,1.298-0.536l0.556,0.596
			c-0.496,0.501-1.131,0.762-1.918,0.762c-0.627,0-1.172-0.219-1.62-0.636c-0.434-0.423-0.664-0.997-0.669-1.709
			c0-0.705,0.235-1.271,0.686-1.694c0.448-0.415,0.985-0.631,1.603-0.631c0.617,0,1.139,0.188,1.569,0.557
			c0.421,0.375,0.646,0.885,0.646,1.54V75.661z"/>
		<path fill="#23488E" d="M216.673,75.057l0.005,2.454h-0.946v-4.529h0.941v0.822c0.158-0.276,0.369-0.493,0.641-0.655
			c0.268-0.155,0.556-0.237,0.87-0.237c0.516,0,0.924,0.158,1.24,0.468c0.312,0.313,0.471,0.765,0.471,1.356l0.007,2.775h-0.958
			v-2.486c0-0.835-0.349-1.256-1.04-1.256c-0.33,0-0.622,0.111-0.862,0.33C216.803,74.315,216.673,74.639,216.673,75.057"/>
		<path fill="#23488E" d="M222.334,73.746v2.301c0,0.216,0.06,0.383,0.172,0.513c0.116,0.128,0.271,0.188,0.47,0.188
			c0.211,0,0.401-0.098,0.593-0.297l0.39,0.676c-0.335,0.297-0.703,0.454-1.107,0.454c-0.409,0-0.755-0.146-1.035-0.432
			c-0.29-0.278-0.434-0.659-0.434-1.132v-2.271h-0.57v-0.765h0.57v-1.425h0.951v1.425h1.203v0.765H222.334z"/>
	</g>
	<polygon fill="#23488E" points="228.194,72.497 228.194,74.13 230.829,74.13 230.829,75.057 228.194,75.057 228.196,77.511 
		227.186,77.511 227.186,71.557 231.148,71.557 231.139,72.497 	"/>
	<g>
		<path fill="#23488E" d="M235.251,75.433l-0.005-2.451h0.957l0.005,4.529h-0.957v-0.827c-0.158,0.274-0.365,0.495-0.633,0.653
			c-0.273,0.157-0.561,0.237-0.863,0.237c-0.52,0-0.935-0.152-1.244-0.47c-0.322-0.308-0.474-0.759-0.474-1.349v-2.774h0.945
			l0.003,2.484c0,0.835,0.348,1.255,1.039,1.255c0.321,0,0.622-0.113,0.862-0.332C235.127,76.171,235.251,75.854,235.251,75.433"/>
		<path fill="#23488E" d="M238.533,75.057l0.008,2.454h-0.956v-4.529h0.948v0.822c0.153-0.276,0.367-0.493,0.638-0.655
			c0.268-0.155,0.564-0.237,0.865-0.237c0.511,0,0.926,0.158,1.246,0.468c0.306,0.313,0.465,0.765,0.465,1.356v2.775h-0.941
			l-0.009-2.486c0-0.835-0.347-1.256-1.039-1.256c-0.33,0-0.612,0.111-0.858,0.33C238.655,74.315,238.533,74.639,238.533,75.057"/>
		<path fill="#23488E" d="M243.733,75.264c0.006,0.437,0.146,0.791,0.423,1.063c0.277,0.271,0.604,0.406,0.97,0.406
			c0.382,0,0.702-0.136,0.964-0.414c0.255-0.276,0.39-0.627,0.39-1.061c0-0.433-0.135-0.787-0.39-1.082
			c-0.265-0.288-0.583-0.431-0.97-0.431c-0.381,0-0.702,0.143-0.982,0.431C243.875,74.472,243.733,74.834,243.733,75.264
			 M243.423,76.929c-0.417-0.435-0.641-0.995-0.641-1.702c0-0.701,0.224-1.269,0.658-1.685c0.44-0.415,0.959-0.631,1.562-0.631
			s1.087,0.256,1.465,0.772v-2.49h0.947v6.317h-0.947v-0.685c-0.356,0.505-0.871,0.748-1.545,0.748
			C244.355,77.574,243.847,77.36,243.423,76.929"/>
	</g>
	<polygon fill="#23488E" points="86.899,71.557 86.899,72.507 83.721,72.507 83.721,74.078 86.572,74.078 86.572,74.975 
		83.721,74.975 83.728,76.562 86.996,76.562 86.996,77.511 82.723,77.511 82.72,71.557 	"/>
	<g>
		<path fill="#1488CA" d="M0,15.687h0.055c4.571,0,9.63,4.506,12.104,9.474c2.466,4.972,8.823,8.529,13.401,8.529h2.59
			c-4.569-0.017-10.26-4.04-12.725-8.999c-2.471-4.97-8.178-9.004-12.747-9.004H0z"/>
		<path fill="#23488E" d="M75.754,0C66.588,0,56.291,8.519,51.34,18.474c-4.945,9.958-17.511,17.583-26.673,17.583h-5.175
			c9.145-0.042,19.897-8.919,24.826-18.848C49.268,7.248,61.335,0,70.498,0H75.754z"/>
	</g>
	<path fill="#1488CA" d="M380.613,21.35h4.877l-2.397-8.223L380.613,21.35z M387.466,22.833h-8.85l4.496-14.922L387.466,22.833z
		 M389.741,30.698h4.823l-7.45-24.481h-7.442l-8.009,24.481h4.549l1.631-5.344h10.341L389.741,30.698z M396.566,32.181h-7.938
		l-1.557-5.341h-8.131l-1.631,5.341h-7.689l8.978-27.446h9.618L396.566,32.181z"/>
	<path fill="#1488CA" d="M400.517,30.698h4.598V9.37h7.642V6.217h-19.882V9.37h7.643V30.698z M406.599,32.181h-7.566V10.852h-7.642
		V4.735h22.846v6.117h-7.638V32.181z"/>
	<g>
		<defs>
			<path id="SVGID_1_" d="M470.682,24.19c-30.952,6.632-58.059,8.368-58.414,8.38c0.071,0.005,36.594-0.39,59.362-5.436
				c21.91-4.856,55.215-5.382,55.632-5.393c-0.061-0.006-8.543-0.94-20.51-0.94C496.29,20.801,483.165,21.516,470.682,24.19"/>
		</defs>
		<clipPath id="SVGID_2_">
			<use xlink:href="#SVGID_1_"  overflow="visible"/>
		</clipPath>
		
			<linearGradient id="SVGID_3_" gradientUnits="userSpaceOnUse" x1="-149.9609" y1="346.3818" x2="-149.1663" y2="346.3818" gradientTransform="matrix(25.2396 0 0 -25.2396 4250.7593 8769.2285)">
			<stop  offset="0" style="stop-color:#23488E"/>
			<stop  offset="0.4656" style="stop-color:#23488E"/>
			<stop  offset="0.64" style="stop-color:#1488CA"/>
			<stop  offset="1" style="stop-color:#1488CA"/>
		</linearGradient>
		<rect x="412.268" y="20.801" clip-path="url(#SVGID_2_)" fill="url(#SVGID_3_)" width="114.994" height="11.775"/>
	</g>
	<polygon fill="#1488CA" points="383.092,58.428 389.623,35.281 396.072,35.281 387.745,62.652 378.438,62.652 370.109,35.281 
		376.562,35.281 	"/>
	<rect x="399.589" y="35.281" fill="#1488CA" width="6.454" height="27.371"/>
	<g>
		<path fill="#1488CA" d="M424.497,48.419c2.97,0,4.38-1.681,4.38-4.301c0-2.622-1.41-4.3-4.38-4.3h-5.748v8.601H424.497z
			 M418.749,52.643v10.01h-6.451V35.281h12.513c7.467,0,10.478,3.949,10.478,8.837c0,3.87-1.68,6.686-5.593,7.898l6.142,10.636
			h-6.764l-5.476-10.01H418.749z"/>
	</g>
	<polygon fill="#1488CA" points="461.092,40.169 453.039,40.169 453.039,62.652 446.624,62.652 446.624,40.169 438.571,40.169 
		438.571,35.28 461.092,35.28 	"/>
	<g>
		<path fill="#1488CA" d="M465.001,35.281h6.45v17.281c0,4.223,1.524,5.981,5.198,5.981c3.677,0,5.242-1.759,5.242-5.981V35.281
			h6.411v17.281c0,7.626-3.479,10.873-11.653,10.873c-8.169,0-11.648-3.247-11.648-10.873V35.281z"/>
	</g>
	<path fill="#1488CA" d="M500.11,52.798h7.235l-3.558-12.199L500.11,52.798z M508.557,57.021h-9.737l-1.718,5.631h-6.451
		l8.951-27.371h8.994l8.327,27.371h-6.727L508.557,57.021z"/>
	<polygon fill="#1488CA" points="520.44,35.281 520.44,62.652 538.583,62.652 538.583,57.764 526.894,57.764 526.894,35.281 	"/>
	<g>
		<defs>
			<path id="SVGID_4_" d="M379.671,6.217h3.847l-4.895,16.615h7.295l0.726,2.522h-8.802l-1.631,5.341h-4.549L379.671,6.217z
				 M378.597,4.735l-8.978,27.446h7.689l1.631-5.341h9.677l-1.579-5.49h-6.433l4.894-16.615H378.597z"/>
		</defs>
		<clipPath id="SVGID_5_">
			<use xlink:href="#SVGID_4_"  overflow="visible"/>
		</clipPath>
		
			<linearGradient id="SVGID_6_" gradientUnits="userSpaceOnUse" x1="-147.042" y1="354.3936" x2="-146.2475" y2="354.3936" gradientTransform="matrix(12.9801 0 0 -12.9801 2286.9231 4618.5059)">
			<stop  offset="0" style="stop-color:#23488E"/>
			<stop  offset="0.4571" style="stop-color:#23488E"/>
			<stop  offset="1" style="stop-color:#1488CA"/>
		</linearGradient>
		<rect x="369.62" y="4.735" clip-path="url(#SVGID_5_)" fill="url(#SVGID_6_)" width="18.997" height="27.446"/>
	</g>
	<g>
		<defs>
			<path id="SVGID_7_" d="M392.878,6.217h19.878V9.37h-19.878V6.217z M391.391,10.854h22.846V4.735h-22.846V10.854z"/>
		</defs>
		<clipPath id="SVGID_8_">
			<use xlink:href="#SVGID_7_"  overflow="visible"/>
		</clipPath>
		
			<linearGradient id="SVGID_9_" gradientUnits="userSpaceOnUse" x1="-208.501" y1="344.4551" x2="-207.7064" y2="344.4551" gradientTransform="matrix(0 4.1805 4.1805 0 -1037.1753 879.1707)">
			<stop  offset="0" style="stop-color:#23488E"/>
			<stop  offset="0.4571" style="stop-color:#23488E"/>
			<stop  offset="1" style="stop-color:#1488CA"/>
		</linearGradient>
		<rect x="391.391" y="4.735" clip-path="url(#SVGID_8_)" fill="url(#SVGID_9_)" width="22.846" height="6.119"/>
	</g>
	<g>
		<defs>
			<polygon id="SVGID_10_" points="370.109,35.281 378.438,62.652 384.271,62.652 376.562,35.281 			"/>
		</defs>
		<clipPath id="SVGID_11_">
			<use xlink:href="#SVGID_10_"  overflow="visible"/>
		</clipPath>
		
			<linearGradient id="SVGID_12_" gradientUnits="userSpaceOnUse" x1="-145.5703" y1="361.1035" x2="-144.7755" y2="361.1035" gradientTransform="matrix(9.674 0 0 -9.674 1784.8302 3542.2744)">
			<stop  offset="0" style="stop-color:#23488E"/>
			<stop  offset="0.4571" style="stop-color:#23488E"/>
			<stop  offset="1" style="stop-color:#1488CA"/>
		</linearGradient>
		<rect x="370.109" y="35.281" clip-path="url(#SVGID_11_)" fill="url(#SVGID_12_)" width="14.162" height="27.371"/>
	</g>
	<g>
		<defs>
			<rect id="SVGID_13_" x="399.593" y="35.281" width="6.45" height="27.371"/>
		</defs>
		<clipPath id="SVGID_14_">
			<use xlink:href="#SVGID_13_"  overflow="visible"/>
		</clipPath>
		
			<linearGradient id="SVGID_15_" gradientUnits="userSpaceOnUse" x1="-140.4863" y1="389.5674" x2="-139.692" y2="389.5674" gradientTransform="matrix(4.4074 0 0 -4.4074 1021.72 1765.9465)">
			<stop  offset="0" style="stop-color:#23488E"/>
			<stop  offset="0.4571" style="stop-color:#23488E"/>
			<stop  offset="1" style="stop-color:#1488CA"/>
		</linearGradient>
		<rect x="399.593" y="35.281" clip-path="url(#SVGID_14_)" fill="url(#SVGID_15_)" width="6.45" height="27.371"/>
	</g>
	<g>
		<defs>
			<rect id="SVGID_16_" x="412.297" y="35.281" width="6.451" height="27.371"/>
		</defs>
		<clipPath id="SVGID_17_">
			<use xlink:href="#SVGID_16_"  overflow="visible"/>
		</clipPath>
		
			<linearGradient id="SVGID_18_" gradientUnits="userSpaceOnUse" x1="-141.2319" y1="389.5674" x2="-140.4371" y2="389.5674" gradientTransform="matrix(4.4074 0 0 -4.4074 1037.7122 1765.9465)">
			<stop  offset="0" style="stop-color:#23488E"/>
			<stop  offset="0.4571" style="stop-color:#23488E"/>
			<stop  offset="1" style="stop-color:#1488CA"/>
		</linearGradient>
		<rect x="412.297" y="35.281" clip-path="url(#SVGID_17_)" fill="url(#SVGID_18_)" width="6.451" height="27.371"/>
	</g>
	<g>
		<defs>
			<path id="SVGID_19_" d="M423.597,52.643l5.476,10.01h6.764l-6.142-10.636C427.772,52.773,423.597,52.643,423.597,52.643"/>
		</defs>
		<clipPath id="SVGID_20_">
			<use xlink:href="#SVGID_19_"  overflow="visible"/>
		</clipPath>
		
			<linearGradient id="SVGID_21_" gradientUnits="userSpaceOnUse" x1="-116.4707" y1="330.3271" x2="-115.6761" y2="330.3271" gradientTransform="matrix(0 -7.2664 -7.2664 0 2830.0103 -788.5389)">
			<stop  offset="0" style="stop-color:#23488E"/>
			<stop  offset="0.4571" style="stop-color:#23488E"/>
			<stop  offset="1" style="stop-color:#1488CA"/>
		</linearGradient>
		<rect x="423.597" y="52.017" clip-path="url(#SVGID_20_)" fill="url(#SVGID_21_)" width="12.239" height="10.636"/>
	</g>
	<g>
		<defs>
			<rect id="SVGID_22_" x="446.624" y="40.169" width="6.415" height="22.483"/>
		</defs>
		<clipPath id="SVGID_23_">
			<use xlink:href="#SVGID_22_"  overflow="visible"/>
		</clipPath>
		
			<linearGradient id="SVGID_24_" gradientUnits="userSpaceOnUse" x1="-134.8506" y1="334.5244" x2="-134.0558" y2="334.5244" gradientTransform="matrix(0 -15.3602 -15.3602 0 5588.1929 -2018.9504)">
			<stop  offset="0" style="stop-color:#23488E"/>
			<stop  offset="0.4571" style="stop-color:#23488E"/>
			<stop  offset="1" style="stop-color:#1488CA"/>
		</linearGradient>
		<rect x="446.624" y="40.169" clip-path="url(#SVGID_23_)" fill="url(#SVGID_24_)" width="6.415" height="22.483"/>
	</g>
	<g>
		<defs>
			<path id="SVGID_25_" d="M465.001,35.281v17.281c0,6.702,2.685,10.02,8.883,10.727h4.293c6.261-1.29,3.715-10.727,3.715-10.727
				c0,4.223-1.565,5.981-5.242,5.981c-3.674,0-5.2-1.759-5.2-5.981V35.281H465.001z"/>
		</defs>
		<clipPath id="SVGID_26_">
			<use xlink:href="#SVGID_25_"  overflow="visible"/>
		</clipPath>
		
			<linearGradient id="SVGID_27_" gradientUnits="userSpaceOnUse" x1="-148.7104" y1="356.6201" x2="-147.9158" y2="356.6201" gradientTransform="matrix(11.8902 0 0 -11.8902 2241.1475 4289.5752)">
			<stop  offset="0" style="stop-color:#23488E"/>
			<stop  offset="0.4571" style="stop-color:#23488E"/>
			<stop  offset="1" style="stop-color:#1488CA"/>
		</linearGradient>
		<rect x="465.001" y="35.281" clip-path="url(#SVGID_26_)" fill="url(#SVGID_27_)" width="19.437" height="28.008"/>
	</g>
	<g>
		<defs>
			<polygon id="SVGID_28_" points="502.283,35.281 507.345,52.798 500.11,52.798 498.82,57.021 508.557,57.021 510.197,62.652 
				516.923,62.652 508.596,35.281 			"/>
		</defs>
		<clipPath id="SVGID_29_">
			<use xlink:href="#SVGID_28_"  overflow="visible"/>
		</clipPath>
		
			<linearGradient id="SVGID_30_" gradientUnits="userSpaceOnUse" x1="-152.7354" y1="318.5723" x2="-151.941" y2="318.5723" gradientTransform="matrix(-12.3686 0 0 12.3686 -1380.4698 -3891.322)">
			<stop  offset="0" style="stop-color:#23488E"/>
			<stop  offset="0.4571" style="stop-color:#23488E"/>
			<stop  offset="1" style="stop-color:#1488CA"/>
		</linearGradient>
		<rect x="498.82" y="35.281" clip-path="url(#SVGID_29_)" fill="url(#SVGID_30_)" width="18.104" height="27.371"/>
	</g>
	<g>
		<defs>
			<rect id="SVGID_31_" x="520.44" y="57.764" width="18.049" height="4.889"/>
		</defs>
		<clipPath id="SVGID_32_">
			<use xlink:href="#SVGID_31_"  overflow="visible"/>
		</clipPath>
		
			<linearGradient id="SVGID_33_" gradientUnits="userSpaceOnUse" x1="-75.481" y1="328.8682" x2="-74.6861" y2="328.8682" gradientTransform="matrix(0 -3.34 -3.34 0 1627.887 -191.6856)">
			<stop  offset="0" style="stop-color:#23488E"/>
			<stop  offset="0.4571" style="stop-color:#23488E"/>
			<stop  offset="1" style="stop-color:#1488CA"/>
		</linearGradient>
		<rect x="520.44" y="57.764" clip-path="url(#SVGID_32_)" fill="url(#SVGID_33_)" width="18.049" height="4.889"/>
	</g>
</g>
</svg>
