<?xml version="1.0" encoding="UTF-8" standalone="no"?>
<svg
   xmlns:dc="http://purl.org/dc/elements/1.1/"
   xmlns:cc="http://creativecommons.org/ns#"
   xmlns:rdf="http://www.w3.org/1999/02/22-rdf-syntax-ns#"
   xmlns:svg="http://www.w3.org/2000/svg"
   xmlns="http://www.w3.org/2000/svg"
   xmlns:sodipodi="http://sodipodi.sourceforge.net/DTD/sodipodi-0.dtd"
   xmlns:inkscape="http://www.inkscape.org/namespaces/inkscape"
   width="300"
   height="300"
   viewBox="0 0 79.374998 79.375002"
   version="1.1"
   id="svg8"
   inkscape:version="1.0.1 (3bc2e813f5, 2020-09-07)"
   sodipodi:docname="favicon.svg"
   inkscape:export-filename="C:\nube.pibico\Personal\ENCARGOS\CENTRO_JOVELLANOS\pibInstructor.png"
   inkscape:export-xdpi="96"
   inkscape:export-ydpi="96">
  <defs
     id="defs2">
    <inkscape:path-effect
       effect="spiro"
       id="path-effect1389"
       is_visible="true"
       lpeversion="1" />
  </defs>
  <sodipodi:namedview
     id="base"
     pagecolor="#ffffff"
     bordercolor="#666666"
     borderopacity="1.0"
     inkscape:pageopacity="0.0"
     inkscape:pageshadow="2"
     inkscape:zoom="2.61"
     inkscape:cx="150"
     inkscape:cy="150"
     inkscape:document-units="mm"
     inkscape:current-layer="g4502"
     inkscape:document-rotation="0"
     showgrid="false"
     units="px"
     inkscape:window-width="3736"
     inkscape:window-height="2126"
     inkscape:window-x="-11"
     inkscape:window-y="-11"
     inkscape:window-maximized="1"
     showguides="true"
     inkscape:guide-bbox="true" />
  <metadata
     id="metadata5">
    <rdf:RDF>
      <cc:Work
         rdf:about="">
        <dc:format>image/svg+xml</dc:format>
        <dc:type
           rdf:resource="http://purl.org/dc/dcmitype/StillImage" />
        <dc:title></dc:title>
      </cc:Work>
    </rdf:RDF>
  </metadata>
  <g
     inkscape:label="Capa 1"
     inkscape:groupmode="layer"
     id="layer1">
    <g
       inkscape:label="Layer 1"
       id="layer1-4"
       transform="matrix(0.0419456,0,0,0.0419456,15.109479,12.323822)">
      <g
         id="g4502"
         transform="matrix(2.268282,0,0,2.268282,-304.39911,-463.65103)">
        <path
           style="fill:#4682b4;fill-opacity:0.38870433;stroke:none;stroke-width:4.47987px;stroke-linecap:butt;stroke-linejoin:miter;stroke-opacity:1"
           d="m 459.68141,296.56128 c 47.4407,7.64686 80.64914,12.99964 128.4284,39.68363 47.77926,26.68397 99.7205,48.68478 134.43168,83.97045 34.71117,35.28569 66.66799,72.56107 59.14288,113.2071 -7.52513,40.64605 -58.01693,127.42023 -86.38627,155.45852 -28.3693,28.0383 -145.06125,129.93865 -172.60499,149.83557 -27.54375,19.89689 -86.4889,47.38733 -123.73766,39.92314 -37.24872,-7.46424 -129.15582,-35.5987 -134.67363,-88.72264 -5.51782,-53.12393 -34.67452,-246.67582 -42.32891,-274.6799 -7.65442,-28.00406 -2.27496,-100.63356 31.0819,-141.49645 33.35689,-40.86286 132.366,-66.27606 151.40317,-66.61468 19.03711,-0.33857 55.24343,-10.56474 55.24343,-10.56474 z"
           id="path1399" />
        <path
           style="fill:none;stroke:#ffe693;stroke-width:31.531;stroke-linecap:butt;stroke-linejoin:miter;stroke-miterlimit:4;stroke-dasharray:none;stroke-opacity:1"
           d="M 92.593379,164.37768 49.974845,328.45904 c 0,0 -18.112878,35.1603 14.916488,76.71338 33.029363,41.55307 29.832973,68.18965 87.367997,60.73141 57.53502,-7.45827 59.66595,-1.06546 118.26642,-22.37474 58.6005,-21.30928 58.6005,-20.24379 107.61181,-19.17834 49.01131,1.06546 95.89171,7.45824 118.26645,18.11288 22.37471,10.65464 45.81491,5.32732 75.64788,33.02935 29.83298,27.70206 31.9639,25.57112 44.74948,53.27318 12.78556,27.70206 -5.32732,11.7201 15.98193,57.53503 21.30928,45.81491 10.65464,62.86233 49.01132,63.92779 38.35669,1.06546 45.81493,20.24382 58.60049,-20.2438 12.78556,-40.48761 59.66595,-44.74947 3.1964,-58.60049 -56.46957,-13.85102 -68.18967,-20.24379 -74.58245,-2.13092"
           id="path838"
           sodipodi:nodetypes="ccsssssssssssc" />
        <path
           style="fill:#cd7f3f;stroke:none;stroke-width:8.71903;stroke-linecap:butt;stroke-linejoin:miter;stroke-miterlimit:4;stroke-dasharray:none;stroke-opacity:1;fill-opacity:0.97254902"
           d="m -2.4749566,218.78677 c 0,0 -4.81721,30.25111 29.0231896,46.35271 33.84039,16.10161 59.59684,10.67789 80.249997,13.20465 20.65321,2.52672 34.64561,32.05269 34.64561,32.05269 L 394.62128,756.997 c 0,0 -6.65725,58.48864 -47.63164,63.70785 -40.9744,5.21927 -110.5906,-6.18 -116.21652,-23.36939 -5.62591,-17.18938 2.87489,-72.42607 -29.69057,-98.38765 -32.56545,-25.96154 -77.45655,32.89347 -77.45655,32.89347 0,0 -13.42034,15.0754 -13.13433,37.37606 0.28604,22.30068 14.65635,50.07142 43.53476,69.52912 28.87842,19.45768 51.66116,47.53703 94.19653,54.75849 42.53536,7.22147 133.41574,-9.25795 172.21467,-28.00188 38.7989,-18.74392 68.85691,-16.57976 87.70899,-60.82231 18.85211,-44.24257 56.88479,-153.94436 52.25126,-171.80498 -4.63353,-17.86058 13.22268,-92.92137 -9.74726,-104.37842 -22.96992,-11.45704 -36.01589,-29.62626 -52.3675,-24.56516 -16.35163,5.06112 -48.81827,18.02254 -52.83377,32.73535 -4.01554,14.71282 -13.51222,39.13127 7.33167,56.52513 20.84386,17.39387 38.51985,21.93429 41.26388,48.57087 2.74409,26.63658 29.06913,34.32477 -9.87106,57.66309 -38.94021,23.33828 -99.01725,-55.99682 -99.01725,-55.99682 0,0 -224.90658,-365.24762 -225.9484,-384.03791 -1.04183,-18.79026 31.5626,-67.8355 29.52838,-85.95453 C 186.70236,155.31832 175.02323,103.23323 154.13341,97.8673 133.24362,92.501381 97.277143,82.336603 76.200163,93.592976 55.123143,104.84936 18.354973,110.22291 7.2513934,134.22861 c -11.1036,24.00571 -9.72635,84.55816 -9.72635,84.55816 z"
           id="path1395" />
        <path
           style="fill:#aa0000;fill-opacity:1;stroke:none;stroke-width:3.25452px;stroke-linecap:butt;stroke-linejoin:miter;stroke-opacity:1"
           d="m 563.02753,268.78375 c 80.25901,-68.23228 83.69788,-98.65428 117.49074,-101.34255 33.79287,-2.68829 96.15412,15.82754 104.74512,20.62564 8.59098,4.79812 29.53412,6.99075 4.15698,39.77106 -25.37713,32.78028 -84.50303,82.74255 -106.17782,88.79434 -21.67479,6.05179 -115.96979,20.90993 -136.41536,16.44183 -20.44559,-4.46811 -44.15477,-3.80812 -31.36385,-28.01397 12.79091,-24.20586 47.56419,-36.27635 47.56419,-36.27635 z"
           id="path1401" />
        <path
           style="fill:#b3b3b3;fill-opacity:1;stroke:none;stroke-width:3.16725;stroke-linecap:butt;stroke-linejoin:miter;stroke-miterlimit:4;stroke-dasharray:none;stroke-opacity:1"
           d="m 454.13541,330.65611 c -19.34972,-6.39277 -40.08151,-6.39277 -81.54517,-29.83297 -41.46363,-23.44019 -46.99212,-39.42214 -51.13847,-49.01131 -4.14638,-9.58917 -16.58546,-55.4041 -17.96758,-64.99327 -1.38214,-9.58917 -41.46365,-36.22576 4.14635,-25.57112 45.61001,10.65463 92.60213,27.70205 106.42336,43.684 13.82118,15.98195 82.28277,84.23774 82.28277,84.23774 0,0 8.93721,22.3086 6.17297,38.29055 -2.76423,15.98194 -48.37423,3.19638 -48.37423,3.19638 z"
           id="path1403" />
        <path
           style="fill:none;stroke:#000000;stroke-width:2.78086px;stroke-linecap:butt;stroke-linejoin:miter;stroke-opacity:1"
           d="m 24.403724,368.94665 c 33.029365,-11.7201 33.029365,-10.65464 33.029365,-10.65464 0,0 -14.916488,-9.58916 8.523707,3.1964"
           id="path840" />
        <path
           style="fill:none;stroke:#000000;stroke-width:2.78086px;stroke-linecap:butt;stroke-linejoin:miter;stroke-opacity:1"
           d="M 29.73104,319.93534 C 71.284112,309.28071 54.236699,298.62607 71.284112,309.28071"
           id="path842" />
        <path
           style="fill:none;stroke:#000000;stroke-width:2.78086px;stroke-linecap:butt;stroke-linejoin:miter;stroke-opacity:1"
           d="M 40.385674,410.49973 C 81.938746,399.8451 64.891333,389.19046 81.938746,399.8451"
           id="path853" />
        <path
           style="fill:none;stroke:#000000;stroke-width:2.78086px;stroke-linecap:butt;stroke-linejoin:miter;stroke-opacity:1"
           d="M 64.891331,447.79095 C 106.4444,437.13632 89.39699,426.48168 106.4444,437.13632"
           id="path855" />
        <path
           style="fill:none;stroke:#000000;stroke-width:2.78086px;stroke-linecap:butt;stroke-linejoin:miter;stroke-opacity:1"
           d="m 118.35358,484.86649 c 17.12886,-39.32913 -1.75242,-32.42747 17.12886,-39.32913"
           id="path857" />
        <path
           style="fill:none;stroke:#000000;stroke-width:2.78086px;stroke-linecap:butt;stroke-linejoin:miter;stroke-opacity:1"
           d="m 159.90665,484.86649 c 17.12886,-39.32913 -1.75242,-32.42747 17.12886,-39.32913"
           id="path859"
           inkscape:transform-center-x="4.4224736"
           inkscape:transform-center-y="-0.16703226" />
        <path
           style="fill:none;stroke:#000000;stroke-width:2.78086px;stroke-linecap:butt;stroke-linejoin:miter;stroke-opacity:1"
           d="m 196.1324,478.47371 c 17.12886,-39.32913 -1.75242,-32.42747 17.12886,-39.32913"
           id="path861"
           inkscape:transform-center-x="4.4224736"
           inkscape:transform-center-y="-0.16703226" />
        <path
           style="fill:none;stroke:#000000;stroke-width:2.78086px;stroke-linecap:butt;stroke-linejoin:miter;stroke-opacity:1"
           d="m 291.66022,459.31141 c -3.03246,-42.78998 -16.57071,-27.9289 -3.03246,-42.78998"
           id="path863"
           inkscape:transform-center-x="4.2781681"
           inkscape:transform-center-y="1.9000575" />
        <path
           style="fill:none;stroke:#000000;stroke-width:2.78086px;stroke-linecap:butt;stroke-linejoin:miter;stroke-opacity:1"
           d="m 377.96275,447.59131 c -3.03246,-42.78998 -16.57071,-27.9289 -3.03246,-42.78998"
           id="path865"
           inkscape:transform-center-x="4.2781681"
           inkscape:transform-center-y="1.9000575" />
        <path
           style="fill:none;stroke:#000000;stroke-width:2.78086px;stroke-linecap:butt;stroke-linejoin:miter;stroke-opacity:1"
           d="m 337.47514,448.65678 c -3.03246,-42.78998 -16.57071,-27.9289 -3.03246,-42.78998"
           id="path867"
           inkscape:transform-center-x="4.2781681"
           inkscape:transform-center-y="1.9000575" />
        <path
           style="fill:none;stroke:#000000;stroke-width:2.78086px;stroke-linecap:butt;stroke-linejoin:miter;stroke-opacity:1"
           d="M 407.09414,446.50981 C 424.223,407.18068 405.34172,414.08234 424.223,407.18068"
           id="path869"
           inkscape:transform-center-x="4.4224736"
           inkscape:transform-center-y="-0.16703226" />
        <path
           style="fill:none;stroke:#000000;stroke-width:2.78086px;stroke-linecap:butt;stroke-linejoin:miter;stroke-opacity:1"
           d="m 452.90906,452.90259 c 17.12886,-39.32913 -1.75242,-32.42747 17.12886,-39.32913"
           id="path871"
           inkscape:transform-center-x="4.4224736"
           inkscape:transform-center-y="-0.16703226" />
        <path
           style="fill:none;stroke:#000000;stroke-width:2.78086px;stroke-linecap:butt;stroke-linejoin:miter;stroke-opacity:1"
           d="m 500.85491,465.68815 c 17.12886,-39.32913 -1.75242,-32.42747 17.12886,-39.32913"
           id="path873"
           inkscape:transform-center-x="4.4224736"
           inkscape:transform-center-y="-0.16703226" />
        <path
           style="fill:none;stroke:#000000;stroke-width:2.78086px;stroke-linecap:butt;stroke-linejoin:miter;stroke-opacity:1"
           d="m 541.34252,480.60464 c 17.12886,-39.32913 -1.75242,-32.42747 17.12886,-39.32913"
           id="path875"
           inkscape:transform-center-x="4.4224736"
           inkscape:transform-center-y="-0.16703226" />
        <path
           style="fill:none;stroke:#000000;stroke-width:2.78086px;stroke-linecap:butt;stroke-linejoin:miter;stroke-opacity:1"
           d="m 576.50281,508.30669 c 17.12886,-39.32913 -1.75242,-32.42747 17.12886,-39.32913"
           id="path877"
           inkscape:transform-center-x="4.4224736"
           inkscape:transform-center-y="-0.16703226" />
        <path
           style="fill:none;stroke:#000000;stroke-width:2.78086px;stroke-linecap:butt;stroke-linejoin:miter;stroke-opacity:1"
           d="M 594.42662,529.83163 C 635.97969,519.177 618.93228,508.52236 635.97969,519.177"
           id="path879" />
        <path
           style="fill:none;stroke:#000000;stroke-width:2.78086px;stroke-linecap:butt;stroke-linejoin:miter;stroke-opacity:1"
           d="m 605.08125,574.58109 c 41.55307,-10.65463 24.50566,-21.30927 41.55307,-10.65463"
           id="path881" />
        <path
           style="fill:none;stroke:#000000;stroke-width:2.78086px;stroke-linecap:butt;stroke-linejoin:miter;stroke-opacity:1"
           d="m 623.19413,617.19962 c 41.55307,-10.65463 24.50566,-21.30927 41.55307,-10.65463"
           id="path883" />
        <path
           style="fill:none;stroke:#000000;stroke-width:2.78086px;stroke-linecap:butt;stroke-linejoin:miter;stroke-opacity:1"
           d="m 664.93628,669.19165 c 17.12886,-39.32913 -1.75242,-32.42747 17.12886,-39.32913"
           id="path885" />
        <path
           style="fill:none;stroke:#000000;stroke-width:2.78086px;stroke-linecap:butt;stroke-linejoin:miter;stroke-opacity:1"
           d="m 702.2275,673.4535 c 17.12886,-39.32913 -1.75242,-32.42747 17.12886,-39.32913"
           id="path887" />
        <path
           style="fill:none;stroke:#000000;stroke-width:2.78086px;stroke-linecap:butt;stroke-linejoin:miter;stroke-opacity:1"
           d="M 759.06804,639.5959 C 728.76811,609.22992 728.2597,629.32661 728.76811,609.22992"
           id="path889" />
        <path
           style="fill:none;stroke:#000000;stroke-width:2.78086px;stroke-linecap:butt;stroke-linejoin:miter;stroke-opacity:1"
           d="m 781.0611,601.69964 c -40.90216,-12.93027 -32.06744,5.1275 -40.90216,-12.93027"
           id="path891"
           inkscape:transform-center-x="0.31310198"
           inkscape:transform-center-y="2.8556725" />
        <path
           style="fill:none;stroke:#000000;stroke-width:2.78086px;stroke-linecap:butt;stroke-linejoin:miter;stroke-opacity:1"
           d="m 748.30217,549.83998 c -23.45889,35.91461 -3.68993,32.26448 -23.45889,35.91461"
           id="path893"
           inkscape:transform-center-x="-2.666113"
           inkscape:transform-center-y="1.0699253" />
        <path
           style="fill:none;stroke:#000000;stroke-width:2.78086px;stroke-linecap:butt;stroke-linejoin:miter;stroke-opacity:1"
           d="m 713.73854,543.4472 c -23.45889,35.91461 -3.68993,32.26448 -23.45889,35.91461"
           id="path895"
           inkscape:transform-center-x="-2.666113"
           inkscape:transform-center-y="1.0699253" />
        <path
           style="fill:none;stroke:#000000;stroke-width:2.78086px;stroke-linecap:butt;stroke-linejoin:miter;stroke-opacity:1"
           d="M 63.825868,191.01427 Z"
           id="path897" />
        <path
           style="fill:#800000;stroke:none;stroke-width:2.78086px;stroke-linecap:butt;stroke-linejoin:miter;stroke-opacity:1;fill-opacity:0.97254902"
           d="m 73.415039,225.1091 c 19.178341,4.26185 40.487611,0 42.618541,-11.7201 2.13092,-11.7201 31.96389,1e-5 4.26185,-24.50566 -27.70205,-24.50566 -5.32732,-27.70205 -27.70205,-24.50566 -22.374731,3.1964 -28.767512,26.63659 -28.767512,26.63659 z"
           id="path899" />
      </g>
    </g>
  </g>
</svg>
