<?xml version="1.0" encoding="UTF-8" standalone="no"?>
<svg
   xmlns:dc="http://purl.org/dc/elements/1.1/"
   xmlns:cc="http://creativecommons.org/ns#"
   xmlns:rdf="http://www.w3.org/1999/02/22-rdf-syntax-ns#"
   xmlns:svg="http://www.w3.org/2000/svg"
   xmlns="http://www.w3.org/2000/svg"
   xmlns:sodipodi="http://sodipodi.sourceforge.net/DTD/sodipodi-0.dtd"
   xmlns:inkscape="http://www.inkscape.org/namespaces/inkscape"
   fill="none"
   height="48"
   viewBox="0 0 48 48"
   width="48"
   version="1.1"
   id="svg10"
   sodipodi:docname="buoy.svg"
   inkscape:version="1.0.1 (3bc2e813f5, 2020-09-07)">
  <metadata
     id="metadata16">
    <rdf:RDF>
      <cc:Work
         rdf:about="">
        <dc:format>image/svg+xml</dc:format>
        <dc:type
           rdf:resource="http://purl.org/dc/dcmitype/StillImage" />
      </cc:Work>
    </rdf:RDF>
  </metadata>
  <defs
     id="defs14" />
  <sodipodi:namedview
     pagecolor="#ffffff"
     bordercolor="#666666"
     borderopacity="1"
     objecttolerance="10"
     gridtolerance="10"
     guidetolerance="10"
     inkscape:pageopacity="0"
     inkscape:pageshadow="2"
     inkscape:window-width="3710"
     inkscape:window-height="2126"
     id="namedview12"
     showgrid="false"
     inkscape:zoom="15.3125"
     inkscape:cx="24"
     inkscape:cy="13.257142"
     inkscape:window-x="-11"
     inkscape:window-y="-11"
     inkscape:window-maximized="1"
     inkscape:current-layer="g856"
     inkscape:document-rotation="0" />
  <g
     inkscape:label="Capa 1"
     id="layer1"
     transform="matrix(2.0173498,0,0,2.0173498,-10.577952,-537.59945)">
    <g
       id="g856"
       inkscape:export-xdpi="96"
       inkscape:export-ydpi="96"
       transform="matrix(0.57114464,0,0,0.57117182,43.961926,262.77581)"
       style="stroke:#ffffff;stroke-opacity:1">
      <g
         transform="matrix(1.9878791,0,0,1.9878791,945.72387,-92.080067)"
         id="g893"
         style="fill:#4682b4;fill-opacity:1;stroke:#4682b4;stroke-opacity:1">
        <path
           style="fill:#4682b4;fill-opacity:1;stroke:#4682b4;stroke-width:0.2;stroke-miterlimit:4;stroke-dasharray:none;stroke-opacity:1"
           id="path884"
           d="m -501.66695,57.254903 c -0.17591,0.01121 -0.34927,0.03908 -0.52337,0.06525 -0.17243,0.02867 -0.34825,0.01632 -0.52078,0.0405 -0.13568,0.01353 -0.26655,0.04825 -0.40019,0.07272 -0.12214,0.03805 -0.24543,0.07577 -0.36354,0.125189 -0.0205,0.0094 -0.0414,0.01807 -0.0616,0.02833 -0.043,0.02192 -0.17008,0.09148 -0.12828,0.0673 1.11875,-0.647181 0.74709,-0.439276 0.51052,-0.279154 -0.14825,0.07979 -0.23425,0.201869 -0.30418,0.350815 -0.0657,0.160674 -0.0948,0.3314 -0.11057,0.503217 -0.0151,0.214368 -0.0116,0.429623 -0.009,0.644381 0.002,0.137926 0.003,0.275854 0.004,0.41379 5e-4,0.110554 4.9e-4,0.22111 5.1e-4,0.331666 6.8e-4,0.102626 -0.006,0.204933 0.0126,0.306223 0.0354,0.09767 0.0617,0.198142 0.0984,0.295342 0.046,0.128141 0.0976,0.25474 0.15301,0.379213 0.0605,0.136627 0.10845,0.278078 0.15384,0.420294 0.056,0.170028 0.10447,0.342228 0.1606,0.512213 0.0512,0.14575 0.11193,0.287684 0.17013,0.430762 0.0824,0.15744 0.15427,0.319481 0.22087,0.484097 0.0417,0.104363 0.0811,0.20859 0.11608,0.315386 0.0275,0.108352 0.0825,0.202982 0.13631,0.299178 0.0662,0.115976 0.1483,0.221567 0.21802,0.335416 0.0814,0.112851 0.15603,0.230042 0.23633,0.343592 0.0678,0.109933 0.13696,0.219323 0.19754,0.333576 0.0811,0.131231 0.17094,0.256518 0.26124,0.381453 0.09,0.128035 0.17722,0.257779 0.25961,0.391025 0.18118,0.279589 0.39131,0.538879 0.61794,0.782601 0.15104,0.185049 0.34116,0.324211 0.53863,0.454647 0.16745,0.111521 0.333,0.22346 0.52619,0.283529 0.15434,0.03881 0.31497,0.03942 0.47319,0.0405 0.13878,-0.0054 0.27927,0.01304 0.4148,-0.01992 0.14161,-0.03527 0.27687,-0.09055 0.40945,-0.15029 0.29538,-0.171182 -0.31559,0.183029 -0.60588,0.346068 -0.0147,0.0082 0.0273,-0.01968 0.0409,-0.02962 0.0417,-0.0305 0.0827,-0.06173 0.12483,-0.09151 0.087,-0.07895 0.18429,-0.144818 0.2766,-0.217116 0.11897,-0.09317 0.21826,-0.207554 0.31759,-0.320582 0.0805,-0.102769 0.1712,-0.196499 0.25879,-0.293049 0.12847,-0.153052 0.25966,-0.303563 0.39495,-0.450622 0.14084,-0.14864 0.29174,-0.286563 0.42442,-0.442842 0.10965,-0.121729 0.20299,-0.254545 0.28732,-0.394608 0.0618,-0.121429 0.12608,-0.240617 0.19491,-0.358258 0.0593,-0.124705 0.13765,-0.238484 0.21438,-0.352839 0.0835,-0.118129 0.16276,-0.238616 0.23571,-0.36358 0.0663,-0.122914 0.13732,-0.243144 0.20578,-0.364862 0.0928,-0.162654 0.17896,-0.32891 0.26913,-0.493021 0.0977,-0.163746 0.18675,-0.329286 0.26199,-0.504606 0.0942,-0.213213 0.1768,-0.431129 0.264,-0.64724 0.0796,-0.22026 0.13524,-0.448867 0.18977,-0.676462 0.0479,-0.171309 0.0826,-0.345838 0.12777,-0.517772 0.0373,-0.127713 0.0479,-0.260245 0.054,-0.392465 0.004,-0.125775 0.003,-0.25164 0.003,-0.37746 10e-4,-0.140543 3e-4,-0.281095 7.1e-4,-0.421643 0.006,-0.138248 -0.013,-0.270481 -0.0783,-0.392789 -0.0616,-0.116366 -0.13996,-0.222965 -0.2355,-0.31343 -0.0851,-0.09679 -0.18534,-0.176248 -0.29089,-0.249291 -0.1162,-0.07044 -0.23129,-0.142876 -0.34903,-0.210719 -0.15624,-0.0948 -0.32403,-0.168347 -0.48909,-0.246069 -0.13115,-0.06129 -0.26494,-0.115281 -0.39497,-0.178701 -0.12332,-0.0541 -0.25338,-0.09028 -0.37897,-0.138028 -0.13325,-0.06561 -0.27902,-0.09396 -0.41928,-0.139953 -0.17631,-0.03716 -0.34425,-0.09989 -0.51316,-0.161317 -0.17738,-0.0666 -0.34867,-0.148632 -0.52743,-0.211436 -0.17338,-0.05381 -0.35152,-0.09008 -0.52582,-0.139857 -0.1464,-0.05024 -0.30108,-0.05875 -0.45271,-0.08191 -0.18791,-0.0286 -0.37749,-0.04048 -0.56726,-0.04666 -0.18441,-0.0056 -0.36891,-0.0037 -0.55337,-0.0036 -0.16254,2.92e-4 -0.32508,6.6e-5 -0.48761,2.76e-4 -0.13721,4.23e-4 -0.27443,9.89e-4 -0.41164,0.0013 -0.13485,-0.0037 -0.26594,-0.0058 -0.39702,0.02802 0.13864,-0.09522 -0.40293,0.207244 -0.25295,0.12029 0.73675,-0.427152 0.84955,-0.502792 0.59876,-0.337864 -0.0555,0.0456 -0.0291,0.02163 -0.0794,0.07184 0,0 -0.75521,0.311994 -0.75521,0.311994 v 0 c 0.0525,-0.05073 0.0269,-0.02341 0.0763,-0.08236 0.30134,-0.254303 0.68019,-0.453296 1.06024,-0.575009 0.13581,-0.02169 0.2722,-0.01653 0.40941,-0.01653 0.13611,2.77e-4 0.27222,8.02e-4 0.40833,0.0011 0.16272,-5e-6 0.32544,-6.69e-4 0.48815,-5.37e-4 0.18421,3.3e-4 0.36841,0.0032 0.55255,0.0079 0.19173,0.0084 0.38268,0.02407 0.57268,0.05202 0.15556,0.01734 0.3103,0.04094 0.45925,0.09122 0.17709,0.04793 0.35723,0.08608 0.53127,0.144559 0.17548,0.06925 0.34667,0.14938 0.52497,0.211611 0.16897,0.0588 0.33723,0.118345 0.51202,0.158066 0.14341,0.04198 0.28816,0.07896 0.42482,0.140884 0.12888,0.04457 0.25801,0.08925 0.38258,0.145011 0.13027,0.06056 0.26187,0.118018 0.39118,0.180696 0.16793,0.0787 0.3361,0.15757 0.49697,0.250134 0.11827,0.07173 0.23821,0.140713 0.35413,0.216233 0.10555,0.07912 0.20934,0.160478 0.29627,0.260495 0.0979,0.0994 0.18413,0.209978 0.24824,0.334471 0.0717,0.133178 0.10246,0.276868 0.0961,0.428662 5.9e-4,0.140074 1.4e-4,0.280151 0.002,0.420215 3e-5,0.127152 1e-4,0.254324 -0.003,0.381443 -0.004,0.137093 -0.01,0.275608 -0.0456,0.408811 -0.0481,0.172411 -0.0866,0.347107 -0.13696,0.519007 -0.0524,0.230378 -0.11293,0.45937 -0.1814,0.685426 -0.0838,0.219361 -0.17913,0.434519 -0.2694,0.651312 -0.0304,0.07647 -0.057,0.154456 -0.0893,0.230104 -0.0306,0.07144 -0.079,0.131152 -0.11828,0.197379 -0.0159,0.02678 -0.0293,0.05495 -0.044,0.08242 -0.0904,0.162757 -0.17631,0.327615 -0.26583,0.490839 -0.0649,0.124164 -0.14048,0.242029 -0.20564,0.366058 -0.0691,0.128249 -0.14568,0.252109 -0.23307,0.368737 -0.0739,0.114401 -0.15904,0.222837 -0.21554,0.347122 -0.0655,0.121259 -0.14436,0.233945 -0.19737,0.361887 -0.085,0.142035 -0.1668,0.285592 -0.28226,0.406132 -0.13162,0.160153 -0.27893,0.303589 -0.42686,0.448445 -0.13458,0.143863 -0.26877,0.288962 -0.38737,0.446518 -0.088,0.09673 -0.17983,0.189139 -0.2616,0.291105 -0.0964,0.118367 -0.19976,0.231449 -0.31112,0.336091 -0.0353,0.02739 -0.0673,0.05888 -0.10321,0.08544 -0.057,0.04212 -0.12352,0.07371 -0.17013,0.129349 -0.0814,0.07293 0.007,-0.0021 -0.0827,0.06151 -0.27719,0.196823 -0.56158,0.389666 -0.87592,0.524728 -0.13434,0.05766 -0.275,0.10411 -0.41857,0.131907 -0.14118,0.01447 -0.28324,0.01009 -0.42504,0.0087 -0.16328,-0.005 -0.32945,-0.01107 -0.48587,-0.06272 -0.19352,-0.07313 -0.36113,-0.191211 -0.53385,-0.303486 -0.20075,-0.136445 -0.3935,-0.279747 -0.5403,-0.476685 -0.22283,-0.252371 -0.44251,-0.509708 -0.63309,-0.787545 -0.0903,-0.126725 -0.17466,-0.257096 -0.26204,-0.385725 -0.093,-0.127708 -0.18556,-0.255646 -0.26856,-0.390199 -0.0595,-0.111133 -0.13071,-0.215565 -0.19286,-0.325113 -0.0796,-0.116057 -0.15876,-0.232208 -0.23961,-0.347449 -0.0696,-0.115009 -0.15268,-0.220903 -0.2203,-0.337108 -0.0573,-0.100011 -0.11482,-0.199305 -0.14503,-0.311854 -0.0367,-0.104764 -0.07,-0.210472 -0.11076,-0.313861 -0.0633,-0.165305 -0.13111,-0.328929 -0.21827,-0.483425 -0.0625,-0.143823 -0.1217,-0.288811 -0.17347,-0.436863 -0.0539,-0.170739 -0.10417,-0.342572 -0.1615,-0.512223 -0.0438,-0.139171 -0.0937,-0.276439 -0.15064,-0.410747 -0.0584,-0.124606 -0.10654,-0.253892 -0.15602,-0.382181 -0.042,-0.100554 -0.0674,-0.205948 -0.1081,-0.307077 -0.0223,-0.106404 -0.0213,-0.212511 -0.0188,-0.321028 0,-0.11061 -10e-6,-0.221221 1.4e-4,-0.331831 2.5e-4,-0.13887 7.4e-4,-0.277739 0.002,-0.416607 0.001,-0.216279 0.002,-0.432556 0.004,-0.648832 0.012,-0.179809 0.0435,-0.357539 0.10328,-0.52809 0.0568,-0.155057 0.12875,-0.311454 0.28186,-0.391212 0.33575,-0.242662 0.69734,-0.454949 1.07831,-0.617705 0.12237,-0.04207 0.24362,-0.08903 0.37117,-0.113511 0.13332,-0.02766 0.26672,-0.05365 0.40263,-0.06564 0.17266,-0.01242 0.34641,-0.01356 0.51762,-0.04246 0.17624,-0.026 0.35302,-0.04566 0.52953,-0.06926 0,0 -0.6551,0.490305 -0.6551,0.490305 z"
           inkscape:connector-curvature="0" />
        <path
           style="fill:#4682b4;fill-opacity:1;stroke:#4682b4;stroke-width:0.2;stroke-miterlimit:4;stroke-dasharray:none;stroke-opacity:1"
           id="path886"
           d="m -499.63103,56.110449 c -0.061,-0.143168 -0.1453,-0.270453 -0.23932,-0.393242 -0.0881,-0.08878 -0.19278,-0.15713 -0.28737,-0.238428 -0.16282,-0.13799 -0.30945,-0.293473 -0.47137,-0.432226 -0.15922,-0.130602 -0.32388,-0.253929 -0.4874,-0.379055 -0.13165,-0.115145 -0.28373,-0.181254 -0.45294,-0.216539 -0.20627,-0.05349 -0.42124,-0.06118 -0.63318,-0.06971 -0.20926,-0.0072 -0.41867,-0.0065 -0.62802,-0.0052 -0.0719,0.0095 -0.14844,-0.01112 -0.21998,0.0015 -0.0106,0.0019 -0.0378,0.02065 -0.0286,0.01507 0.70467,-0.426344 0.53493,-0.636511 0.71621,-0.392168 0.0958,0.08369 0.20014,0.156874 0.30271,0.231975 0.11299,0.05812 0.18365,0.144426 0.22419,0.262839 0.0176,0.116726 0.0332,0.231913 0.075,0.342905 0.0382,0.121489 0.11189,0.208511 0.20536,0.290612 0.11277,0.0894 0.24065,0.154722 0.36568,0.224409 0.11542,0.0442 0.22196,0.107839 0.33671,0.153347 0.0995,0.05662 0.20848,0.09162 0.31497,0.132788 0.0944,0.04002 0.18691,0.08283 0.27814,0.129603 0,0 -0.67874,0.446708 -0.67874,0.446708 v 0 c -0.0903,-0.04372 -0.18139,-0.08557 -0.27473,-0.122453 -0.1079,-0.04098 -0.21803,-0.07575 -0.31846,-0.133995 -0.1143,-0.05175 -0.22702,-0.107324 -0.34027,-0.161183 -0.12976,-0.07162 -0.25876,-0.145606 -0.37382,-0.239871 -0.11013,-0.09657 -0.17778,-0.182744 -0.22658,-0.322962 -0.0457,-0.111571 -0.0702,-0.226241 -0.0801,-0.346374 -0.0305,-0.105559 -0.10097,-0.165944 -0.19514,-0.220255 -0.10902,-0.07983 -0.22196,-0.156717 -0.3191,-0.250832 -0.382,-0.517123 0.62221,-0.527256 0.89338,-0.518806 0.20848,0.0017 0.41704,0.0033 0.62537,0.0117 0.21716,0.01174 0.43659,0.02292 0.64791,0.0783 0.17469,0.04838 0.33088,0.128962 0.47077,0.245672 0.16236,0.127275 0.32477,0.254491 0.48318,0.386665 0.16141,0.139741 0.31232,0.291248 0.47848,0.42575 0.10253,0.08106 0.21095,0.155532 0.29756,0.254703 0.0957,0.129423 0.18018,0.264178 0.25238,0.408324 0,0 -0.71289,0.400382 -0.71289,0.400382 z"
           inkscape:connector-curvature="0" />
        <path
           style="fill:#4682b4;fill-opacity:1;stroke:#4682b4;stroke-width:0.2;stroke-miterlimit:4;stroke-dasharray:none;stroke-opacity:1"
           id="path888"
           d="m -498.81961,55.738681 c 0.14146,-0.149783 0.28143,-0.301165 0.42855,-0.44544 0.11531,-0.119392 0.22586,-0.242257 0.34866,-0.354122 0.28881,-0.229957 0.0354,-0.03301 0.81931,-0.486226 0.0824,-0.04765 0.16041,-0.07392 0.25396,-0.09125 0.14368,-0.05645 0.29469,-0.0657 0.44715,-0.06686 0.25321,-0.005 0.50646,-0.0075 0.75971,-0.0095 0.16356,-5.38e-4 0.32558,-0.02886 0.48831,-0.04372 0.17218,-0.0093 0.34467,-0.0098 0.51704,-0.01145 0.16937,2.4e-5 0.33856,0.02329 0.50315,0.06245 0.11885,0.02723 0.2367,0.06934 0.34217,0.130976 0.0238,0.01927 0.0464,0.03182 0.0583,0.06166 0.0153,0.03854 0.017,0.0979 -0.025,0.122835 -0.24471,0.145486 -0.49383,0.283433 -0.74074,0.42515 -0.28182,0.101039 -0.0707,0.02842 0.60434,-0.353703 0.0179,-0.01012 -0.0354,0.0209 -0.0528,0.03173 -0.0489,0.03038 -0.0946,0.06481 -0.14139,0.09833 -0.0963,0.06671 -0.19104,0.135721 -0.28666,0.203497 -0.0254,0.01589 -0.0501,0.0328 -0.0761,0.04768 -0.25724,0.147347 -0.51437,0.294928 -0.77349,0.438955 -0.10622,0.05904 -0.23043,0.09415 -0.34278,0.139944 -0.23925,0.0737 -0.48326,0.131858 -0.7286,0.181297 -0.1967,0.03095 -0.39427,0.05801 -0.59227,0.07972 -0.15469,-0.0024 -0.29566,0.05765 -0.44336,0.09432 -0.13352,0.04059 -0.26964,0.07193 -0.40554,0.102896 -0.13554,0.03106 -0.27437,0.03697 -0.41276,0.04145 -0.10641,0.0089 -0.20903,4.8e-4 -0.3135,-0.01829 0,0 0.66766,-0.469398 0.66766,-0.469398 v 0 c 0.10063,0.01336 0.20147,0.01105 0.30277,0.0063 0.13567,-0.0068 0.27117,-0.01952 0.40302,-0.05412 0.13499,-0.03457 0.27167,-0.06229 0.4048,-0.104053 0.14726,-0.04003 0.29301,-0.08079 0.44713,-0.08259 0.19584,-0.02222 0.39137,-0.04895 0.58538,-0.08376 0.24371,-0.05081 0.48799,-0.106447 0.72134,-0.194382 0.0858,-0.03461 0.17269,-0.06737 0.25681,-0.106009 0.0279,-0.01283 0.10934,-0.05597 0.083,-0.04019 -0.40455,0.242101 -0.85318,0.491278 -0.5398,0.316758 0.0975,-0.06257 0.18576,-0.138309 0.28418,-0.198972 0.30606,-0.231412 0.63872,-0.422937 0.98656,-0.590462 -0.22078,0.127751 -0.44375,0.251799 -0.66235,0.383254 -0.0101,0.006 0.0231,-0.0045 0.0347,-0.0058 0.0152,-0.0017 0.0321,0.0092 0.0456,0.0022 0.013,-0.0067 -0.0735,-0.04719 -0.0325,-0.02957 -0.10376,-0.05187 -0.21385,-0.09007 -0.3274,-0.114201 -0.16081,-0.03596 -0.32556,-0.05123 -0.49039,-0.04812 -0.17162,9.74e-4 -0.34352,0.0023 -0.51453,0.01831 -0.16264,0.01576 -0.32527,0.04011 -0.48908,0.03497 -0.25121,-0.0014 -0.50257,-0.0021 -0.75356,0.0097 -0.15218,0.01333 -0.30015,0.03638 -0.44554,0.08507 -0.0652,0.02015 -0.12289,0.04332 -0.18314,0.07556 -0.0193,0.01035 -0.0766,0.04272 -0.0577,0.03159 0.82646,-0.487017 0.82233,-0.48491 0.56768,-0.331203 -0.12489,0.110751 -0.24495,0.224728 -0.35256,0.352877 -0.14847,0.139297 -0.28697,0.287908 -0.42648,0.435976 0,0 -0.75127,0.317964 -0.75127,0.317964 z"
           inkscape:connector-curvature="0" />
      </g>
      <circle
         cy="27.273504"
         cx="-46.923943"
         id="path849"
         style="fill:none;fill-opacity:1;stroke:#e4ac24;stroke-width:5.20731203;stroke-miterlimit:4;stroke-dasharray:none;stroke-opacity:1"
         r="19.588804" />
      <path
         style="opacity:1;fill:#ffffff;fill-opacity:1;stroke:none;stroke-width:5.20731;stroke-linecap:round;stroke-linejoin:round;stroke-miterlimit:4;stroke-dasharray:none;stroke-opacity:1;paint-order:stroke fill markers"
         id="path856"
         d="m -69.020777,25.692639 c 0.130367,-0.677072 0.278181,-1.372935 0.678884,-1.950611 0.108021,-0.15573 0.240673,-0.292846 0.36101,-0.439269 0.602817,-0.641117 1.344037,-1.112023 2.112054,-1.528014 0.152471,-0.08259 0.304718,-0.165903 0.461063,-0.240898 0.12775,-0.06128 0.260407,-0.111753 0.39061,-0.167629 0.342304,-0.135497 0.704964,-0.194108 1.062393,-0.272064 0.382231,-0.08337 0.366362,-0.08462 0.76769,-0.192556 0.605702,-0.181518 1.232246,-0.341514 1.768997,-0.690353 0.297478,-0.193332 0.344598,-0.269415 0.583874,-0.517728 0.326137,-0.366915 0.470667,-0.831267 0.623561,-1.286499 0.01807,-0.06468 -0.896628,-0.320253 -0.914701,-0.255577 v 0 c -0.113322,0.336547 -0.211972,0.685472 -0.455032,0.955561 -0.06154,0.05598 -0.118282,0.11773 -0.184611,0.167942 -0.546751,0.413902 -1.25695,0.513896 -1.880819,0.759092 -0.32453,0.09976 -0.6495,0.201138 -0.9814,0.274406 -0.319159,0.07045 -0.208709,0.02557 -0.551308,0.114372 -0.128136,0.03321 -0.254368,0.07338 -0.381552,0.110072 -0.151442,0.05929 -0.30492,0.113626 -0.454325,0.177876 -1.099683,0.472914 -2.090413,1.128643 -2.866734,2.049356 -0.134488,0.191701 -0.282773,0.37443 -0.403464,0.575103 -0.412547,0.685939 -0.600119,1.480875 -0.638322,2.273325 -0.0059,0.06379 0.896185,0.147881 0.902132,0.0841 z" />
      <path
         style="opacity:1;fill:#ffffff;fill-opacity:1;stroke:none;stroke-width:5.20731;stroke-linecap:round;stroke-linejoin:round;stroke-miterlimit:4;stroke-dasharray:none;stroke-opacity:1;paint-order:stroke fill markers"
         id="path858"
         d="m -59.179088,8.4864774 c 0.775941,-0.06693 1.548442,-0.1676886 2.321763,-0.2588181 0.466465,-0.05497 0.959352,-0.1209039 1.430828,-0.1437291 0.08834,-0.00428 0.176819,0.00522 0.265229,0.00785 0.384004,0.037798 0.468906,0.02511 0.829334,0.1384154 0.269846,0.084829 0.466028,0.1875567 0.715097,0.3195101 0.161878,0.085761 0.614649,0.3414151 0.76718,0.4270821 0.933891,0.5111127 1.884688,1.0050664 2.890433,1.3615272 0.233026,0.08259 0.470966,0.150598 0.706449,0.225896 0.975713,0.265341 1.964981,0.500052 2.972081,0.60889 0.236785,0.02559 0.475068,0.03459 0.712602,0.05189 0.07166,0.02405 0.411853,-0.989323 0.340192,-1.013377 v 0 c -1.180078,-0.119537 -2.365794,-0.2472702 -3.506238,-0.5907764 -0.2203,-0.06528 -0.442573,-0.1242388 -0.6609,-0.1958408 -0.979793,-0.321331 -1.90464,-0.7833119 -2.833951,-1.2244016 -0.944362,-0.510695 0.138679,0.077519 -0.783882,-0.4312851 -0.136988,-0.075551 -0.271736,-0.1555516 -0.412329,-0.2241627 -0.458384,-0.2236978 -0.941159,-0.3785102 -1.448552,-0.4415767 -0.288533,-0.011658 -0.576836,-0.032973 -0.865597,-0.034974 -0.471382,-0.00327 -1.056042,0.045992 -1.5171,0.1009205 -0.553266,0.065913 -1.175489,0.1633069 -1.719386,0.2923347 -0.213208,0.050579 -0.421235,0.1209326 -0.631853,0.1813989 -0.05963,0.030305 0.368972,0.8735351 0.4286,0.8432299 z" />
      <path
         style="opacity:1;fill:#ffffff;fill-opacity:1;stroke:none;stroke-width:5.20731;stroke-linecap:round;stroke-linejoin:round;stroke-miterlimit:4;stroke-dasharray:none;stroke-opacity:1;paint-order:stroke fill markers"
         id="path860"
         d="m -36.160979,7.6273627 c 0.08257,0.1344023 0.16071,0.2716329 0.247719,0.403207 0.122797,0.1856902 0.256503,0.3639609 0.38145,0.5482109 0.153031,0.2256622 0.301485,0.4543933 0.452434,0.6814534 0.16455,0.2475202 0.333417,0.492214 0.494061,0.742287 0.293387,0.456714 0.609094,0.990943 0.889103,1.457915 0.400377,0.697087 0.779798,1.408187 1.086443,2.152081 0.179533,0.43553 0.1887,0.483408 0.339344,0.92247 0.179191,0.586906 0.318572,1.187729 0.41701,1.793597 0.03728,0.22943 0.06513,0.460296 0.09876,0.690288 0.07499,0.564641 0.07621,1.13564 0.0775,1.704241 -0.01259,0.298647 -0.0152,0.597517 -0.02784,0.896167 -0.0043,0.102487 -0.0028,0.205551 -0.01541,0.307351 -0.02942,0.237342 -0.102877,0.48656 -0.1625,0.716253 -0.115956,0.499571 -0.354137,0.958427 -0.490131,1.450777 -0.04948,0.219692 -7.23e-4,0.438418 0.02431,0.657047 0.03313,0.289301 0.0058,0.09633 0.05455,0.400846 0.03704,0.217316 0.09447,0.433169 0.205549,0.625664 0.03612,0.06259 0.08177,0.11917 0.122666,0.178756 0.03297,0.05408 0.797944,-0.412145 0.764975,-0.466234 v 0 c -0.129211,-0.125138 -0.15404,-0.290341 -0.186923,-0.461571 -0.02216,-0.134161 -0.04139,-0.26883 -0.06613,-0.402539 -0.01046,-0.05653 -0.02321,-0.112628 -0.03576,-0.168735 -0.0057,-0.02575 -0.01103,-0.05171 -0.01918,-0.07681 -0.0025,-0.0079 -0.0123,-0.01307 -0.01268,-0.02133 -5.32e-4,-0.01149 0.0068,-0.02198 0.01017,-0.03297 0.200505,-0.496003 0.481096,-0.961776 0.593657,-1.491694 0.03242,-0.148557 0.07184,-0.295757 0.09728,-0.445669 0.09279,-0.546984 0.06136,-1.103995 0.0795,-1.655793 0.01554,-0.603613 -0.0086,-1.205037 -0.0639,-1.806419 -0.01514,-0.174483 -0.04888,-0.580181 -0.06927,-0.736673 -0.0849,-0.651853 -0.231348,-1.297181 -0.425126,-1.924829 -0.05369,-0.163982 -0.103546,-0.329267 -0.161057,-0.491948 -0.130762,-0.369883 -0.244329,-0.633556 -0.39569,-0.995972 -0.254035,-0.608255 -0.518735,-1.212212 -0.832361,-1.792824 -0.346588,-0.616871 -0.507507,-0.926651 -0.901474,-1.5279506 -0.528492,-0.8066189 -1.119119,-1.5737944 -1.7759,-2.2800335 -0.03192,-0.056224 -0.827088,0.3951574 -0.795169,0.4513818 z" />
      <path
         style="opacity:1;fill:#ffffff;fill-opacity:1;stroke:none;stroke-width:5.20731;stroke-linecap:round;stroke-linejoin:round;stroke-miterlimit:4;stroke-dasharray:none;stroke-opacity:1;paint-order:stroke fill markers"
         id="path862"
         d="m -24.155577,33.142329 c -0.814172,0.568636 -1.598726,1.178167 -2.402554,1.760961 -0.224035,0.162432 -2.041053,1.450564 -2.285064,1.618224 -0.330701,0.227225 -0.667687,0.445165 -1.001531,0.667748 -0.768388,0.468842 -1.597271,0.790379 -2.477296,0.971194 -0.636434,0.130765 -1.28968,0.16928 -1.935661,0.221558 -0.629996,0.07071 -1.257662,0.173371 -1.854803,0.39379 -0.46832,0.172868 -0.893325,0.430129 -1.322063,0.680831 -0.483793,0.306254 -0.977215,0.617058 -1.394297,1.013639 -0.27179,0.25843 -0.307467,0.32674 -0.52463,0.611223 -0.03675,0.0568 0.76655,0.576484 0.803299,0.519685 v 0 c 0.1646,-0.186778 0.262348,-0.306908 0.450332,-0.478694 0.388969,-0.355453 0.845873,-0.629792 1.29454,-0.901161 0.285157,-0.159833 0.438993,-0.257838 0.7417,-0.38116 0.676621,-0.275652 1.407298,-0.386029 2.12922,-0.462433 0.70398,-0.04826 1.412321,-0.07391 2.106241,-0.214362 0.988849,-0.200146 1.928822,-0.560067 2.810031,-1.050771 0.356394,-0.219852 0.719457,-0.429246 1.069184,-0.659556 0.800594,-0.527222 1.554951,-1.088127 2.301731,-1.688985 0.520988,-0.419185 1.240383,-1.041574 1.736051,-1.51924 0.165019,-0.159025 0.317426,-0.330638 0.476139,-0.495957 0.04289,-0.05095 -0.677679,-0.657484 -0.720569,-0.606534 z" />
      <path
         style="opacity:1;fill:#ffffff;fill-opacity:1;stroke:none;stroke-width:5.20731;stroke-linecap:round;stroke-linejoin:round;stroke-miterlimit:4;stroke-dasharray:none;stroke-opacity:1;paint-order:stroke fill markers"
         id="path866"
         d="m -50.590978,49.460504 c -0.734092,-0.501266 -1.50296,-0.950865 -2.227259,-1.466895 -0.606655,-0.432213 -0.790982,-0.600591 -1.368137,-1.075059 -0.780859,-0.702767 -1.550555,-1.442281 -2.081711,-2.359537 -0.22355,-0.386048 -0.469895,-0.947671 -0.654831,-1.349909 -0.513434,-1.244788 -1.129876,-2.44197 -1.723146,-3.649354 -0.293111,-0.644382 -0.646012,-1.257313 -0.979255,-1.880771 -0.09765,-0.230098 -0.251706,-0.4256 -0.391586,-0.630016 -0.179679,-0.319391 -0.330774,-0.653224 -0.522199,-0.966148 -0.07968,-0.111366 -0.105279,-0.175293 -0.117925,-0.245069 -0.02127,-0.198965 -0.0087,-0.400742 -0.0083,-0.60083 0.0016,-0.183031 0.0065,-0.08377 -0.02149,-0.297372 -0.0078,-0.0621 -0.886063,0.04781 -0.878291,0.109909 v 0 c 0.0194,0.08953 0.01055,0.03046 0.0056,0.17909 -0.0049,0.252764 -0.004,0.507865 0.04854,0.756371 0.04065,0.162436 0.07445,0.326562 0.154688,0.476236 0.175765,0.340811 0.340489,0.689537 0.561541,1.004376 0.02643,0.04102 0.103444,0.161712 0.129333,0.196695 0.01567,0.02118 0.03568,0.03887 0.05175,0.05974 0.06779,0.08808 0.106315,0.194656 0.149491,0.29558 0.287281,0.640728 0.528079,1.302608 0.857452,1.924403 0.357714,0.750123 0.721101,1.49757 1.055472,2.258577 0.09746,0.221817 0.189581,0.445946 0.28515,0.668586 0.104627,0.243745 0.210292,0.487045 0.315438,0.730567 0.338193,0.730176 0.671831,1.445223 1.126552,2.11346 0.504374,0.741205 1.122781,1.386826 1.799723,1.972232 0.238842,0.196711 0.471903,0.400662 0.716528,0.590134 0.833792,0.645807 1.782681,1.258043 2.730129,1.724311 0.154213,0.0759 0.313617,0.140747 0.470426,0.211119 0.05306,0.03651 0.5694,-0.713926 0.516334,-0.750435 z" />
    </g>
    <circle
       style="fill:none;fill-opacity:1;stroke:none;stroke-width:0.264583;stroke-opacity:1"
       id="path820"
       cx="92.081963"
       cy="264.54758"
       r="13.5"
       transform="matrix(-0.92288506,0.38507553,0.38507553,0.92288506,0,0)" />
    <circle
       style="fill:none;fill-opacity:1;stroke:none;stroke-width:0.264583;stroke-opacity:1"
       id="path820-3"
       cx="279.56573"
       cy="-18.367638"
       r="13.5"
       transform="matrix(0.12553029,0.99208979,0.99208979,-0.12553029,0,0)" />
  </g>
</svg>
