<svg id="Icons" height="512" viewBox="0 0 60 60" width="512" xmlns="http://www.w3.org/2000/svg"><g fill="#6d4e45"><path d="m33 49v8a2 2 0 0 1 -2 2h-2a2 2 0 0 1 -2-2v-8z"/><path d="m10 22h-8a1 1 0 0 0 -1 1v3.142a1 1 0 0 0 .848.988l7.362 1.13z"/><path d="m50.79 28.26 7.362-1.13a1 1 0 0 0 .848-.988v-3.142a1 1 0 0 0 -1-1h-8z"/></g><g fill="#f2bc35"><path d="m27 1h6a5 5 0 0 1 5 5v6a8 8 0 0 1 -8 8 8 8 0 0 1 -8-8v-6a5 5 0 0 1 5-5z"/><path d="m19 30h-7.8a2 2 0 0 1 -1.96-1.608l-1.2-6a2 2 0 0 1 1.96-2.392h6a2 2 0 0 1 2 2h1z"/><path d="m41 30h7.8a2 2 0 0 0 1.961-1.608l1.2-6a2 2 0 0 0 -1.961-2.392h-6a2 2 0 0 0 -2 2h-1z"/></g><path d="m38 42 4-12v-8a2 2 0 0 0 -2-2h-20a2 2 0 0 0 -2 2v8l4 12v1h16z" fill="#f9d04b"/><path d="m22 42s-3 1-3 6a2 2 0 0 0 2 2h18a2 2 0 0 0 2-2c0-5-3-6-3-6z" fill="#f2bc35"/><circle cx="30" cy="31" fill="#b24555" r="7"/><circle cx="30" cy="31" fill="#fff" r="3"/><g fill="#373737"><path d="m58 21h-5.19a2.949 2.949 0 0 0 -.491-.9 2.989 2.989 0 0 0 -2.319-1.1h-6a2.981 2.981 0 0 0 -2 .78 2.981 2.981 0 0 0 -2-.78h-4.355a8.985 8.985 0 0 0 3.355-7v-6a6.006 6.006 0 0 0 -6-6h-6a6.006 6.006 0 0 0 -6 6 1 1 0 0 0 2 0 4 4 0 0 1 4-4h6a4 4 0 0 1 4 4v6a7 7 0 0 1 -14 0v-2a1 1 0 0 0 -2 0v2a8.985 8.985 0 0 0 3.355 7h-4.355a2.981 2.981 0 0 0 -2 .78 2.981 2.981 0 0 0 -2-.78h-6a2.989 2.989 0 0 0 -2.32 1.1 2.949 2.949 0 0 0 -.491.9h-5.189a2 2 0 0 0 -2 2v3.142a1.986 1.986 0 0 0 1.7 1.976l6.739 1.035a3.009 3.009 0 0 0 2.761 1.847h6.08l3.509 10.529c-1.089.752-2.789 2.55-2.789 6.471a3 3 0 0 0 3 3h5v6a3 3 0 0 0 3 3h2a3 3 0 0 0 3-3v-6h5a3 3 0 0 0 3-3c0-3.921-1.7-5.719-2.789-6.471l3.509-10.529h6.08a3.009 3.009 0 0 0 2.764-1.847l6.736-1.035a1.986 1.986 0 0 0 1.7-1.976v-3.142a2 2 0 0 0 -2-2zm-56 2h5.141l.811 4.055-5.952-.913zm8.22 5.2-1.2-6a1 1 0 0 1 .98-1.2h6a1 1 0 0 1 1 1v7h-5.8a1 1 0 0 1 -.98-.8zm8.78-6.2a1 1 0 0 1 1-1h20a1 1 0 0 1 1 1v7.838l-3.721 11.162h-14.558l-3.721-11.162zm13 35a1 1 0 0 1 -1 1h-2a1 1 0 0 1 -1-1v-6h4zm8-9a1 1 0 0 1 -1 1h-18a1 1 0 0 1 -1-1c0-3.631 1.717-4.754 2.2-5h15.6c.483.246 2.2 1.369 2.2 5zm8.8-19h-5.8v-7a1 1 0 0 1 1-1h6a1 1 0 0 1 .981 1.2l-1.2 6a1 1 0 0 1 -.981.8zm9.2-2.858-5.952.913.811-4.055h5.141z"/><path d="m30 39a8 8 0 1 0 -8-8 8.009 8.009 0 0 0 8 8zm0-14a6 6 0 1 1 -6 6 6.006 6.006 0 0 1 6-6z"/><path d="m30 35a4 4 0 1 0 -4-4 4 4 0 0 0 4 4zm0-6a2 2 0 1 1 -2 2 2 2 0 0 1 2-2z"/></g></svg>