<svg height="512" viewBox="0 0 58 58" width="512" xmlns="http://www.w3.org/2000/svg"><g id="022---Row-Boat" fill="none" transform="translate(0 -1)"><path id="Shape" d="m38 59c1.5176164.0315923 2.8419209-1.0236471 3.15-2.51l4.51-25.91c1.4425979-8.5234831-1.6205941-17.1874-8.1-22.91l-6.84-6.12c-.4755279-.40809645-1.0959168-.60647662-1.72-.55-.6240832-.05647662-1.2444721.14190355-1.72.55l-6.82 6.12c-6.4794059 5.7226-9.5425979 14.3865169-8.1 22.91l4.51 25.91c.3066967 1.4788348 1.6198554 2.531879 3.13 2.51z" fill="#cb8252"/><path id="Shape" d="m42 26c-.49 0-25.54 0-26 0 .1943793-5.8007902 2.7741253-11.2642074 7.13-15.1l5.2-4.65c.3806191-.34351854.9593809-.34351854 1.34 0l5.2 4.65c4.3539344 3.837252 6.9332609 9.2997809 7.13 15.1z" fill="#805333"/><path id="Shape" d="m41 34-3.53 20.18c-.0879673.4810925-.5109963.8279763-1 .82h-15c-.4890037.0079763-.9120327-.3389075-1-.82l-3.47-20.18z" fill="#805333"/><g fill="#603e26"><path id="Shape" d="m29 27c-.5522847 0-1-.4477153-1-1v-15c0-.5522847.4477153-1 1-1s1 .4477153 1 1v15c0 .5522847-.4477153 1-1 1z"/><path id="Shape" d="m23 27c-.5522847 0-1-.4477153-1-1v-9c0-.5522847.4477153-1 1-1s1 .4477153 1 1v9c0 .5522847-.4477153 1-1 1z"/><path id="Shape" d="m35 27c-.5522847 0-1-.4477153-1-1v-9c0-.5522847.4477153-1 1-1s1 .4477153 1 1v9c0 .5522847-.4477153 1-1 1z"/><path id="Shape" d="m29 47c-.5522847 0-1-.4477153-1-1v-12c0-.5522847.4477153-1 1-1s1 .4477153 1 1v12c0 .5522847-.4477153 1-1 1z"/><path id="Shape" d="m30 50v5h-2v-5c0-.5522847.4477153-1 1-1s1 .4477153 1 1z"/><path id="Shape" d="m23 47c-.5522847 0-1-.4477153-1-1v-12c0-.5522847.4477153-1 1-1s1 .4477153 1 1v12c0 .5522847-.4477153 1-1 1z"/><path id="Shape" d="m35 47c-.5522847 0-1-.4477153-1-1v-12c0-.5522847.4477153-1 1-1s1 .4477153 1 1v12c0 .5522847-.4477153 1-1 1z"/></g><path id="Shape" d="m5.42 44.12c-.32888269.0163547-.64473685-.1302482-.84454097-.3919916-.19980413-.2617434-.25794504-.605074-.15545903-.9180084l11.91-37.11c.1656854-.52743192.7275681-.82068539 1.255-.65499997.5274319.16568543.8206854.72756804.655 1.25499997l-11.87 37.12c-.1305765.4152186-.51473712.6982843-.95.7z" fill="#a56a43"/><path id="Shape" d="m52.58 44.12c-.4352629-.0017157-.8194235-.2847814-.95-.7l-11.87-37.12c-.1656854-.52743193.1275681-1.08931455.655-1.25499997s1.0893146.12756805 1.255.65499997l11.86 37.11c.0992489.3043854.046755.6378898-.1411994.8970691-.1879545.2591793-.4886432.4126951-.8088006.4129309z" fill="#a56a43"/><path id="Shape" d="m41.7 30c0 .1 0-.11-.7 4h-24l-.7-4c0-.07-1 0 25.4 0z" fill="#cf976a"/><path id="Shape" d="m41.7 30h-25.4c-.233793-1.3199109-.3342983-2.6599823-.3-4h26c.036358 1.3400677-.0641629 2.680347-.3 4z" fill="#a56a43"/><path id="Shape" d="m19.1 46h19.8l-.7 4h-18.4z" fill="#a56a43"/><path id="Shape" d="m7.58 46.16c0 .58 0 .41-1.65 5.46-.08001302.2583924-.26129077.4733486-.50247237.5958236-.2411816.1224751-.52169148.1420204-.77752763.0541764l-3.93-1.2c-.25504918-.0762536-.46916811-.2510531-.59492753-.4856788-.12575942-.2346258-.15277857-.5097108-.07507247-.7643212l1.52-4.75c.51641247-1.6107592 2.2352004-2.503636 3.85-2 1.35810875.3924284 2.2579701 1.6797301 2.16 3.09z" fill="#cb8252"/><path id="Shape" d="m50.42 46.16c0 .58 0 .41 1.65 5.46.080013.2583924.2612908.4733486.5024724.5958236.2411816.1224751.5216915.1420204.7775276.0541764l3.93-1.2c.2642632-.0653933.4904436-.2356994.6263216-.4715987.135878-.2358994.1697076-.5169996.0936784-.7784013l-1.52-4.75c-.5164125-1.6107592-2.2352004-2.503636-3.85-2-1.3780587.3729499-2.3024038 1.6653601-2.21 3.09z" fill="#cb8252"/></g></svg>