<svg height="512" viewBox="0 0 38 58" width="512" xmlns="http://www.w3.org/2000/svg"><g id="030---Rubber-Dinghy" fill="none"><path id="Shape" d="m27.69 1.05-4.69 7.33c-.3320637-.24052917-.7300316-.37318513-1.14-.38h-5.72c-.4099684.00681487-.8079363.13947083-1.14.38l-4.69-7.33c.7346441-.67274004 1.693871-1.04715945 2.69-1.05h12c.996129.00284055 1.9553559.37725996 2.69 1.05z" fill="#f29c1f"/><path id="Shape" d="m10.31 1.05 4.69 7.33c-.4.29.19-.23-6.61 9.36-.24693325.3255694-.38355748.7214294-.39 1.13v34c.02117614 2.0940688-1.53191734 3.8708766-3.61 4.13-1.12664628.1103869-2.24730762-.2617853-3.08408719-1.0242268-.83677956-.7624415-1.31130765-1.8437449-1.30591281-2.9757732v-36c-.001005-.8145643.24670299-1.610021.71-2.28 9.7-14.07 9.12-13.25 9.6-13.67z" fill="#f0c419"/><path id="Shape" d="m38 17v36c.0053948 1.1320283-.4691332 2.2133317-1.3059128 2.9757732s-1.9574409 1.1346137-3.0840872 1.0242268c-2.0934905-.2607341-3.6517768-2.0607491-3.61-4.17v-34c.0022526-.4052187-.1237608-.800761-.36-1.13-6.83-9.59-6.22-9.04-6.64-9.32l4.66-7.33c.48.42-.09-.38 9.6 13.67.473944.6664821.7322105 1.4622222.74 2.28z" fill="#f0c419"/><path id="Shape" d="m30 18.87.0000297 33.13h-22.00005938l.00002968-33.13c-.00225262-.4052187.12376083-.800761.36-1.13l6.14-8.88c.3730346-.53772447.9855527-.85892302 1.64-.86h5.72c.6544473.00107698 1.2669654.32227553 1.64.86l6.14 8.88c.2362392.329239.3622526.7247813.36 1.13z" fill="#e57e25"/><g fill="#d25627"><path id="Shape" d="m13 24c-.5522847 0-1-.4477153-1-1v-4c0-.5522847.4477153-1 1-1s1 .4477153 1 1v4c0 .5522847-.4477153 1-1 1z"/><path id="Shape" d="m25 24c-.5522847 0-1-.4477153-1-1v-4c0-.5522847.4477153-1 1-1s1 .4477153 1 1v4c0 .5522847-.4477153 1-1 1z"/><path id="Shape" d="m13 37c-.5522847 0-1-.4477153-1-1v-7c0-.5522847.4477153-1 1-1s1 .4477153 1 1v7c0 .5522847-.4477153 1-1 1z"/><path id="Shape" d="m25 37c-.5522847 0-1-.4477153-1-1v-7c0-.5522847.4477153-1 1-1s1 .4477153 1 1v7c0 .5522847-.4477153 1-1 1z"/><path id="Shape" d="m13 46c-.5522847 0-1-.4477153-1-1v-3c0-.5522847.4477153-1 1-1s1 .4477153 1 1v3c0 .5522847-.4477153 1-1 1z"/><path id="Shape" d="m25 46c-.5522847 0-1-.4477153-1-1v-3c0-.5522847.4477153-1 1-1s1 .4477153 1 1v3c0 .5522847-.4477153 1-1 1z"/></g><path id="Shape" d="m19 24c-.5522847 0-1-.4477153-1-1v-10c0-.5522847.4477153-1 1-1s1 .4477153 1 1v10c0 .5522847-.4477153 1-1 1z" fill="#35495e"/><path id="Shape" d="m19 37c-.5522847 0-1-.4477153-1-1v-7c0-.5522847.4477153-1 1-1s1 .4477153 1 1v7c0 .5522847-.4477153 1-1 1z" fill="#35495e"/><path id="Shape" d="m19 48c-.5522847 0-1-.4477153-1-1v-5c0-.5522847.4477153-1 1-1s1 .4477153 1 1v5c0 .5522847-.4477153 1-1 1z" fill="#35495e"/><path id="Shape" d="m4 45c-.55228475 0-1-.4477153-1-1v-2c0-.5522847.44771525-1 1-1s1 .4477153 1 1v2c0 .5522847-.44771525 1-1 1z" fill="#f29c1f"/><path id="Shape" d="m4 30c-.55228475 0-1-.4477153-1-1v-2c0-.5522847.44771525-1 1-1s1 .4477153 1 1v2c0 .5522847-.44771525 1-1 1z" fill="#f29c1f"/><path id="Shape" d="m34 45c-.5522847 0-1-.4477153-1-1v-2c0-.5522847.4477153-1 1-1s1 .4477153 1 1v2c0 .5522847-.4477153 1-1 1z" fill="#f29c1f"/><path id="Shape" d="m34 30c-.5522847 0-1-.4477153-1-1v-2c0-.5522847.4477153-1 1-1s1 .4477153 1 1v2c0 .5522847-.4477153 1-1 1z" fill="#f29c1f"/><path id="Shape" d="m20 5h-2c-.5522847 0-1-.44771525-1-1s.4477153-1 1-1h2c.5522847 0 1 .44771525 1 1s-.4477153 1-1 1z" fill="#e57e25"/><path id="Shape" d="m21 58h-4c-1.1045695 0-2-.8954305-2-2v-5c0-2.209139 1.790861-4 4-4s4 1.790861 4 4v5c0 1.1045695-.8954305 2-2 2z" fill="#35495e"/><path id="Rectangle-path" d="m8 23h22v6h-22z" fill="#f3d55b"/><path id="Rectangle-path" d="m8 36h22v6h-22z" fill="#f3d55b"/></g></svg>