<?xml version="1.0" encoding="UTF-8" standalone="no"?>
<svg
   xmlns:dc="http://purl.org/dc/elements/1.1/"
   xmlns:cc="http://creativecommons.org/ns#"
   xmlns:rdf="http://www.w3.org/1999/02/22-rdf-syntax-ns#"
   xmlns:svg="http://www.w3.org/2000/svg"
   xmlns="http://www.w3.org/2000/svg"
   xmlns:sodipodi="http://sodipodi.sourceforge.net/DTD/sodipodi-0.dtd"
   xmlns:inkscape="http://www.inkscape.org/namespaces/inkscape"
   width="60"
   height="135"
   viewBox="0 0 15.875 35.71875"
   version="1.1"
   id="svg8"
   inkscape:version="1.0.1 (3bc2e813f5, 2020-09-07)"
   sodipodi:docname="ship.svg">
  <defs
     id="defs2">
    <clipPath
       clipPathUnits="userSpaceOnUse"
       id="clipPath1515">
      <path
         d="m 1124.04,1314.92 -42.92,42.25 -3.81,45.79 49.39,-48.61 -1.21,-17.92 -1.45,-21.51"
         id="path1513" />
    </clipPath>
    <clipPath
       clipPathUnits="userSpaceOnUse"
       id="clipPath3591">
      <path
         d="m 3868.56,1413.36 0.72,2.16 79.65,-27.27 -0.81,-2.25 -79.56,27.36 m 132.66,1.71 0.72,2.25 79.56,-27.36 -0.72,-2.25 -79.56,27.36 m 128.7,3.06 0.81,2.25 79.56,-27.36 -0.81,-2.25 -79.56,27.36 m -258.48,3.69 0.81,2.16 79.56,-27.27 -0.72,-2.25 -79.65,27.36 m 132.66,1.71 0.72,2.25 79.65,-27.36 -0.81,-2.25 -79.56,27.36 m -129.78,6.75 0.81,2.16 79.56,-27.27 -0.72,-2.25 -79.65,27.36 m 132.66,1.71 0.81,2.25 79.56,-27.36 -0.81,-2.25 -79.56,27.36 m -129.69,6.75 0.72,2.16 79.65,-27.27 -0.81,-2.25 -79.56,27.36 m 132.57,1.71 0.81,2.25 79.56,-27.36 -0.72,-2.25 -79.65,27.36 m -129.69,6.75 0.81,2.16 79.56,-27.27 -0.81,-2.25 -79.56,27.36 m 132.66,1.71 0.72,2.25 79.65,-27.36 -0.81,-2.25 -79.56,27.36 m -129.78,6.75 0.81,2.16 79.56,-27.27 -0.72,-2.25 -79.65,27.36 m 132.66,1.71 0.72,2.25 79.65,-27.36 -0.81,-2.25 -79.56,27.36 m -129.69,6.75 0.72,2.16 79.56,-27.27 -0.72,-2.25 -79.56,27.36 m 132.57,1.71 0.81,2.25 79.56,-27.36 -0.72,-2.25 -79.65,27.36 m -129.69,6.75 0.72,2.16 79.65,-27.27 -0.81,-2.25 -79.56,27.36 m 132.66,1.71 0.72,2.25 79.56,-27.36 -0.72,-2.25 -79.56,27.36 m -129.78,6.75 0.81,2.25 79.56,-27.36 -0.72,-2.25 -79.65,27.36 m 132.66,1.71 0.72,2.25 79.65,-27.36 -0.81,-2.25 -79.56,27.36 m -129.69,6.75 0.72,2.25 79.56,-27.36 -0.72,-2.25 -79.56,27.36 m 132.57,1.71 0.81,2.25 79.56,-27.36 -0.72,-2.25 -79.65,27.36 m -129.69,6.75 0.72,2.25 79.65,-27.36 -0.81,-2.25 -79.56,27.36 m 132.57,1.71 0.81,2.25 79.56,-27.36 -0.72,-2.25 -79.65,27.36 m -129.69,6.75 0.81,2.25 79.56,-27.36 -0.81,-2.25 -79.56,27.36 m 132.66,1.71 0.72,2.25 79.65,-27.36 -0.81,-2.25 -79.56,27.36 m -129.78,6.75 0.81,2.25 79.56,-27.36 -0.72,-2.25 -79.65,27.36 m 132.66,1.71 0.81,2.25 79.56,-27.36 -0.81,-2.25 -79.56,27.36 m -129.69,6.75 0.72,2.25 79.65,-27.36 -0.81,-2.25 -79.56,27.36 m 132.57,1.71 0.81,2.25 79.56,-27.36 -0.72,-2.25 -79.65,27.36 m -129.69,6.75 0.81,2.25 79.56,-27.36 -0.81,-2.25 -79.56,27.36 m 132.66,1.71 0.72,2.25 79.56,-27.36 -0.72,-2.25 -79.56,27.36 m -129.78,6.75 0.81,2.25 79.56,-27.36 -0.72,-2.25 -79.65,27.36 m 2.97,8.46 0.72,2.25 79.56,-27.36 -0.72,-2.25 -79.56,27.36 m 2.88,8.46 0.72,2.25 79.65,-27.36 -0.81,-2.25 -79.56,27.36 m 2.88,8.46 0.81,2.25 79.56,-27.36 -0.72,-2.25 -79.65,27.36 m 134.73,7.74 0.72,2.25 79.65,-27.36 -0.81,-2.25 -79.56,27.36 m -131.76,0.72 0.72,2.25 79.56,-27.36 -0.72,-2.25 -79.56,27.36 m 134.64,7.74 0.81,2.25 79.56,-27.36 -0.81,-2.25 -79.56,27.36 m 2.88,8.46 0.81,2.25 79.56,-27.36 -0.72,-2.25 -79.65,27.36 m 2.97,8.46 0.72,2.25 79.56,-27.36 -0.72,-2.25 -79.56,27.36 m 2.88,8.46 0.72,2.25 79.65,-27.36 -0.81,-2.25 -79.56,27.36 m -129.69,6.75 0.72,2.16 79.56,-27.27 -0.72,-2.25 -79.56,27.36 m 132.57,1.71 0.81,2.25 79.56,-27.36 -0.72,-2.25 -79.65,27.36 m -129.69,6.75 0.72,2.16 79.65,-27.27 -0.81,-2.25 -79.56,27.36 m 132.66,1.71 0.72,2.25 79.56,-27.36 -0.72,-2.25 -79.56,27.36 m -129.78,6.75 0.81,2.16 79.56,-27.27 -0.72,-2.25 -79.65,27.36 m 132.66,1.71 0.72,2.25 79.65,-27.36 -0.81,-2.25 -79.56,27.36 m -129.78,6.75 0.81,2.16 79.56,-27.27 -0.72,-2.25 -79.65,27.36 m 132.66,1.71 0.81,2.25 79.56,-27.36 -0.81,-2.25 -79.56,27.36 m -129.69,6.75 0.72,2.16 79.65,-27.27 -0.81,-2.25 -79.56,27.36 m 132.57,1.71 0.81,2.25 79.56,-27.36 -0.72,-2.25 -79.65,27.36 m -129.69,6.75 0.81,2.25 79.56,-27.36 -0.81,-2.25 -79.56,27.36 m 132.66,1.71 0.72,2.25 79.65,-27.36 -0.81,-2.25 -79.56,27.36 m -129.78,6.75 0.81,2.25 79.56,-27.36 -0.72,-2.25 -79.65,27.36 m 132.66,1.71 0.72,2.25 79.65,-27.36 -0.81,-2.25 -79.56,27.36 m -129.69,6.75 0.72,2.25 79.56,-27.36 -0.72,-2.25 -79.56,27.36 m 132.57,1.71 0.81,2.25 79.56,-27.36 -0.72,-2.25 -79.65,27.36 m -129.69,6.75 0.72,2.25 79.65,-27.36 -0.81,-2.25 -79.56,27.36 m 132.66,1.71 0.72,2.25 79.56,-27.36 -0.72,-2.25 -79.56,27.36 m -129.78,6.75 0.81,2.25 79.56,-27.36 -0.72,-2.25 -79.65,27.36 m 132.66,1.71 0.72,2.25 79.65,-27.36 -0.81,-2.25 -79.56,27.36 m -129.69,6.75 0.72,2.25 79.56,-27.36 -0.72,-2.25 -79.56,27.36 m 132.57,1.71 0.81,2.25 79.56,-27.36 -0.72,-2.25 -79.65,27.36 m -129.69,6.75 0.72,2.25 79.65,-27.36 -0.81,-2.25 -79.56,27.36 m 132.57,1.71 0.81,2.25 79.56,-27.36 -0.72,-2.25 -79.65,27.36 m -129.69,6.75 0.81,2.25 79.56,-27.36 -0.81,-2.25 -79.56,27.36 m 132.66,1.71 0.72,2.25 79.65,-27.36 -0.81,-2.16 -79.56,27.27 m -129.78,6.75 0.81,2.25 79.56,-27.36 -0.72,-2.25 -79.65,27.36 m 132.66,1.71 0.81,2.25 79.56,-27.36 -0.81,-2.16 -79.56,27.27"
         clip-rule="evenodd"
         id="path3589" />
    </clipPath>
    <clipPath
       clipPathUnits="userSpaceOnUse"
       id="clipPath3603">
      <path
         d="m 1087.29,700.379 146.97,4.68 0.18,-3.239 -147.06,-4.679 -0.09,3.238 m -0.27,8.461 146.97,4.68 0.18,-3.149 -147.06,-4.68 -0.09,3.149 m -0.27,8.551 146.97,4.679 0.18,-3.238 -147.06,-4.684 -0.09,3.243 m 159.57,11.699 17.37,0.629 0.27,-8.278 -17.37,-0.543 -0.27,8.192 m -159.84,-3.238 146.97,4.679 0.18,-3.152 -147.06,-4.68 -0.09,3.153 m -0.27,8.546 146.97,4.68 0.18,-3.238 -147.06,-4.68 -0.09,3.238 m -0.27,8.461 146.97,4.68 0.18,-3.148 -147.06,-4.68 -0.09,3.148 m -0.27,8.551 146.97,4.68 0.18,-3.238 -147.06,-4.68 -0.09,3.238 m -0.27,8.461 146.97,4.68 0.18,-3.153 -147.06,-4.679 -0.09,3.152 m -0.27,8.551 146.97,4.68 0.18,-3.243 -147.06,-4.679 -0.09,3.242 m -0.27,8.457 146.97,4.68 0.18,-3.149 -147.06,-4.68 -0.09,3.149 m 201.87,35.82 -0.81,26.641 -0.54,17.191 c 0,0.18 0,0.36 0,0.629 -0.09,5.488 4.32,10.078 9.81,10.262 l 15.03,0.449 c -0.18,1.078 -0.36,2.07 -0.36,3.059 -0.09,1.082 -0.09,2.07 0.09,2.968 0.09,0.903 0.36,1.711 0.54,2.434 l 0.81,1.797 0.9,1.172 0.81,0.898 -0.45,-0.898 c -0.09,-0.27 -0.09,-0.539 -0.09,-0.903 0,0.364 0,0.633 0.09,0.903 l 0.09,0.179 h 0.18 v -0.269 l 0.18,0.988 -0.09,-0.988 c 0.18,-0.629 0.72,-1.531 1.44,-2.52 1.35,-2.07 3.69,-4.859 6.66,-8.011 0.09,-0.18 0.27,-0.27 0.36,-0.45 l 61.2,1.981 c 1.17,0 2.25,-0.09 3.24,-0.449 2.25,-0.723 4.23,-2.16 5.49,-4.051 -0.09,0 -0.18,0.09 -0.18,0.09 1.08,-1.621 1.8,-3.692 1.89,-5.852 l 1.26,-37.168 0.09,-4.14 0.18,-4.77 -107.73,-3.512 -0.09,2.34 m 30.42,55.442 2.61,0.089 -2.61,-0.089 c -1.62,2.339 -2.88,4.5 -3.78,6.39 0.9,-1.89 2.16,-4.051 3.78,-6.39 m -4.5,0.898 c -0.09,0.27 -0.18,0.633 -0.27,0.902 0.09,-0.269 0.18,-0.632 0.27,-0.902 m 1.35,7.383 c 0.81,-1.352 1.89,-3.152 3.42,-5.133 -1.44,1.981 -2.61,3.781 -3.42,5.133 -0.63,1.168 -0.99,2.066 -1.17,2.789 0.18,-0.723 0.54,-1.621 1.17,-2.789 m -0.72,-3.063 c -0.09,0.09 -0.09,0.27 -0.18,0.36 0.09,-0.09 0.09,-0.27 0.18,-0.36 m -1.71,2.789 v -2.25 2.25 l 0.36,1.711 -0.36,-1.711 m 1.35,-1.976 c 0,0.18 -0.09,0.359 -0.09,0.449 0,-0.09 0.09,-0.269 0.09,-0.449 m 0.45,0.449 c -0.09,0.09 -0.09,0.18 -0.09,0.27 0,-0.09 0,-0.18 0.09,-0.27 m -0.63,0.359 c -0.09,0.18 -0.18,0.45 -0.18,0.629 0,-0.179 0.09,-0.449 0.18,-0.629 m -0.45,3.692 c -0.09,-0.633 -0.18,-1.442 0.09,-2.434 -0.27,1.082 -0.18,1.981 0,2.703 l -0.09,-0.269 m -76.77,40.949 -2.16,0.09 c 7.29,20.519 11.52,44.098 12.24,68.129 v 0.269 c 13.86,20.341 28.8,35.641 44.55,45.271 2.7,-15.21 3.78,-30.96 3.24,-47.071 -0.72,-23.579 -4.95,-46.528 -12.15,-66.508 -8.55,-0.36 -17.1,-0.539 -25.56,-0.539 -6.75,0 -13.5,0.09 -20.16,0.359 m -22.5,5.668 -13.86,0.449 -48.51,1.621 0.72,22.321 0.09,3.601 c 0.18,4.59 4.05,8.188 8.64,8.098 l 34.47,-1.168 c 3.15,-0.09 5.76,2.34 5.85,5.488 v 0.09 l 0.09,3.602 c 0.18,3.058 2.79,5.578 5.85,5.488 l 33.39,-1.168 c -0.09,-1.172 -0.27,-2.34 -0.45,-3.512 h 0.36 c -1.71,-16.379 -5.04,-31.679 -9.63,-45.449 l -17.01,0.539 m -61.56,25.203 c 0.27,1.887 1.17,3.598 2.43,4.949 -1.26,-1.351 -2.16,-3.062 -2.43,-4.949 m 43.38,6.207 c 0.72,0 1.44,0.18 2.07,0.449 -0.63,-0.269 -1.35,-0.449 -2.07,-0.449 m -38.7,0.27 c 1.08,0.543 2.25,0.812 3.51,0.812 -1.26,0 -2.43,-0.269 -3.51,-0.812 m 48.87,14.222 c 0.36,0.09 0.72,0.09 1.08,0.09 -0.36,0 -0.72,0 -1.08,-0.09 m 117.63,13.231 30.51,-0.992 c -0.36,-9.809 -1.35,-18.45 -2.79,-25.918 l -11.16,-0.992 -20.61,-1.801 c 1.98,8.101 3.6,17.91 4.05,29.703 m 15.84,1.437 -15.75,0.539 c 0,1.442 0.09,2.883 0.09,4.321 -0.09,9.811 -0.9,18.361 -2.25,25.471 l 12.69,-1.89 18.81,-2.88 c 0.99,-7.56 1.44,-16.291 1.17,-26.01 l -14.76,0.449 m -230.76,6.481 c 0,1.98 1.62,3.512 3.6,3.422 1.26,-0.09 2.25,-0.813 2.88,-1.801 l 16.47,-0.539 c 0.99,-0.09 1.71,-0.902 1.71,-1.891 -0.09,-0.992 -0.9,-1.711 -1.89,-1.711 l -16.38,0.539 c -0.72,-0.988 -1.8,-1.621 -3.06,-1.621 -1.89,0.094 -3.42,1.711 -3.33,3.602"
         clip-rule="evenodd"
         id="path3601" />
    </clipPath>
    <clipPath
       clipPathUnits="userSpaceOnUse"
       id="clipPath1515-2">
      <path
         d="m 1124.04,1314.92 -42.92,42.25 -3.81,45.79 49.39,-48.61 -1.21,-17.92 -1.45,-21.51"
         id="path1513-9" />
    </clipPath>
  </defs>
  <sodipodi:namedview
     id="base"
     pagecolor="#ffffff"
     bordercolor="#666666"
     borderopacity="1.0"
     inkscape:pageopacity="0.0"
     inkscape:pageshadow="2"
     inkscape:zoom="1.6231341"
     inkscape:cx="396.85039"
     inkscape:cy="413.39775"
     inkscape:document-units="mm"
     inkscape:current-layer="g843"
     inkscape:document-rotation="0"
     showgrid="false"
     units="px"
     inkscape:window-width="3735"
     inkscape:window-height="2126"
     inkscape:window-x="-11"
     inkscape:window-y="-11"
     inkscape:window-maximized="1" />
  <metadata
     id="metadata5">
    <rdf:RDF>
      <cc:Work
         rdf:about="">
        <dc:format>image/svg+xml</dc:format>
        <dc:type
           rdf:resource="http://purl.org/dc/dcmitype/StillImage" />
        <dc:title></dc:title>
      </cc:Work>
    </rdf:RDF>
  </metadata>
  <g
     inkscape:label="Capa 1"
     inkscape:groupmode="layer"
     id="layer1">
    <g
       id="g843"
       transform="matrix(0.03527778,0,0,-0.03527778,8.7672896,219.98217)">
      <path
         d="M -19.066351,6214.4755 C -120.06535,6213.6738 -200.87875,6079.3772 -200.07705,5978.3884 l 5.734,-726.7541 c 0.071,-9.0933 7.4998,-16.4084 16.593,-16.3323 l 332.0016,2.6205 c 9.0932,0.067 16.4002,7.4957 16.3292,16.5898 0,0 -4.8917,721.1055 -4.9424,726.7584 -0.7916,100.9887 -83.715901,233.9964 -184.704701,233.2048"
         style="fill:#1d4c57;fill-opacity:1;fill-rule:nonzero;stroke:none;stroke-width:1.01486"
         id="path1323" />
      <path
         d="m -18.670551,6163.8746 c -86.760499,-0.6901 -156.187199,-116.0595 -155.507199,-202.8199 l 5.4193,-686.0228 c 0.061,-7.8093 6.4444,-14.0894 14.2487,-14.0294 l 285.2267,2.2518 c 7.8043,0.059 14.0863,6.4414 14.0254,14.2517 0,0 -4.6887,681.1637 -4.7293,686.0248 -0.6798,86.7605 -71.923201,201.0237 -158.683601,200.3438"
         style="fill:#3e596e;fill-opacity:1;fill-rule:nonzero;stroke:none;stroke-width:1.01486"
         id="path1325" />
      <path
         d="m 116.06235,5562.0113 -259.9465,-2.05 -2.3849,302.0124 31.6738,34.9112 196.050899,1.5527 32.221801,-34.4138 2.3849,-302.0125"
         style="fill:#d3e4ea;fill-opacity:1;fill-rule:nonzero;stroke:none;stroke-width:1.01486"
         id="path1327" />
      <path
         d="m -140.79895,5859.2134 34.1906,19.2924 180.371299,1.4309 34.495101,-20.1449 -30.872001,32.9626 -187.820399,-1.4816 -30.3646,-32.0594"
         style="fill:#01a6e8;fill-opacity:1;fill-rule:nonzero;stroke:none;stroke-width:1.01486"
         id="path1329" />
      <path
         d="m 110.26755,5604.9298 -249.0368,-1.9689 -1.8166,229.5412 30.3646,32.0493 187.820399,1.4818 30.872101,-32.9628 1.7963,-228.1406 m -221.3615,128.6945 0.7511,-95.9755 191.636199,1.5122 -0.7612,95.9753 -67.2447,46.4807 -57.8775,-0.4567 -66.503799,-47.536"
         style="fill:#afccd7;fill-opacity:1;fill-rule:nonzero;stroke:none;stroke-width:1.01486"
         id="path1331" />
      <path
         d="m -208.83525,5742.3114 c -5.8558,-0.054 -10.5749,-4.8409 -10.5241,-10.7068 l 0.5683,-72.7248 c 0.051,-5.8559 4.8409,-10.575 10.6966,-10.5242 5.8659,0.039 10.585,4.8308 10.5343,10.6966 l -0.5683,72.725 c -0.051,5.866 -4.8409,10.5748 -10.7068,10.5342"
         style="fill:#cc3230;fill-opacity:1;fill-rule:nonzero;stroke:none;stroke-width:1.01486"
         id="path1335" />
      <path
         d="m -210.18505,5913.5287 c -5.8557,-0.053 -10.5748,-4.8308 -10.5241,-10.6967 l 0.5683,-72.7248 c 0.051,-5.866 4.8409,-10.5852 10.6967,-10.5343 5.8659,0.053 10.585,4.8409 10.5342,10.6965 l -0.5784,72.7251 c -0.041,5.8658 -4.8308,10.5849 -10.6967,10.5342"
         style="fill:#cc3230;fill-opacity:1;fill-rule:nonzero;stroke:none;stroke-width:1.01486"
         id="path1337" />
      <path
         d="m 178.12115,5745.3661 c -5.8659,-0.053 -10.5749,-4.8408 -10.5343,-10.7066 l 0.5785,-72.7251 c 0.041,-5.8556 4.8307,-10.5747 10.6966,-10.5342 5.8659,0.054 10.5749,4.8408 10.5343,10.7068 l -0.5785,72.7249 c -0.041,5.8659 -4.8307,10.5749 -10.6966,10.5342"
         style="fill:#cc3230;fill-opacity:1;fill-rule:nonzero;stroke:none;stroke-width:1.01486"
         id="path1343" />
      <path
         d="m 176.77135,5916.5834 c -5.8659,-0.053 -10.5748,-4.8409 -10.5342,-10.6966 l 0.5784,-72.725 c 0.041,-5.8659 4.8308,-10.585 10.6967,-10.5343 5.8557,0.038 10.5748,4.8309 10.5342,10.6967 l -0.5785,72.7249 c -0.051,5.866 -4.8408,10.5749 -10.6966,10.5343"
         style="fill:#cc3230;fill-opacity:1;fill-rule:nonzero;stroke:none;stroke-width:1.01486"
         id="path1345" />
      <path
         d="m 81.293249,5639.161 -191.636199,-1.5122 -0.751,95.9755 66.503799,47.536 57.8775,0.4567 67.2447,-46.4807 0.7612,-95.9753"
         style="fill:#91b6c5;fill-opacity:1;fill-rule:nonzero;stroke:none;stroke-width:1.01486"
         id="path1347" />
      <path
         d="m 95.897049,5543.0943 -219.321599,-1.7253 -0.1522,18.7546 219.331699,1.7253 0.1422,-18.7546"
         style="fill:#183e47;fill-opacity:1;fill-rule:nonzero;stroke:none;stroke-width:1.01486"
         id="path1349" />
      <path
         d="m 26.977849,5484.6788 -51.9,-0.4059 c -10.1993,-0.081 -18.3893,-8.403 -18.3081,-18.6024 l 0.5582,-71.8826 c 0.091,-10.1892 8.4132,-18.3893 18.6024,-18.3081 l 51.9101,0.4161 c 10.1892,0.081 18.3893,8.4031 18.3081,18.5923 l -0.5683,71.8826 c -0.081,10.1993 -8.403,18.3893 -18.6024,18.3081"
         style="fill:#16353d;fill-opacity:1;fill-rule:nonzero;stroke:none;stroke-width:1.01486"
         id="path1351" />
      <path
         d="m -24.891651,5479.9394 c -7.784,-0.061 -14.0762,-6.4444 -14.0153,-14.2284 l 0.5684,-71.8825 c 0.061,-7.7941 6.4546,-14.0762 14.2386,-14.0153 l 51.9101,0.4162 c 7.784,0.061 14.066,6.4443 14.0051,14.2283 l -0.5684,71.8826 c -0.061,7.784 -6.4444,14.0762 -14.2284,14.0051 l -51.9101,-0.4059 m 52.7626,-108.377 -51.9,-0.406 c -12.5741,-0.1015 -22.875,10.037 -22.9663,22.601 l -0.5683,71.8826 c -0.1015,12.564 10.0369,22.8648 22.6009,22.9663 l 51.9102,0.4059 c 12.5639,0.1015 22.8648,-10.0369 22.9663,-22.6009 l 0.5683,-71.8826 c 0.1015,-12.564 -10.0471,-22.8649 -22.611,-22.9663"
         style="fill:#36606e;fill-opacity:1;fill-rule:nonzero;stroke:none;stroke-width:1.01486"
         id="path1353" />
      <path
         d="m 41.815149,5394.3461 c 0,-0.061 0,-0.1218 0,-0.1827 0,0 0,0 0,-0.01 0,-0.02 0,-0.051 0,-0.081 0,0 0,0 0,-0.01 0,-0.02 0,-0.051 0,-0.071 0,-0.01 -0.01,-0.02 -0.01,-0.031 0,-0.02 0,-0.041 0,-0.061 0,-0.01 0,-0.02 0,-0.03 0,-0.02 0,-0.03 0,-0.051 0,-0.01 0,-0.03 0,-0.041 0,-0.01 0,-0.031 0,-0.041 0,-0.02 0,-0.03 -0.01,-0.051 0,-0.01 0,-0.02 0,-0.041 0,-0.01 0,-0.03 0,-0.051 0,-0.01 0,-0.02 0,-0.02 0,-0.03 0,-0.051 0,-0.071 -0.01,0 -0.01,-0.01 -0.01,-0.01 -0.4059,-6.8808 -5.805,-12.4016 -12.635,-13.1223 l 0.1318,1.3499 -0.5683,71.8825 c -0.061,7.7841 -6.4443,14.0763 -14.2385,14.0154 l -51.9,-0.4162 -1.3497,-0.1421 c 0.5987,6.8097 6.0181,12.29 12.8582,12.838 0,0 0,0 0.01,0 0.02,0 0.041,0 0.071,0 h 0.01 c 0.03,0 0.051,0.01 0.071,0.01 0.01,0 0.02,0 0.02,0 0.02,0 0.041,0 0.061,0 0.01,0 0.02,0 0.031,0 0.02,0.01 0.03,0.01 0.051,0.01 0.01,0 0.03,0 0.051,0 0.01,0 0.02,0 0.03,0 0.02,0 0.041,0 0.061,0 0.01,0.01 0.02,0.01 0.03,0.01 0.02,0 0.03,0 0.051,0 0.01,0 0.02,0 0.03,0 0.02,0 0.041,0 0.061,0 0.01,0 0.02,0 0.03,0 0.02,0 0.051,0 0.071,0.01 0,0 0.01,0 0.02,0 0.02,0 0.051,0 0.071,0 0.01,0 0.01,0 0.01,0 0.061,0 0.1218,0 0.1827,0 v 0 l 51.9101,0.4059 c 0.03,0.01 0.061,0.01 0.091,0.01 7.7434,0.01 14.0762,-6.2617 14.1371,-14.0153 l 0.5683,-71.8826 c 0,-0.041 0,-0.071 0,-0.1116"
         style="fill:#122f38;fill-opacity:1;fill-rule:nonzero;stroke:none;stroke-width:1.01486"
         id="path1355" />
      <path
         d="m 41.815149,5394.3461 c 0,-0.061 0,-0.1218 0,-0.1827 0,0.061 0,0.1218 0,0.1827 0,0.041 0,0.071 0,0.1116 l -0.5683,71.8826 c -0.061,7.7536 -6.3937,14.0254 -14.1371,14.0153 7.7434,0.01 14.0762,-6.2617 14.1371,-14.0153 l 0.5683,-71.8826 c 0,-0.041 0,-0.071 0,-0.1116 m 0,-0.1928 c 0,-0.02 0,-0.051 0,-0.081 0,0.03 0,0.061 0,0.081 m 0,-0.091 c 0,-0.02 0,-0.051 0,-0.071 0,0.02 0,0.051 0,0.071 m -0.01,-0.1015 c 0,-0.02 0,-0.041 0,-0.061 0,0.02 0,0.041 0,0.061 m 0,-0.091 c 0,-0.02 0,-0.03 0,-0.051 0,0.02 0,0.03 0,0.051 m 0,-0.091 c 0,-0.01 0,-0.031 0,-0.041 0,0.01 0,0.03 0,0.041 m -0.01,-0.091 c 0,-0.01 0,-0.02 0,-0.041 0,0.02 0,0.03 0,0.041 m 0,-0.091 c 0,-0.01 0,-0.02 0,-0.02 0,0 0,0.01 0,0.02 m 0,-0.091 -0.01,-0.01 c 0,0 0,0.01 0.01,0.01 m -66.6865,86.4357 c -0.061,0 -0.1218,0 -0.1827,0 0.061,0 0.1218,0 0.1827,0 m -0.1928,0 c -0.02,0 -0.051,0 -0.071,0 0.02,0 0.051,0 0.071,0 m -0.091,0 c -0.02,-0.01 -0.051,-0.01 -0.071,-0.01 0.02,0 0.051,0 0.071,0.01 m -0.1015,-0.01 c -0.02,0 -0.041,0 -0.061,0 0.02,0 0.041,0 0.061,0 m -0.091,0 c -0.02,0 -0.03,0 -0.051,0 0.02,0 0.03,0 0.051,0 m -0.081,-0.01 c -0.02,0 -0.041,0 -0.061,0 0.02,0 0.041,0 0.061,0 m -0.091,0 c -0.02,0 -0.041,0 -0.051,0 0.01,0 0.031,0 0.051,0 m -0.1014,-0.01 c -0.01,0 -0.02,0 -0.031,0 0.01,0 0.02,0 0.031,0 m -0.091,0 c 0,0 -0.01,0 -0.02,0 0.01,0 0.02,0 0.02,0 m -0.091,-0.01 h -0.01 0.01 m -0.081,0 c -0.01,0 -0.01,0 -0.01,0 h 0.01"
         style="fill:#2d5665;fill-opacity:1;fill-rule:nonzero;stroke:none;stroke-width:1.01486"
         id="path1357" />
      <path
         d="m 16.057949,6089.739 c 0.1624,-20.2973 -14.8473998,-55.7869 -33.7035,-55.9392 -18.8562,-0.1423 -34.4241,35.1041 -34.5865,55.4013 -0.1522,20.3074 14.9996,36.88 33.8558,37.0323 18.85610023,0.1424 34.282,-16.1871 34.4342,-36.4944"
         style="fill:#cc3230;fill-opacity:1;fill-rule:nonzero;stroke:none;stroke-width:1.01486"
         id="path1369" />
      <path
         d="m 16.057949,6089.4244 v 0 c 0,0.1014 0,0.2131 0,0.3144 v 0 0 c 0,-0.1015 0,-0.2132 0,-0.3144"
         style="fill:#304455;fill-opacity:1;fill-rule:nonzero;stroke:none;stroke-width:1.01486"
         id="path1371" />
      <path
         d="m 16.057949,6089.4244 c 0,-20.3582 -14.9488998,-55.4723 -33.7035,-55.6246 v 0 c -0.041,0 -0.071,0 -0.1117,0 -18.8053,-0.01 -34.3124,35.1447 -34.4748,55.4013 l 0.061,1.5832 c 4.6176,-20.1958 22.3066,-48.1349 39.5187,-46.1052 17.0192002,2.0196 27.6448,32.6989 27.6448,53.402 0,0.1218 0,0.2336 0,0.3448 0.6495,-2.7807 1.0453,-5.6832 1.0656,-8.6872 v 0 c 0,-0.1015 0,-0.2132 0,-0.3144"
         style="fill:#9d2625;fill-opacity:1;fill-rule:nonzero;stroke:none;stroke-width:1.01486"
         id="path1373" />
      <path
         d="m 70.079049,5898.3463 -173.297699,-1.3701 -0.4059,51.9102 173.297699,1.3701 0.4059,-51.9102"
         style="fill:#183e47;fill-opacity:1;fill-rule:nonzero;stroke:none;stroke-width:1.01486"
         id="path1375" />
      <path
         d="m 56.368249,5898.2347 -145.8761,-1.1467 -0.345,43.6898 145.8761,1.1569 0.345,-43.7"
         style="fill:#36606e;fill-opacity:1;fill-rule:nonzero;stroke:none;stroke-width:1.01486"
         id="path1377" />
      <path
         d="m -218.93315,5677.6445 21.2309,0.1728 -0.2842,35.1954 -21.2308,-0.1622 0.2841,-35.2054"
         style="fill:#ffffff;fill-opacity:1;fill-rule:nonzero;stroke:none;stroke-width:1.01486"
         id="path1379" />
      <path
         d="m -220.29305,5848.8618 21.2309,0.1727 -0.274,35.2056 -21.2309,-0.1729 0.274,-35.2055"
         style="fill:#ffffff;fill-opacity:1;fill-rule:nonzero;stroke:none;stroke-width:1.01486"
         id="path1381" />
      <path
         d="m 166.66335,5851.9164 21.2309,0.1728 -0.274,35.1954 -21.2309,-0.1621 0.274,-35.2055"
         style="fill:#ffffff;fill-opacity:1;fill-rule:nonzero;stroke:none;stroke-width:1.01486"
         id="path1383" />
      <path
         d="m 168.01315,5680.6992 21.2309,0.1622 -0.2741,35.2054 -21.2309,-0.1621 0.2741,-35.2056"
         style="fill:#ffffff;fill-opacity:1;fill-rule:nonzero;stroke:none;stroke-width:1.01486"
         id="path1385" />
      <path
         d="m 144.74235,5277.506 c 0.051,-5.7287 -3.3389,-10.664 -8.2204,-12.9242 -2.1819,-4.915 -7.0634,-8.3806 -12.7974,-8.4244 l -285.2165,-2.2509 c -7.8145,-0.06 -14.1878,6.22 -14.2588,14.0335 l -5.4093,686.0208 c -0.4363,55.3201 27.655,122.2298 70.5532,163.6666 25.696299,27.5331 57.441099,45.9732 91.936299,46.2472 86.7604,0.6796 158.003701,-113.5833 158.683601,-200.3438 0.041,-4.8611 4.7293,-686.0248 4.7293,-686.0248 m -170.801101,929.8655 c -36.7685,-0.2838 -70.8475,-18.3284 -99.304199,-45.9732 -45.7296,-48.5408 -75.2012,-121.8544 -74.7141,-183.0099 l 5.734,-726.7541 c 0.071,-9.0933 7.4998,-16.4084 16.593,-16.3323 l 332.0016,2.6205 c 2.7199,0.019 5.2469,0.7651 7.4999,1.9577 1.1569,2.2721 1.8673,4.8094 1.847,7.5362 0,0 -4.8916,721.1076 -4.9424,726.7604 -0.7916,100.9888 -83.715901,233.9965 -184.714801,233.1947"
         style="fill:#16353d;fill-opacity:1;fill-rule:nonzero;stroke:none;stroke-width:1.01486"
         id="path1387" />
      <path
         d="m 116.00145,5569.7953 -259.9465,-2.0501 -0.2232,27.4317 259.9466,2.0501 0.2231,-27.4317"
         style="fill:#183e47;fill-opacity:1;fill-rule:nonzero;stroke:none;stroke-width:1.01486"
         id="path1459" />
      <path
         d="m 74.615449,5879.4394 v 0 l -0.8525,0.4971 0.8525,-0.4971"
         style="fill:#e8f1f4;fill-opacity:1;fill-rule:nonzero;stroke:none;stroke-width:1.01486"
         id="path1465" />
      <path
         d="m 82.419749,5887.3758 -7.8043,-7.9364 -0.8525,0.4971 -134.5807,-1.0656 12.6857,12.8888 125.5181,0.9945 5.0337,-5.3787"
         style="fill:#04cef3;fill-opacity:1;fill-rule:nonzero;stroke:none;stroke-width:1.01486"
         id="path1467" />
      <path
         d="m -25.835551,5960.7807 -77.880399,-0.6089 -0.3248,40.432 77.880499,0.6189 0.3247,-40.4422"
         style="fill:#36606e;fill-opacity:1;fill-rule:nonzero;stroke:none;stroke-width:1.01486"
         id="path1469" />
      <path
         d="m -29.823951,5962.8103 -69.934,-0.548 -0.294399,36.3117 69.944299,0.548 0.2841,-36.3117"
         style="fill:#183e47;fill-opacity:1;fill-rule:nonzero;stroke:none;stroke-width:1.01486"
         id="path1471" />
      <path
         d="m -93.374551,5964.6675 -3.5215,-0.023 -0.2537,31.5927 3.5216,0.023 0.2536,-31.5927"
         style="fill:#16353d;fill-opacity:1;fill-rule:nonzero;stroke:none;stroke-width:1.01486"
         id="path1473" />
      <path
         d="m -84.717751,5964.7386 -3.5216,-0.03 -0.2435,31.5925 3.5215,0.03 0.2436,-31.5926"
         style="fill:#16353d;fill-opacity:1;fill-rule:nonzero;stroke:none;stroke-width:1.01486"
         id="path1475" />
      <path
         d="m -76.050851,5964.8096 -3.5216,-0.03 -0.2435,31.5927 3.5215,0.031 0.2436,-31.5927"
         style="fill:#16353d;fill-opacity:1;fill-rule:nonzero;stroke:none;stroke-width:1.01486"
         id="path1477" />
      <path
         d="m -67.383951,5964.8806 -3.5215,-0.03 -0.2537,31.5926 3.5216,0.023 0.2536,-31.5824"
         style="fill:#16353d;fill-opacity:1;fill-rule:nonzero;stroke:none;stroke-width:1.01486"
         id="path1479" />
      <path
         d="m -58.717051,5964.9415 -3.5215,-0.023 -0.2536,31.5824 3.5215,0.03 0.2536,-31.5926"
         style="fill:#16353d;fill-opacity:1;fill-rule:nonzero;stroke:none;stroke-width:1.01486"
         id="path1481" />
      <path
         d="m -50.060251,5965.0126 -3.5114,-0.03 -0.2536,31.5925 3.5215,0.03 0.2436,-31.5926"
         style="fill:#16353d;fill-opacity:1;fill-rule:nonzero;stroke:none;stroke-width:1.01486"
         id="path1483" />
      <path
         d="m -41.393351,5965.0836 -3.5216,-0.03 -0.2435,31.5928 3.5215,0.03 0.2436,-31.5927"
         style="fill:#16353d;fill-opacity:1;fill-rule:nonzero;stroke:none;stroke-width:1.01486"
         id="path1485" />
      <path
         d="m -32.726451,5965.1546 -3.5215,-0.03 -0.2436,31.5926 3.5114,0.022 0.2537,-31.5825"
         style="fill:#16353d;fill-opacity:1;fill-rule:nonzero;stroke:none;stroke-width:1.01486"
         id="path1487" />
      <path
         d="m 69.581749,5961.5316 -77.8804998,-0.609 -0.3145,40.4321 77.8702998,0.6188 0.3249,-40.4423"
         style="fill:#36606e;fill-opacity:1;fill-rule:nonzero;stroke:none;stroke-width:1.01486"
         id="path1489" />
      <path
         d="m 65.593349,5963.5613 -69.9340998,-0.548 -0.2841,36.3118 69.9340998,0.548 0.2841,-36.3118"
         style="fill:#183e47;fill-opacity:1;fill-rule:nonzero;stroke:none;stroke-width:1.01486"
         id="path1491" />
      <path
         d="m 2.0427492,5965.4286 -3.5216,-0.03 -0.2536,31.5926 3.5216,0.022 0.2536,-31.5824"
         style="fill:#16353d;fill-opacity:1;fill-rule:nonzero;stroke:none;stroke-width:1.01486"
         id="path1493" />
      <path
         d="m 10.699449,5965.4895 -3.5113998,-0.023 -0.2536,31.5825 3.5215998,0.03 0.2435,-31.5926"
         style="fill:#16353d;fill-opacity:1;fill-rule:nonzero;stroke:none;stroke-width:1.01486"
         id="path1495" />
      <path
         d="m 19.366449,5965.5607 -3.5216,-0.03 -0.2436,31.5925 3.5216,0.031 0.2436,-31.5925"
         style="fill:#16353d;fill-opacity:1;fill-rule:nonzero;stroke:none;stroke-width:1.01486"
         id="path1497" />
      <path
         d="m 28.033349,5965.6316 -3.5216,-0.03 -0.2436,31.5927 3.5114,0.03 0.2538,-31.5927"
         style="fill:#16353d;fill-opacity:1;fill-rule:nonzero;stroke:none;stroke-width:1.01486"
         id="path1499" />
      <path
         d="m 36.700249,5965.7026 -3.5216,-0.03 -0.2536,31.5926 3.5216,0.023 0.2536,-31.5825"
         style="fill:#16353d;fill-opacity:1;fill-rule:nonzero;stroke:none;stroke-width:1.01486"
         id="path1501" />
      <path
         d="m 45.367149,5965.7635 -3.5216,-0.023 -0.2536,31.5825 3.5216,0.03 0.2536,-31.5926"
         style="fill:#16353d;fill-opacity:1;fill-rule:nonzero;stroke:none;stroke-width:1.01486"
         id="path1503" />
      <path
         d="m 54.023949,5965.8347 -3.5115,-0.03 -0.2536,31.5926 3.5216,0.03 0.2436,-31.5925"
         style="fill:#16353d;fill-opacity:1;fill-rule:nonzero;stroke:none;stroke-width:1.01486"
         id="path1505" />
      <path
         d="m 62.690849,5965.9056 -3.5216,-0.03 -0.2436,31.5927 3.5216,0.03 0.2436,-31.5927"
         style="fill:#16353d;fill-opacity:1;fill-rule:nonzero;stroke:none;stroke-width:1.01486"
         id="path1507" />
      <path
         d="m 4.0318492,6092.8343 c 0.1015,-12.2291 -9.7325,-22.2255 -21.9616002,-22.3168 -12.2291,-0.1015 -22.2255,9.7427 -22.3269,21.9717 -0.091,12.2291 9.7426,22.2154 21.9717,22.3168 12.2291002,0.091 22.2255002,-9.7426 22.3168002,-21.9717"
         style="fill:#ffffff;fill-opacity:1;fill-rule:nonzero;stroke:none;stroke-width:1.01486"
         id="path1527" />
      <path
         d="m -2.4835508,6092.7836 c 0.061,-8.6264 -6.8706,-15.6797 -15.4969002,-15.7405 -8.6365,-0.068 -15.6796,6.8706 -15.7507,15.4969 -0.071,8.6263 6.8706,15.6796 15.4969,15.7405 8.6264002,0.069 15.6797002,-6.8706 15.7507002,-15.4969"
         style="fill:#cc3230;fill-opacity:1;fill-rule:nonzero;stroke:none;stroke-width:1.01486"
         id="path1529" />
      <path
         d="m 13.287349,5781.617 -57.8775,-0.4567 -66.503799,-47.536 66.605299,35.3374 57.8674,0.4567 67.1533,-34.2821 -67.2447,46.4807"
         style="fill:#8a4301;fill-opacity:1;fill-rule:nonzero;stroke:none;stroke-width:1.01486"
         id="path1547" />
      <path
         d="m -44.590151,5781.1603 -15.1519,37.4585 -78.397999,-61.7034 27.0461,-23.2911 66.503799,47.536"
         style="fill:#bc5b01;fill-opacity:1;fill-rule:nonzero;stroke:none;stroke-width:1.01486"
         id="path1549" />
      <path
         d="m 13.338149,5781.617 14.5531,37.6919 79.372301,-60.4552 -26.680701,-23.7174 -67.2447,46.4807"
         style="fill:#bc5b01;fill-opacity:1;fill-rule:nonzero;stroke:none;stroke-width:1.01486"
         id="path1551" />
      <path
         d="m 81.090249,5664.8369 -191.636199,-1.512 -0.274,35.378 191.625999,1.5121 0.2842,-35.3781"
         style="fill:#8a4301;fill-opacity:1;fill-rule:nonzero;stroke:none;stroke-width:1.01486"
         id="path1553" />
      <path
         d="m 80.917749,5686.1389 -191.626099,-1.5122 -0.1421,18.0544 191.626099,1.5121 0.1421,-18.0543"
         style="fill:#bc5b01;fill-opacity:1;fill-rule:nonzero;stroke:none;stroke-width:1.01486"
         id="path1555" />
      <path
         d="m -102.88375,5878.5362 -3.826,12.7568 -3.7246,-0.023 3.826,-12.767 3.7246,0.031"
         style="fill:#d3e4ea;fill-opacity:1;fill-rule:nonzero;stroke:none;stroke-width:1.01486"
         id="path1557" />
      <path
         d="m 70.038449,5879.9063 3.6129,12.8177 3.7245,0.03 -3.623,-12.8177 -3.7144,-0.03"
         style="fill:#d3e4ea;fill-opacity:1;fill-rule:nonzero;stroke:none;stroke-width:1.01486"
         id="path1559" />
      <path
         d="m 229.29045,5648.1222 c 0,-0.01 0,0 0,-0.01 v 0.01 m -0.2536,-1.8369 v 0 0 m -0.2336,-1.8064 c 0,-0.023 -0.01,-0.037 -0.01,-0.061 0,0.023 0.01,0.038 0.01,0.061 m -0.2435,-1.8572 c 0,-0.01 0,-0.023 0,-0.03 0,0.023 0,0.023 0,0.03 m -0.071,-0.5884 c 0,-0.023 -0.01,-0.038 -0.01,-0.061 0,0.023 0.01,0.038 0.01,0.061 m -0.1623,-1.2583 v -0.01 c 0,0 0,0 0,0.01 m -0.071,-0.5886 c 0,-0.023 0,-0.037 -0.01,-0.061 0.01,0.023 0.01,0.037 0.01,0.061 m -0.2232,-1.847 c -0.01,-0.03 -0.01,-0.039 -0.01,-0.069 0,0.023 0,0.053 0.01,0.069 m -0.081,-0.6189 c 0,-0.023 0,-0.023 0,-0.037 0,0.01 0,0.03 0,0.037 m -0.1421,-1.2482 c -0.01,-0.023 -0.01,-0.023 -0.01,-0.038 0,0.01 0.01,0.03 0.01,0.038 m -0.071,-0.599 c 0,-0.023 -0.01,-0.038 -0.01,-0.061 0,0.023 0.01,0.037 0.01,0.061 m -0.1522,-1.2686 c 0,-0.01 0,-0.023 0,-0.03 0,0.01 0,0.023 0,0.03 m -0.071,-0.6089 c 0,-0.01 0,-0.03 0,-0.038 0,0.023 0,0.03 0,0.038 m -0.1421,-1.2584 c 0,-0.01 0,0 0,-0.01 v 0.01 m -0.061,-0.5785 c 0,-0.03 -0.01,-0.061 -0.01,-0.091 0,0.03 0.01,0.061 0.01,0.091 m -0.1421,-1.2889 v -0.01 c 0,0.01 0,0.01 0,0.01 m -0.061,-0.5882 c -0.01,-0.03 -0.01,-0.061 -0.01,-0.091 0,0.037 0,0.061 0.01,0.091 m -0.071,-0.5992 c 0,-0.03 0,-0.054 -0.01,-0.081 0.01,0.023 0.01,0.053 0.01,0.081 m -0.1319,-1.2787 c 0,-0.022 -0.01,-0.053 -0.01,-0.068 0,0.023 0.01,0.053 0.01,0.068 m -0.061,-0.5989 c -0.01,-0.03 -0.01,-0.061 -0.01,-0.091 0,0.038 0,0.053 0.01,0.091 m -0.1319,-1.2888 c -0.01,-0.023 -0.01,-0.039 -0.01,-0.061 0,0.023 0,0.039 0.01,0.061 m -0.061,-0.5885 c -0.01,-0.039 -0.01,-0.061 -0.01,-0.1015 0,0.03 0,0.069 0.01,0.1015 m -0.071,-0.6796 v 0 0 m -0.061,-0.6296 v 0 0 m -0.061,-0.5989 c 0,-0.023 0,-0.03 -0.01,-0.054 0.01,0.01 0.01,0.031 0.01,0.054 m -0.061,-0.6494 c 0,-0.01 0,0 0,-0.01 v 0.01 m -0.1218,-1.2279 c 0,-0.03 0,-0.061 -0.01,-0.091 0.01,0.03 0.01,0.061 0.01,0.091 m -0.061,-0.6393 c 0,-0.023 0,-0.023 0,-0.038 0,0.01 0,0.023 0,0.038 m -0.1217,-1.2687 c 0,-0.023 0,-0.03 0,-0.054 0,0.01 0,0.03 0,0.054 m -0.051,-0.6089 c 0,-0.03 0,-0.039 -0.01,-0.069 0,0.023 0.01,0.053 0.01,0.069 m -0.1218,-1.299 c 0,-0.01 0,-0.023 0,-0.03 0,0.01 0,0.023 0,0.03 m -0.051,-0.6089 c 0,-0.01 0,-0.053 0,-0.061 0,0.023 0,0.039 0,0.061 m -0.1624,-1.8876 c 0,-0.031 -0.01,-0.061 -0.01,-0.091 0,0.031 0.01,0.061 0.01,0.091 m -0.051,-0.6295 c -0.01,-0.031 -0.01,-0.038 -0.01,-0.069 0,0.03 0,0.054 0.01,0.069 m -0.1125,-1.299 c 0,-0.023 0,-0.03 0,-0.053 0,0.023 0,0.037 0,0.053 m -0.051,-0.6187 c 0,-0.023 0,-0.038 0,-0.061 0,0.023 0,0.054 0,0.061 m -0.1015,-1.2889 c 0,-0.023 0,-0.03 -0.01,-0.053 0.01,0.023 0.01,0.03 0.01,0.053 m -0.051,-0.6089 c 0,-0.023 0,-0.061 -0.01,-0.081 0.01,0.023 0.01,0.054 0.01,0.081 m -0.051,-0.66 c 0,-0.01 0,-0.022 0,-0.03 0,0.01 0,0.023 0,0.03 m -0.051,-0.6598 c 0,-0.01 0,-0.01 0,-0.023 v 0.023 m -0.041,-0.5884 c -0.01,-0.039 -0.01,-0.061 -0.01,-0.1015 0,0.037 0,0.061 0.01,0.1015 m -0.051,-0.6699 c 0,-0.01 0,-0.023 0,-0.03 0,0.01 0,0.023 0,0.03 m -0.091,-1.2583 c 0,-0.03 -0.01,-0.068 -0.01,-0.1015 0,0.038 0.01,0.069 0.01,0.1015 m -0.051,-0.6188 c 0,-0.039 0,-0.061 0,-0.1015 0,0.038 0,0.069 0,0.1015 m -0.091,-1.3092 c 0,-0.03 0,-0.069 0,-0.1015 0,0.03 0,0.069 0,0.1015 m -0.041,-0.6188 c 0,-0.039 0,-0.061 0,-0.091 0,0.03 0,0.053 0,0.091 m -0.091,-1.3396 v -0.01 0.01 m -0.041,-0.5991 c 0,-0.03 0,-0.061 0,-0.091 0,0.03 0,0.061 0,0.091 m -0.1218,-1.9485 c 0,-0.03 0,-0.038 0,-0.069 0,0.023 0,0.053 0,0.069 m -0.041,-0.6492 c 0,-0.023 0,-0.023 0,-0.038 0,0.01 0,0.03 0,0.038 m -0.071,-1.2787 c 0,-0.03 0,-0.061 -0.01,-0.091 0.01,0.03 0.01,0.061 0.01,0.091 m -0.041,-0.6394 c 0,-0.03 0,-0.037 0,-0.069 0,0.023 0,0.054 0,0.069 m -0.071,-1.3193 c 0,-0.023 0,-0.038 0,-0.069 0,0.023 0,0.054 0,0.069 m -0.03,-0.5991 c -0.01,-0.037 -0.01,-0.081 -0.01,-0.1218 0,0.038 0,0.091 0.01,0.1218 m -0.071,-1.3497 c -0.01,-0.023 -0.01,-0.037 -0.01,-0.061 0,0.023 0,0.037 0.01,0.061 m -0.041,-0.6089 c 0,-0.037 0,-0.061 0,-0.1015 0,0.038 0,0.061 0,0.1015 m -0.03,-0.66 c 0,-0.01 0,-0.054 0,-0.061 0,0.023 0,0.038 0,0.061 m -0.061,-1.2889 c 0,-0.054 0,-0.069 -0.01,-0.1117 0,0.03 0.01,0.068 0.01,0.1117 m -0.03,-0.6598 c 0,-0.023 0,-0.039 -0.01,-0.061 0.01,0.022 0.01,0.038 0.01,0.061 m -0.061,-1.3091 c 0,-0.031 -0.01,-0.069 -0.01,-0.1015 0,0.03 0.01,0.069 0.01,0.1015 m -0.03,-0.619 c 0,-0.038 0,-0.069 0,-0.1117 0,0.03 0,0.081 0,0.1117 m -0.061,-1.3498 c 0,-0.03 0,-0.054 0,-0.081 0,0.03 0,0.053 0,0.081 m -0.02,-0.6295 c 0,-0.03 0,-0.061 -0.01,-0.091 0,0.023 0.01,0.061 0.01,0.091 m -0.03,-0.7002 v 0 0 m -0.02,-0.6295 c -0.01,-0.03 -0.01,-0.069 -0.01,-0.1014 0,0.03 0,0.061 0.01,0.1014 m -0.03,-0.6089 c 0,-0.061 0,-0.1015 0,-0.1522 0,0.053 0,0.1015 0,0.1522 m -0.02,-0.6493 c 0,-0.03 0,-0.081 -0.01,-0.1118 0.01,0.039 0.01,0.081 0.01,0.1118 m -0.031,-0.7101 c 0,-0.03 0,-0.069 0,-0.1015 0,0.038 0,0.061 0,0.1015 m -0.02,-0.6089 c 0,-0.061 0,-0.1119 0,-0.1622 0,0.054 0,0.1015 0,0.1622 m -0.02,-0.6295 c 0,-0.053 0,-0.091 0,-0.1423 0,0.038 0,0.091 0,0.1423"
         style="fill:#013547;fill-opacity:1;fill-rule:nonzero;stroke:none;stroke-width:1.01486"
         id="path2865" />
    </g>
  </g>
</svg>
