<?xml version="1.0" encoding="UTF-8" standalone="no"?>
<svg
   xmlns:dc="http://purl.org/dc/elements/1.1/"
   xmlns:cc="http://creativecommons.org/ns#"
   xmlns:rdf="http://www.w3.org/1999/02/22-rdf-syntax-ns#"
   xmlns:svg="http://www.w3.org/2000/svg"
   xmlns="http://www.w3.org/2000/svg"
   xmlns:sodipodi="http://sodipodi.sourceforge.net/DTD/sodipodi-0.dtd"
   xmlns:inkscape="http://www.inkscape.org/namespaces/inkscape"
   width="60"
   height="120"
   viewBox="0 0 15.875 31.75"
   version="1.1"
   id="svg8"
   inkscape:version="1.0.1 (3bc2e813f5, 2020-09-07)"
   sodipodi:docname="unspecified.svg">
  <defs
     id="defs2" />
  <sodipodi:namedview
     id="base"
     pagecolor="#ffffff"
     bordercolor="#666666"
     borderopacity="1.0"
     inkscape:pageopacity="0.0"
     inkscape:pageshadow="2"
     inkscape:zoom="6.125"
     inkscape:cx="-22.089066"
     inkscape:cy="79.591837"
     inkscape:document-units="mm"
     inkscape:current-layer="layer1"
     inkscape:document-rotation="0"
     showgrid="false"
     units="px"
     inkscape:window-width="3736"
     inkscape:window-height="2126"
     inkscape:window-x="-11"
     inkscape:window-y="-11"
     inkscape:window-maximized="1" />
  <metadata
     id="metadata5">
    <rdf:RDF>
      <cc:Work
         rdf:about="">
        <dc:format>image/svg+xml</dc:format>
        <dc:type
           rdf:resource="http://purl.org/dc/dcmitype/StillImage" />
        <dc:title />
      </cc:Work>
    </rdf:RDF>
  </metadata>
  <g
     inkscape:label="Capa 1"
     inkscape:groupmode="layer"
     id="layer1">
    <path
       d="m 12.646109,30.373145 v -4.300303 h 0.0027 l 0.807824,-12.662357 c 0.102476,-0.797053 0.158381,-1.628668 0.158381,-2.485027 0,-3.8426587 -3.266038,-8.1952789 -4.4776211,-10.01962119 -0.5645265,-0.84993713 -1.5846712,-0.84993713 -2.1492943,0 C 5.7771802,2.7301791 2.5104802,7.0827993 2.5104802,10.925458 c 0,0.856359 0.055792,1.687974 0.1583816,2.485027 l 0.807921,12.662357 h 0.0025 v 4.300303 c 0,0.472375 0.1563232,0.908678 0.4191103,1.265273 h 8.3291119 c 0.262805,-0.356595 0.41847,-0.792898 0.41847,-1.265273"
       style="fill:#f9f9f9;fill-opacity:1;fill-rule:nonzero;stroke:#0dc500;stroke-width:0.275858;stroke-miterlimit:4;stroke-dasharray:none;stroke-opacity:0"
       id="path835" />
    <path
       d="m 12.39024,30.138002 v -4.181133 h 0.0026 L 13.157153,13.64541 c 0.09696,-0.774965 0.149851,-1.583534 0.149851,-2.416162 0,-3.736172 -3.090123,-7.9681727 -4.2364458,-9.741959 -0.5341196,-0.82638368 -1.4993167,-0.82638368 -2.0335274,0 -1.1456951,1.7737863 -4.2364423,6.005787 -4.2364423,9.741959 0,0.832628 0.052794,1.641197 0.149851,2.416162 l 0.7644047,12.311459 h 0.00243 v 4.181133 c 0,0.459285 0.1479038,0.883496 0.3965352,1.23021 h 7.8804826 c 0.24865,-0.346714 0.39593,-0.770925 0.39593,-1.23021"
       style="fill:#4682b4;fill-opacity:1;fill-rule:nonzero;stroke:#0dc500;stroke-width:0.264583;stroke-miterlimit:4;stroke-dasharray:none;stroke-opacity:0"
       id="path963" />
  </g>
</svg>
